  0
SECTION
  2
BLOCKS
  0
ENDSEC
  0
SECTION
  2
ENTITIES
  0
LINE
  8
0
 10
17.6279
 20
20.0197
 11
18.2533
 21
20.0789
  0
LINE
  8
0
 10
18.2533
 20
20.0789
 11
18.8738
 21
20.1771
  0
LINE
  8
0
 10
18.8738
 20
20.1771
 11
19.4869
 21
20.3142
  0
LINE
  8
0
 10
19.4869
 20
20.3142
 11
20.0902
 21
20.4894
  0
LINE
  8
0
 10
20.0902
 20
20.4894
 11
20.6812
 21
20.7022
  0
LINE
  8
0
 10
20.6812
 20
20.7022
 11
21.2578
 21
20.9517
  0
LINE
  8
0
 10
21.2578
 20
20.9517
 11
21.8175
 21
21.2369
  0
LINE
  8
0
 10
21.8175
 20
21.2369
 11
22.3583
 21
21.5567
  0
LINE
  8
0
 10
22.3583
 20
21.5567
 11
22.8778
 21
21.9098
  0
LINE
  8
0
 10
22.8778
 20
21.9098
 11
23.3742
 21
22.2949
  0
LINE
  8
0
 10
23.3742
 20
22.2949
 11
23.8455
 21
22.7103
  0
LINE
  8
0
 10
23.8455
 20
22.7103
 11
24.2897
 21
23.1545
  0
LINE
  8
0
 10
24.2897
 20
23.1545
 11
24.7051
 21
23.6258
  0
LINE
  8
0
 10
24.7051
 20
23.6258
 11
25.0902
 21
24.1222
  0
LINE
  8
0
 10
25.0902
 20
24.1222
 11
25.4433
 21
24.6417
  0
LINE
  8
0
 10
25.4433
 20
24.6417
 11
25.7631
 21
25.1825
  0
LINE
  8
0
 10
25.7631
 20
25.1825
 11
26.0483
 21
25.7422
  0
LINE
  8
0
 10
26.0483
 20
25.7422
 11
26.2978
 21
26.3188
  0
LINE
  8
0
 10
26.2978
 20
26.3188
 11
26.5106
 21
26.9098
  0
LINE
  8
0
 10
26.5106
 20
26.9098
 11
26.6858
 21
27.5131
  0
LINE
  8
0
 10
26.6858
 20
27.5131
 11
26.8229
 21
28.1262
  0
LINE
  8
0
 10
26.8229
 20
28.1262
 11
26.9211
 21
28.7467
  0
LINE
  8
0
 10
26.9211
 20
28.7467
 11
26.9803
 21
29.3721
  0
LINE
  8
0
 10
26.9803
 20
29.3721
 11
27
 21
30
  0
LINE
  8
0
 10
27
 20
30
 11
27
 21
52.3
  0
LINE
  8
0
 10
27
 20
52.3
 11
26.9803
 21
52.9279
  0
LINE
  8
0
 10
26.9803
 20
52.9279
 11
26.9211
 21
53.5533
  0
LINE
  8
0
 10
26.9211
 20
53.5533
 11
26.8229
 21
54.1738
  0
LINE
  8
0
 10
26.8229
 20
54.1738
 11
26.6858
 21
54.7869
  0
LINE
  8
0
 10
26.6858
 20
54.7869
 11
26.5106
 21
55.3902
  0
LINE
  8
0
 10
26.5106
 20
55.3902
 11
26.2978
 21
55.9812
  0
LINE
  8
0
 10
26.2978
 20
55.9812
 11
26.0483
 21
56.5578
  0
LINE
  8
0
 10
26.0483
 20
56.5578
 11
25.7631
 21
57.1175
  0
LINE
  8
0
 10
25.7631
 20
57.1175
 11
25.4433
 21
57.6582
  0
LINE
  8
0
 10
25.4433
 20
57.6582
 11
25.0902
 21
58.1778
  0
LINE
  8
0
 10
25.0902
 20
58.1778
 11
24.7051
 21
58.6742
  0
LINE
  8
0
 10
24.7051
 20
58.6742
 11
24.2897
 21
59.1454
  0
LINE
  8
0
 10
24.2897
 20
59.1454
 11
23.8455
 21
59.5897
  0
LINE
  8
0
 10
23.8455
 20
59.5897
 11
23.3742
 21
60.0051
  0
LINE
  8
0
 10
23.3742
 20
60.0051
 11
22.8778
 21
60.3902
  0
LINE
  8
0
 10
22.8778
 20
60.3902
 11
22.3583
 21
60.7433
  0
LINE
  8
0
 10
22.3583
 20
60.7433
 11
21.8175
 21
61.063
  0
LINE
  8
0
 10
21.8175
 20
61.063
 11
21.2578
 21
61.3483
  0
LINE
  8
0
 10
21.2578
 20
61.3483
 11
20.6812
 21
61.5977
  0
LINE
  8
0
 10
20.6812
 20
61.5977
 11
20.0902
 21
61.8105
  0
LINE
  8
0
 10
20.0902
 20
61.8105
 11
19.4869
 21
61.9858
  0
LINE
  8
0
 10
19.4869
 20
61.9858
 11
18.8738
 21
62.1228
  0
LINE
  8
0
 10
18.8738
 20
62.1228
 11
18.2533
 21
62.2211
  0
LINE
  8
0
 10
18.2533
 20
62.2211
 11
17.6279
 21
62.2802
  0
LINE
  8
0
 10
17.6279
 20
62.2802
 11
17
 21
62.3
  0
LINE
  8
0
 10
17
 20
62.3
 11
-5
 21
62.3
  0
LINE
  8
0
 10
-5
 20
62.3
 11
-5.6279
 21
62.2802
  0
LINE
  8
0
 10
-5.6279
 20
62.2802
 11
-6.25333
 21
62.2211
  0
LINE
  8
0
 10
-6.25333
 20
62.2211
 11
-6.87381
 21
62.1228
  0
LINE
  8
0
 10
-6.87381
 20
62.1228
 11
-7.48689
 21
61.9858
  0
LINE
  8
0
 10
-7.48689
 20
61.9858
 11
-8.09016
 21
61.8105
  0
LINE
  8
0
 10
-8.09016
 20
61.8105
 11
-8.68124
 21
61.5977
  0
LINE
  8
0
 10
-8.68124
 20
61.5977
 11
-9.25778
 21
61.3483
  0
LINE
  8
0
 10
-9.25778
 20
61.3483
 11
-9.81754
 21
61.063
  0
LINE
  8
0
 10
-9.81754
 20
61.063
 11
-10.3583
 21
60.7433
  0
LINE
  8
0
 10
-10.3583
 20
60.7433
 11
-10.8778
 21
60.3902
  0
LINE
  8
0
 10
-10.8778
 20
60.3902
 11
-11.3742
 21
60.0051
  0
LINE
  8
0
 10
-11.3742
 20
60.0051
 11
-11.8455
 21
59.5897
  0
LINE
  8
0
 10
-11.8455
 20
59.5897
 11
-12.2897
 21
59.1454
  0
LINE
  8
0
 10
-12.2897
 20
59.1454
 11
-12.7051
 21
58.6742
  0
LINE
  8
0
 10
-12.7051
 20
58.6742
 11
-13.0902
 21
58.1778
  0
LINE
  8
0
 10
-13.0902
 20
58.1778
 11
-13.4433
 21
57.6582
  0
LINE
  8
0
 10
-13.4433
 20
57.6582
 11
-13.7631
 21
57.1175
  0
LINE
  8
0
 10
-13.7631
 20
57.1175
 11
-14.0483
 21
56.5578
  0
LINE
  8
0
 10
-14.0483
 20
56.5578
 11
-14.2978
 21
55.9812
  0
LINE
  8
0
 10
-14.2978
 20
55.9812
 11
-14.5106
 21
55.3902
  0
LINE
  8
0
 10
-14.5106
 20
55.3902
 11
-14.6858
 21
54.7869
  0
LINE
  8
0
 10
-14.6858
 20
54.7869
 11
-14.8229
 21
54.1738
  0
LINE
  8
0
 10
-14.8229
 20
54.1738
 11
-14.9211
 21
53.5533
  0
LINE
  8
0
 10
-14.9211
 20
53.5533
 11
-14.9803
 21
52.9279
  0
LINE
  8
0
 10
-14.9803
 20
52.9279
 11
-15
 21
52.3
  0
LINE
  8
0
 10
-15
 20
52.3
 11
-15
 21
30
  0
LINE
  8
0
 10
-15
 20
30
 11
-14.9803
 21
29.3721
  0
LINE
  8
0
 10
-14.9803
 20
29.3721
 11
-14.9211
 21
28.7467
  0
LINE
  8
0
 10
-14.9211
 20
28.7467
 11
-14.8229
 21
28.1262
  0
LINE
  8
0
 10
-14.8229
 20
28.1262
 11
-14.6858
 21
27.5131
  0
LINE
  8
0
 10
-14.6858
 20
27.5131
 11
-14.5106
 21
26.9098
  0
LINE
  8
0
 10
-14.5106
 20
26.9098
 11
-14.2978
 21
26.3188
  0
LINE
  8
0
 10
-14.2978
 20
26.3188
 11
-14.0483
 21
25.7422
  0
LINE
  8
0
 10
-14.0483
 20
25.7422
 11
-13.7631
 21
25.1825
  0
LINE
  8
0
 10
-13.7631
 20
25.1825
 11
-13.4433
 21
24.6417
  0
LINE
  8
0
 10
-13.4433
 20
24.6417
 11
-13.0902
 21
24.1222
  0
LINE
  8
0
 10
-13.0902
 20
24.1222
 11
-12.7051
 21
23.6258
  0
LINE
  8
0
 10
-12.7051
 20
23.6258
 11
-12.2897
 21
23.1545
  0
LINE
  8
0
 10
-12.2897
 20
23.1545
 11
-11.8455
 21
22.7103
  0
LINE
  8
0
 10
-11.8455
 20
22.7103
 11
-11.3742
 21
22.2949
  0
LINE
  8
0
 10
-11.3742
 20
22.2949
 11
-10.8778
 21
21.9098
  0
LINE
  8
0
 10
-10.8778
 20
21.9098
 11
-10.3583
 21
21.5567
  0
LINE
  8
0
 10
-10.3583
 20
21.5567
 11
-9.81754
 21
21.2369
  0
LINE
  8
0
 10
-9.81754
 20
21.2369
 11
-9.25778
 21
20.9517
  0
LINE
  8
0
 10
-9.25778
 20
20.9517
 11
-8.68124
 21
20.7022
  0
LINE
  8
0
 10
-8.68124
 20
20.7022
 11
-8.09016
 21
20.4894
  0
LINE
  8
0
 10
-8.09016
 20
20.4894
 11
-7.48689
 21
20.3142
  0
LINE
  8
0
 10
-7.48689
 20
20.3142
 11
-6.87381
 21
20.1771
  0
LINE
  8
0
 10
-6.87381
 20
20.1771
 11
-6.25333
 21
20.0789
  0
LINE
  8
0
 10
-6.25333
 20
20.0789
 11
-5.6279
 21
20.0197
  0
LINE
  8
0
 10
-5.6279
 20
20.0197
 11
-5
 21
20
  0
LINE
  8
0
 10
-5
 20
20
 11
-5
 21
40
  0
LINE
  8
0
 10
-5
 20
40
 11
7
 21
40
  0
LINE
  8
0
 10
7
 20
40
 11
7
 21
20
  0
LINE
  8
0
 10
7
 20
20
 11
17
 21
20
  0
LINE
  8
0
 10
17
 20
20
 11
17.6279
 21
20.0197
  0
LINE
  8
0
 10
14.843
 20
38.5049
 11
14.6867
 21
38.5197
  0
LINE
  8
0
 10
14.6867
 20
38.5197
 11
14.5315
 21
38.5443
  0
LINE
  8
0
 10
14.5315
 20
38.5443
 11
14.3783
 21
38.5785
  0
LINE
  8
0
 10
14.3783
 20
38.5785
 11
14.2274
 21
38.6223
  0
LINE
  8
0
 10
14.2274
 20
38.6223
 11
14.0797
 21
38.6756
  0
LINE
  8
0
 10
14.0797
 20
38.6756
 11
13.9355
 21
38.7379
  0
LINE
  8
0
 10
13.9355
 20
38.7379
 11
13.7956
 21
38.8092
  0
LINE
  8
0
 10
13.7956
 20
38.8092
 11
13.6604
 21
38.8892
  0
LINE
  8
0
 10
13.6604
 20
38.8892
 11
13.5305
 21
38.9774
  0
LINE
  8
0
 10
13.5305
 20
38.9774
 11
13.4064
 21
39.0737
  0
LINE
  8
0
 10
13.4064
 20
39.0737
 11
13.2886
 21
39.1776
  0
LINE
  8
0
 10
13.2886
 20
39.1776
 11
13.1776
 21
39.2886
  0
LINE
  8
0
 10
13.1776
 20
39.2886
 11
13.0737
 21
39.4064
  0
LINE
  8
0
 10
13.0737
 20
39.4064
 11
12.9774
 21
39.5305
  0
LINE
  8
0
 10
12.9774
 20
39.5305
 11
12.8892
 21
39.6604
  0
LINE
  8
0
 10
12.8892
 20
39.6604
 11
12.8092
 21
39.7956
  0
LINE
  8
0
 10
12.8092
 20
39.7956
 11
12.7379
 21
39.9355
  0
LINE
  8
0
 10
12.7379
 20
39.9355
 11
12.6756
 21
40.0797
  0
LINE
  8
0
 10
12.6756
 20
40.0797
 11
12.6223
 21
40.2274
  0
LINE
  8
0
 10
12.6223
 20
40.2274
 11
12.5785
 21
40.3783
  0
LINE
  8
0
 10
12.5785
 20
40.3783
 11
12.5443
 21
40.5315
  0
LINE
  8
0
 10
12.5443
 20
40.5315
 11
12.5197
 21
40.6867
  0
LINE
  8
0
 10
12.5197
 20
40.6867
 11
12.5049
 21
40.843
  0
LINE
  8
0
 10
12.5049
 20
40.843
 11
12.5
 21
41
  0
LINE
  8
0
 10
12.5
 20
41
 11
12.5049
 21
41.157
  0
LINE
  8
0
 10
12.5049
 20
41.157
 11
12.5197
 21
41.3133
  0
LINE
  8
0
 10
12.5197
 20
41.3133
 11
12.5443
 21
41.4684
  0
LINE
  8
0
 10
12.5443
 20
41.4684
 11
12.5785
 21
41.6217
  0
LINE
  8
0
 10
12.5785
 20
41.6217
 11
12.6223
 21
41.7725
  0
LINE
  8
0
 10
12.6223
 20
41.7725
 11
12.6756
 21
41.9203
  0
LINE
  8
0
 10
12.6756
 20
41.9203
 11
12.7379
 21
42.0644
  0
LINE
  8
0
 10
12.7379
 20
42.0644
 11
12.8092
 21
42.2044
  0
LINE
  8
0
 10
12.8092
 20
42.2044
 11
12.8892
 21
42.3396
  0
LINE
  8
0
 10
12.8892
 20
42.3396
 11
12.9774
 21
42.4695
  0
LINE
  8
0
 10
12.9774
 20
42.4695
 11
13.0737
 21
42.5936
  0
LINE
  8
0
 10
13.0737
 20
42.5936
 11
13.1776
 21
42.7114
  0
LINE
  8
0
 10
13.1776
 20
42.7114
 11
13.2886
 21
42.8224
  0
LINE
  8
0
 10
13.2886
 20
42.8224
 11
13.4064
 21
42.9263
  0
LINE
  8
0
 10
13.4064
 20
42.9263
 11
13.5305
 21
43.0225
  0
LINE
  8
0
 10
13.5305
 20
43.0225
 11
13.6604
 21
43.1108
  0
LINE
  8
0
 10
13.6604
 20
43.1108
 11
13.7956
 21
43.1908
  0
LINE
  8
0
 10
13.7956
 20
43.1908
 11
13.9355
 21
43.2621
  0
LINE
  8
0
 10
13.9355
 20
43.2621
 11
14.0797
 21
43.3244
  0
LINE
  8
0
 10
14.0797
 20
43.3244
 11
14.2274
 21
43.3776
  0
LINE
  8
0
 10
14.2274
 20
43.3776
 11
14.3783
 21
43.4214
  0
LINE
  8
0
 10
14.3783
 20
43.4214
 11
14.5315
 21
43.4557
  0
LINE
  8
0
 10
14.5315
 20
43.4557
 11
14.6867
 21
43.4803
  0
LINE
  8
0
 10
14.6867
 20
43.4803
 11
14.843
 21
43.4951
  0
LINE
  8
0
 10
14.843
 20
43.4951
 11
15
 21
43.5
  0
LINE
  8
0
 10
15
 20
43.5
 11
15.157
 21
43.4951
  0
LINE
  8
0
 10
15.157
 20
43.4951
 11
15.3133
 21
43.4803
  0
LINE
  8
0
 10
15.3133
 20
43.4803
 11
15.4684
 21
43.4557
  0
LINE
  8
0
 10
15.4684
 20
43.4557
 11
15.6217
 21
43.4214
  0
LINE
  8
0
 10
15.6217
 20
43.4214
 11
15.7725
 21
43.3776
  0
LINE
  8
0
 10
15.7725
 20
43.3776
 11
15.9203
 21
43.3244
  0
LINE
  8
0
 10
15.9203
 20
43.3244
 11
16.0644
 21
43.2621
  0
LINE
  8
0
 10
16.0644
 20
43.2621
 11
16.2044
 21
43.1908
  0
LINE
  8
0
 10
16.2044
 20
43.1908
 11
16.3396
 21
43.1108
  0
LINE
  8
0
 10
16.3396
 20
43.1108
 11
16.4695
 21
43.0225
  0
LINE
  8
0
 10
16.4695
 20
43.0225
 11
16.5936
 21
42.9263
  0
LINE
  8
0
 10
16.5936
 20
42.9263
 11
16.7114
 21
42.8224
  0
LINE
  8
0
 10
16.7114
 20
42.8224
 11
16.8224
 21
42.7114
  0
LINE
  8
0
 10
16.8224
 20
42.7114
 11
16.9263
 21
42.5936
  0
LINE
  8
0
 10
16.9263
 20
42.5936
 11
17.0225
 21
42.4695
  0
LINE
  8
0
 10
17.0225
 20
42.4695
 11
17.1108
 21
42.3396
  0
LINE
  8
0
 10
17.1108
 20
42.3396
 11
17.1908
 21
42.2044
  0
LINE
  8
0
 10
17.1908
 20
42.2044
 11
17.2621
 21
42.0644
  0
LINE
  8
0
 10
17.2621
 20
42.0644
 11
17.3244
 21
41.9203
  0
LINE
  8
0
 10
17.3244
 20
41.9203
 11
17.3776
 21
41.7725
  0
LINE
  8
0
 10
17.3776
 20
41.7725
 11
17.4214
 21
41.6217
  0
LINE
  8
0
 10
17.4214
 20
41.6217
 11
17.4557
 21
41.4684
  0
LINE
  8
0
 10
17.4557
 20
41.4684
 11
17.4803
 21
41.3133
  0
LINE
  8
0
 10
17.4803
 20
41.3133
 11
17.4951
 21
41.157
  0
LINE
  8
0
 10
17.4951
 20
41.157
 11
17.5
 21
41
  0
LINE
  8
0
 10
17.5
 20
41
 11
17.4951
 21
40.843
  0
LINE
  8
0
 10
17.4951
 20
40.843
 11
17.4803
 21
40.6867
  0
LINE
  8
0
 10
17.4803
 20
40.6867
 11
17.4557
 21
40.5315
  0
LINE
  8
0
 10
17.4557
 20
40.5315
 11
17.4214
 21
40.3783
  0
LINE
  8
0
 10
17.4214
 20
40.3783
 11
17.3776
 21
40.2274
  0
LINE
  8
0
 10
17.3776
 20
40.2274
 11
17.3244
 21
40.0797
  0
LINE
  8
0
 10
17.3244
 20
40.0797
 11
17.2621
 21
39.9355
  0
LINE
  8
0
 10
17.2621
 20
39.9355
 11
17.1908
 21
39.7956
  0
LINE
  8
0
 10
17.1908
 20
39.7956
 11
17.1108
 21
39.6604
  0
LINE
  8
0
 10
17.1108
 20
39.6604
 11
17.0225
 21
39.5305
  0
LINE
  8
0
 10
17.0225
 20
39.5305
 11
16.9263
 21
39.4064
  0
LINE
  8
0
 10
16.9263
 20
39.4064
 11
16.8224
 21
39.2886
  0
LINE
  8
0
 10
16.8224
 20
39.2886
 11
16.7114
 21
39.1776
  0
LINE
  8
0
 10
16.7114
 20
39.1776
 11
16.5936
 21
39.0737
  0
LINE
  8
0
 10
16.5936
 20
39.0737
 11
16.4695
 21
38.9774
  0
LINE
  8
0
 10
16.4695
 20
38.9774
 11
16.3396
 21
38.8892
  0
LINE
  8
0
 10
16.3396
 20
38.8892
 11
16.2044
 21
38.8092
  0
LINE
  8
0
 10
16.2044
 20
38.8092
 11
16.0644
 21
38.7379
  0
LINE
  8
0
 10
16.0644
 20
38.7379
 11
15.9203
 21
38.6756
  0
LINE
  8
0
 10
15.9203
 20
38.6756
 11
15.7725
 21
38.6223
  0
LINE
  8
0
 10
15.7725
 20
38.6223
 11
15.6217
 21
38.5785
  0
LINE
  8
0
 10
15.6217
 20
38.5785
 11
15.4684
 21
38.5443
  0
LINE
  8
0
 10
15.4684
 20
38.5443
 11
15.3133
 21
38.5197
  0
LINE
  8
0
 10
15.3133
 20
38.5197
 11
15.157
 21
38.5049
  0
LINE
  8
0
 10
15.157
 20
38.5049
 11
15
 21
38.5
  0
LINE
  8
0
 10
15
 20
38.5
 11
14.843
 21
38.5049
  0
LINE
  8
0
 10
26.1884
 20
-14.9941
 11
26.376
 21
-14.9763
  0
LINE
  8
0
 10
26.376
 20
-14.9763
 11
26.5621
 21
-14.9469
  0
LINE
  8
0
 10
26.5621
 20
-14.9469
 11
26.7461
 21
-14.9057
  0
LINE
  8
0
 10
26.7461
 20
-14.9057
 11
26.927
 21
-14.8532
  0
LINE
  8
0
 10
26.927
 20
-14.8532
 11
27.1044
 21
-14.7893
  0
LINE
  8
0
 10
27.1044
 20
-14.7893
 11
27.2773
 21
-14.7145
  0
LINE
  8
0
 10
27.2773
 20
-14.7145
 11
27.4453
 21
-14.6289
  0
LINE
  8
0
 10
27.4453
 20
-14.6289
 11
27.6075
 21
-14.533
  0
LINE
  8
0
 10
27.6075
 20
-14.533
 11
27.7634
 21
-14.427
  0
LINE
  8
0
 10
27.7634
 20
-14.427
 11
27.9123
 21
-14.3115
  0
LINE
  8
0
 10
27.9123
 20
-14.3115
 11
28.0536
 21
-14.1869
  0
LINE
  8
0
 10
28.0536
 20
-14.1869
 11
28.1869
 21
-14.0536
  0
LINE
  8
0
 10
28.1869
 20
-14.0536
 11
28.3115
 21
-13.9123
  0
LINE
  8
0
 10
28.3115
 20
-13.9123
 11
28.427
 21
-13.7634
  0
LINE
  8
0
 10
28.427
 20
-13.7634
 11
28.533
 21
-13.6075
  0
LINE
  8
0
 10
28.533
 20
-13.6075
 11
28.6289
 21
-13.4453
  0
LINE
  8
0
 10
28.6289
 20
-13.4453
 11
28.7145
 21
-13.2773
  0
LINE
  8
0
 10
28.7145
 20
-13.2773
 11
28.7893
 21
-13.1044
  0
LINE
  8
0
 10
28.7893
 20
-13.1044
 11
28.8532
 21
-12.927
  0
LINE
  8
0
 10
28.8532
 20
-12.927
 11
28.9057
 21
-12.7461
  0
LINE
  8
0
 10
28.9057
 20
-12.7461
 11
28.9469
 21
-12.5621
  0
LINE
  8
0
 10
28.9469
 20
-12.5621
 11
28.9763
 21
-12.376
  0
LINE
  8
0
 10
28.9763
 20
-12.376
 11
28.9941
 21
-12.1884
  0
LINE
  8
0
 10
28.9941
 20
-12.1884
 11
29
 21
-12
  0
LINE
  8
0
 10
29
 20
-12
 11
29
 21
12
  0
LINE
  8
0
 10
29
 20
12
 11
28.9941
 21
12.1884
  0
LINE
  8
0
 10
28.9941
 20
12.1884
 11
28.9763
 21
12.376
  0
LINE
  8
0
 10
28.9763
 20
12.376
 11
28.9469
 21
12.5621
  0
LINE
  8
0
 10
28.9469
 20
12.5621
 11
28.9057
 21
12.7461
  0
LINE
  8
0
 10
28.9057
 20
12.7461
 11
28.8532
 21
12.927
  0
LINE
  8
0
 10
28.8532
 20
12.927
 11
28.7893
 21
13.1044
  0
LINE
  8
0
 10
28.7893
 20
13.1044
 11
28.7145
 21
13.2773
  0
LINE
  8
0
 10
28.7145
 20
13.2773
 11
28.6289
 21
13.4453
  0
LINE
  8
0
 10
28.6289
 20
13.4453
 11
28.533
 21
13.6075
  0
LINE
  8
0
 10
28.533
 20
13.6075
 11
28.427
 21
13.7634
  0
LINE
  8
0
 10
28.427
 20
13.7634
 11
28.3115
 21
13.9123
  0
LINE
  8
0
 10
28.3115
 20
13.9123
 11
28.1869
 21
14.0536
  0
LINE
  8
0
 10
28.1869
 20
14.0536
 11
28.0536
 21
14.1869
  0
LINE
  8
0
 10
28.0536
 20
14.1869
 11
27.9123
 21
14.3115
  0
LINE
  8
0
 10
27.9123
 20
14.3115
 11
27.7634
 21
14.427
  0
LINE
  8
0
 10
27.7634
 20
14.427
 11
27.6075
 21
14.533
  0
LINE
  8
0
 10
27.6075
 20
14.533
 11
27.4453
 21
14.6289
  0
LINE
  8
0
 10
27.4453
 20
14.6289
 11
27.2773
 21
14.7145
  0
LINE
  8
0
 10
27.2773
 20
14.7145
 11
27.1044
 21
14.7893
  0
LINE
  8
0
 10
27.1044
 20
14.7893
 11
26.927
 21
14.8532
  0
LINE
  8
0
 10
26.927
 20
14.8532
 11
26.7461
 21
14.9057
  0
LINE
  8
0
 10
26.7461
 20
14.9057
 11
26.5621
 21
14.9469
  0
LINE
  8
0
 10
26.5621
 20
14.9469
 11
26.376
 21
14.9763
  0
LINE
  8
0
 10
26.376
 20
14.9763
 11
26.1884
 21
14.9941
  0
LINE
  8
0
 10
26.1884
 20
14.9941
 11
26
 21
15
  0
LINE
  8
0
 10
26
 20
15
 11
-26
 21
15
  0
LINE
  8
0
 10
-26
 20
15
 11
-26.1884
 21
14.9941
  0
LINE
  8
0
 10
-26.1884
 20
14.9941
 11
-26.376
 21
14.9763
  0
LINE
  8
0
 10
-26.376
 20
14.9763
 11
-26.5621
 21
14.9469
  0
LINE
  8
0
 10
-26.5621
 20
14.9469
 11
-26.7461
 21
14.9057
  0
LINE
  8
0
 10
-26.7461
 20
14.9057
 11
-26.927
 21
14.8532
  0
LINE
  8
0
 10
-26.927
 20
14.8532
 11
-27.1044
 21
14.7893
  0
LINE
  8
0
 10
-27.1044
 20
14.7893
 11
-27.2773
 21
14.7145
  0
LINE
  8
0
 10
-27.2773
 20
14.7145
 11
-27.4453
 21
14.6289
  0
LINE
  8
0
 10
-27.4453
 20
14.6289
 11
-27.6075
 21
14.533
  0
LINE
  8
0
 10
-27.6075
 20
14.533
 11
-27.7634
 21
14.427
  0
LINE
  8
0
 10
-27.7634
 20
14.427
 11
-27.9123
 21
14.3115
  0
LINE
  8
0
 10
-27.9123
 20
14.3115
 11
-28.0536
 21
14.1869
  0
LINE
  8
0
 10
-28.0536
 20
14.1869
 11
-28.1869
 21
14.0536
  0
LINE
  8
0
 10
-28.1869
 20
14.0536
 11
-28.3115
 21
13.9123
  0
LINE
  8
0
 10
-28.3115
 20
13.9123
 11
-28.427
 21
13.7634
  0
LINE
  8
0
 10
-28.427
 20
13.7634
 11
-28.533
 21
13.6075
  0
LINE
  8
0
 10
-28.533
 20
13.6075
 11
-28.6289
 21
13.4453
  0
LINE
  8
0
 10
-28.6289
 20
13.4453
 11
-28.7145
 21
13.2773
  0
LINE
  8
0
 10
-28.7145
 20
13.2773
 11
-28.7893
 21
13.1044
  0
LINE
  8
0
 10
-28.7893
 20
13.1044
 11
-28.8532
 21
12.927
  0
LINE
  8
0
 10
-28.8532
 20
12.927
 11
-28.9057
 21
12.7461
  0
LINE
  8
0
 10
-28.9057
 20
12.7461
 11
-28.9469
 21
12.5621
  0
LINE
  8
0
 10
-28.9469
 20
12.5621
 11
-28.9763
 21
12.376
  0
LINE
  8
0
 10
-28.9763
 20
12.376
 11
-28.9941
 21
12.1884
  0
LINE
  8
0
 10
-28.9941
 20
12.1884
 11
-29
 21
12
  0
LINE
  8
0
 10
-29
 20
12
 11
-29
 21
-12
  0
LINE
  8
0
 10
-29
 20
-12
 11
-28.9941
 21
-12.1884
  0
LINE
  8
0
 10
-28.9941
 20
-12.1884
 11
-28.9763
 21
-12.376
  0
LINE
  8
0
 10
-28.9763
 20
-12.376
 11
-28.9469
 21
-12.5621
  0
LINE
  8
0
 10
-28.9469
 20
-12.5621
 11
-28.9057
 21
-12.7461
  0
LINE
  8
0
 10
-28.9057
 20
-12.7461
 11
-28.8532
 21
-12.927
  0
LINE
  8
0
 10
-28.8532
 20
-12.927
 11
-28.7893
 21
-13.1044
  0
LINE
  8
0
 10
-28.7893
 20
-13.1044
 11
-28.7145
 21
-13.2773
  0
LINE
  8
0
 10
-28.7145
 20
-13.2773
 11
-28.6289
 21
-13.4453
  0
LINE
  8
0
 10
-28.6289
 20
-13.4453
 11
-28.533
 21
-13.6075
  0
LINE
  8
0
 10
-28.533
 20
-13.6075
 11
-28.427
 21
-13.7634
  0
LINE
  8
0
 10
-28.427
 20
-13.7634
 11
-28.3115
 21
-13.9123
  0
LINE
  8
0
 10
-28.3115
 20
-13.9123
 11
-28.1869
 21
-14.0536
  0
LINE
  8
0
 10
-28.1869
 20
-14.0536
 11
-28.0536
 21
-14.1869
  0
LINE
  8
0
 10
-28.0536
 20
-14.1869
 11
-27.9123
 21
-14.3115
  0
LINE
  8
0
 10
-27.9123
 20
-14.3115
 11
-27.7634
 21
-14.427
  0
LINE
  8
0
 10
-27.7634
 20
-14.427
 11
-27.6075
 21
-14.533
  0
LINE
  8
0
 10
-27.6075
 20
-14.533
 11
-27.4453
 21
-14.6289
  0
LINE
  8
0
 10
-27.4453
 20
-14.6289
 11
-27.2773
 21
-14.7145
  0
LINE
  8
0
 10
-27.2773
 20
-14.7145
 11
-27.1044
 21
-14.7893
  0
LINE
  8
0
 10
-27.1044
 20
-14.7893
 11
-26.927
 21
-14.8532
  0
LINE
  8
0
 10
-26.927
 20
-14.8532
 11
-26.7461
 21
-14.9057
  0
LINE
  8
0
 10
-26.7461
 20
-14.9057
 11
-26.5621
 21
-14.9469
  0
LINE
  8
0
 10
-26.5621
 20
-14.9469
 11
-26.376
 21
-14.9763
  0
LINE
  8
0
 10
-26.376
 20
-14.9763
 11
-26.1884
 21
-14.9941
  0
LINE
  8
0
 10
-26.1884
 20
-14.9941
 11
-26
 21
-15
  0
LINE
  8
0
 10
-26
 20
-15
 11
26
 21
-15
  0
LINE
  8
0
 10
26
 20
-15
 11
26.1884
 21
-14.9941
  0
LINE
  8
0
 10
-23.25
 20
7.5
 11
-23.3128
 21
7.50198
  0
LINE
  8
0
 10
-23.3128
 20
7.50198
 11
-23.3753
 21
7.50789
  0
LINE
  8
0
 10
-23.3753
 20
7.50789
 11
-23.4374
 21
7.51772
  0
LINE
  8
0
 10
-23.4374
 20
7.51772
 11
-23.4987
 21
7.53142
  0
LINE
  8
0
 10
-23.4987
 20
7.53142
 11
-23.559
 21
7.54895
  0
LINE
  8
0
 10
-23.559
 20
7.54895
 11
-23.6181
 21
7.57024
  0
LINE
  8
0
 10
-23.6181
 20
7.57024
 11
-23.6758
 21
7.59518
  0
LINE
  8
0
 10
-23.6758
 20
7.59518
 11
-23.7318
 21
7.6237
  0
LINE
  8
0
 10
-23.7318
 20
7.6237
 11
-23.7858
 21
7.65569
  0
LINE
  8
0
 10
-23.7858
 20
7.65569
 11
-23.8378
 21
7.69099
  0
LINE
  8
0
 10
-23.8378
 20
7.69099
 11
-23.8874
 21
7.72949
  0
LINE
  8
0
 10
-23.8874
 20
7.72949
 11
-23.9345
 21
7.77104
  0
LINE
  8
0
 10
-23.9345
 20
7.77104
 11
-23.979
 21
7.81546
  0
LINE
  8
0
 10
-23.979
 20
7.81546
 11
-24.0205
 21
7.86258
  0
LINE
  8
0
 10
-24.0205
 20
7.86258
 11
-24.059
 21
7.91222
  0
LINE
  8
0
 10
-24.059
 20
7.91222
 11
-24.0943
 21
7.96419
  0
LINE
  8
0
 10
-24.0943
 20
7.96419
 11
-24.1263
 21
8.01825
  0
LINE
  8
0
 10
-24.1263
 20
8.01825
 11
-24.1548
 21
8.07423
  0
LINE
  8
0
 10
-24.1548
 20
8.07423
 11
-24.1798
 21
8.13188
  0
LINE
  8
0
 10
-24.1798
 20
8.13188
 11
-24.201
 21
8.19099
  0
LINE
  8
0
 10
-24.201
 20
8.19099
 11
-24.2186
 21
8.25131
  0
LINE
  8
0
 10
-24.2186
 20
8.25131
 11
-24.2323
 21
8.31262
  0
LINE
  8
0
 10
-24.2323
 20
8.31262
 11
-24.2421
 21
8.37468
  0
LINE
  8
0
 10
-24.2421
 20
8.37468
 11
-24.248
 21
8.43721
  0
LINE
  8
0
 10
-24.248
 20
8.43721
 11
-24.25
 21
8.5
  0
LINE
  8
0
 10
-24.25
 20
8.5
 11
-24.25
 21
11.5
  0
LINE
  8
0
 10
-24.25
 20
11.5
 11
-24.248
 21
11.5628
  0
LINE
  8
0
 10
-24.248
 20
11.5628
 11
-24.2421
 21
11.6253
  0
LINE
  8
0
 10
-24.2421
 20
11.6253
 11
-24.2323
 21
11.6874
  0
LINE
  8
0
 10
-24.2323
 20
11.6874
 11
-24.2186
 21
11.7487
  0
LINE
  8
0
 10
-24.2186
 20
11.7487
 11
-24.201
 21
11.809
  0
LINE
  8
0
 10
-24.201
 20
11.809
 11
-24.1798
 21
11.8681
  0
LINE
  8
0
 10
-24.1798
 20
11.8681
 11
-24.1548
 21
11.9258
  0
LINE
  8
0
 10
-24.1548
 20
11.9258
 11
-24.1263
 21
11.9818
  0
LINE
  8
0
 10
-24.1263
 20
11.9818
 11
-24.0943
 21
12.0358
  0
LINE
  8
0
 10
-24.0943
 20
12.0358
 11
-24.059
 21
12.0878
  0
LINE
  8
0
 10
-24.059
 20
12.0878
 11
-24.0205
 21
12.1374
  0
LINE
  8
0
 10
-24.0205
 20
12.1374
 11
-23.979
 21
12.1845
  0
LINE
  8
0
 10
-23.979
 20
12.1845
 11
-23.9345
 21
12.229
  0
LINE
  8
0
 10
-23.9345
 20
12.229
 11
-23.8874
 21
12.2705
  0
LINE
  8
0
 10
-23.8874
 20
12.2705
 11
-23.8378
 21
12.309
  0
LINE
  8
0
 10
-23.8378
 20
12.309
 11
-23.7858
 21
12.3443
  0
LINE
  8
0
 10
-23.7858
 20
12.3443
 11
-23.7318
 21
12.3763
  0
LINE
  8
0
 10
-23.7318
 20
12.3763
 11
-23.6758
 21
12.4048
  0
LINE
  8
0
 10
-23.6758
 20
12.4048
 11
-23.6181
 21
12.4298
  0
LINE
  8
0
 10
-23.6181
 20
12.4298
 11
-23.559
 21
12.451
  0
LINE
  8
0
 10
-23.559
 20
12.451
 11
-23.4987
 21
12.4686
  0
LINE
  8
0
 10
-23.4987
 20
12.4686
 11
-23.4374
 21
12.4823
  0
LINE
  8
0
 10
-23.4374
 20
12.4823
 11
-23.3753
 21
12.4921
  0
LINE
  8
0
 10
-23.3753
 20
12.4921
 11
-23.3128
 21
12.498
  0
LINE
  8
0
 10
-23.3128
 20
12.498
 11
-23.25
 21
12.5
  0
LINE
  8
0
 10
-23.25
 20
12.5
 11
-22.75
 21
12.5
  0
LINE
  8
0
 10
-22.75
 20
12.5
 11
-22.6872
 21
12.498
  0
LINE
  8
0
 10
-22.6872
 20
12.498
 11
-22.6247
 21
12.4921
  0
LINE
  8
0
 10
-22.6247
 20
12.4921
 11
-22.5626
 21
12.4823
  0
LINE
  8
0
 10
-22.5626
 20
12.4823
 11
-22.5013
 21
12.4686
  0
LINE
  8
0
 10
-22.5013
 20
12.4686
 11
-22.441
 21
12.451
  0
LINE
  8
0
 10
-22.441
 20
12.451
 11
-22.3819
 21
12.4298
  0
LINE
  8
0
 10
-22.3819
 20
12.4298
 11
-22.3242
 21
12.4048
  0
LINE
  8
0
 10
-22.3242
 20
12.4048
 11
-22.2682
 21
12.3763
  0
LINE
  8
0
 10
-22.2682
 20
12.3763
 11
-22.2142
 21
12.3443
  0
LINE
  8
0
 10
-22.2142
 20
12.3443
 11
-22.1622
 21
12.309
  0
LINE
  8
0
 10
-22.1622
 20
12.309
 11
-22.1126
 21
12.2705
  0
LINE
  8
0
 10
-22.1126
 20
12.2705
 11
-22.0655
 21
12.229
  0
LINE
  8
0
 10
-22.0655
 20
12.229
 11
-22.021
 21
12.1845
  0
LINE
  8
0
 10
-22.021
 20
12.1845
 11
-21.9795
 21
12.1374
  0
LINE
  8
0
 10
-21.9795
 20
12.1374
 11
-21.941
 21
12.0878
  0
LINE
  8
0
 10
-21.941
 20
12.0878
 11
-21.9057
 21
12.0358
  0
LINE
  8
0
 10
-21.9057
 20
12.0358
 11
-21.8737
 21
11.9818
  0
LINE
  8
0
 10
-21.8737
 20
11.9818
 11
-21.8452
 21
11.9258
  0
LINE
  8
0
 10
-21.8452
 20
11.9258
 11
-21.8202
 21
11.8681
  0
LINE
  8
0
 10
-21.8202
 20
11.8681
 11
-21.799
 21
11.809
  0
LINE
  8
0
 10
-21.799
 20
11.809
 11
-21.7814
 21
11.7487
  0
LINE
  8
0
 10
-21.7814
 20
11.7487
 11
-21.7677
 21
11.6874
  0
LINE
  8
0
 10
-21.7677
 20
11.6874
 11
-21.7579
 21
11.6253
  0
LINE
  8
0
 10
-21.7579
 20
11.6253
 11
-21.752
 21
11.5628
  0
LINE
  8
0
 10
-21.752
 20
11.5628
 11
-21.75
 21
11.5
  0
LINE
  8
0
 10
-21.75
 20
11.5
 11
-21.75
 21
8.5
  0
LINE
  8
0
 10
-21.75
 20
8.5
 11
-21.752
 21
8.43721
  0
LINE
  8
0
 10
-21.752
 20
8.43721
 11
-21.7579
 21
8.37468
  0
LINE
  8
0
 10
-21.7579
 20
8.37468
 11
-21.7677
 21
8.31262
  0
LINE
  8
0
 10
-21.7677
 20
8.31262
 11
-21.7814
 21
8.25131
  0
LINE
  8
0
 10
-21.7814
 20
8.25131
 11
-21.799
 21
8.19099
  0
LINE
  8
0
 10
-21.799
 20
8.19099
 11
-21.8202
 21
8.13188
  0
LINE
  8
0
 10
-21.8202
 20
8.13188
 11
-21.8452
 21
8.07423
  0
LINE
  8
0
 10
-21.8452
 20
8.07423
 11
-21.8737
 21
8.01825
  0
LINE
  8
0
 10
-21.8737
 20
8.01825
 11
-21.9057
 21
7.96419
  0
LINE
  8
0
 10
-21.9057
 20
7.96419
 11
-21.941
 21
7.91222
  0
LINE
  8
0
 10
-21.941
 20
7.91222
 11
-21.9795
 21
7.86258
  0
LINE
  8
0
 10
-21.9795
 20
7.86258
 11
-22.021
 21
7.81546
  0
LINE
  8
0
 10
-22.021
 20
7.81546
 11
-22.0655
 21
7.77104
  0
LINE
  8
0
 10
-22.0655
 20
7.77104
 11
-22.1126
 21
7.72949
  0
LINE
  8
0
 10
-22.1126
 20
7.72949
 11
-22.1622
 21
7.69099
  0
LINE
  8
0
 10
-22.1622
 20
7.69099
 11
-22.2142
 21
7.65569
  0
LINE
  8
0
 10
-22.2142
 20
7.65569
 11
-22.2682
 21
7.6237
  0
LINE
  8
0
 10
-22.2682
 20
7.6237
 11
-22.3242
 21
7.59518
  0
LINE
  8
0
 10
-22.3242
 20
7.59518
 11
-22.3819
 21
7.57024
  0
LINE
  8
0
 10
-22.3819
 20
7.57024
 11
-22.441
 21
7.54895
  0
LINE
  8
0
 10
-22.441
 20
7.54895
 11
-22.5013
 21
7.53142
  0
LINE
  8
0
 10
-22.5013
 20
7.53142
 11
-22.5626
 21
7.51772
  0
LINE
  8
0
 10
-22.5626
 20
7.51772
 11
-22.6247
 21
7.50789
  0
LINE
  8
0
 10
-22.6247
 20
7.50789
 11
-22.6872
 21
7.50198
  0
LINE
  8
0
 10
-22.6872
 20
7.50198
 11
-22.75
 21
7.5
  0
LINE
  8
0
 10
-22.75
 20
7.5
 11
-23.25
 21
7.5
  0
LINE
  8
0
 10
22.75
 20
7.5
 11
22.6872
 21
7.50198
  0
LINE
  8
0
 10
22.6872
 20
7.50198
 11
22.6247
 21
7.50789
  0
LINE
  8
0
 10
22.6247
 20
7.50789
 11
22.5626
 21
7.51772
  0
LINE
  8
0
 10
22.5626
 20
7.51772
 11
22.5013
 21
7.53142
  0
LINE
  8
0
 10
22.5013
 20
7.53142
 11
22.441
 21
7.54895
  0
LINE
  8
0
 10
22.441
 20
7.54895
 11
22.3819
 21
7.57024
  0
LINE
  8
0
 10
22.3819
 20
7.57024
 11
22.3242
 21
7.59518
  0
LINE
  8
0
 10
22.3242
 20
7.59518
 11
22.2682
 21
7.6237
  0
LINE
  8
0
 10
22.2682
 20
7.6237
 11
22.2142
 21
7.65569
  0
LINE
  8
0
 10
22.2142
 20
7.65569
 11
22.1622
 21
7.69099
  0
LINE
  8
0
 10
22.1622
 20
7.69099
 11
22.1126
 21
7.72949
  0
LINE
  8
0
 10
22.1126
 20
7.72949
 11
22.0655
 21
7.77104
  0
LINE
  8
0
 10
22.0655
 20
7.77104
 11
22.021
 21
7.81546
  0
LINE
  8
0
 10
22.021
 20
7.81546
 11
21.9795
 21
7.86258
  0
LINE
  8
0
 10
21.9795
 20
7.86258
 11
21.941
 21
7.91222
  0
LINE
  8
0
 10
21.941
 20
7.91222
 11
21.9057
 21
7.96419
  0
LINE
  8
0
 10
21.9057
 20
7.96419
 11
21.8737
 21
8.01825
  0
LINE
  8
0
 10
21.8737
 20
8.01825
 11
21.8452
 21
8.07423
  0
LINE
  8
0
 10
21.8452
 20
8.07423
 11
21.8202
 21
8.13188
  0
LINE
  8
0
 10
21.8202
 20
8.13188
 11
21.799
 21
8.19099
  0
LINE
  8
0
 10
21.799
 20
8.19099
 11
21.7814
 21
8.25131
  0
LINE
  8
0
 10
21.7814
 20
8.25131
 11
21.7677
 21
8.31262
  0
LINE
  8
0
 10
21.7677
 20
8.31262
 11
21.7579
 21
8.37468
  0
LINE
  8
0
 10
21.7579
 20
8.37468
 11
21.752
 21
8.43721
  0
LINE
  8
0
 10
21.752
 20
8.43721
 11
21.75
 21
8.5
  0
LINE
  8
0
 10
21.75
 20
8.5
 11
21.75
 21
11.5
  0
LINE
  8
0
 10
21.75
 20
11.5
 11
21.752
 21
11.5628
  0
LINE
  8
0
 10
21.752
 20
11.5628
 11
21.7579
 21
11.6253
  0
LINE
  8
0
 10
21.7579
 20
11.6253
 11
21.7677
 21
11.6874
  0
LINE
  8
0
 10
21.7677
 20
11.6874
 11
21.7814
 21
11.7487
  0
LINE
  8
0
 10
21.7814
 20
11.7487
 11
21.799
 21
11.809
  0
LINE
  8
0
 10
21.799
 20
11.809
 11
21.8202
 21
11.8681
  0
LINE
  8
0
 10
21.8202
 20
11.8681
 11
21.8452
 21
11.9258
  0
LINE
  8
0
 10
21.8452
 20
11.9258
 11
21.8737
 21
11.9818
  0
LINE
  8
0
 10
21.8737
 20
11.9818
 11
21.9057
 21
12.0358
  0
LINE
  8
0
 10
21.9057
 20
12.0358
 11
21.941
 21
12.0878
  0
LINE
  8
0
 10
21.941
 20
12.0878
 11
21.9795
 21
12.1374
  0
LINE
  8
0
 10
21.9795
 20
12.1374
 11
22.021
 21
12.1845
  0
LINE
  8
0
 10
22.021
 20
12.1845
 11
22.0655
 21
12.229
  0
LINE
  8
0
 10
22.0655
 20
12.229
 11
22.1126
 21
12.2705
  0
LINE
  8
0
 10
22.1126
 20
12.2705
 11
22.1622
 21
12.309
  0
LINE
  8
0
 10
22.1622
 20
12.309
 11
22.2142
 21
12.3443
  0
LINE
  8
0
 10
22.2142
 20
12.3443
 11
22.2682
 21
12.3763
  0
LINE
  8
0
 10
22.2682
 20
12.3763
 11
22.3242
 21
12.4048
  0
LINE
  8
0
 10
22.3242
 20
12.4048
 11
22.3819
 21
12.4298
  0
LINE
  8
0
 10
22.3819
 20
12.4298
 11
22.441
 21
12.451
  0
LINE
  8
0
 10
22.441
 20
12.451
 11
22.5013
 21
12.4686
  0
LINE
  8
0
 10
22.5013
 20
12.4686
 11
22.5626
 21
12.4823
  0
LINE
  8
0
 10
22.5626
 20
12.4823
 11
22.6247
 21
12.4921
  0
LINE
  8
0
 10
22.6247
 20
12.4921
 11
22.6872
 21
12.498
  0
LINE
  8
0
 10
22.6872
 20
12.498
 11
22.75
 21
12.5
  0
LINE
  8
0
 10
22.75
 20
12.5
 11
23.25
 21
12.5
  0
LINE
  8
0
 10
23.25
 20
12.5
 11
23.3128
 21
12.498
  0
LINE
  8
0
 10
23.3128
 20
12.498
 11
23.3753
 21
12.4921
  0
LINE
  8
0
 10
23.3753
 20
12.4921
 11
23.4374
 21
12.4823
  0
LINE
  8
0
 10
23.4374
 20
12.4823
 11
23.4987
 21
12.4686
  0
LINE
  8
0
 10
23.4987
 20
12.4686
 11
23.559
 21
12.451
  0
LINE
  8
0
 10
23.559
 20
12.451
 11
23.6181
 21
12.4298
  0
LINE
  8
0
 10
23.6181
 20
12.4298
 11
23.6758
 21
12.4048
  0
LINE
  8
0
 10
23.6758
 20
12.4048
 11
23.7318
 21
12.3763
  0
LINE
  8
0
 10
23.7318
 20
12.3763
 11
23.7858
 21
12.3443
  0
LINE
  8
0
 10
23.7858
 20
12.3443
 11
23.8378
 21
12.309
  0
LINE
  8
0
 10
23.8378
 20
12.309
 11
23.8874
 21
12.2705
  0
LINE
  8
0
 10
23.8874
 20
12.2705
 11
23.9345
 21
12.229
  0
LINE
  8
0
 10
23.9345
 20
12.229
 11
23.979
 21
12.1845
  0
LINE
  8
0
 10
23.979
 20
12.1845
 11
24.0205
 21
12.1374
  0
LINE
  8
0
 10
24.0205
 20
12.1374
 11
24.059
 21
12.0878
  0
LINE
  8
0
 10
24.059
 20
12.0878
 11
24.0943
 21
12.0358
  0
LINE
  8
0
 10
24.0943
 20
12.0358
 11
24.1263
 21
11.9818
  0
LINE
  8
0
 10
24.1263
 20
11.9818
 11
24.1548
 21
11.9258
  0
LINE
  8
0
 10
24.1548
 20
11.9258
 11
24.1798
 21
11.8681
  0
LINE
  8
0
 10
24.1798
 20
11.8681
 11
24.201
 21
11.809
  0
LINE
  8
0
 10
24.201
 20
11.809
 11
24.2186
 21
11.7487
  0
LINE
  8
0
 10
24.2186
 20
11.7487
 11
24.2323
 21
11.6874
  0
LINE
  8
0
 10
24.2323
 20
11.6874
 11
24.2421
 21
11.6253
  0
LINE
  8
0
 10
24.2421
 20
11.6253
 11
24.248
 21
11.5628
  0
LINE
  8
0
 10
24.248
 20
11.5628
 11
24.25
 21
11.5
  0
LINE
  8
0
 10
24.25
 20
11.5
 11
24.25
 21
8.5
  0
LINE
  8
0
 10
24.25
 20
8.5
 11
24.248
 21
8.43721
  0
LINE
  8
0
 10
24.248
 20
8.43721
 11
24.2421
 21
8.37468
  0
LINE
  8
0
 10
24.2421
 20
8.37468
 11
24.2323
 21
8.31262
  0
LINE
  8
0
 10
24.2323
 20
8.31262
 11
24.2186
 21
8.25131
  0
LINE
  8
0
 10
24.2186
 20
8.25131
 11
24.201
 21
8.19099
  0
LINE
  8
0
 10
24.201
 20
8.19099
 11
24.1798
 21
8.13188
  0
LINE
  8
0
 10
24.1798
 20
8.13188
 11
24.1548
 21
8.07423
  0
LINE
  8
0
 10
24.1548
 20
8.07423
 11
24.1263
 21
8.01825
  0
LINE
  8
0
 10
24.1263
 20
8.01825
 11
24.0943
 21
7.96419
  0
LINE
  8
0
 10
24.0943
 20
7.96419
 11
24.059
 21
7.91222
  0
LINE
  8
0
 10
24.059
 20
7.91222
 11
24.0205
 21
7.86258
  0
LINE
  8
0
 10
24.0205
 20
7.86258
 11
23.979
 21
7.81546
  0
LINE
  8
0
 10
23.979
 20
7.81546
 11
23.9345
 21
7.77104
  0
LINE
  8
0
 10
23.9345
 20
7.77104
 11
23.8874
 21
7.72949
  0
LINE
  8
0
 10
23.8874
 20
7.72949
 11
23.8378
 21
7.69099
  0
LINE
  8
0
 10
23.8378
 20
7.69099
 11
23.7858
 21
7.65569
  0
LINE
  8
0
 10
23.7858
 20
7.65569
 11
23.7318
 21
7.6237
  0
LINE
  8
0
 10
23.7318
 20
7.6237
 11
23.6758
 21
7.59518
  0
LINE
  8
0
 10
23.6758
 20
7.59518
 11
23.6181
 21
7.57024
  0
LINE
  8
0
 10
23.6181
 20
7.57024
 11
23.559
 21
7.54895
  0
LINE
  8
0
 10
23.559
 20
7.54895
 11
23.4987
 21
7.53142
  0
LINE
  8
0
 10
23.4987
 20
7.53142
 11
23.4374
 21
7.51772
  0
LINE
  8
0
 10
23.4374
 20
7.51772
 11
23.3753
 21
7.50789
  0
LINE
  8
0
 10
23.3753
 20
7.50789
 11
23.3128
 21
7.50198
  0
LINE
  8
0
 10
23.3128
 20
7.50198
 11
23.25
 21
7.5
  0
LINE
  8
0
 10
23.25
 20
7.5
 11
22.75
 21
7.5
  0
LINE
  8
0
 10
12.75
 20
7.5
 11
12.6872
 21
7.50198
  0
LINE
  8
0
 10
12.6872
 20
7.50198
 11
12.6247
 21
7.50789
  0
LINE
  8
0
 10
12.6247
 20
7.50789
 11
12.5626
 21
7.51772
  0
LINE
  8
0
 10
12.5626
 20
7.51772
 11
12.5013
 21
7.53142
  0
LINE
  8
0
 10
12.5013
 20
7.53142
 11
12.441
 21
7.54895
  0
LINE
  8
0
 10
12.441
 20
7.54895
 11
12.3819
 21
7.57024
  0
LINE
  8
0
 10
12.3819
 20
7.57024
 11
12.3242
 21
7.59518
  0
LINE
  8
0
 10
12.3242
 20
7.59518
 11
12.2682
 21
7.6237
  0
LINE
  8
0
 10
12.2682
 20
7.6237
 11
12.2142
 21
7.65569
  0
LINE
  8
0
 10
12.2142
 20
7.65569
 11
12.1622
 21
7.69099
  0
LINE
  8
0
 10
12.1622
 20
7.69099
 11
12.1126
 21
7.72949
  0
LINE
  8
0
 10
12.1126
 20
7.72949
 11
12.0655
 21
7.77104
  0
LINE
  8
0
 10
12.0655
 20
7.77104
 11
12.021
 21
7.81546
  0
LINE
  8
0
 10
12.021
 20
7.81546
 11
11.9795
 21
7.86258
  0
LINE
  8
0
 10
11.9795
 20
7.86258
 11
11.941
 21
7.91222
  0
LINE
  8
0
 10
11.941
 20
7.91222
 11
11.9057
 21
7.96419
  0
LINE
  8
0
 10
11.9057
 20
7.96419
 11
11.8737
 21
8.01825
  0
LINE
  8
0
 10
11.8737
 20
8.01825
 11
11.8452
 21
8.07423
  0
LINE
  8
0
 10
11.8452
 20
8.07423
 11
11.8202
 21
8.13188
  0
LINE
  8
0
 10
11.8202
 20
8.13188
 11
11.799
 21
8.19099
  0
LINE
  8
0
 10
11.799
 20
8.19099
 11
11.7814
 21
8.25131
  0
LINE
  8
0
 10
11.7814
 20
8.25131
 11
11.7677
 21
8.31262
  0
LINE
  8
0
 10
11.7677
 20
8.31262
 11
11.7579
 21
8.37468
  0
LINE
  8
0
 10
11.7579
 20
8.37468
 11
11.752
 21
8.43721
  0
LINE
  8
0
 10
11.752
 20
8.43721
 11
11.75
 21
8.5
  0
LINE
  8
0
 10
11.75
 20
8.5
 11
11.75
 21
11.5
  0
LINE
  8
0
 10
11.75
 20
11.5
 11
11.752
 21
11.5628
  0
LINE
  8
0
 10
11.752
 20
11.5628
 11
11.7579
 21
11.6253
  0
LINE
  8
0
 10
11.7579
 20
11.6253
 11
11.7677
 21
11.6874
  0
LINE
  8
0
 10
11.7677
 20
11.6874
 11
11.7814
 21
11.7487
  0
LINE
  8
0
 10
11.7814
 20
11.7487
 11
11.799
 21
11.809
  0
LINE
  8
0
 10
11.799
 20
11.809
 11
11.8202
 21
11.8681
  0
LINE
  8
0
 10
11.8202
 20
11.8681
 11
11.8452
 21
11.9258
  0
LINE
  8
0
 10
11.8452
 20
11.9258
 11
11.8737
 21
11.9818
  0
LINE
  8
0
 10
11.8737
 20
11.9818
 11
11.9057
 21
12.0358
  0
LINE
  8
0
 10
11.9057
 20
12.0358
 11
11.941
 21
12.0878
  0
LINE
  8
0
 10
11.941
 20
12.0878
 11
11.9795
 21
12.1374
  0
LINE
  8
0
 10
11.9795
 20
12.1374
 11
12.021
 21
12.1845
  0
LINE
  8
0
 10
12.021
 20
12.1845
 11
12.0655
 21
12.229
  0
LINE
  8
0
 10
12.0655
 20
12.229
 11
12.1126
 21
12.2705
  0
LINE
  8
0
 10
12.1126
 20
12.2705
 11
12.1622
 21
12.309
  0
LINE
  8
0
 10
12.1622
 20
12.309
 11
12.2142
 21
12.3443
  0
LINE
  8
0
 10
12.2142
 20
12.3443
 11
12.2682
 21
12.3763
  0
LINE
  8
0
 10
12.2682
 20
12.3763
 11
12.3242
 21
12.4048
  0
LINE
  8
0
 10
12.3242
 20
12.4048
 11
12.3819
 21
12.4298
  0
LINE
  8
0
 10
12.3819
 20
12.4298
 11
12.441
 21
12.451
  0
LINE
  8
0
 10
12.441
 20
12.451
 11
12.5013
 21
12.4686
  0
LINE
  8
0
 10
12.5013
 20
12.4686
 11
12.5626
 21
12.4823
  0
LINE
  8
0
 10
12.5626
 20
12.4823
 11
12.6247
 21
12.4921
  0
LINE
  8
0
 10
12.6247
 20
12.4921
 11
12.6872
 21
12.498
  0
LINE
  8
0
 10
12.6872
 20
12.498
 11
12.75
 21
12.5
  0
LINE
  8
0
 10
12.75
 20
12.5
 11
13.25
 21
12.5
  0
LINE
  8
0
 10
13.25
 20
12.5
 11
13.3128
 21
12.498
  0
LINE
  8
0
 10
13.3128
 20
12.498
 11
13.3753
 21
12.4921
  0
LINE
  8
0
 10
13.3753
 20
12.4921
 11
13.4374
 21
12.4823
  0
LINE
  8
0
 10
13.4374
 20
12.4823
 11
13.4987
 21
12.4686
  0
LINE
  8
0
 10
13.4987
 20
12.4686
 11
13.559
 21
12.451
  0
LINE
  8
0
 10
13.559
 20
12.451
 11
13.6181
 21
12.4298
  0
LINE
  8
0
 10
13.6181
 20
12.4298
 11
13.6758
 21
12.4048
  0
LINE
  8
0
 10
13.6758
 20
12.4048
 11
13.7318
 21
12.3763
  0
LINE
  8
0
 10
13.7318
 20
12.3763
 11
13.7858
 21
12.3443
  0
LINE
  8
0
 10
13.7858
 20
12.3443
 11
13.8378
 21
12.309
  0
LINE
  8
0
 10
13.8378
 20
12.309
 11
13.8874
 21
12.2705
  0
LINE
  8
0
 10
13.8874
 20
12.2705
 11
13.9345
 21
12.229
  0
LINE
  8
0
 10
13.9345
 20
12.229
 11
13.979
 21
12.1845
  0
LINE
  8
0
 10
13.979
 20
12.1845
 11
14.0205
 21
12.1374
  0
LINE
  8
0
 10
14.0205
 20
12.1374
 11
14.059
 21
12.0878
  0
LINE
  8
0
 10
14.059
 20
12.0878
 11
14.0943
 21
12.0358
  0
LINE
  8
0
 10
14.0943
 20
12.0358
 11
14.1263
 21
11.9818
  0
LINE
  8
0
 10
14.1263
 20
11.9818
 11
14.1548
 21
11.9258
  0
LINE
  8
0
 10
14.1548
 20
11.9258
 11
14.1798
 21
11.8681
  0
LINE
  8
0
 10
14.1798
 20
11.8681
 11
14.201
 21
11.809
  0
LINE
  8
0
 10
14.201
 20
11.809
 11
14.2186
 21
11.7487
  0
LINE
  8
0
 10
14.2186
 20
11.7487
 11
14.2323
 21
11.6874
  0
LINE
  8
0
 10
14.2323
 20
11.6874
 11
14.2421
 21
11.6253
  0
LINE
  8
0
 10
14.2421
 20
11.6253
 11
14.248
 21
11.5628
  0
LINE
  8
0
 10
14.248
 20
11.5628
 11
14.25
 21
11.5
  0
LINE
  8
0
 10
14.25
 20
11.5
 11
14.25
 21
8.5
  0
LINE
  8
0
 10
14.25
 20
8.5
 11
14.248
 21
8.43721
  0
LINE
  8
0
 10
14.248
 20
8.43721
 11
14.2421
 21
8.37468
  0
LINE
  8
0
 10
14.2421
 20
8.37468
 11
14.2323
 21
8.31262
  0
LINE
  8
0
 10
14.2323
 20
8.31262
 11
14.2186
 21
8.25131
  0
LINE
  8
0
 10
14.2186
 20
8.25131
 11
14.201
 21
8.19099
  0
LINE
  8
0
 10
14.201
 20
8.19099
 11
14.1798
 21
8.13188
  0
LINE
  8
0
 10
14.1798
 20
8.13188
 11
14.1548
 21
8.07423
  0
LINE
  8
0
 10
14.1548
 20
8.07423
 11
14.1263
 21
8.01825
  0
LINE
  8
0
 10
14.1263
 20
8.01825
 11
14.0943
 21
7.96419
  0
LINE
  8
0
 10
14.0943
 20
7.96419
 11
14.059
 21
7.91222
  0
LINE
  8
0
 10
14.059
 20
7.91222
 11
14.0205
 21
7.86258
  0
LINE
  8
0
 10
14.0205
 20
7.86258
 11
13.979
 21
7.81546
  0
LINE
  8
0
 10
13.979
 20
7.81546
 11
13.9345
 21
7.77104
  0
LINE
  8
0
 10
13.9345
 20
7.77104
 11
13.8874
 21
7.72949
  0
LINE
  8
0
 10
13.8874
 20
7.72949
 11
13.8378
 21
7.69099
  0
LINE
  8
0
 10
13.8378
 20
7.69099
 11
13.7858
 21
7.65569
  0
LINE
  8
0
 10
13.7858
 20
7.65569
 11
13.7318
 21
7.6237
  0
LINE
  8
0
 10
13.7318
 20
7.6237
 11
13.6758
 21
7.59518
  0
LINE
  8
0
 10
13.6758
 20
7.59518
 11
13.6181
 21
7.57024
  0
LINE
  8
0
 10
13.6181
 20
7.57024
 11
13.559
 21
7.54895
  0
LINE
  8
0
 10
13.559
 20
7.54895
 11
13.4987
 21
7.53142
  0
LINE
  8
0
 10
13.4987
 20
7.53142
 11
13.4374
 21
7.51772
  0
LINE
  8
0
 10
13.4374
 20
7.51772
 11
13.3753
 21
7.50789
  0
LINE
  8
0
 10
13.3753
 20
7.50789
 11
13.3128
 21
7.50198
  0
LINE
  8
0
 10
13.3128
 20
7.50198
 11
13.25
 21
7.5
  0
LINE
  8
0
 10
13.25
 20
7.5
 11
12.75
 21
7.5
  0
LINE
  8
0
 10
-13.25
 20
7.5
 11
-13.3128
 21
7.50198
  0
LINE
  8
0
 10
-13.3128
 20
7.50198
 11
-13.3753
 21
7.50789
  0
LINE
  8
0
 10
-13.3753
 20
7.50789
 11
-13.4374
 21
7.51772
  0
LINE
  8
0
 10
-13.4374
 20
7.51772
 11
-13.4987
 21
7.53142
  0
LINE
  8
0
 10
-13.4987
 20
7.53142
 11
-13.559
 21
7.54895
  0
LINE
  8
0
 10
-13.559
 20
7.54895
 11
-13.6181
 21
7.57024
  0
LINE
  8
0
 10
-13.6181
 20
7.57024
 11
-13.6758
 21
7.59518
  0
LINE
  8
0
 10
-13.6758
 20
7.59518
 11
-13.7318
 21
7.6237
  0
LINE
  8
0
 10
-13.7318
 20
7.6237
 11
-13.7858
 21
7.65569
  0
LINE
  8
0
 10
-13.7858
 20
7.65569
 11
-13.8378
 21
7.69099
  0
LINE
  8
0
 10
-13.8378
 20
7.69099
 11
-13.8874
 21
7.72949
  0
LINE
  8
0
 10
-13.8874
 20
7.72949
 11
-13.9345
 21
7.77104
  0
LINE
  8
0
 10
-13.9345
 20
7.77104
 11
-13.979
 21
7.81546
  0
LINE
  8
0
 10
-13.979
 20
7.81546
 11
-14.0205
 21
7.86258
  0
LINE
  8
0
 10
-14.0205
 20
7.86258
 11
-14.059
 21
7.91222
  0
LINE
  8
0
 10
-14.059
 20
7.91222
 11
-14.0943
 21
7.96419
  0
LINE
  8
0
 10
-14.0943
 20
7.96419
 11
-14.1263
 21
8.01825
  0
LINE
  8
0
 10
-14.1263
 20
8.01825
 11
-14.1548
 21
8.07423
  0
LINE
  8
0
 10
-14.1548
 20
8.07423
 11
-14.1798
 21
8.13188
  0
LINE
  8
0
 10
-14.1798
 20
8.13188
 11
-14.201
 21
8.19099
  0
LINE
  8
0
 10
-14.201
 20
8.19099
 11
-14.2186
 21
8.25131
  0
LINE
  8
0
 10
-14.2186
 20
8.25131
 11
-14.2323
 21
8.31262
  0
LINE
  8
0
 10
-14.2323
 20
8.31262
 11
-14.2421
 21
8.37468
  0
LINE
  8
0
 10
-14.2421
 20
8.37468
 11
-14.248
 21
8.43721
  0
LINE
  8
0
 10
-14.248
 20
8.43721
 11
-14.25
 21
8.5
  0
LINE
  8
0
 10
-14.25
 20
8.5
 11
-14.25
 21
11.5
  0
LINE
  8
0
 10
-14.25
 20
11.5
 11
-14.248
 21
11.5628
  0
LINE
  8
0
 10
-14.248
 20
11.5628
 11
-14.2421
 21
11.6253
  0
LINE
  8
0
 10
-14.2421
 20
11.6253
 11
-14.2323
 21
11.6874
  0
LINE
  8
0
 10
-14.2323
 20
11.6874
 11
-14.2186
 21
11.7487
  0
LINE
  8
0
 10
-14.2186
 20
11.7487
 11
-14.201
 21
11.809
  0
LINE
  8
0
 10
-14.201
 20
11.809
 11
-14.1798
 21
11.8681
  0
LINE
  8
0
 10
-14.1798
 20
11.8681
 11
-14.1548
 21
11.9258
  0
LINE
  8
0
 10
-14.1548
 20
11.9258
 11
-14.1263
 21
11.9818
  0
LINE
  8
0
 10
-14.1263
 20
11.9818
 11
-14.0943
 21
12.0358
  0
LINE
  8
0
 10
-14.0943
 20
12.0358
 11
-14.059
 21
12.0878
  0
LINE
  8
0
 10
-14.059
 20
12.0878
 11
-14.0205
 21
12.1374
  0
LINE
  8
0
 10
-14.0205
 20
12.1374
 11
-13.979
 21
12.1845
  0
LINE
  8
0
 10
-13.979
 20
12.1845
 11
-13.9345
 21
12.229
  0
LINE
  8
0
 10
-13.9345
 20
12.229
 11
-13.8874
 21
12.2705
  0
LINE
  8
0
 10
-13.8874
 20
12.2705
 11
-13.8378
 21
12.309
  0
LINE
  8
0
 10
-13.8378
 20
12.309
 11
-13.7858
 21
12.3443
  0
LINE
  8
0
 10
-13.7858
 20
12.3443
 11
-13.7318
 21
12.3763
  0
LINE
  8
0
 10
-13.7318
 20
12.3763
 11
-13.6758
 21
12.4048
  0
LINE
  8
0
 10
-13.6758
 20
12.4048
 11
-13.6181
 21
12.4298
  0
LINE
  8
0
 10
-13.6181
 20
12.4298
 11
-13.559
 21
12.451
  0
LINE
  8
0
 10
-13.559
 20
12.451
 11
-13.4987
 21
12.4686
  0
LINE
  8
0
 10
-13.4987
 20
12.4686
 11
-13.4374
 21
12.4823
  0
LINE
  8
0
 10
-13.4374
 20
12.4823
 11
-13.3753
 21
12.4921
  0
LINE
  8
0
 10
-13.3753
 20
12.4921
 11
-13.3128
 21
12.498
  0
LINE
  8
0
 10
-13.3128
 20
12.498
 11
-13.25
 21
12.5
  0
LINE
  8
0
 10
-13.25
 20
12.5
 11
-12.75
 21
12.5
  0
LINE
  8
0
 10
-12.75
 20
12.5
 11
-12.6872
 21
12.498
  0
LINE
  8
0
 10
-12.6872
 20
12.498
 11
-12.6247
 21
12.4921
  0
LINE
  8
0
 10
-12.6247
 20
12.4921
 11
-12.5626
 21
12.4823
  0
LINE
  8
0
 10
-12.5626
 20
12.4823
 11
-12.5013
 21
12.4686
  0
LINE
  8
0
 10
-12.5013
 20
12.4686
 11
-12.441
 21
12.451
  0
LINE
  8
0
 10
-12.441
 20
12.451
 11
-12.3819
 21
12.4298
  0
LINE
  8
0
 10
-12.3819
 20
12.4298
 11
-12.3242
 21
12.4048
  0
LINE
  8
0
 10
-12.3242
 20
12.4048
 11
-12.2682
 21
12.3763
  0
LINE
  8
0
 10
-12.2682
 20
12.3763
 11
-12.2142
 21
12.3443
  0
LINE
  8
0
 10
-12.2142
 20
12.3443
 11
-12.1622
 21
12.309
  0
LINE
  8
0
 10
-12.1622
 20
12.309
 11
-12.1126
 21
12.2705
  0
LINE
  8
0
 10
-12.1126
 20
12.2705
 11
-12.0655
 21
12.229
  0
LINE
  8
0
 10
-12.0655
 20
12.229
 11
-12.021
 21
12.1845
  0
LINE
  8
0
 10
-12.021
 20
12.1845
 11
-11.9795
 21
12.1374
  0
LINE
  8
0
 10
-11.9795
 20
12.1374
 11
-11.941
 21
12.0878
  0
LINE
  8
0
 10
-11.941
 20
12.0878
 11
-11.9057
 21
12.0358
  0
LINE
  8
0
 10
-11.9057
 20
12.0358
 11
-11.8737
 21
11.9818
  0
LINE
  8
0
 10
-11.8737
 20
11.9818
 11
-11.8452
 21
11.9258
  0
LINE
  8
0
 10
-11.8452
 20
11.9258
 11
-11.8202
 21
11.8681
  0
LINE
  8
0
 10
-11.8202
 20
11.8681
 11
-11.799
 21
11.809
  0
LINE
  8
0
 10
-11.799
 20
11.809
 11
-11.7814
 21
11.7487
  0
LINE
  8
0
 10
-11.7814
 20
11.7487
 11
-11.7677
 21
11.6874
  0
LINE
  8
0
 10
-11.7677
 20
11.6874
 11
-11.7579
 21
11.6253
  0
LINE
  8
0
 10
-11.7579
 20
11.6253
 11
-11.752
 21
11.5628
  0
LINE
  8
0
 10
-11.752
 20
11.5628
 11
-11.75
 21
11.5
  0
LINE
  8
0
 10
-11.75
 20
11.5
 11
-11.75
 21
8.5
  0
LINE
  8
0
 10
-11.75
 20
8.5
 11
-11.752
 21
8.43721
  0
LINE
  8
0
 10
-11.752
 20
8.43721
 11
-11.7579
 21
8.37468
  0
LINE
  8
0
 10
-11.7579
 20
8.37468
 11
-11.7677
 21
8.31262
  0
LINE
  8
0
 10
-11.7677
 20
8.31262
 11
-11.7814
 21
8.25131
  0
LINE
  8
0
 10
-11.7814
 20
8.25131
 11
-11.799
 21
8.19099
  0
LINE
  8
0
 10
-11.799
 20
8.19099
 11
-11.8202
 21
8.13188
  0
LINE
  8
0
 10
-11.8202
 20
8.13188
 11
-11.8452
 21
8.07423
  0
LINE
  8
0
 10
-11.8452
 20
8.07423
 11
-11.8737
 21
8.01825
  0
LINE
  8
0
 10
-11.8737
 20
8.01825
 11
-11.9057
 21
7.96419
  0
LINE
  8
0
 10
-11.9057
 20
7.96419
 11
-11.941
 21
7.91222
  0
LINE
  8
0
 10
-11.941
 20
7.91222
 11
-11.9795
 21
7.86258
  0
LINE
  8
0
 10
-11.9795
 20
7.86258
 11
-12.021
 21
7.81546
  0
LINE
  8
0
 10
-12.021
 20
7.81546
 11
-12.0655
 21
7.77104
  0
LINE
  8
0
 10
-12.0655
 20
7.77104
 11
-12.1126
 21
7.72949
  0
LINE
  8
0
 10
-12.1126
 20
7.72949
 11
-12.1622
 21
7.69099
  0
LINE
  8
0
 10
-12.1622
 20
7.69099
 11
-12.2142
 21
7.65569
  0
LINE
  8
0
 10
-12.2142
 20
7.65569
 11
-12.2682
 21
7.6237
  0
LINE
  8
0
 10
-12.2682
 20
7.6237
 11
-12.3242
 21
7.59518
  0
LINE
  8
0
 10
-12.3242
 20
7.59518
 11
-12.3819
 21
7.57024
  0
LINE
  8
0
 10
-12.3819
 20
7.57024
 11
-12.441
 21
7.54895
  0
LINE
  8
0
 10
-12.441
 20
7.54895
 11
-12.5013
 21
7.53142
  0
LINE
  8
0
 10
-12.5013
 20
7.53142
 11
-12.5626
 21
7.51772
  0
LINE
  8
0
 10
-12.5626
 20
7.51772
 11
-12.6247
 21
7.50789
  0
LINE
  8
0
 10
-12.6247
 20
7.50789
 11
-12.6872
 21
7.50198
  0
LINE
  8
0
 10
-12.6872
 20
7.50198
 11
-12.75
 21
7.5
  0
LINE
  8
0
 10
-12.75
 20
7.5
 11
-13.25
 21
7.5
  0
LINE
  8
0
 10
-6.79999
 20
9.75002
 11
-6.87534
 21
9.75238
  0
LINE
  8
0
 10
-6.87534
 20
9.75238
 11
-6.95038
 21
9.75948
  0
LINE
  8
0
 10
-6.95038
 20
9.75948
 11
-7.02484
 21
9.77127
  0
LINE
  8
0
 10
-7.02484
 20
9.77127
 11
-7.0984
 21
9.78772
  0
LINE
  8
0
 10
-7.0984
 20
9.78772
 11
-7.17081
 21
9.80875
  0
LINE
  8
0
 10
-7.17081
 20
9.80875
 11
-7.24173
 21
9.83429
  0
LINE
  8
0
 10
-7.24173
 20
9.83429
 11
-7.31091
 21
9.86423
  0
LINE
  8
0
 10
-7.31091
 20
9.86423
 11
-7.37808
 21
9.89845
  0
LINE
  8
0
 10
-7.37808
 20
9.89845
 11
-7.44298
 21
9.93683
  0
LINE
  8
0
 10
-7.44298
 20
9.93683
 11
-7.50533
 21
9.9792
  0
LINE
  8
0
 10
-7.50533
 20
9.9792
 11
-7.5649
 21
10.0254
  0
LINE
  8
0
 10
-7.5649
 20
10.0254
 11
-7.62143
 21
10.0753
  0
LINE
  8
0
 10
-7.62143
 20
10.0753
 11
-7.67474
 21
10.1286
  0
LINE
  8
0
 10
-7.67474
 20
10.1286
 11
-7.72459
 21
10.1851
  0
LINE
  8
0
 10
-7.72459
 20
10.1851
 11
-7.7708
 21
10.2447
  0
LINE
  8
0
 10
-7.7708
 20
10.2447
 11
-7.81317
 21
10.307
  0
LINE
  8
0
 10
-7.81317
 20
10.307
 11
-7.85155
 21
10.3719
  0
LINE
  8
0
 10
-7.85155
 20
10.3719
 11
-7.88577
 21
10.4391
  0
LINE
  8
0
 10
-7.88577
 20
10.4391
 11
-7.91571
 21
10.5083
  0
LINE
  8
0
 10
-7.91571
 20
10.5083
 11
-7.94125
 21
10.5792
  0
LINE
  8
0
 10
-7.94125
 20
10.5792
 11
-7.96228
 21
10.6516
  0
LINE
  8
0
 10
-7.96228
 20
10.6516
 11
-7.97873
 21
10.7252
  0
LINE
  8
0
 10
-7.97873
 20
10.7252
 11
-7.99052
 21
10.7996
  0
LINE
  8
0
 10
-7.99052
 20
10.7996
 11
-7.99762
 21
10.8747
  0
LINE
  8
0
 10
-7.99762
 20
10.8747
 11
-7.99998
 21
10.95
  0
LINE
  8
0
 10
-7.99998
 20
10.95
 11
-7.99998
 21
11.05
  0
LINE
  8
0
 10
-7.99998
 20
11.05
 11
-7.99762
 21
11.1253
  0
LINE
  8
0
 10
-7.99762
 20
11.1253
 11
-7.99052
 21
11.2004
  0
LINE
  8
0
 10
-7.99052
 20
11.2004
 11
-7.97873
 21
11.2748
  0
LINE
  8
0
 10
-7.97873
 20
11.2748
 11
-7.96228
 21
11.3484
  0
LINE
  8
0
 10
-7.96228
 20
11.3484
 11
-7.94125
 21
11.4208
  0
LINE
  8
0
 10
-7.94125
 20
11.4208
 11
-7.91571
 21
11.4917
  0
LINE
  8
0
 10
-7.91571
 20
11.4917
 11
-7.88577
 21
11.5609
  0
LINE
  8
0
 10
-7.88577
 20
11.5609
 11
-7.85155
 21
11.6281
  0
LINE
  8
0
 10
-7.85155
 20
11.6281
 11
-7.81317
 21
11.693
  0
LINE
  8
0
 10
-7.81317
 20
11.693
 11
-7.7708
 21
11.7553
  0
LINE
  8
0
 10
-7.7708
 20
11.7553
 11
-7.72459
 21
11.8149
  0
LINE
  8
0
 10
-7.72459
 20
11.8149
 11
-7.67474
 21
11.8714
  0
LINE
  8
0
 10
-7.67474
 20
11.8714
 11
-7.62143
 21
11.9247
  0
LINE
  8
0
 10
-7.62143
 20
11.9247
 11
-7.5649
 21
11.9746
  0
LINE
  8
0
 10
-7.5649
 20
11.9746
 11
-7.50533
 21
12.0208
  0
LINE
  8
0
 10
-7.50533
 20
12.0208
 11
-7.44298
 21
12.0632
  0
LINE
  8
0
 10
-7.44298
 20
12.0632
 11
-7.37808
 21
12.1015
  0
LINE
  8
0
 10
-7.37808
 20
12.1015
 11
-7.31091
 21
12.1358
  0
LINE
  8
0
 10
-7.31091
 20
12.1358
 11
-7.24173
 21
12.1657
  0
LINE
  8
0
 10
-7.24173
 20
12.1657
 11
-7.17081
 21
12.1913
  0
LINE
  8
0
 10
-7.17081
 20
12.1913
 11
-7.0984
 21
12.2123
  0
LINE
  8
0
 10
-7.0984
 20
12.2123
 11
-7.02484
 21
12.2287
  0
LINE
  8
0
 10
-7.02484
 20
12.2287
 11
-6.95038
 21
12.2405
  0
LINE
  8
0
 10
-6.95038
 20
12.2405
 11
-6.87534
 21
12.2476
  0
LINE
  8
0
 10
-6.87534
 20
12.2476
 11
-6.79999
 21
12.25
  0
LINE
  8
0
 10
-6.79999
 20
12.25
 11
6.79999
 21
12.25
  0
LINE
  8
0
 10
6.79999
 20
12.25
 11
6.87534
 21
12.2476
  0
LINE
  8
0
 10
6.87534
 20
12.2476
 11
6.95038
 21
12.2405
  0
LINE
  8
0
 10
6.95038
 20
12.2405
 11
7.02484
 21
12.2287
  0
LINE
  8
0
 10
7.02484
 20
12.2287
 11
7.0984
 21
12.2123
  0
LINE
  8
0
 10
7.0984
 20
12.2123
 11
7.17081
 21
12.1913
  0
LINE
  8
0
 10
7.17081
 20
12.1913
 11
7.24173
 21
12.1657
  0
LINE
  8
0
 10
7.24173
 20
12.1657
 11
7.31091
 21
12.1358
  0
LINE
  8
0
 10
7.31091
 20
12.1358
 11
7.37808
 21
12.1015
  0
LINE
  8
0
 10
7.37808
 20
12.1015
 11
7.44298
 21
12.0632
  0
LINE
  8
0
 10
7.44298
 20
12.0632
 11
7.50533
 21
12.0208
  0
LINE
  8
0
 10
7.50533
 20
12.0208
 11
7.5649
 21
11.9746
  0
LINE
  8
0
 10
7.5649
 20
11.9746
 11
7.62143
 21
11.9247
  0
LINE
  8
0
 10
7.62143
 20
11.9247
 11
7.67474
 21
11.8714
  0
LINE
  8
0
 10
7.67474
 20
11.8714
 11
7.72459
 21
11.8149
  0
LINE
  8
0
 10
7.72459
 20
11.8149
 11
7.7708
 21
11.7553
  0
LINE
  8
0
 10
7.7708
 20
11.7553
 11
7.81317
 21
11.693
  0
LINE
  8
0
 10
7.81317
 20
11.693
 11
7.85155
 21
11.6281
  0
LINE
  8
0
 10
7.85155
 20
11.6281
 11
7.88577
 21
11.5609
  0
LINE
  8
0
 10
7.88577
 20
11.5609
 11
7.91571
 21
11.4917
  0
LINE
  8
0
 10
7.91571
 20
11.4917
 11
7.94125
 21
11.4208
  0
LINE
  8
0
 10
7.94125
 20
11.4208
 11
7.96228
 21
11.3484
  0
LINE
  8
0
 10
7.96228
 20
11.3484
 11
7.97873
 21
11.2748
  0
LINE
  8
0
 10
7.97873
 20
11.2748
 11
7.99052
 21
11.2004
  0
LINE
  8
0
 10
7.99052
 20
11.2004
 11
7.99762
 21
11.1253
  0
LINE
  8
0
 10
7.99762
 20
11.1253
 11
7.99998
 21
11.05
  0
LINE
  8
0
 10
7.99998
 20
11.05
 11
7.99998
 21
10.95
  0
LINE
  8
0
 10
7.99998
 20
10.95
 11
7.99762
 21
10.8747
  0
LINE
  8
0
 10
7.99762
 20
10.8747
 11
7.99052
 21
10.7996
  0
LINE
  8
0
 10
7.99052
 20
10.7996
 11
7.97873
 21
10.7252
  0
LINE
  8
0
 10
7.97873
 20
10.7252
 11
7.96228
 21
10.6516
  0
LINE
  8
0
 10
7.96228
 20
10.6516
 11
7.94125
 21
10.5792
  0
LINE
  8
0
 10
7.94125
 20
10.5792
 11
7.91571
 21
10.5083
  0
LINE
  8
0
 10
7.91571
 20
10.5083
 11
7.88577
 21
10.4391
  0
LINE
  8
0
 10
7.88577
 20
10.4391
 11
7.85155
 21
10.3719
  0
LINE
  8
0
 10
7.85155
 20
10.3719
 11
7.81317
 21
10.307
  0
LINE
  8
0
 10
7.81317
 20
10.307
 11
7.7708
 21
10.2447
  0
LINE
  8
0
 10
7.7708
 20
10.2447
 11
7.72459
 21
10.1851
  0
LINE
  8
0
 10
7.72459
 20
10.1851
 11
7.67474
 21
10.1286
  0
LINE
  8
0
 10
7.67474
 20
10.1286
 11
7.62143
 21
10.0753
  0
LINE
  8
0
 10
7.62143
 20
10.0753
 11
7.5649
 21
10.0254
  0
LINE
  8
0
 10
7.5649
 20
10.0254
 11
7.50533
 21
9.9792
  0
LINE
  8
0
 10
7.50533
 20
9.9792
 11
7.44298
 21
9.93683
  0
LINE
  8
0
 10
7.44298
 20
9.93683
 11
7.37808
 21
9.89845
  0
LINE
  8
0
 10
7.37808
 20
9.89845
 11
7.31091
 21
9.86423
  0
LINE
  8
0
 10
7.31091
 20
9.86423
 11
7.24173
 21
9.83429
  0
LINE
  8
0
 10
7.24173
 20
9.83429
 11
7.17081
 21
9.80875
  0
LINE
  8
0
 10
7.17081
 20
9.80875
 11
7.0984
 21
9.78772
  0
LINE
  8
0
 10
7.0984
 20
9.78772
 11
7.02484
 21
9.77127
  0
LINE
  8
0
 10
7.02484
 20
9.77127
 11
6.95038
 21
9.75948
  0
LINE
  8
0
 10
6.95038
 20
9.75948
 11
6.87534
 21
9.75238
  0
LINE
  8
0
 10
6.87534
 20
9.75238
 11
6.79999
 21
9.75002
  0
LINE
  8
0
 10
6.79999
 20
9.75002
 11
-6.79999
 21
9.75002
  0
LINE
  8
0
 10
-13.25
 20
-2.5
 11
-13.3128
 21
-2.49802
  0
LINE
  8
0
 10
-13.3128
 20
-2.49802
 11
-13.3753
 21
-2.49211
  0
LINE
  8
0
 10
-13.3753
 20
-2.49211
 11
-13.4374
 21
-2.48228
  0
LINE
  8
0
 10
-13.4374
 20
-2.48228
 11
-13.4987
 21
-2.46858
  0
LINE
  8
0
 10
-13.4987
 20
-2.46858
 11
-13.559
 21
-2.45105
  0
LINE
  8
0
 10
-13.559
 20
-2.45105
 11
-13.6181
 21
-2.42976
  0
LINE
  8
0
 10
-13.6181
 20
-2.42976
 11
-13.6758
 21
-2.40482
  0
LINE
  8
0
 10
-13.6758
 20
-2.40482
 11
-13.7318
 21
-2.3763
  0
LINE
  8
0
 10
-13.7318
 20
-2.3763
 11
-13.7858
 21
-2.34431
  0
LINE
  8
0
 10
-13.7858
 20
-2.34431
 11
-13.8378
 21
-2.30901
  0
LINE
  8
0
 10
-13.8378
 20
-2.30901
 11
-13.8874
 21
-2.27051
  0
LINE
  8
0
 10
-13.8874
 20
-2.27051
 11
-13.9345
 21
-2.22896
  0
LINE
  8
0
 10
-13.9345
 20
-2.22896
 11
-13.979
 21
-2.18454
  0
LINE
  8
0
 10
-13.979
 20
-2.18454
 11
-14.0205
 21
-2.13742
  0
LINE
  8
0
 10
-14.0205
 20
-2.13742
 11
-14.059
 21
-2.08778
  0
LINE
  8
0
 10
-14.059
 20
-2.08778
 11
-14.0943
 21
-2.03581
  0
LINE
  8
0
 10
-14.0943
 20
-2.03581
 11
-14.1263
 21
-1.98175
  0
LINE
  8
0
 10
-14.1263
 20
-1.98175
 11
-14.1548
 21
-1.92577
  0
LINE
  8
0
 10
-14.1548
 20
-1.92577
 11
-14.1798
 21
-1.86812
  0
LINE
  8
0
 10
-14.1798
 20
-1.86812
 11
-14.201
 21
-1.80901
  0
LINE
  8
0
 10
-14.201
 20
-1.80901
 11
-14.2186
 21
-1.74869
  0
LINE
  8
0
 10
-14.2186
 20
-1.74869
 11
-14.2323
 21
-1.68738
  0
LINE
  8
0
 10
-14.2323
 20
-1.68738
 11
-14.2421
 21
-1.62532
  0
LINE
  8
0
 10
-14.2421
 20
-1.62532
 11
-14.248
 21
-1.56279
  0
LINE
  8
0
 10
-14.248
 20
-1.56279
 11
-14.25
 21
-1.5
  0
LINE
  8
0
 10
-14.25
 20
-1.5
 11
-14.25
 21
1.5
  0
LINE
  8
0
 10
-14.25
 20
1.5
 11
-14.248
 21
1.56279
  0
LINE
  8
0
 10
-14.248
 20
1.56279
 11
-14.2421
 21
1.62532
  0
LINE
  8
0
 10
-14.2421
 20
1.62532
 11
-14.2323
 21
1.68738
  0
LINE
  8
0
 10
-14.2323
 20
1.68738
 11
-14.2186
 21
1.74869
  0
LINE
  8
0
 10
-14.2186
 20
1.74869
 11
-14.201
 21
1.80901
  0
LINE
  8
0
 10
-14.201
 20
1.80901
 11
-14.1798
 21
1.86812
  0
LINE
  8
0
 10
-14.1798
 20
1.86812
 11
-14.1548
 21
1.92577
  0
LINE
  8
0
 10
-14.1548
 20
1.92577
 11
-14.1263
 21
1.98175
  0
LINE
  8
0
 10
-14.1263
 20
1.98175
 11
-14.0943
 21
2.03581
  0
LINE
  8
0
 10
-14.0943
 20
2.03581
 11
-14.059
 21
2.08778
  0
LINE
  8
0
 10
-14.059
 20
2.08778
 11
-14.0205
 21
2.13742
  0
LINE
  8
0
 10
-14.0205
 20
2.13742
 11
-13.979
 21
2.18454
  0
LINE
  8
0
 10
-13.979
 20
2.18454
 11
-13.9345
 21
2.22896
  0
LINE
  8
0
 10
-13.9345
 20
2.22896
 11
-13.8874
 21
2.27051
  0
LINE
  8
0
 10
-13.8874
 20
2.27051
 11
-13.8378
 21
2.30901
  0
LINE
  8
0
 10
-13.8378
 20
2.30901
 11
-13.7858
 21
2.34431
  0
LINE
  8
0
 10
-13.7858
 20
2.34431
 11
-13.7318
 21
2.3763
  0
LINE
  8
0
 10
-13.7318
 20
2.3763
 11
-13.6758
 21
2.40482
  0
LINE
  8
0
 10
-13.6758
 20
2.40482
 11
-13.6181
 21
2.42976
  0
LINE
  8
0
 10
-13.6181
 20
2.42976
 11
-13.559
 21
2.45105
  0
LINE
  8
0
 10
-13.559
 20
2.45105
 11
-13.4987
 21
2.46858
  0
LINE
  8
0
 10
-13.4987
 20
2.46858
 11
-13.4374
 21
2.48228
  0
LINE
  8
0
 10
-13.4374
 20
2.48228
 11
-13.3753
 21
2.49211
  0
LINE
  8
0
 10
-13.3753
 20
2.49211
 11
-13.3128
 21
2.49802
  0
LINE
  8
0
 10
-13.3128
 20
2.49802
 11
-13.25
 21
2.5
  0
LINE
  8
0
 10
-13.25
 20
2.5
 11
-12.75
 21
2.5
  0
LINE
  8
0
 10
-12.75
 20
2.5
 11
-12.6872
 21
2.49802
  0
LINE
  8
0
 10
-12.6872
 20
2.49802
 11
-12.6247
 21
2.49211
  0
LINE
  8
0
 10
-12.6247
 20
2.49211
 11
-12.5626
 21
2.48228
  0
LINE
  8
0
 10
-12.5626
 20
2.48228
 11
-12.5013
 21
2.46858
  0
LINE
  8
0
 10
-12.5013
 20
2.46858
 11
-12.441
 21
2.45105
  0
LINE
  8
0
 10
-12.441
 20
2.45105
 11
-12.3819
 21
2.42976
  0
LINE
  8
0
 10
-12.3819
 20
2.42976
 11
-12.3242
 21
2.40482
  0
LINE
  8
0
 10
-12.3242
 20
2.40482
 11
-12.2682
 21
2.3763
  0
LINE
  8
0
 10
-12.2682
 20
2.3763
 11
-12.2142
 21
2.34431
  0
LINE
  8
0
 10
-12.2142
 20
2.34431
 11
-12.1622
 21
2.30901
  0
LINE
  8
0
 10
-12.1622
 20
2.30901
 11
-12.1126
 21
2.27051
  0
LINE
  8
0
 10
-12.1126
 20
2.27051
 11
-12.0655
 21
2.22896
  0
LINE
  8
0
 10
-12.0655
 20
2.22896
 11
-12.021
 21
2.18454
  0
LINE
  8
0
 10
-12.021
 20
2.18454
 11
-11.9795
 21
2.13742
  0
LINE
  8
0
 10
-11.9795
 20
2.13742
 11
-11.941
 21
2.08778
  0
LINE
  8
0
 10
-11.941
 20
2.08778
 11
-11.9057
 21
2.03581
  0
LINE
  8
0
 10
-11.9057
 20
2.03581
 11
-11.8737
 21
1.98175
  0
LINE
  8
0
 10
-11.8737
 20
1.98175
 11
-11.8452
 21
1.92577
  0
LINE
  8
0
 10
-11.8452
 20
1.92577
 11
-11.8202
 21
1.86812
  0
LINE
  8
0
 10
-11.8202
 20
1.86812
 11
-11.799
 21
1.80901
  0
LINE
  8
0
 10
-11.799
 20
1.80901
 11
-11.7814
 21
1.74869
  0
LINE
  8
0
 10
-11.7814
 20
1.74869
 11
-11.7677
 21
1.68738
  0
LINE
  8
0
 10
-11.7677
 20
1.68738
 11
-11.7579
 21
1.62532
  0
LINE
  8
0
 10
-11.7579
 20
1.62532
 11
-11.752
 21
1.56279
  0
LINE
  8
0
 10
-11.752
 20
1.56279
 11
-11.75
 21
1.5
  0
LINE
  8
0
 10
-11.75
 20
1.5
 11
-11.75
 21
1.16212
  0
LINE
  8
0
 10
-11.75
 20
1.16212
 11
-11.6708
 21
1.19125
  0
LINE
  8
0
 10
-11.6708
 20
1.19125
 11
-11.5984
 21
1.21228
  0
LINE
  8
0
 10
-11.5984
 20
1.21228
 11
-11.5248
 21
1.22873
  0
LINE
  8
0
 10
-11.5248
 20
1.22873
 11
-11.4504
 21
1.24052
  0
LINE
  8
0
 10
-11.4504
 20
1.24052
 11
-11.3753
 21
1.24762
  0
LINE
  8
0
 10
-11.3753
 20
1.24762
 11
-11.3
 21
1.24998
  0
LINE
  8
0
 10
-11.3
 20
1.24998
 11
11.3
 21
1.24998
  0
LINE
  8
0
 10
11.3
 20
1.24998
 11
11.3753
 21
1.24762
  0
LINE
  8
0
 10
11.3753
 20
1.24762
 11
11.4504
 21
1.24052
  0
LINE
  8
0
 10
11.4504
 20
1.24052
 11
11.5248
 21
1.22873
  0
LINE
  8
0
 10
11.5248
 20
1.22873
 11
11.5984
 21
1.21228
  0
LINE
  8
0
 10
11.5984
 20
1.21228
 11
11.6708
 21
1.19125
  0
LINE
  8
0
 10
11.6708
 20
1.19125
 11
11.75
 21
1.16212
  0
LINE
  8
0
 10
11.75
 20
1.16212
 11
11.75
 21
1.5
  0
LINE
  8
0
 10
11.75
 20
1.5
 11
11.752
 21
1.56279
  0
LINE
  8
0
 10
11.752
 20
1.56279
 11
11.7579
 21
1.62532
  0
LINE
  8
0
 10
11.7579
 20
1.62532
 11
11.7677
 21
1.68738
  0
LINE
  8
0
 10
11.7677
 20
1.68738
 11
11.7814
 21
1.74869
  0
LINE
  8
0
 10
11.7814
 20
1.74869
 11
11.799
 21
1.80901
  0
LINE
  8
0
 10
11.799
 20
1.80901
 11
11.8202
 21
1.86812
  0
LINE
  8
0
 10
11.8202
 20
1.86812
 11
11.8452
 21
1.92577
  0
LINE
  8
0
 10
11.8452
 20
1.92577
 11
11.8737
 21
1.98175
  0
LINE
  8
0
 10
11.8737
 20
1.98175
 11
11.9057
 21
2.03581
  0
LINE
  8
0
 10
11.9057
 20
2.03581
 11
11.941
 21
2.08778
  0
LINE
  8
0
 10
11.941
 20
2.08778
 11
11.9795
 21
2.13742
  0
LINE
  8
0
 10
11.9795
 20
2.13742
 11
12.021
 21
2.18454
  0
LINE
  8
0
 10
12.021
 20
2.18454
 11
12.0655
 21
2.22896
  0
LINE
  8
0
 10
12.0655
 20
2.22896
 11
12.1126
 21
2.27051
  0
LINE
  8
0
 10
12.1126
 20
2.27051
 11
12.1622
 21
2.30901
  0
LINE
  8
0
 10
12.1622
 20
2.30901
 11
12.2142
 21
2.34431
  0
LINE
  8
0
 10
12.2142
 20
2.34431
 11
12.2682
 21
2.3763
  0
LINE
  8
0
 10
12.2682
 20
2.3763
 11
12.3242
 21
2.40482
  0
LINE
  8
0
 10
12.3242
 20
2.40482
 11
12.3819
 21
2.42976
  0
LINE
  8
0
 10
12.3819
 20
2.42976
 11
12.441
 21
2.45105
  0
LINE
  8
0
 10
12.441
 20
2.45105
 11
12.5013
 21
2.46858
  0
LINE
  8
0
 10
12.5013
 20
2.46858
 11
12.5626
 21
2.48228
  0
LINE
  8
0
 10
12.5626
 20
2.48228
 11
12.6247
 21
2.49211
  0
LINE
  8
0
 10
12.6247
 20
2.49211
 11
12.6872
 21
2.49802
  0
LINE
  8
0
 10
12.6872
 20
2.49802
 11
12.75
 21
2.5
  0
LINE
  8
0
 10
12.75
 20
2.5
 11
13.25
 21
2.5
  0
LINE
  8
0
 10
13.25
 20
2.5
 11
13.3128
 21
2.49802
  0
LINE
  8
0
 10
13.3128
 20
2.49802
 11
13.3753
 21
2.49211
  0
LINE
  8
0
 10
13.3753
 20
2.49211
 11
13.4374
 21
2.48228
  0
LINE
  8
0
 10
13.4374
 20
2.48228
 11
13.4987
 21
2.46858
  0
LINE
  8
0
 10
13.4987
 20
2.46858
 11
13.559
 21
2.45105
  0
LINE
  8
0
 10
13.559
 20
2.45105
 11
13.6181
 21
2.42976
  0
LINE
  8
0
 10
13.6181
 20
2.42976
 11
13.6758
 21
2.40482
  0
LINE
  8
0
 10
13.6758
 20
2.40482
 11
13.7318
 21
2.3763
  0
LINE
  8
0
 10
13.7318
 20
2.3763
 11
13.7858
 21
2.34431
  0
LINE
  8
0
 10
13.7858
 20
2.34431
 11
13.8378
 21
2.30901
  0
LINE
  8
0
 10
13.8378
 20
2.30901
 11
13.8874
 21
2.27051
  0
LINE
  8
0
 10
13.8874
 20
2.27051
 11
13.9345
 21
2.22896
  0
LINE
  8
0
 10
13.9345
 20
2.22896
 11
13.979
 21
2.18454
  0
LINE
  8
0
 10
13.979
 20
2.18454
 11
14.0205
 21
2.13742
  0
LINE
  8
0
 10
14.0205
 20
2.13742
 11
14.059
 21
2.08778
  0
LINE
  8
0
 10
14.059
 20
2.08778
 11
14.0943
 21
2.03581
  0
LINE
  8
0
 10
14.0943
 20
2.03581
 11
14.1263
 21
1.98175
  0
LINE
  8
0
 10
14.1263
 20
1.98175
 11
14.1548
 21
1.92577
  0
LINE
  8
0
 10
14.1548
 20
1.92577
 11
14.1798
 21
1.86812
  0
LINE
  8
0
 10
14.1798
 20
1.86812
 11
14.201
 21
1.80901
  0
LINE
  8
0
 10
14.201
 20
1.80901
 11
14.2186
 21
1.74869
  0
LINE
  8
0
 10
14.2186
 20
1.74869
 11
14.2323
 21
1.68738
  0
LINE
  8
0
 10
14.2323
 20
1.68738
 11
14.2421
 21
1.62532
  0
LINE
  8
0
 10
14.2421
 20
1.62532
 11
14.248
 21
1.56279
  0
LINE
  8
0
 10
14.248
 20
1.56279
 11
14.25
 21
1.5
  0
LINE
  8
0
 10
14.25
 20
1.5
 11
14.25
 21
-1.5
  0
LINE
  8
0
 10
14.25
 20
-1.5
 11
14.248
 21
-1.56279
  0
LINE
  8
0
 10
14.248
 20
-1.56279
 11
14.2421
 21
-1.62532
  0
LINE
  8
0
 10
14.2421
 20
-1.62532
 11
14.2323
 21
-1.68738
  0
LINE
  8
0
 10
14.2323
 20
-1.68738
 11
14.2186
 21
-1.74869
  0
LINE
  8
0
 10
14.2186
 20
-1.74869
 11
14.201
 21
-1.80901
  0
LINE
  8
0
 10
14.201
 20
-1.80901
 11
14.1798
 21
-1.86812
  0
LINE
  8
0
 10
14.1798
 20
-1.86812
 11
14.1548
 21
-1.92577
  0
LINE
  8
0
 10
14.1548
 20
-1.92577
 11
14.1263
 21
-1.98175
  0
LINE
  8
0
 10
14.1263
 20
-1.98175
 11
14.0943
 21
-2.03581
  0
LINE
  8
0
 10
14.0943
 20
-2.03581
 11
14.059
 21
-2.08778
  0
LINE
  8
0
 10
14.059
 20
-2.08778
 11
14.0205
 21
-2.13742
  0
LINE
  8
0
 10
14.0205
 20
-2.13742
 11
13.979
 21
-2.18454
  0
LINE
  8
0
 10
13.979
 20
-2.18454
 11
13.9345
 21
-2.22896
  0
LINE
  8
0
 10
13.9345
 20
-2.22896
 11
13.8874
 21
-2.27051
  0
LINE
  8
0
 10
13.8874
 20
-2.27051
 11
13.8378
 21
-2.30901
  0
LINE
  8
0
 10
13.8378
 20
-2.30901
 11
13.7858
 21
-2.34431
  0
LINE
  8
0
 10
13.7858
 20
-2.34431
 11
13.7318
 21
-2.3763
  0
LINE
  8
0
 10
13.7318
 20
-2.3763
 11
13.6758
 21
-2.40482
  0
LINE
  8
0
 10
13.6758
 20
-2.40482
 11
13.6181
 21
-2.42976
  0
LINE
  8
0
 10
13.6181
 20
-2.42976
 11
13.559
 21
-2.45105
  0
LINE
  8
0
 10
13.559
 20
-2.45105
 11
13.4987
 21
-2.46858
  0
LINE
  8
0
 10
13.4987
 20
-2.46858
 11
13.4374
 21
-2.48228
  0
LINE
  8
0
 10
13.4374
 20
-2.48228
 11
13.3753
 21
-2.49211
  0
LINE
  8
0
 10
13.3753
 20
-2.49211
 11
13.3128
 21
-2.49802
  0
LINE
  8
0
 10
13.3128
 20
-2.49802
 11
13.25
 21
-2.5
  0
LINE
  8
0
 10
13.25
 20
-2.5
 11
12.75
 21
-2.5
  0
LINE
  8
0
 10
12.75
 20
-2.5
 11
12.6872
 21
-2.49802
  0
LINE
  8
0
 10
12.6872
 20
-2.49802
 11
12.6247
 21
-2.49211
  0
LINE
  8
0
 10
12.6247
 20
-2.49211
 11
12.5626
 21
-2.48228
  0
LINE
  8
0
 10
12.5626
 20
-2.48228
 11
12.5013
 21
-2.46858
  0
LINE
  8
0
 10
12.5013
 20
-2.46858
 11
12.441
 21
-2.45105
  0
LINE
  8
0
 10
12.441
 20
-2.45105
 11
12.3819
 21
-2.42976
  0
LINE
  8
0
 10
12.3819
 20
-2.42976
 11
12.3242
 21
-2.40482
  0
LINE
  8
0
 10
12.3242
 20
-2.40482
 11
12.2682
 21
-2.3763
  0
LINE
  8
0
 10
12.2682
 20
-2.3763
 11
12.2142
 21
-2.34431
  0
LINE
  8
0
 10
12.2142
 20
-2.34431
 11
12.1622
 21
-2.30901
  0
LINE
  8
0
 10
12.1622
 20
-2.30901
 11
12.1126
 21
-2.27051
  0
LINE
  8
0
 10
12.1126
 20
-2.27051
 11
12.0655
 21
-2.22896
  0
LINE
  8
0
 10
12.0655
 20
-2.22896
 11
12.021
 21
-2.18454
  0
LINE
  8
0
 10
12.021
 20
-2.18454
 11
11.9795
 21
-2.13742
  0
LINE
  8
0
 10
11.9795
 20
-2.13742
 11
11.941
 21
-2.08778
  0
LINE
  8
0
 10
11.941
 20
-2.08778
 11
11.9057
 21
-2.03581
  0
LINE
  8
0
 10
11.9057
 20
-2.03581
 11
11.8737
 21
-1.98175
  0
LINE
  8
0
 10
11.8737
 20
-1.98175
 11
11.8452
 21
-1.92577
  0
LINE
  8
0
 10
11.8452
 20
-1.92577
 11
11.8202
 21
-1.86812
  0
LINE
  8
0
 10
11.8202
 20
-1.86812
 11
11.799
 21
-1.80901
  0
LINE
  8
0
 10
11.799
 20
-1.80901
 11
11.7814
 21
-1.74869
  0
LINE
  8
0
 10
11.7814
 20
-1.74869
 11
11.7677
 21
-1.68738
  0
LINE
  8
0
 10
11.7677
 20
-1.68738
 11
11.7579
 21
-1.62532
  0
LINE
  8
0
 10
11.7579
 20
-1.62532
 11
11.752
 21
-1.56279
  0
LINE
  8
0
 10
11.752
 20
-1.56279
 11
11.75
 21
-1.5
  0
LINE
  8
0
 10
11.75
 20
-1.5
 11
11.75
 21
-1.16212
  0
LINE
  8
0
 10
11.75
 20
-1.16212
 11
11.6708
 21
-1.19125
  0
LINE
  8
0
 10
11.6708
 20
-1.19125
 11
11.5984
 21
-1.21228
  0
LINE
  8
0
 10
11.5984
 20
-1.21228
 11
11.5248
 21
-1.22873
  0
LINE
  8
0
 10
11.5248
 20
-1.22873
 11
11.4504
 21
-1.24052
  0
LINE
  8
0
 10
11.4504
 20
-1.24052
 11
11.3753
 21
-1.24762
  0
LINE
  8
0
 10
11.3753
 20
-1.24762
 11
11.3
 21
-1.24998
  0
LINE
  8
0
 10
11.3
 20
-1.24998
 11
-11.3
 21
-1.24998
  0
LINE
  8
0
 10
-11.3
 20
-1.24998
 11
-11.3753
 21
-1.24762
  0
LINE
  8
0
 10
-11.3753
 20
-1.24762
 11
-11.4504
 21
-1.24052
  0
LINE
  8
0
 10
-11.4504
 20
-1.24052
 11
-11.5248
 21
-1.22873
  0
LINE
  8
0
 10
-11.5248
 20
-1.22873
 11
-11.5984
 21
-1.21228
  0
LINE
  8
0
 10
-11.5984
 20
-1.21228
 11
-11.6708
 21
-1.19125
  0
LINE
  8
0
 10
-11.6708
 20
-1.19125
 11
-11.75
 21
-1.16212
  0
LINE
  8
0
 10
-11.75
 20
-1.16212
 11
-11.75
 21
-1.5
  0
LINE
  8
0
 10
-11.75
 20
-1.5
 11
-11.752
 21
-1.56279
  0
LINE
  8
0
 10
-11.752
 20
-1.56279
 11
-11.7579
 21
-1.62532
  0
LINE
  8
0
 10
-11.7579
 20
-1.62532
 11
-11.7677
 21
-1.68738
  0
LINE
  8
0
 10
-11.7677
 20
-1.68738
 11
-11.7814
 21
-1.74869
  0
LINE
  8
0
 10
-11.7814
 20
-1.74869
 11
-11.799
 21
-1.80901
  0
LINE
  8
0
 10
-11.799
 20
-1.80901
 11
-11.8202
 21
-1.86812
  0
LINE
  8
0
 10
-11.8202
 20
-1.86812
 11
-11.8452
 21
-1.92577
  0
LINE
  8
0
 10
-11.8452
 20
-1.92577
 11
-11.8737
 21
-1.98175
  0
LINE
  8
0
 10
-11.8737
 20
-1.98175
 11
-11.9057
 21
-2.03581
  0
LINE
  8
0
 10
-11.9057
 20
-2.03581
 11
-11.941
 21
-2.08778
  0
LINE
  8
0
 10
-11.941
 20
-2.08778
 11
-11.9795
 21
-2.13742
  0
LINE
  8
0
 10
-11.9795
 20
-2.13742
 11
-12.021
 21
-2.18454
  0
LINE
  8
0
 10
-12.021
 20
-2.18454
 11
-12.0655
 21
-2.22896
  0
LINE
  8
0
 10
-12.0655
 20
-2.22896
 11
-12.1126
 21
-2.27051
  0
LINE
  8
0
 10
-12.1126
 20
-2.27051
 11
-12.1622
 21
-2.30901
  0
LINE
  8
0
 10
-12.1622
 20
-2.30901
 11
-12.2142
 21
-2.34431
  0
LINE
  8
0
 10
-12.2142
 20
-2.34431
 11
-12.2682
 21
-2.3763
  0
LINE
  8
0
 10
-12.2682
 20
-2.3763
 11
-12.3242
 21
-2.40482
  0
LINE
  8
0
 10
-12.3242
 20
-2.40482
 11
-12.3819
 21
-2.42976
  0
LINE
  8
0
 10
-12.3819
 20
-2.42976
 11
-12.441
 21
-2.45105
  0
LINE
  8
0
 10
-12.441
 20
-2.45105
 11
-12.5013
 21
-2.46858
  0
LINE
  8
0
 10
-12.5013
 20
-2.46858
 11
-12.5626
 21
-2.48228
  0
LINE
  8
0
 10
-12.5626
 20
-2.48228
 11
-12.6247
 21
-2.49211
  0
LINE
  8
0
 10
-12.6247
 20
-2.49211
 11
-12.6872
 21
-2.49802
  0
LINE
  8
0
 10
-12.6872
 20
-2.49802
 11
-12.75
 21
-2.5
  0
LINE
  8
0
 10
-12.75
 20
-2.5
 11
-13.25
 21
-2.5
  0
LINE
  8
0
 10
22.75
 20
-2.5
 11
22.6872
 21
-2.49802
  0
LINE
  8
0
 10
22.6872
 20
-2.49802
 11
22.6247
 21
-2.49211
  0
LINE
  8
0
 10
22.6247
 20
-2.49211
 11
22.5626
 21
-2.48228
  0
LINE
  8
0
 10
22.5626
 20
-2.48228
 11
22.5013
 21
-2.46858
  0
LINE
  8
0
 10
22.5013
 20
-2.46858
 11
22.441
 21
-2.45105
  0
LINE
  8
0
 10
22.441
 20
-2.45105
 11
22.3819
 21
-2.42976
  0
LINE
  8
0
 10
22.3819
 20
-2.42976
 11
22.3242
 21
-2.40482
  0
LINE
  8
0
 10
22.3242
 20
-2.40482
 11
22.2682
 21
-2.3763
  0
LINE
  8
0
 10
22.2682
 20
-2.3763
 11
22.2142
 21
-2.34431
  0
LINE
  8
0
 10
22.2142
 20
-2.34431
 11
22.1622
 21
-2.30901
  0
LINE
  8
0
 10
22.1622
 20
-2.30901
 11
22.1126
 21
-2.27051
  0
LINE
  8
0
 10
22.1126
 20
-2.27051
 11
22.0655
 21
-2.22896
  0
LINE
  8
0
 10
22.0655
 20
-2.22896
 11
22.021
 21
-2.18454
  0
LINE
  8
0
 10
22.021
 20
-2.18454
 11
21.9795
 21
-2.13742
  0
LINE
  8
0
 10
21.9795
 20
-2.13742
 11
21.941
 21
-2.08778
  0
LINE
  8
0
 10
21.941
 20
-2.08778
 11
21.9057
 21
-2.03581
  0
LINE
  8
0
 10
21.9057
 20
-2.03581
 11
21.8737
 21
-1.98175
  0
LINE
  8
0
 10
21.8737
 20
-1.98175
 11
21.8452
 21
-1.92577
  0
LINE
  8
0
 10
21.8452
 20
-1.92577
 11
21.8202
 21
-1.86812
  0
LINE
  8
0
 10
21.8202
 20
-1.86812
 11
21.799
 21
-1.80901
  0
LINE
  8
0
 10
21.799
 20
-1.80901
 11
21.7814
 21
-1.74869
  0
LINE
  8
0
 10
21.7814
 20
-1.74869
 11
21.7677
 21
-1.68738
  0
LINE
  8
0
 10
21.7677
 20
-1.68738
 11
21.7579
 21
-1.62532
  0
LINE
  8
0
 10
21.7579
 20
-1.62532
 11
21.752
 21
-1.56279
  0
LINE
  8
0
 10
21.752
 20
-1.56279
 11
21.75
 21
-1.5
  0
LINE
  8
0
 10
21.75
 20
-1.5
 11
21.75
 21
1.5
  0
LINE
  8
0
 10
21.75
 20
1.5
 11
21.752
 21
1.56279
  0
LINE
  8
0
 10
21.752
 20
1.56279
 11
21.7579
 21
1.62532
  0
LINE
  8
0
 10
21.7579
 20
1.62532
 11
21.7677
 21
1.68738
  0
LINE
  8
0
 10
21.7677
 20
1.68738
 11
21.7814
 21
1.74869
  0
LINE
  8
0
 10
21.7814
 20
1.74869
 11
21.799
 21
1.80901
  0
LINE
  8
0
 10
21.799
 20
1.80901
 11
21.8202
 21
1.86812
  0
LINE
  8
0
 10
21.8202
 20
1.86812
 11
21.8452
 21
1.92577
  0
LINE
  8
0
 10
21.8452
 20
1.92577
 11
21.8737
 21
1.98175
  0
LINE
  8
0
 10
21.8737
 20
1.98175
 11
21.9057
 21
2.03581
  0
LINE
  8
0
 10
21.9057
 20
2.03581
 11
21.941
 21
2.08778
  0
LINE
  8
0
 10
21.941
 20
2.08778
 11
21.9795
 21
2.13742
  0
LINE
  8
0
 10
21.9795
 20
2.13742
 11
22.021
 21
2.18454
  0
LINE
  8
0
 10
22.021
 20
2.18454
 11
22.0655
 21
2.22896
  0
LINE
  8
0
 10
22.0655
 20
2.22896
 11
22.1126
 21
2.27051
  0
LINE
  8
0
 10
22.1126
 20
2.27051
 11
22.1622
 21
2.30901
  0
LINE
  8
0
 10
22.1622
 20
2.30901
 11
22.2142
 21
2.34431
  0
LINE
  8
0
 10
22.2142
 20
2.34431
 11
22.2682
 21
2.3763
  0
LINE
  8
0
 10
22.2682
 20
2.3763
 11
22.3242
 21
2.40482
  0
LINE
  8
0
 10
22.3242
 20
2.40482
 11
22.3819
 21
2.42976
  0
LINE
  8
0
 10
22.3819
 20
2.42976
 11
22.441
 21
2.45105
  0
LINE
  8
0
 10
22.441
 20
2.45105
 11
22.5013
 21
2.46858
  0
LINE
  8
0
 10
22.5013
 20
2.46858
 11
22.5626
 21
2.48228
  0
LINE
  8
0
 10
22.5626
 20
2.48228
 11
22.6247
 21
2.49211
  0
LINE
  8
0
 10
22.6247
 20
2.49211
 11
22.6872
 21
2.49802
  0
LINE
  8
0
 10
22.6872
 20
2.49802
 11
22.75
 21
2.5
  0
LINE
  8
0
 10
22.75
 20
2.5
 11
23.25
 21
2.5
  0
LINE
  8
0
 10
23.25
 20
2.5
 11
23.3128
 21
2.49802
  0
LINE
  8
0
 10
23.3128
 20
2.49802
 11
23.3753
 21
2.49211
  0
LINE
  8
0
 10
23.3753
 20
2.49211
 11
23.4374
 21
2.48228
  0
LINE
  8
0
 10
23.4374
 20
2.48228
 11
23.4987
 21
2.46858
  0
LINE
  8
0
 10
23.4987
 20
2.46858
 11
23.559
 21
2.45105
  0
LINE
  8
0
 10
23.559
 20
2.45105
 11
23.6181
 21
2.42976
  0
LINE
  8
0
 10
23.6181
 20
2.42976
 11
23.6758
 21
2.40482
  0
LINE
  8
0
 10
23.6758
 20
2.40482
 11
23.7318
 21
2.3763
  0
LINE
  8
0
 10
23.7318
 20
2.3763
 11
23.7858
 21
2.34431
  0
LINE
  8
0
 10
23.7858
 20
2.34431
 11
23.8378
 21
2.30901
  0
LINE
  8
0
 10
23.8378
 20
2.30901
 11
23.8874
 21
2.27051
  0
LINE
  8
0
 10
23.8874
 20
2.27051
 11
23.9345
 21
2.22896
  0
LINE
  8
0
 10
23.9345
 20
2.22896
 11
23.979
 21
2.18454
  0
LINE
  8
0
 10
23.979
 20
2.18454
 11
24.0205
 21
2.13742
  0
LINE
  8
0
 10
24.0205
 20
2.13742
 11
24.059
 21
2.08778
  0
LINE
  8
0
 10
24.059
 20
2.08778
 11
24.0943
 21
2.03581
  0
LINE
  8
0
 10
24.0943
 20
2.03581
 11
24.1263
 21
1.98175
  0
LINE
  8
0
 10
24.1263
 20
1.98175
 11
24.1548
 21
1.92577
  0
LINE
  8
0
 10
24.1548
 20
1.92577
 11
24.1798
 21
1.86812
  0
LINE
  8
0
 10
24.1798
 20
1.86812
 11
24.201
 21
1.80901
  0
LINE
  8
0
 10
24.201
 20
1.80901
 11
24.2186
 21
1.74869
  0
LINE
  8
0
 10
24.2186
 20
1.74869
 11
24.2323
 21
1.68738
  0
LINE
  8
0
 10
24.2323
 20
1.68738
 11
24.2421
 21
1.62532
  0
LINE
  8
0
 10
24.2421
 20
1.62532
 11
24.248
 21
1.56279
  0
LINE
  8
0
 10
24.248
 20
1.56279
 11
24.25
 21
1.5
  0
LINE
  8
0
 10
24.25
 20
1.5
 11
24.25
 21
-1.5
  0
LINE
  8
0
 10
24.25
 20
-1.5
 11
24.248
 21
-1.56279
  0
LINE
  8
0
 10
24.248
 20
-1.56279
 11
24.2421
 21
-1.62532
  0
LINE
  8
0
 10
24.2421
 20
-1.62532
 11
24.2323
 21
-1.68738
  0
LINE
  8
0
 10
24.2323
 20
-1.68738
 11
24.2186
 21
-1.74869
  0
LINE
  8
0
 10
24.2186
 20
-1.74869
 11
24.201
 21
-1.80901
  0
LINE
  8
0
 10
24.201
 20
-1.80901
 11
24.1798
 21
-1.86812
  0
LINE
  8
0
 10
24.1798
 20
-1.86812
 11
24.1548
 21
-1.92577
  0
LINE
  8
0
 10
24.1548
 20
-1.92577
 11
24.1263
 21
-1.98175
  0
LINE
  8
0
 10
24.1263
 20
-1.98175
 11
24.0943
 21
-2.03581
  0
LINE
  8
0
 10
24.0943
 20
-2.03581
 11
24.059
 21
-2.08778
  0
LINE
  8
0
 10
24.059
 20
-2.08778
 11
24.0205
 21
-2.13742
  0
LINE
  8
0
 10
24.0205
 20
-2.13742
 11
23.979
 21
-2.18454
  0
LINE
  8
0
 10
23.979
 20
-2.18454
 11
23.9345
 21
-2.22896
  0
LINE
  8
0
 10
23.9345
 20
-2.22896
 11
23.8874
 21
-2.27051
  0
LINE
  8
0
 10
23.8874
 20
-2.27051
 11
23.8378
 21
-2.30901
  0
LINE
  8
0
 10
23.8378
 20
-2.30901
 11
23.7858
 21
-2.34431
  0
LINE
  8
0
 10
23.7858
 20
-2.34431
 11
23.7318
 21
-2.3763
  0
LINE
  8
0
 10
23.7318
 20
-2.3763
 11
23.6758
 21
-2.40482
  0
LINE
  8
0
 10
23.6758
 20
-2.40482
 11
23.6181
 21
-2.42976
  0
LINE
  8
0
 10
23.6181
 20
-2.42976
 11
23.559
 21
-2.45105
  0
LINE
  8
0
 10
23.559
 20
-2.45105
 11
23.4987
 21
-2.46858
  0
LINE
  8
0
 10
23.4987
 20
-2.46858
 11
23.4374
 21
-2.48228
  0
LINE
  8
0
 10
23.4374
 20
-2.48228
 11
23.3753
 21
-2.49211
  0
LINE
  8
0
 10
23.3753
 20
-2.49211
 11
23.3128
 21
-2.49802
  0
LINE
  8
0
 10
23.3128
 20
-2.49802
 11
23.25
 21
-2.5
  0
LINE
  8
0
 10
23.25
 20
-2.5
 11
22.75
 21
-2.5
  0
LINE
  8
0
 10
-23.25
 20
-2.5
 11
-23.3128
 21
-2.49802
  0
LINE
  8
0
 10
-23.3128
 20
-2.49802
 11
-23.3753
 21
-2.49211
  0
LINE
  8
0
 10
-23.3753
 20
-2.49211
 11
-23.4374
 21
-2.48228
  0
LINE
  8
0
 10
-23.4374
 20
-2.48228
 11
-23.4987
 21
-2.46858
  0
LINE
  8
0
 10
-23.4987
 20
-2.46858
 11
-23.559
 21
-2.45105
  0
LINE
  8
0
 10
-23.559
 20
-2.45105
 11
-23.6181
 21
-2.42976
  0
LINE
  8
0
 10
-23.6181
 20
-2.42976
 11
-23.6758
 21
-2.40482
  0
LINE
  8
0
 10
-23.6758
 20
-2.40482
 11
-23.7318
 21
-2.3763
  0
LINE
  8
0
 10
-23.7318
 20
-2.3763
 11
-23.7858
 21
-2.34431
  0
LINE
  8
0
 10
-23.7858
 20
-2.34431
 11
-23.8378
 21
-2.30901
  0
LINE
  8
0
 10
-23.8378
 20
-2.30901
 11
-23.8874
 21
-2.27051
  0
LINE
  8
0
 10
-23.8874
 20
-2.27051
 11
-23.9345
 21
-2.22896
  0
LINE
  8
0
 10
-23.9345
 20
-2.22896
 11
-23.979
 21
-2.18454
  0
LINE
  8
0
 10
-23.979
 20
-2.18454
 11
-24.0205
 21
-2.13742
  0
LINE
  8
0
 10
-24.0205
 20
-2.13742
 11
-24.059
 21
-2.08778
  0
LINE
  8
0
 10
-24.059
 20
-2.08778
 11
-24.0943
 21
-2.03581
  0
LINE
  8
0
 10
-24.0943
 20
-2.03581
 11
-24.1263
 21
-1.98175
  0
LINE
  8
0
 10
-24.1263
 20
-1.98175
 11
-24.1548
 21
-1.92577
  0
LINE
  8
0
 10
-24.1548
 20
-1.92577
 11
-24.1798
 21
-1.86812
  0
LINE
  8
0
 10
-24.1798
 20
-1.86812
 11
-24.201
 21
-1.80901
  0
LINE
  8
0
 10
-24.201
 20
-1.80901
 11
-24.2186
 21
-1.74869
  0
LINE
  8
0
 10
-24.2186
 20
-1.74869
 11
-24.2323
 21
-1.68738
  0
LINE
  8
0
 10
-24.2323
 20
-1.68738
 11
-24.2421
 21
-1.62532
  0
LINE
  8
0
 10
-24.2421
 20
-1.62532
 11
-24.248
 21
-1.56279
  0
LINE
  8
0
 10
-24.248
 20
-1.56279
 11
-24.25
 21
-1.5
  0
LINE
  8
0
 10
-24.25
 20
-1.5
 11
-24.25
 21
1.5
  0
LINE
  8
0
 10
-24.25
 20
1.5
 11
-24.248
 21
1.56279
  0
LINE
  8
0
 10
-24.248
 20
1.56279
 11
-24.2421
 21
1.62532
  0
LINE
  8
0
 10
-24.2421
 20
1.62532
 11
-24.2323
 21
1.68738
  0
LINE
  8
0
 10
-24.2323
 20
1.68738
 11
-24.2186
 21
1.74869
  0
LINE
  8
0
 10
-24.2186
 20
1.74869
 11
-24.201
 21
1.80901
  0
LINE
  8
0
 10
-24.201
 20
1.80901
 11
-24.1798
 21
1.86812
  0
LINE
  8
0
 10
-24.1798
 20
1.86812
 11
-24.1548
 21
1.92577
  0
LINE
  8
0
 10
-24.1548
 20
1.92577
 11
-24.1263
 21
1.98175
  0
LINE
  8
0
 10
-24.1263
 20
1.98175
 11
-24.0943
 21
2.03581
  0
LINE
  8
0
 10
-24.0943
 20
2.03581
 11
-24.059
 21
2.08778
  0
LINE
  8
0
 10
-24.059
 20
2.08778
 11
-24.0205
 21
2.13742
  0
LINE
  8
0
 10
-24.0205
 20
2.13742
 11
-23.979
 21
2.18454
  0
LINE
  8
0
 10
-23.979
 20
2.18454
 11
-23.9345
 21
2.22896
  0
LINE
  8
0
 10
-23.9345
 20
2.22896
 11
-23.8874
 21
2.27051
  0
LINE
  8
0
 10
-23.8874
 20
2.27051
 11
-23.8378
 21
2.30901
  0
LINE
  8
0
 10
-23.8378
 20
2.30901
 11
-23.7858
 21
2.34431
  0
LINE
  8
0
 10
-23.7858
 20
2.34431
 11
-23.7318
 21
2.3763
  0
LINE
  8
0
 10
-23.7318
 20
2.3763
 11
-23.6758
 21
2.40482
  0
LINE
  8
0
 10
-23.6758
 20
2.40482
 11
-23.6181
 21
2.42976
  0
LINE
  8
0
 10
-23.6181
 20
2.42976
 11
-23.559
 21
2.45105
  0
LINE
  8
0
 10
-23.559
 20
2.45105
 11
-23.4987
 21
2.46858
  0
LINE
  8
0
 10
-23.4987
 20
2.46858
 11
-23.4374
 21
2.48228
  0
LINE
  8
0
 10
-23.4374
 20
2.48228
 11
-23.3753
 21
2.49211
  0
LINE
  8
0
 10
-23.3753
 20
2.49211
 11
-23.3128
 21
2.49802
  0
LINE
  8
0
 10
-23.3128
 20
2.49802
 11
-23.25
 21
2.5
  0
LINE
  8
0
 10
-23.25
 20
2.5
 11
-22.75
 21
2.5
  0
LINE
  8
0
 10
-22.75
 20
2.5
 11
-22.6872
 21
2.49802
  0
LINE
  8
0
 10
-22.6872
 20
2.49802
 11
-22.6247
 21
2.49211
  0
LINE
  8
0
 10
-22.6247
 20
2.49211
 11
-22.5626
 21
2.48228
  0
LINE
  8
0
 10
-22.5626
 20
2.48228
 11
-22.5013
 21
2.46858
  0
LINE
  8
0
 10
-22.5013
 20
2.46858
 11
-22.441
 21
2.45105
  0
LINE
  8
0
 10
-22.441
 20
2.45105
 11
-22.3819
 21
2.42976
  0
LINE
  8
0
 10
-22.3819
 20
2.42976
 11
-22.3242
 21
2.40482
  0
LINE
  8
0
 10
-22.3242
 20
2.40482
 11
-22.2682
 21
2.3763
  0
LINE
  8
0
 10
-22.2682
 20
2.3763
 11
-22.2142
 21
2.34431
  0
LINE
  8
0
 10
-22.2142
 20
2.34431
 11
-22.1622
 21
2.30901
  0
LINE
  8
0
 10
-22.1622
 20
2.30901
 11
-22.1126
 21
2.27051
  0
LINE
  8
0
 10
-22.1126
 20
2.27051
 11
-22.0655
 21
2.22896
  0
LINE
  8
0
 10
-22.0655
 20
2.22896
 11
-22.021
 21
2.18454
  0
LINE
  8
0
 10
-22.021
 20
2.18454
 11
-21.9795
 21
2.13742
  0
LINE
  8
0
 10
-21.9795
 20
2.13742
 11
-21.941
 21
2.08778
  0
LINE
  8
0
 10
-21.941
 20
2.08778
 11
-21.9057
 21
2.03581
  0
LINE
  8
0
 10
-21.9057
 20
2.03581
 11
-21.8737
 21
1.98175
  0
LINE
  8
0
 10
-21.8737
 20
1.98175
 11
-21.8452
 21
1.92577
  0
LINE
  8
0
 10
-21.8452
 20
1.92577
 11
-21.8202
 21
1.86812
  0
LINE
  8
0
 10
-21.8202
 20
1.86812
 11
-21.799
 21
1.80901
  0
LINE
  8
0
 10
-21.799
 20
1.80901
 11
-21.7814
 21
1.74869
  0
LINE
  8
0
 10
-21.7814
 20
1.74869
 11
-21.7677
 21
1.68738
  0
LINE
  8
0
 10
-21.7677
 20
1.68738
 11
-21.7579
 21
1.62532
  0
LINE
  8
0
 10
-21.7579
 20
1.62532
 11
-21.752
 21
1.56279
  0
LINE
  8
0
 10
-21.752
 20
1.56279
 11
-21.75
 21
1.5
  0
LINE
  8
0
 10
-21.75
 20
1.5
 11
-21.75
 21
-1.5
  0
LINE
  8
0
 10
-21.75
 20
-1.5
 11
-21.752
 21
-1.56279
  0
LINE
  8
0
 10
-21.752
 20
-1.56279
 11
-21.7579
 21
-1.62532
  0
LINE
  8
0
 10
-21.7579
 20
-1.62532
 11
-21.7677
 21
-1.68738
  0
LINE
  8
0
 10
-21.7677
 20
-1.68738
 11
-21.7814
 21
-1.74869
  0
LINE
  8
0
 10
-21.7814
 20
-1.74869
 11
-21.799
 21
-1.80901
  0
LINE
  8
0
 10
-21.799
 20
-1.80901
 11
-21.8202
 21
-1.86812
  0
LINE
  8
0
 10
-21.8202
 20
-1.86812
 11
-21.8452
 21
-1.92577
  0
LINE
  8
0
 10
-21.8452
 20
-1.92577
 11
-21.8737
 21
-1.98175
  0
LINE
  8
0
 10
-21.8737
 20
-1.98175
 11
-21.9057
 21
-2.03581
  0
LINE
  8
0
 10
-21.9057
 20
-2.03581
 11
-21.941
 21
-2.08778
  0
LINE
  8
0
 10
-21.941
 20
-2.08778
 11
-21.9795
 21
-2.13742
  0
LINE
  8
0
 10
-21.9795
 20
-2.13742
 11
-22.021
 21
-2.18454
  0
LINE
  8
0
 10
-22.021
 20
-2.18454
 11
-22.0655
 21
-2.22896
  0
LINE
  8
0
 10
-22.0655
 20
-2.22896
 11
-22.1126
 21
-2.27051
  0
LINE
  8
0
 10
-22.1126
 20
-2.27051
 11
-22.1622
 21
-2.30901
  0
LINE
  8
0
 10
-22.1622
 20
-2.30901
 11
-22.2142
 21
-2.34431
  0
LINE
  8
0
 10
-22.2142
 20
-2.34431
 11
-22.2682
 21
-2.3763
  0
LINE
  8
0
 10
-22.2682
 20
-2.3763
 11
-22.3242
 21
-2.40482
  0
LINE
  8
0
 10
-22.3242
 20
-2.40482
 11
-22.3819
 21
-2.42976
  0
LINE
  8
0
 10
-22.3819
 20
-2.42976
 11
-22.441
 21
-2.45105
  0
LINE
  8
0
 10
-22.441
 20
-2.45105
 11
-22.5013
 21
-2.46858
  0
LINE
  8
0
 10
-22.5013
 20
-2.46858
 11
-22.5626
 21
-2.48228
  0
LINE
  8
0
 10
-22.5626
 20
-2.48228
 11
-22.6247
 21
-2.49211
  0
LINE
  8
0
 10
-22.6247
 20
-2.49211
 11
-22.6872
 21
-2.49802
  0
LINE
  8
0
 10
-22.6872
 20
-2.49802
 11
-22.75
 21
-2.5
  0
LINE
  8
0
 10
-22.75
 20
-2.5
 11
-23.25
 21
-2.5
  0
LINE
  8
0
 10
-23.25
 20
-12.5
 11
-23.3128
 21
-12.498
  0
LINE
  8
0
 10
-23.3128
 20
-12.498
 11
-23.3753
 21
-12.4921
  0
LINE
  8
0
 10
-23.3753
 20
-12.4921
 11
-23.4374
 21
-12.4823
  0
LINE
  8
0
 10
-23.4374
 20
-12.4823
 11
-23.4987
 21
-12.4686
  0
LINE
  8
0
 10
-23.4987
 20
-12.4686
 11
-23.559
 21
-12.451
  0
LINE
  8
0
 10
-23.559
 20
-12.451
 11
-23.6181
 21
-12.4298
  0
LINE
  8
0
 10
-23.6181
 20
-12.4298
 11
-23.6758
 21
-12.4048
  0
LINE
  8
0
 10
-23.6758
 20
-12.4048
 11
-23.7318
 21
-12.3763
  0
LINE
  8
0
 10
-23.7318
 20
-12.3763
 11
-23.7858
 21
-12.3443
  0
LINE
  8
0
 10
-23.7858
 20
-12.3443
 11
-23.8378
 21
-12.309
  0
LINE
  8
0
 10
-23.8378
 20
-12.309
 11
-23.8874
 21
-12.2705
  0
LINE
  8
0
 10
-23.8874
 20
-12.2705
 11
-23.9345
 21
-12.229
  0
LINE
  8
0
 10
-23.9345
 20
-12.229
 11
-23.979
 21
-12.1845
  0
LINE
  8
0
 10
-23.979
 20
-12.1845
 11
-24.0205
 21
-12.1374
  0
LINE
  8
0
 10
-24.0205
 20
-12.1374
 11
-24.059
 21
-12.0878
  0
LINE
  8
0
 10
-24.059
 20
-12.0878
 11
-24.0943
 21
-12.0358
  0
LINE
  8
0
 10
-24.0943
 20
-12.0358
 11
-24.1263
 21
-11.9818
  0
LINE
  8
0
 10
-24.1263
 20
-11.9818
 11
-24.1548
 21
-11.9258
  0
LINE
  8
0
 10
-24.1548
 20
-11.9258
 11
-24.1798
 21
-11.8681
  0
LINE
  8
0
 10
-24.1798
 20
-11.8681
 11
-24.201
 21
-11.809
  0
LINE
  8
0
 10
-24.201
 20
-11.809
 11
-24.2186
 21
-11.7487
  0
LINE
  8
0
 10
-24.2186
 20
-11.7487
 11
-24.2323
 21
-11.6874
  0
LINE
  8
0
 10
-24.2323
 20
-11.6874
 11
-24.2421
 21
-11.6253
  0
LINE
  8
0
 10
-24.2421
 20
-11.6253
 11
-24.248
 21
-11.5628
  0
LINE
  8
0
 10
-24.248
 20
-11.5628
 11
-24.25
 21
-11.5
  0
LINE
  8
0
 10
-24.25
 20
-11.5
 11
-24.25
 21
-8.5
  0
LINE
  8
0
 10
-24.25
 20
-8.5
 11
-24.248
 21
-8.43721
  0
LINE
  8
0
 10
-24.248
 20
-8.43721
 11
-24.2421
 21
-8.37468
  0
LINE
  8
0
 10
-24.2421
 20
-8.37468
 11
-24.2323
 21
-8.31262
  0
LINE
  8
0
 10
-24.2323
 20
-8.31262
 11
-24.2186
 21
-8.25131
  0
LINE
  8
0
 10
-24.2186
 20
-8.25131
 11
-24.201
 21
-8.19099
  0
LINE
  8
0
 10
-24.201
 20
-8.19099
 11
-24.1798
 21
-8.13188
  0
LINE
  8
0
 10
-24.1798
 20
-8.13188
 11
-24.1548
 21
-8.07423
  0
LINE
  8
0
 10
-24.1548
 20
-8.07423
 11
-24.1263
 21
-8.01825
  0
LINE
  8
0
 10
-24.1263
 20
-8.01825
 11
-24.0943
 21
-7.96419
  0
LINE
  8
0
 10
-24.0943
 20
-7.96419
 11
-24.059
 21
-7.91222
  0
LINE
  8
0
 10
-24.059
 20
-7.91222
 11
-24.0205
 21
-7.86258
  0
LINE
  8
0
 10
-24.0205
 20
-7.86258
 11
-23.979
 21
-7.81546
  0
LINE
  8
0
 10
-23.979
 20
-7.81546
 11
-23.9345
 21
-7.77104
  0
LINE
  8
0
 10
-23.9345
 20
-7.77104
 11
-23.8874
 21
-7.72949
  0
LINE
  8
0
 10
-23.8874
 20
-7.72949
 11
-23.8378
 21
-7.69099
  0
LINE
  8
0
 10
-23.8378
 20
-7.69099
 11
-23.7858
 21
-7.65569
  0
LINE
  8
0
 10
-23.7858
 20
-7.65569
 11
-23.7318
 21
-7.6237
  0
LINE
  8
0
 10
-23.7318
 20
-7.6237
 11
-23.6758
 21
-7.59518
  0
LINE
  8
0
 10
-23.6758
 20
-7.59518
 11
-23.6181
 21
-7.57024
  0
LINE
  8
0
 10
-23.6181
 20
-7.57024
 11
-23.559
 21
-7.54895
  0
LINE
  8
0
 10
-23.559
 20
-7.54895
 11
-23.4987
 21
-7.53142
  0
LINE
  8
0
 10
-23.4987
 20
-7.53142
 11
-23.4374
 21
-7.51772
  0
LINE
  8
0
 10
-23.4374
 20
-7.51772
 11
-23.3753
 21
-7.50789
  0
LINE
  8
0
 10
-23.3753
 20
-7.50789
 11
-23.3128
 21
-7.50198
  0
LINE
  8
0
 10
-23.3128
 20
-7.50198
 11
-23.25
 21
-7.5
  0
LINE
  8
0
 10
-23.25
 20
-7.5
 11
-22.75
 21
-7.5
  0
LINE
  8
0
 10
-22.75
 20
-7.5
 11
-22.6872
 21
-7.50198
  0
LINE
  8
0
 10
-22.6872
 20
-7.50198
 11
-22.6247
 21
-7.50789
  0
LINE
  8
0
 10
-22.6247
 20
-7.50789
 11
-22.5626
 21
-7.51772
  0
LINE
  8
0
 10
-22.5626
 20
-7.51772
 11
-22.5013
 21
-7.53142
  0
LINE
  8
0
 10
-22.5013
 20
-7.53142
 11
-22.441
 21
-7.54895
  0
LINE
  8
0
 10
-22.441
 20
-7.54895
 11
-22.3819
 21
-7.57024
  0
LINE
  8
0
 10
-22.3819
 20
-7.57024
 11
-22.3242
 21
-7.59518
  0
LINE
  8
0
 10
-22.3242
 20
-7.59518
 11
-22.2682
 21
-7.6237
  0
LINE
  8
0
 10
-22.2682
 20
-7.6237
 11
-22.2142
 21
-7.65569
  0
LINE
  8
0
 10
-22.2142
 20
-7.65569
 11
-22.1622
 21
-7.69099
  0
LINE
  8
0
 10
-22.1622
 20
-7.69099
 11
-22.1126
 21
-7.72949
  0
LINE
  8
0
 10
-22.1126
 20
-7.72949
 11
-22.0655
 21
-7.77104
  0
LINE
  8
0
 10
-22.0655
 20
-7.77104
 11
-22.021
 21
-7.81546
  0
LINE
  8
0
 10
-22.021
 20
-7.81546
 11
-21.9795
 21
-7.86258
  0
LINE
  8
0
 10
-21.9795
 20
-7.86258
 11
-21.941
 21
-7.91222
  0
LINE
  8
0
 10
-21.941
 20
-7.91222
 11
-21.9057
 21
-7.96419
  0
LINE
  8
0
 10
-21.9057
 20
-7.96419
 11
-21.8737
 21
-8.01825
  0
LINE
  8
0
 10
-21.8737
 20
-8.01825
 11
-21.8452
 21
-8.07423
  0
LINE
  8
0
 10
-21.8452
 20
-8.07423
 11
-21.8202
 21
-8.13188
  0
LINE
  8
0
 10
-21.8202
 20
-8.13188
 11
-21.799
 21
-8.19099
  0
LINE
  8
0
 10
-21.799
 20
-8.19099
 11
-21.7814
 21
-8.25131
  0
LINE
  8
0
 10
-21.7814
 20
-8.25131
 11
-21.7677
 21
-8.31262
  0
LINE
  8
0
 10
-21.7677
 20
-8.31262
 11
-21.7579
 21
-8.37468
  0
LINE
  8
0
 10
-21.7579
 20
-8.37468
 11
-21.752
 21
-8.43721
  0
LINE
  8
0
 10
-21.752
 20
-8.43721
 11
-21.75
 21
-8.5
  0
LINE
  8
0
 10
-21.75
 20
-8.5
 11
-21.75
 21
-11.5
  0
LINE
  8
0
 10
-21.75
 20
-11.5
 11
-21.752
 21
-11.5628
  0
LINE
  8
0
 10
-21.752
 20
-11.5628
 11
-21.7579
 21
-11.6253
  0
LINE
  8
0
 10
-21.7579
 20
-11.6253
 11
-21.7677
 21
-11.6874
  0
LINE
  8
0
 10
-21.7677
 20
-11.6874
 11
-21.7814
 21
-11.7487
  0
LINE
  8
0
 10
-21.7814
 20
-11.7487
 11
-21.799
 21
-11.809
  0
LINE
  8
0
 10
-21.799
 20
-11.809
 11
-21.8202
 21
-11.8681
  0
LINE
  8
0
 10
-21.8202
 20
-11.8681
 11
-21.8452
 21
-11.9258
  0
LINE
  8
0
 10
-21.8452
 20
-11.9258
 11
-21.8737
 21
-11.9818
  0
LINE
  8
0
 10
-21.8737
 20
-11.9818
 11
-21.9057
 21
-12.0358
  0
LINE
  8
0
 10
-21.9057
 20
-12.0358
 11
-21.941
 21
-12.0878
  0
LINE
  8
0
 10
-21.941
 20
-12.0878
 11
-21.9795
 21
-12.1374
  0
LINE
  8
0
 10
-21.9795
 20
-12.1374
 11
-22.021
 21
-12.1845
  0
LINE
  8
0
 10
-22.021
 20
-12.1845
 11
-22.0655
 21
-12.229
  0
LINE
  8
0
 10
-22.0655
 20
-12.229
 11
-22.1126
 21
-12.2705
  0
LINE
  8
0
 10
-22.1126
 20
-12.2705
 11
-22.1622
 21
-12.309
  0
LINE
  8
0
 10
-22.1622
 20
-12.309
 11
-22.2142
 21
-12.3443
  0
LINE
  8
0
 10
-22.2142
 20
-12.3443
 11
-22.2682
 21
-12.3763
  0
LINE
  8
0
 10
-22.2682
 20
-12.3763
 11
-22.3242
 21
-12.4048
  0
LINE
  8
0
 10
-22.3242
 20
-12.4048
 11
-22.3819
 21
-12.4298
  0
LINE
  8
0
 10
-22.3819
 20
-12.4298
 11
-22.441
 21
-12.451
  0
LINE
  8
0
 10
-22.441
 20
-12.451
 11
-22.5013
 21
-12.4686
  0
LINE
  8
0
 10
-22.5013
 20
-12.4686
 11
-22.5626
 21
-12.4823
  0
LINE
  8
0
 10
-22.5626
 20
-12.4823
 11
-22.6247
 21
-12.4921
  0
LINE
  8
0
 10
-22.6247
 20
-12.4921
 11
-22.6872
 21
-12.498
  0
LINE
  8
0
 10
-22.6872
 20
-12.498
 11
-22.75
 21
-12.5
  0
LINE
  8
0
 10
-22.75
 20
-12.5
 11
-23.25
 21
-12.5
  0
LINE
  8
0
 10
-13.25
 20
-12.5
 11
-13.3128
 21
-12.498
  0
LINE
  8
0
 10
-13.3128
 20
-12.498
 11
-13.3753
 21
-12.4921
  0
LINE
  8
0
 10
-13.3753
 20
-12.4921
 11
-13.4374
 21
-12.4823
  0
LINE
  8
0
 10
-13.4374
 20
-12.4823
 11
-13.4987
 21
-12.4686
  0
LINE
  8
0
 10
-13.4987
 20
-12.4686
 11
-13.559
 21
-12.451
  0
LINE
  8
0
 10
-13.559
 20
-12.451
 11
-13.6181
 21
-12.4298
  0
LINE
  8
0
 10
-13.6181
 20
-12.4298
 11
-13.6758
 21
-12.4048
  0
LINE
  8
0
 10
-13.6758
 20
-12.4048
 11
-13.7318
 21
-12.3763
  0
LINE
  8
0
 10
-13.7318
 20
-12.3763
 11
-13.7858
 21
-12.3443
  0
LINE
  8
0
 10
-13.7858
 20
-12.3443
 11
-13.8378
 21
-12.309
  0
LINE
  8
0
 10
-13.8378
 20
-12.309
 11
-13.8874
 21
-12.2705
  0
LINE
  8
0
 10
-13.8874
 20
-12.2705
 11
-13.9345
 21
-12.229
  0
LINE
  8
0
 10
-13.9345
 20
-12.229
 11
-13.979
 21
-12.1845
  0
LINE
  8
0
 10
-13.979
 20
-12.1845
 11
-14.0205
 21
-12.1374
  0
LINE
  8
0
 10
-14.0205
 20
-12.1374
 11
-14.059
 21
-12.0878
  0
LINE
  8
0
 10
-14.059
 20
-12.0878
 11
-14.0943
 21
-12.0358
  0
LINE
  8
0
 10
-14.0943
 20
-12.0358
 11
-14.1263
 21
-11.9818
  0
LINE
  8
0
 10
-14.1263
 20
-11.9818
 11
-14.1548
 21
-11.9258
  0
LINE
  8
0
 10
-14.1548
 20
-11.9258
 11
-14.1798
 21
-11.8681
  0
LINE
  8
0
 10
-14.1798
 20
-11.8681
 11
-14.201
 21
-11.809
  0
LINE
  8
0
 10
-14.201
 20
-11.809
 11
-14.2186
 21
-11.7487
  0
LINE
  8
0
 10
-14.2186
 20
-11.7487
 11
-14.2323
 21
-11.6874
  0
LINE
  8
0
 10
-14.2323
 20
-11.6874
 11
-14.2421
 21
-11.6253
  0
LINE
  8
0
 10
-14.2421
 20
-11.6253
 11
-14.248
 21
-11.5628
  0
LINE
  8
0
 10
-14.248
 20
-11.5628
 11
-14.25
 21
-11.5
  0
LINE
  8
0
 10
-14.25
 20
-11.5
 11
-14.25
 21
-8.5
  0
LINE
  8
0
 10
-14.25
 20
-8.5
 11
-14.248
 21
-8.43721
  0
LINE
  8
0
 10
-14.248
 20
-8.43721
 11
-14.2421
 21
-8.37468
  0
LINE
  8
0
 10
-14.2421
 20
-8.37468
 11
-14.2323
 21
-8.31262
  0
LINE
  8
0
 10
-14.2323
 20
-8.31262
 11
-14.2186
 21
-8.25131
  0
LINE
  8
0
 10
-14.2186
 20
-8.25131
 11
-14.201
 21
-8.19099
  0
LINE
  8
0
 10
-14.201
 20
-8.19099
 11
-14.1798
 21
-8.13188
  0
LINE
  8
0
 10
-14.1798
 20
-8.13188
 11
-14.1548
 21
-8.07423
  0
LINE
  8
0
 10
-14.1548
 20
-8.07423
 11
-14.1263
 21
-8.01825
  0
LINE
  8
0
 10
-14.1263
 20
-8.01825
 11
-14.0943
 21
-7.96419
  0
LINE
  8
0
 10
-14.0943
 20
-7.96419
 11
-14.059
 21
-7.91222
  0
LINE
  8
0
 10
-14.059
 20
-7.91222
 11
-14.0205
 21
-7.86258
  0
LINE
  8
0
 10
-14.0205
 20
-7.86258
 11
-13.979
 21
-7.81546
  0
LINE
  8
0
 10
-13.979
 20
-7.81546
 11
-13.9345
 21
-7.77104
  0
LINE
  8
0
 10
-13.9345
 20
-7.77104
 11
-13.8874
 21
-7.72949
  0
LINE
  8
0
 10
-13.8874
 20
-7.72949
 11
-13.8378
 21
-7.69099
  0
LINE
  8
0
 10
-13.8378
 20
-7.69099
 11
-13.7858
 21
-7.65569
  0
LINE
  8
0
 10
-13.7858
 20
-7.65569
 11
-13.7318
 21
-7.6237
  0
LINE
  8
0
 10
-13.7318
 20
-7.6237
 11
-13.6758
 21
-7.59518
  0
LINE
  8
0
 10
-13.6758
 20
-7.59518
 11
-13.6181
 21
-7.57024
  0
LINE
  8
0
 10
-13.6181
 20
-7.57024
 11
-13.559
 21
-7.54895
  0
LINE
  8
0
 10
-13.559
 20
-7.54895
 11
-13.4987
 21
-7.53142
  0
LINE
  8
0
 10
-13.4987
 20
-7.53142
 11
-13.4374
 21
-7.51772
  0
LINE
  8
0
 10
-13.4374
 20
-7.51772
 11
-13.3753
 21
-7.50789
  0
LINE
  8
0
 10
-13.3753
 20
-7.50789
 11
-13.3128
 21
-7.50198
  0
LINE
  8
0
 10
-13.3128
 20
-7.50198
 11
-13.25
 21
-7.5
  0
LINE
  8
0
 10
-13.25
 20
-7.5
 11
-12.75
 21
-7.5
  0
LINE
  8
0
 10
-12.75
 20
-7.5
 11
-12.6872
 21
-7.50198
  0
LINE
  8
0
 10
-12.6872
 20
-7.50198
 11
-12.6247
 21
-7.50789
  0
LINE
  8
0
 10
-12.6247
 20
-7.50789
 11
-12.5626
 21
-7.51772
  0
LINE
  8
0
 10
-12.5626
 20
-7.51772
 11
-12.5013
 21
-7.53142
  0
LINE
  8
0
 10
-12.5013
 20
-7.53142
 11
-12.441
 21
-7.54895
  0
LINE
  8
0
 10
-12.441
 20
-7.54895
 11
-12.3819
 21
-7.57024
  0
LINE
  8
0
 10
-12.3819
 20
-7.57024
 11
-12.3242
 21
-7.59518
  0
LINE
  8
0
 10
-12.3242
 20
-7.59518
 11
-12.2682
 21
-7.6237
  0
LINE
  8
0
 10
-12.2682
 20
-7.6237
 11
-12.2142
 21
-7.65569
  0
LINE
  8
0
 10
-12.2142
 20
-7.65569
 11
-12.1622
 21
-7.69099
  0
LINE
  8
0
 10
-12.1622
 20
-7.69099
 11
-12.1126
 21
-7.72949
  0
LINE
  8
0
 10
-12.1126
 20
-7.72949
 11
-12.0655
 21
-7.77104
  0
LINE
  8
0
 10
-12.0655
 20
-7.77104
 11
-12.021
 21
-7.81546
  0
LINE
  8
0
 10
-12.021
 20
-7.81546
 11
-11.9795
 21
-7.86258
  0
LINE
  8
0
 10
-11.9795
 20
-7.86258
 11
-11.941
 21
-7.91222
  0
LINE
  8
0
 10
-11.941
 20
-7.91222
 11
-11.9057
 21
-7.96419
  0
LINE
  8
0
 10
-11.9057
 20
-7.96419
 11
-11.8737
 21
-8.01825
  0
LINE
  8
0
 10
-11.8737
 20
-8.01825
 11
-11.8452
 21
-8.07423
  0
LINE
  8
0
 10
-11.8452
 20
-8.07423
 11
-11.8202
 21
-8.13188
  0
LINE
  8
0
 10
-11.8202
 20
-8.13188
 11
-11.799
 21
-8.19099
  0
LINE
  8
0
 10
-11.799
 20
-8.19099
 11
-11.7814
 21
-8.25131
  0
LINE
  8
0
 10
-11.7814
 20
-8.25131
 11
-11.7677
 21
-8.31262
  0
LINE
  8
0
 10
-11.7677
 20
-8.31262
 11
-11.7579
 21
-8.37468
  0
LINE
  8
0
 10
-11.7579
 20
-8.37468
 11
-11.752
 21
-8.43721
  0
LINE
  8
0
 10
-11.752
 20
-8.43721
 11
-11.75
 21
-8.5
  0
LINE
  8
0
 10
-11.75
 20
-8.5
 11
-11.75
 21
-11.5
  0
LINE
  8
0
 10
-11.75
 20
-11.5
 11
-11.752
 21
-11.5628
  0
LINE
  8
0
 10
-11.752
 20
-11.5628
 11
-11.7579
 21
-11.6253
  0
LINE
  8
0
 10
-11.7579
 20
-11.6253
 11
-11.7677
 21
-11.6874
  0
LINE
  8
0
 10
-11.7677
 20
-11.6874
 11
-11.7814
 21
-11.7487
  0
LINE
  8
0
 10
-11.7814
 20
-11.7487
 11
-11.799
 21
-11.809
  0
LINE
  8
0
 10
-11.799
 20
-11.809
 11
-11.8202
 21
-11.8681
  0
LINE
  8
0
 10
-11.8202
 20
-11.8681
 11
-11.8452
 21
-11.9258
  0
LINE
  8
0
 10
-11.8452
 20
-11.9258
 11
-11.8737
 21
-11.9818
  0
LINE
  8
0
 10
-11.8737
 20
-11.9818
 11
-11.9057
 21
-12.0358
  0
LINE
  8
0
 10
-11.9057
 20
-12.0358
 11
-11.941
 21
-12.0878
  0
LINE
  8
0
 10
-11.941
 20
-12.0878
 11
-11.9795
 21
-12.1374
  0
LINE
  8
0
 10
-11.9795
 20
-12.1374
 11
-12.021
 21
-12.1845
  0
LINE
  8
0
 10
-12.021
 20
-12.1845
 11
-12.0655
 21
-12.229
  0
LINE
  8
0
 10
-12.0655
 20
-12.229
 11
-12.1126
 21
-12.2705
  0
LINE
  8
0
 10
-12.1126
 20
-12.2705
 11
-12.1622
 21
-12.309
  0
LINE
  8
0
 10
-12.1622
 20
-12.309
 11
-12.2142
 21
-12.3443
  0
LINE
  8
0
 10
-12.2142
 20
-12.3443
 11
-12.2682
 21
-12.3763
  0
LINE
  8
0
 10
-12.2682
 20
-12.3763
 11
-12.3242
 21
-12.4048
  0
LINE
  8
0
 10
-12.3242
 20
-12.4048
 11
-12.3819
 21
-12.4298
  0
LINE
  8
0
 10
-12.3819
 20
-12.4298
 11
-12.441
 21
-12.451
  0
LINE
  8
0
 10
-12.441
 20
-12.451
 11
-12.5013
 21
-12.4686
  0
LINE
  8
0
 10
-12.5013
 20
-12.4686
 11
-12.5626
 21
-12.4823
  0
LINE
  8
0
 10
-12.5626
 20
-12.4823
 11
-12.6247
 21
-12.4921
  0
LINE
  8
0
 10
-12.6247
 20
-12.4921
 11
-12.6872
 21
-12.498
  0
LINE
  8
0
 10
-12.6872
 20
-12.498
 11
-12.75
 21
-12.5
  0
LINE
  8
0
 10
-12.75
 20
-12.5
 11
-13.25
 21
-12.5
  0
LINE
  8
0
 10
12.75
 20
-12.5
 11
12.6872
 21
-12.498
  0
LINE
  8
0
 10
12.6872
 20
-12.498
 11
12.6247
 21
-12.4921
  0
LINE
  8
0
 10
12.6247
 20
-12.4921
 11
12.5626
 21
-12.4823
  0
LINE
  8
0
 10
12.5626
 20
-12.4823
 11
12.5013
 21
-12.4686
  0
LINE
  8
0
 10
12.5013
 20
-12.4686
 11
12.441
 21
-12.451
  0
LINE
  8
0
 10
12.441
 20
-12.451
 11
12.3819
 21
-12.4298
  0
LINE
  8
0
 10
12.3819
 20
-12.4298
 11
12.3242
 21
-12.4048
  0
LINE
  8
0
 10
12.3242
 20
-12.4048
 11
12.2682
 21
-12.3763
  0
LINE
  8
0
 10
12.2682
 20
-12.3763
 11
12.2142
 21
-12.3443
  0
LINE
  8
0
 10
12.2142
 20
-12.3443
 11
12.1622
 21
-12.309
  0
LINE
  8
0
 10
12.1622
 20
-12.309
 11
12.1126
 21
-12.2705
  0
LINE
  8
0
 10
12.1126
 20
-12.2705
 11
12.0655
 21
-12.229
  0
LINE
  8
0
 10
12.0655
 20
-12.229
 11
12.021
 21
-12.1845
  0
LINE
  8
0
 10
12.021
 20
-12.1845
 11
11.9795
 21
-12.1374
  0
LINE
  8
0
 10
11.9795
 20
-12.1374
 11
11.941
 21
-12.0878
  0
LINE
  8
0
 10
11.941
 20
-12.0878
 11
11.9057
 21
-12.0358
  0
LINE
  8
0
 10
11.9057
 20
-12.0358
 11
11.8737
 21
-11.9818
  0
LINE
  8
0
 10
11.8737
 20
-11.9818
 11
11.8452
 21
-11.9258
  0
LINE
  8
0
 10
11.8452
 20
-11.9258
 11
11.8202
 21
-11.8681
  0
LINE
  8
0
 10
11.8202
 20
-11.8681
 11
11.799
 21
-11.809
  0
LINE
  8
0
 10
11.799
 20
-11.809
 11
11.7814
 21
-11.7487
  0
LINE
  8
0
 10
11.7814
 20
-11.7487
 11
11.7677
 21
-11.6874
  0
LINE
  8
0
 10
11.7677
 20
-11.6874
 11
11.7579
 21
-11.6253
  0
LINE
  8
0
 10
11.7579
 20
-11.6253
 11
11.752
 21
-11.5628
  0
LINE
  8
0
 10
11.752
 20
-11.5628
 11
11.75
 21
-11.5
  0
LINE
  8
0
 10
11.75
 20
-11.5
 11
11.75
 21
-8.5
  0
LINE
  8
0
 10
11.75
 20
-8.5
 11
11.752
 21
-8.43721
  0
LINE
  8
0
 10
11.752
 20
-8.43721
 11
11.7579
 21
-8.37468
  0
LINE
  8
0
 10
11.7579
 20
-8.37468
 11
11.7677
 21
-8.31262
  0
LINE
  8
0
 10
11.7677
 20
-8.31262
 11
11.7814
 21
-8.25131
  0
LINE
  8
0
 10
11.7814
 20
-8.25131
 11
11.799
 21
-8.19099
  0
LINE
  8
0
 10
11.799
 20
-8.19099
 11
11.8202
 21
-8.13188
  0
LINE
  8
0
 10
11.8202
 20
-8.13188
 11
11.8452
 21
-8.07423
  0
LINE
  8
0
 10
11.8452
 20
-8.07423
 11
11.8737
 21
-8.01825
  0
LINE
  8
0
 10
11.8737
 20
-8.01825
 11
11.9057
 21
-7.96419
  0
LINE
  8
0
 10
11.9057
 20
-7.96419
 11
11.941
 21
-7.91222
  0
LINE
  8
0
 10
11.941
 20
-7.91222
 11
11.9795
 21
-7.86258
  0
LINE
  8
0
 10
11.9795
 20
-7.86258
 11
12.021
 21
-7.81546
  0
LINE
  8
0
 10
12.021
 20
-7.81546
 11
12.0655
 21
-7.77104
  0
LINE
  8
0
 10
12.0655
 20
-7.77104
 11
12.1126
 21
-7.72949
  0
LINE
  8
0
 10
12.1126
 20
-7.72949
 11
12.1622
 21
-7.69099
  0
LINE
  8
0
 10
12.1622
 20
-7.69099
 11
12.2142
 21
-7.65569
  0
LINE
  8
0
 10
12.2142
 20
-7.65569
 11
12.2682
 21
-7.6237
  0
LINE
  8
0
 10
12.2682
 20
-7.6237
 11
12.3242
 21
-7.59518
  0
LINE
  8
0
 10
12.3242
 20
-7.59518
 11
12.3819
 21
-7.57024
  0
LINE
  8
0
 10
12.3819
 20
-7.57024
 11
12.441
 21
-7.54895
  0
LINE
  8
0
 10
12.441
 20
-7.54895
 11
12.5013
 21
-7.53142
  0
LINE
  8
0
 10
12.5013
 20
-7.53142
 11
12.5626
 21
-7.51772
  0
LINE
  8
0
 10
12.5626
 20
-7.51772
 11
12.6247
 21
-7.50789
  0
LINE
  8
0
 10
12.6247
 20
-7.50789
 11
12.6872
 21
-7.50198
  0
LINE
  8
0
 10
12.6872
 20
-7.50198
 11
12.75
 21
-7.5
  0
LINE
  8
0
 10
12.75
 20
-7.5
 11
13.25
 21
-7.5
  0
LINE
  8
0
 10
13.25
 20
-7.5
 11
13.3128
 21
-7.50198
  0
LINE
  8
0
 10
13.3128
 20
-7.50198
 11
13.3753
 21
-7.50789
  0
LINE
  8
0
 10
13.3753
 20
-7.50789
 11
13.4374
 21
-7.51772
  0
LINE
  8
0
 10
13.4374
 20
-7.51772
 11
13.4987
 21
-7.53142
  0
LINE
  8
0
 10
13.4987
 20
-7.53142
 11
13.559
 21
-7.54895
  0
LINE
  8
0
 10
13.559
 20
-7.54895
 11
13.6181
 21
-7.57024
  0
LINE
  8
0
 10
13.6181
 20
-7.57024
 11
13.6758
 21
-7.59518
  0
LINE
  8
0
 10
13.6758
 20
-7.59518
 11
13.7318
 21
-7.6237
  0
LINE
  8
0
 10
13.7318
 20
-7.6237
 11
13.7858
 21
-7.65569
  0
LINE
  8
0
 10
13.7858
 20
-7.65569
 11
13.8378
 21
-7.69099
  0
LINE
  8
0
 10
13.8378
 20
-7.69099
 11
13.8874
 21
-7.72949
  0
LINE
  8
0
 10
13.8874
 20
-7.72949
 11
13.9345
 21
-7.77104
  0
LINE
  8
0
 10
13.9345
 20
-7.77104
 11
13.979
 21
-7.81546
  0
LINE
  8
0
 10
13.979
 20
-7.81546
 11
14.0205
 21
-7.86258
  0
LINE
  8
0
 10
14.0205
 20
-7.86258
 11
14.059
 21
-7.91222
  0
LINE
  8
0
 10
14.059
 20
-7.91222
 11
14.0943
 21
-7.96419
  0
LINE
  8
0
 10
14.0943
 20
-7.96419
 11
14.1263
 21
-8.01825
  0
LINE
  8
0
 10
14.1263
 20
-8.01825
 11
14.1548
 21
-8.07423
  0
LINE
  8
0
 10
14.1548
 20
-8.07423
 11
14.1798
 21
-8.13188
  0
LINE
  8
0
 10
14.1798
 20
-8.13188
 11
14.201
 21
-8.19099
  0
LINE
  8
0
 10
14.201
 20
-8.19099
 11
14.2186
 21
-8.25131
  0
LINE
  8
0
 10
14.2186
 20
-8.25131
 11
14.2323
 21
-8.31262
  0
LINE
  8
0
 10
14.2323
 20
-8.31262
 11
14.2421
 21
-8.37468
  0
LINE
  8
0
 10
14.2421
 20
-8.37468
 11
14.248
 21
-8.43721
  0
LINE
  8
0
 10
14.248
 20
-8.43721
 11
14.25
 21
-8.5
  0
LINE
  8
0
 10
14.25
 20
-8.5
 11
14.25
 21
-11.5
  0
LINE
  8
0
 10
14.25
 20
-11.5
 11
14.248
 21
-11.5628
  0
LINE
  8
0
 10
14.248
 20
-11.5628
 11
14.2421
 21
-11.6253
  0
LINE
  8
0
 10
14.2421
 20
-11.6253
 11
14.2323
 21
-11.6874
  0
LINE
  8
0
 10
14.2323
 20
-11.6874
 11
14.2186
 21
-11.7487
  0
LINE
  8
0
 10
14.2186
 20
-11.7487
 11
14.201
 21
-11.809
  0
LINE
  8
0
 10
14.201
 20
-11.809
 11
14.1798
 21
-11.8681
  0
LINE
  8
0
 10
14.1798
 20
-11.8681
 11
14.1548
 21
-11.9258
  0
LINE
  8
0
 10
14.1548
 20
-11.9258
 11
14.1263
 21
-11.9818
  0
LINE
  8
0
 10
14.1263
 20
-11.9818
 11
14.0943
 21
-12.0358
  0
LINE
  8
0
 10
14.0943
 20
-12.0358
 11
14.059
 21
-12.0878
  0
LINE
  8
0
 10
14.059
 20
-12.0878
 11
14.0205
 21
-12.1374
  0
LINE
  8
0
 10
14.0205
 20
-12.1374
 11
13.979
 21
-12.1845
  0
LINE
  8
0
 10
13.979
 20
-12.1845
 11
13.9345
 21
-12.229
  0
LINE
  8
0
 10
13.9345
 20
-12.229
 11
13.8874
 21
-12.2705
  0
LINE
  8
0
 10
13.8874
 20
-12.2705
 11
13.8378
 21
-12.309
  0
LINE
  8
0
 10
13.8378
 20
-12.309
 11
13.7858
 21
-12.3443
  0
LINE
  8
0
 10
13.7858
 20
-12.3443
 11
13.7318
 21
-12.3763
  0
LINE
  8
0
 10
13.7318
 20
-12.3763
 11
13.6758
 21
-12.4048
  0
LINE
  8
0
 10
13.6758
 20
-12.4048
 11
13.6181
 21
-12.4298
  0
LINE
  8
0
 10
13.6181
 20
-12.4298
 11
13.559
 21
-12.451
  0
LINE
  8
0
 10
13.559
 20
-12.451
 11
13.4987
 21
-12.4686
  0
LINE
  8
0
 10
13.4987
 20
-12.4686
 11
13.4374
 21
-12.4823
  0
LINE
  8
0
 10
13.4374
 20
-12.4823
 11
13.3753
 21
-12.4921
  0
LINE
  8
0
 10
13.3753
 20
-12.4921
 11
13.3128
 21
-12.498
  0
LINE
  8
0
 10
13.3128
 20
-12.498
 11
13.25
 21
-12.5
  0
LINE
  8
0
 10
13.25
 20
-12.5
 11
12.75
 21
-12.5
  0
LINE
  8
0
 10
22.75
 20
-12.5
 11
22.6872
 21
-12.498
  0
LINE
  8
0
 10
22.6872
 20
-12.498
 11
22.6247
 21
-12.4921
  0
LINE
  8
0
 10
22.6247
 20
-12.4921
 11
22.5626
 21
-12.4823
  0
LINE
  8
0
 10
22.5626
 20
-12.4823
 11
22.5013
 21
-12.4686
  0
LINE
  8
0
 10
22.5013
 20
-12.4686
 11
22.441
 21
-12.451
  0
LINE
  8
0
 10
22.441
 20
-12.451
 11
22.3819
 21
-12.4298
  0
LINE
  8
0
 10
22.3819
 20
-12.4298
 11
22.3242
 21
-12.4048
  0
LINE
  8
0
 10
22.3242
 20
-12.4048
 11
22.2682
 21
-12.3763
  0
LINE
  8
0
 10
22.2682
 20
-12.3763
 11
22.2142
 21
-12.3443
  0
LINE
  8
0
 10
22.2142
 20
-12.3443
 11
22.1622
 21
-12.309
  0
LINE
  8
0
 10
22.1622
 20
-12.309
 11
22.1126
 21
-12.2705
  0
LINE
  8
0
 10
22.1126
 20
-12.2705
 11
22.0655
 21
-12.229
  0
LINE
  8
0
 10
22.0655
 20
-12.229
 11
22.021
 21
-12.1845
  0
LINE
  8
0
 10
22.021
 20
-12.1845
 11
21.9795
 21
-12.1374
  0
LINE
  8
0
 10
21.9795
 20
-12.1374
 11
21.941
 21
-12.0878
  0
LINE
  8
0
 10
21.941
 20
-12.0878
 11
21.9057
 21
-12.0358
  0
LINE
  8
0
 10
21.9057
 20
-12.0358
 11
21.8737
 21
-11.9818
  0
LINE
  8
0
 10
21.8737
 20
-11.9818
 11
21.8452
 21
-11.9258
  0
LINE
  8
0
 10
21.8452
 20
-11.9258
 11
21.8202
 21
-11.8681
  0
LINE
  8
0
 10
21.8202
 20
-11.8681
 11
21.799
 21
-11.809
  0
LINE
  8
0
 10
21.799
 20
-11.809
 11
21.7814
 21
-11.7487
  0
LINE
  8
0
 10
21.7814
 20
-11.7487
 11
21.7677
 21
-11.6874
  0
LINE
  8
0
 10
21.7677
 20
-11.6874
 11
21.7579
 21
-11.6253
  0
LINE
  8
0
 10
21.7579
 20
-11.6253
 11
21.752
 21
-11.5628
  0
LINE
  8
0
 10
21.752
 20
-11.5628
 11
21.75
 21
-11.5
  0
LINE
  8
0
 10
21.75
 20
-11.5
 11
21.75
 21
-8.5
  0
LINE
  8
0
 10
21.75
 20
-8.5
 11
21.752
 21
-8.43721
  0
LINE
  8
0
 10
21.752
 20
-8.43721
 11
21.7579
 21
-8.37468
  0
LINE
  8
0
 10
21.7579
 20
-8.37468
 11
21.7677
 21
-8.31262
  0
LINE
  8
0
 10
21.7677
 20
-8.31262
 11
21.7814
 21
-8.25131
  0
LINE
  8
0
 10
21.7814
 20
-8.25131
 11
21.799
 21
-8.19099
  0
LINE
  8
0
 10
21.799
 20
-8.19099
 11
21.8202
 21
-8.13188
  0
LINE
  8
0
 10
21.8202
 20
-8.13188
 11
21.8452
 21
-8.07423
  0
LINE
  8
0
 10
21.8452
 20
-8.07423
 11
21.8737
 21
-8.01825
  0
LINE
  8
0
 10
21.8737
 20
-8.01825
 11
21.9057
 21
-7.96419
  0
LINE
  8
0
 10
21.9057
 20
-7.96419
 11
21.941
 21
-7.91222
  0
LINE
  8
0
 10
21.941
 20
-7.91222
 11
21.9795
 21
-7.86258
  0
LINE
  8
0
 10
21.9795
 20
-7.86258
 11
22.021
 21
-7.81546
  0
LINE
  8
0
 10
22.021
 20
-7.81546
 11
22.0655
 21
-7.77104
  0
LINE
  8
0
 10
22.0655
 20
-7.77104
 11
22.1126
 21
-7.72949
  0
LINE
  8
0
 10
22.1126
 20
-7.72949
 11
22.1622
 21
-7.69099
  0
LINE
  8
0
 10
22.1622
 20
-7.69099
 11
22.2142
 21
-7.65569
  0
LINE
  8
0
 10
22.2142
 20
-7.65569
 11
22.2682
 21
-7.6237
  0
LINE
  8
0
 10
22.2682
 20
-7.6237
 11
22.3242
 21
-7.59518
  0
LINE
  8
0
 10
22.3242
 20
-7.59518
 11
22.3819
 21
-7.57024
  0
LINE
  8
0
 10
22.3819
 20
-7.57024
 11
22.441
 21
-7.54895
  0
LINE
  8
0
 10
22.441
 20
-7.54895
 11
22.5013
 21
-7.53142
  0
LINE
  8
0
 10
22.5013
 20
-7.53142
 11
22.5626
 21
-7.51772
  0
LINE
  8
0
 10
22.5626
 20
-7.51772
 11
22.6247
 21
-7.50789
  0
LINE
  8
0
 10
22.6247
 20
-7.50789
 11
22.6872
 21
-7.50198
  0
LINE
  8
0
 10
22.6872
 20
-7.50198
 11
22.75
 21
-7.5
  0
LINE
  8
0
 10
22.75
 20
-7.5
 11
23.25
 21
-7.5
  0
LINE
  8
0
 10
23.25
 20
-7.5
 11
23.3128
 21
-7.50198
  0
LINE
  8
0
 10
23.3128
 20
-7.50198
 11
23.3753
 21
-7.50789
  0
LINE
  8
0
 10
23.3753
 20
-7.50789
 11
23.4374
 21
-7.51772
  0
LINE
  8
0
 10
23.4374
 20
-7.51772
 11
23.4987
 21
-7.53142
  0
LINE
  8
0
 10
23.4987
 20
-7.53142
 11
23.559
 21
-7.54895
  0
LINE
  8
0
 10
23.559
 20
-7.54895
 11
23.6181
 21
-7.57024
  0
LINE
  8
0
 10
23.6181
 20
-7.57024
 11
23.6758
 21
-7.59518
  0
LINE
  8
0
 10
23.6758
 20
-7.59518
 11
23.7318
 21
-7.6237
  0
LINE
  8
0
 10
23.7318
 20
-7.6237
 11
23.7858
 21
-7.65569
  0
LINE
  8
0
 10
23.7858
 20
-7.65569
 11
23.8378
 21
-7.69099
  0
LINE
  8
0
 10
23.8378
 20
-7.69099
 11
23.8874
 21
-7.72949
  0
LINE
  8
0
 10
23.8874
 20
-7.72949
 11
23.9345
 21
-7.77104
  0
LINE
  8
0
 10
23.9345
 20
-7.77104
 11
23.979
 21
-7.81546
  0
LINE
  8
0
 10
23.979
 20
-7.81546
 11
24.0205
 21
-7.86258
  0
LINE
  8
0
 10
24.0205
 20
-7.86258
 11
24.059
 21
-7.91222
  0
LINE
  8
0
 10
24.059
 20
-7.91222
 11
24.0943
 21
-7.96419
  0
LINE
  8
0
 10
24.0943
 20
-7.96419
 11
24.1263
 21
-8.01825
  0
LINE
  8
0
 10
24.1263
 20
-8.01825
 11
24.1548
 21
-8.07423
  0
LINE
  8
0
 10
24.1548
 20
-8.07423
 11
24.1798
 21
-8.13188
  0
LINE
  8
0
 10
24.1798
 20
-8.13188
 11
24.201
 21
-8.19099
  0
LINE
  8
0
 10
24.201
 20
-8.19099
 11
24.2186
 21
-8.25131
  0
LINE
  8
0
 10
24.2186
 20
-8.25131
 11
24.2323
 21
-8.31262
  0
LINE
  8
0
 10
24.2323
 20
-8.31262
 11
24.2421
 21
-8.37468
  0
LINE
  8
0
 10
24.2421
 20
-8.37468
 11
24.248
 21
-8.43721
  0
LINE
  8
0
 10
24.248
 20
-8.43721
 11
24.25
 21
-8.5
  0
LINE
  8
0
 10
24.25
 20
-8.5
 11
24.25
 21
-11.5
  0
LINE
  8
0
 10
24.25
 20
-11.5
 11
24.248
 21
-11.5628
  0
LINE
  8
0
 10
24.248
 20
-11.5628
 11
24.2421
 21
-11.6253
  0
LINE
  8
0
 10
24.2421
 20
-11.6253
 11
24.2323
 21
-11.6874
  0
LINE
  8
0
 10
24.2323
 20
-11.6874
 11
24.2186
 21
-11.7487
  0
LINE
  8
0
 10
24.2186
 20
-11.7487
 11
24.201
 21
-11.809
  0
LINE
  8
0
 10
24.201
 20
-11.809
 11
24.1798
 21
-11.8681
  0
LINE
  8
0
 10
24.1798
 20
-11.8681
 11
24.1548
 21
-11.9258
  0
LINE
  8
0
 10
24.1548
 20
-11.9258
 11
24.1263
 21
-11.9818
  0
LINE
  8
0
 10
24.1263
 20
-11.9818
 11
24.0943
 21
-12.0358
  0
LINE
  8
0
 10
24.0943
 20
-12.0358
 11
24.059
 21
-12.0878
  0
LINE
  8
0
 10
24.059
 20
-12.0878
 11
24.0205
 21
-12.1374
  0
LINE
  8
0
 10
24.0205
 20
-12.1374
 11
23.979
 21
-12.1845
  0
LINE
  8
0
 10
23.979
 20
-12.1845
 11
23.9345
 21
-12.229
  0
LINE
  8
0
 10
23.9345
 20
-12.229
 11
23.8874
 21
-12.2705
  0
LINE
  8
0
 10
23.8874
 20
-12.2705
 11
23.8378
 21
-12.309
  0
LINE
  8
0
 10
23.8378
 20
-12.309
 11
23.7858
 21
-12.3443
  0
LINE
  8
0
 10
23.7858
 20
-12.3443
 11
23.7318
 21
-12.3763
  0
LINE
  8
0
 10
23.7318
 20
-12.3763
 11
23.6758
 21
-12.4048
  0
LINE
  8
0
 10
23.6758
 20
-12.4048
 11
23.6181
 21
-12.4298
  0
LINE
  8
0
 10
23.6181
 20
-12.4298
 11
23.559
 21
-12.451
  0
LINE
  8
0
 10
23.559
 20
-12.451
 11
23.4987
 21
-12.4686
  0
LINE
  8
0
 10
23.4987
 20
-12.4686
 11
23.4374
 21
-12.4823
  0
LINE
  8
0
 10
23.4374
 20
-12.4823
 11
23.3753
 21
-12.4921
  0
LINE
  8
0
 10
23.3753
 20
-12.4921
 11
23.3128
 21
-12.498
  0
LINE
  8
0
 10
23.3128
 20
-12.498
 11
23.25
 21
-12.5
  0
LINE
  8
0
 10
23.25
 20
-12.5
 11
22.75
 21
-12.5
  0
LINE
  8
0
 10
-6.79999
 20
-12.25
 11
-6.87534
 21
-12.2476
  0
LINE
  8
0
 10
-6.87534
 20
-12.2476
 11
-6.95038
 21
-12.2405
  0
LINE
  8
0
 10
-6.95038
 20
-12.2405
 11
-7.02484
 21
-12.2287
  0
LINE
  8
0
 10
-7.02484
 20
-12.2287
 11
-7.0984
 21
-12.2123
  0
LINE
  8
0
 10
-7.0984
 20
-12.2123
 11
-7.17081
 21
-12.1913
  0
LINE
  8
0
 10
-7.17081
 20
-12.1913
 11
-7.24173
 21
-12.1657
  0
LINE
  8
0
 10
-7.24173
 20
-12.1657
 11
-7.31091
 21
-12.1358
  0
LINE
  8
0
 10
-7.31091
 20
-12.1358
 11
-7.37808
 21
-12.1015
  0
LINE
  8
0
 10
-7.37808
 20
-12.1015
 11
-7.44298
 21
-12.0632
  0
LINE
  8
0
 10
-7.44298
 20
-12.0632
 11
-7.50533
 21
-12.0208
  0
LINE
  8
0
 10
-7.50533
 20
-12.0208
 11
-7.5649
 21
-11.9746
  0
LINE
  8
0
 10
-7.5649
 20
-11.9746
 11
-7.62143
 21
-11.9247
  0
LINE
  8
0
 10
-7.62143
 20
-11.9247
 11
-7.67474
 21
-11.8714
  0
LINE
  8
0
 10
-7.67474
 20
-11.8714
 11
-7.72459
 21
-11.8149
  0
LINE
  8
0
 10
-7.72459
 20
-11.8149
 11
-7.7708
 21
-11.7553
  0
LINE
  8
0
 10
-7.7708
 20
-11.7553
 11
-7.81317
 21
-11.693
  0
LINE
  8
0
 10
-7.81317
 20
-11.693
 11
-7.85155
 21
-11.6281
  0
LINE
  8
0
 10
-7.85155
 20
-11.6281
 11
-7.88577
 21
-11.5609
  0
LINE
  8
0
 10
-7.88577
 20
-11.5609
 11
-7.91571
 21
-11.4917
  0
LINE
  8
0
 10
-7.91571
 20
-11.4917
 11
-7.94125
 21
-11.4208
  0
LINE
  8
0
 10
-7.94125
 20
-11.4208
 11
-7.96228
 21
-11.3484
  0
LINE
  8
0
 10
-7.96228
 20
-11.3484
 11
-7.97873
 21
-11.2748
  0
LINE
  8
0
 10
-7.97873
 20
-11.2748
 11
-7.99052
 21
-11.2004
  0
LINE
  8
0
 10
-7.99052
 20
-11.2004
 11
-7.99762
 21
-11.1253
  0
LINE
  8
0
 10
-7.99762
 20
-11.1253
 11
-7.99998
 21
-11.05
  0
LINE
  8
0
 10
-7.99998
 20
-11.05
 11
-7.99998
 21
-10.95
  0
LINE
  8
0
 10
-7.99998
 20
-10.95
 11
-7.99762
 21
-10.8747
  0
LINE
  8
0
 10
-7.99762
 20
-10.8747
 11
-7.99052
 21
-10.7996
  0
LINE
  8
0
 10
-7.99052
 20
-10.7996
 11
-7.97873
 21
-10.7252
  0
LINE
  8
0
 10
-7.97873
 20
-10.7252
 11
-7.96228
 21
-10.6516
  0
LINE
  8
0
 10
-7.96228
 20
-10.6516
 11
-7.94125
 21
-10.5792
  0
LINE
  8
0
 10
-7.94125
 20
-10.5792
 11
-7.91571
 21
-10.5083
  0
LINE
  8
0
 10
-7.91571
 20
-10.5083
 11
-7.88577
 21
-10.4391
  0
LINE
  8
0
 10
-7.88577
 20
-10.4391
 11
-7.85155
 21
-10.3719
  0
LINE
  8
0
 10
-7.85155
 20
-10.3719
 11
-7.81317
 21
-10.307
  0
LINE
  8
0
 10
-7.81317
 20
-10.307
 11
-7.7708
 21
-10.2447
  0
LINE
  8
0
 10
-7.7708
 20
-10.2447
 11
-7.72459
 21
-10.1851
  0
LINE
  8
0
 10
-7.72459
 20
-10.1851
 11
-7.67474
 21
-10.1286
  0
LINE
  8
0
 10
-7.67474
 20
-10.1286
 11
-7.62143
 21
-10.0753
  0
LINE
  8
0
 10
-7.62143
 20
-10.0753
 11
-7.5649
 21
-10.0254
  0
LINE
  8
0
 10
-7.5649
 20
-10.0254
 11
-7.50533
 21
-9.9792
  0
LINE
  8
0
 10
-7.50533
 20
-9.9792
 11
-7.44298
 21
-9.93683
  0
LINE
  8
0
 10
-7.44298
 20
-9.93683
 11
-7.37808
 21
-9.89845
  0
LINE
  8
0
 10
-7.37808
 20
-9.89845
 11
-7.31091
 21
-9.86423
  0
LINE
  8
0
 10
-7.31091
 20
-9.86423
 11
-7.24173
 21
-9.83429
  0
LINE
  8
0
 10
-7.24173
 20
-9.83429
 11
-7.17081
 21
-9.80875
  0
LINE
  8
0
 10
-7.17081
 20
-9.80875
 11
-7.0984
 21
-9.78772
  0
LINE
  8
0
 10
-7.0984
 20
-9.78772
 11
-7.02484
 21
-9.77127
  0
LINE
  8
0
 10
-7.02484
 20
-9.77127
 11
-6.95038
 21
-9.75948
  0
LINE
  8
0
 10
-6.95038
 20
-9.75948
 11
-6.87534
 21
-9.75238
  0
LINE
  8
0
 10
-6.87534
 20
-9.75238
 11
-6.79999
 21
-9.75002
  0
LINE
  8
0
 10
-6.79999
 20
-9.75002
 11
6.79999
 21
-9.75002
  0
LINE
  8
0
 10
6.79999
 20
-9.75002
 11
6.87534
 21
-9.75238
  0
LINE
  8
0
 10
6.87534
 20
-9.75238
 11
6.95038
 21
-9.75948
  0
LINE
  8
0
 10
6.95038
 20
-9.75948
 11
7.02484
 21
-9.77127
  0
LINE
  8
0
 10
7.02484
 20
-9.77127
 11
7.0984
 21
-9.78772
  0
LINE
  8
0
 10
7.0984
 20
-9.78772
 11
7.17081
 21
-9.80875
  0
LINE
  8
0
 10
7.17081
 20
-9.80875
 11
7.24173
 21
-9.83429
  0
LINE
  8
0
 10
7.24173
 20
-9.83429
 11
7.31091
 21
-9.86423
  0
LINE
  8
0
 10
7.31091
 20
-9.86423
 11
7.37808
 21
-9.89845
  0
LINE
  8
0
 10
7.37808
 20
-9.89845
 11
7.44298
 21
-9.93683
  0
LINE
  8
0
 10
7.44298
 20
-9.93683
 11
7.50533
 21
-9.9792
  0
LINE
  8
0
 10
7.50533
 20
-9.9792
 11
7.5649
 21
-10.0254
  0
LINE
  8
0
 10
7.5649
 20
-10.0254
 11
7.62143
 21
-10.0753
  0
LINE
  8
0
 10
7.62143
 20
-10.0753
 11
7.67474
 21
-10.1286
  0
LINE
  8
0
 10
7.67474
 20
-10.1286
 11
7.72459
 21
-10.1851
  0
LINE
  8
0
 10
7.72459
 20
-10.1851
 11
7.7708
 21
-10.2447
  0
LINE
  8
0
 10
7.7708
 20
-10.2447
 11
7.81317
 21
-10.307
  0
LINE
  8
0
 10
7.81317
 20
-10.307
 11
7.85155
 21
-10.3719
  0
LINE
  8
0
 10
7.85155
 20
-10.3719
 11
7.88577
 21
-10.4391
  0
LINE
  8
0
 10
7.88577
 20
-10.4391
 11
7.91571
 21
-10.5083
  0
LINE
  8
0
 10
7.91571
 20
-10.5083
 11
7.94125
 21
-10.5792
  0
LINE
  8
0
 10
7.94125
 20
-10.5792
 11
7.96228
 21
-10.6516
  0
LINE
  8
0
 10
7.96228
 20
-10.6516
 11
7.97873
 21
-10.7252
  0
LINE
  8
0
 10
7.97873
 20
-10.7252
 11
7.99052
 21
-10.7996
  0
LINE
  8
0
 10
7.99052
 20
-10.7996
 11
7.99762
 21
-10.8747
  0
LINE
  8
0
 10
7.99762
 20
-10.8747
 11
7.99998
 21
-10.95
  0
LINE
  8
0
 10
7.99998
 20
-10.95
 11
7.99998
 21
-11.05
  0
LINE
  8
0
 10
7.99998
 20
-11.05
 11
7.99762
 21
-11.1253
  0
LINE
  8
0
 10
7.99762
 20
-11.1253
 11
7.99052
 21
-11.2004
  0
LINE
  8
0
 10
7.99052
 20
-11.2004
 11
7.97873
 21
-11.2748
  0
LINE
  8
0
 10
7.97873
 20
-11.2748
 11
7.96228
 21
-11.3484
  0
LINE
  8
0
 10
7.96228
 20
-11.3484
 11
7.94125
 21
-11.4208
  0
LINE
  8
0
 10
7.94125
 20
-11.4208
 11
7.91571
 21
-11.4917
  0
LINE
  8
0
 10
7.91571
 20
-11.4917
 11
7.88577
 21
-11.5609
  0
LINE
  8
0
 10
7.88577
 20
-11.5609
 11
7.85155
 21
-11.6281
  0
LINE
  8
0
 10
7.85155
 20
-11.6281
 11
7.81317
 21
-11.693
  0
LINE
  8
0
 10
7.81317
 20
-11.693
 11
7.7708
 21
-11.7553
  0
LINE
  8
0
 10
7.7708
 20
-11.7553
 11
7.72459
 21
-11.8149
  0
LINE
  8
0
 10
7.72459
 20
-11.8149
 11
7.67474
 21
-11.8714
  0
LINE
  8
0
 10
7.67474
 20
-11.8714
 11
7.62143
 21
-11.9247
  0
LINE
  8
0
 10
7.62143
 20
-11.9247
 11
7.5649
 21
-11.9746
  0
LINE
  8
0
 10
7.5649
 20
-11.9746
 11
7.50533
 21
-12.0208
  0
LINE
  8
0
 10
7.50533
 20
-12.0208
 11
7.44298
 21
-12.0632
  0
LINE
  8
0
 10
7.44298
 20
-12.0632
 11
7.37808
 21
-12.1015
  0
LINE
  8
0
 10
7.37808
 20
-12.1015
 11
7.31091
 21
-12.1358
  0
LINE
  8
0
 10
7.31091
 20
-12.1358
 11
7.24173
 21
-12.1657
  0
LINE
  8
0
 10
7.24173
 20
-12.1657
 11
7.17081
 21
-12.1913
  0
LINE
  8
0
 10
7.17081
 20
-12.1913
 11
7.0984
 21
-12.2123
  0
LINE
  8
0
 10
7.0984
 20
-12.2123
 11
7.02484
 21
-12.2287
  0
LINE
  8
0
 10
7.02484
 20
-12.2287
 11
6.95038
 21
-12.2405
  0
LINE
  8
0
 10
6.95038
 20
-12.2405
 11
6.87534
 21
-12.2476
  0
LINE
  8
0
 10
6.87534
 20
-12.2476
 11
6.79999
 21
-12.25
  0
LINE
  8
0
 10
6.79999
 20
-12.25
 11
-6.79999
 21
-12.25
  0
ENDSEC
  0
SECTION
  2
OBJECTS
  0
DICTIONARY
  0
ENDSEC
  0
EOF
