  0
SECTION
  2
BLOCKS
  0
ENDSEC
  0
SECTION
  2
ENTITIES
  0
LINE
  8
0
 10
26.1884
 20
-14.9941
 11
26.376
 21
-14.9763
  0
LINE
  8
0
 10
26.376
 20
-14.9763
 11
26.5621
 21
-14.9469
  0
LINE
  8
0
 10
26.5621
 20
-14.9469
 11
26.7461
 21
-14.9057
  0
LINE
  8
0
 10
26.7461
 20
-14.9057
 11
26.927
 21
-14.8532
  0
LINE
  8
0
 10
26.927
 20
-14.8532
 11
27.1044
 21
-14.7893
  0
LINE
  8
0
 10
27.1044
 20
-14.7893
 11
27.2773
 21
-14.7145
  0
LINE
  8
0
 10
27.2773
 20
-14.7145
 11
27.4453
 21
-14.6289
  0
LINE
  8
0
 10
27.4453
 20
-14.6289
 11
27.6075
 21
-14.533
  0
LINE
  8
0
 10
27.6075
 20
-14.533
 11
27.7634
 21
-14.427
  0
LINE
  8
0
 10
27.7634
 20
-14.427
 11
27.9123
 21
-14.3115
  0
LINE
  8
0
 10
27.9123
 20
-14.3115
 11
28.0536
 21
-14.1869
  0
LINE
  8
0
 10
28.0536
 20
-14.1869
 11
28.1869
 21
-14.0536
  0
LINE
  8
0
 10
28.1869
 20
-14.0536
 11
28.3115
 21
-13.9123
  0
LINE
  8
0
 10
28.3115
 20
-13.9123
 11
28.427
 21
-13.7634
  0
LINE
  8
0
 10
28.427
 20
-13.7634
 11
28.533
 21
-13.6075
  0
LINE
  8
0
 10
28.533
 20
-13.6075
 11
28.6289
 21
-13.4453
  0
LINE
  8
0
 10
28.6289
 20
-13.4453
 11
28.7145
 21
-13.2773
  0
LINE
  8
0
 10
28.7145
 20
-13.2773
 11
28.7893
 21
-13.1044
  0
LINE
  8
0
 10
28.7893
 20
-13.1044
 11
28.8532
 21
-12.927
  0
LINE
  8
0
 10
28.8532
 20
-12.927
 11
28.9057
 21
-12.7461
  0
LINE
  8
0
 10
28.9057
 20
-12.7461
 11
28.9469
 21
-12.5621
  0
LINE
  8
0
 10
28.9469
 20
-12.5621
 11
28.9763
 21
-12.376
  0
LINE
  8
0
 10
28.9763
 20
-12.376
 11
28.9941
 21
-12.1884
  0
LINE
  8
0
 10
28.9941
 20
-12.1884
 11
29
 21
-12
  0
LINE
  8
0
 10
29
 20
-12
 11
29
 21
12
  0
LINE
  8
0
 10
29
 20
12
 11
28.9941
 21
12.1884
  0
LINE
  8
0
 10
28.9941
 20
12.1884
 11
28.9763
 21
12.376
  0
LINE
  8
0
 10
28.9763
 20
12.376
 11
28.9469
 21
12.5621
  0
LINE
  8
0
 10
28.9469
 20
12.5621
 11
28.9057
 21
12.7461
  0
LINE
  8
0
 10
28.9057
 20
12.7461
 11
28.8532
 21
12.927
  0
LINE
  8
0
 10
28.8532
 20
12.927
 11
28.7893
 21
13.1044
  0
LINE
  8
0
 10
28.7893
 20
13.1044
 11
28.7145
 21
13.2773
  0
LINE
  8
0
 10
28.7145
 20
13.2773
 11
28.6289
 21
13.4453
  0
LINE
  8
0
 10
28.6289
 20
13.4453
 11
28.533
 21
13.6075
  0
LINE
  8
0
 10
28.533
 20
13.6075
 11
28.427
 21
13.7634
  0
LINE
  8
0
 10
28.427
 20
13.7634
 11
28.3115
 21
13.9123
  0
LINE
  8
0
 10
28.3115
 20
13.9123
 11
28.1869
 21
14.0536
  0
LINE
  8
0
 10
28.1869
 20
14.0536
 11
28.0536
 21
14.1869
  0
LINE
  8
0
 10
28.0536
 20
14.1869
 11
27.9123
 21
14.3115
  0
LINE
  8
0
 10
27.9123
 20
14.3115
 11
27.7634
 21
14.427
  0
LINE
  8
0
 10
27.7634
 20
14.427
 11
27.6075
 21
14.533
  0
LINE
  8
0
 10
27.6075
 20
14.533
 11
27.4453
 21
14.6289
  0
LINE
  8
0
 10
27.4453
 20
14.6289
 11
27.2773
 21
14.7145
  0
LINE
  8
0
 10
27.2773
 20
14.7145
 11
27.1044
 21
14.7893
  0
LINE
  8
0
 10
27.1044
 20
14.7893
 11
26.927
 21
14.8532
  0
LINE
  8
0
 10
26.927
 20
14.8532
 11
26.7461
 21
14.9057
  0
LINE
  8
0
 10
26.7461
 20
14.9057
 11
26.5621
 21
14.9469
  0
LINE
  8
0
 10
26.5621
 20
14.9469
 11
26.376
 21
14.9763
  0
LINE
  8
0
 10
26.376
 20
14.9763
 11
26.1884
 21
14.9941
  0
LINE
  8
0
 10
26.1884
 20
14.9941
 11
26
 21
15
  0
LINE
  8
0
 10
26
 20
15
 11
-26
 21
15
  0
LINE
  8
0
 10
-26
 20
15
 11
-26.1884
 21
14.9941
  0
LINE
  8
0
 10
-26.1884
 20
14.9941
 11
-26.376
 21
14.9763
  0
LINE
  8
0
 10
-26.376
 20
14.9763
 11
-26.5621
 21
14.9469
  0
LINE
  8
0
 10
-26.5621
 20
14.9469
 11
-26.7461
 21
14.9057
  0
LINE
  8
0
 10
-26.7461
 20
14.9057
 11
-26.927
 21
14.8532
  0
LINE
  8
0
 10
-26.927
 20
14.8532
 11
-27.1044
 21
14.7893
  0
LINE
  8
0
 10
-27.1044
 20
14.7893
 11
-27.2773
 21
14.7145
  0
LINE
  8
0
 10
-27.2773
 20
14.7145
 11
-27.4453
 21
14.6289
  0
LINE
  8
0
 10
-27.4453
 20
14.6289
 11
-27.6075
 21
14.533
  0
LINE
  8
0
 10
-27.6075
 20
14.533
 11
-27.7634
 21
14.427
  0
LINE
  8
0
 10
-27.7634
 20
14.427
 11
-27.9123
 21
14.3115
  0
LINE
  8
0
 10
-27.9123
 20
14.3115
 11
-28.0536
 21
14.1869
  0
LINE
  8
0
 10
-28.0536
 20
14.1869
 11
-28.1869
 21
14.0536
  0
LINE
  8
0
 10
-28.1869
 20
14.0536
 11
-28.3115
 21
13.9123
  0
LINE
  8
0
 10
-28.3115
 20
13.9123
 11
-28.427
 21
13.7634
  0
LINE
  8
0
 10
-28.427
 20
13.7634
 11
-28.533
 21
13.6075
  0
LINE
  8
0
 10
-28.533
 20
13.6075
 11
-28.6289
 21
13.4453
  0
LINE
  8
0
 10
-28.6289
 20
13.4453
 11
-28.7145
 21
13.2773
  0
LINE
  8
0
 10
-28.7145
 20
13.2773
 11
-28.7893
 21
13.1044
  0
LINE
  8
0
 10
-28.7893
 20
13.1044
 11
-28.8532
 21
12.927
  0
LINE
  8
0
 10
-28.8532
 20
12.927
 11
-28.9057
 21
12.7461
  0
LINE
  8
0
 10
-28.9057
 20
12.7461
 11
-28.9469
 21
12.5621
  0
LINE
  8
0
 10
-28.9469
 20
12.5621
 11
-28.9763
 21
12.376
  0
LINE
  8
0
 10
-28.9763
 20
12.376
 11
-28.9941
 21
12.1884
  0
LINE
  8
0
 10
-28.9941
 20
12.1884
 11
-29
 21
12
  0
LINE
  8
0
 10
-29
 20
12
 11
-29
 21
-12
  0
LINE
  8
0
 10
-29
 20
-12
 11
-28.9941
 21
-12.1884
  0
LINE
  8
0
 10
-28.9941
 20
-12.1884
 11
-28.9763
 21
-12.376
  0
LINE
  8
0
 10
-28.9763
 20
-12.376
 11
-28.9469
 21
-12.5621
  0
LINE
  8
0
 10
-28.9469
 20
-12.5621
 11
-28.9057
 21
-12.7461
  0
LINE
  8
0
 10
-28.9057
 20
-12.7461
 11
-28.8532
 21
-12.927
  0
LINE
  8
0
 10
-28.8532
 20
-12.927
 11
-28.7893
 21
-13.1044
  0
LINE
  8
0
 10
-28.7893
 20
-13.1044
 11
-28.7145
 21
-13.2773
  0
LINE
  8
0
 10
-28.7145
 20
-13.2773
 11
-28.6289
 21
-13.4453
  0
LINE
  8
0
 10
-28.6289
 20
-13.4453
 11
-28.533
 21
-13.6075
  0
LINE
  8
0
 10
-28.533
 20
-13.6075
 11
-28.427
 21
-13.7634
  0
LINE
  8
0
 10
-28.427
 20
-13.7634
 11
-28.3115
 21
-13.9123
  0
LINE
  8
0
 10
-28.3115
 20
-13.9123
 11
-28.1869
 21
-14.0536
  0
LINE
  8
0
 10
-28.1869
 20
-14.0536
 11
-28.0536
 21
-14.1869
  0
LINE
  8
0
 10
-28.0536
 20
-14.1869
 11
-27.9123
 21
-14.3115
  0
LINE
  8
0
 10
-27.9123
 20
-14.3115
 11
-27.7634
 21
-14.427
  0
LINE
  8
0
 10
-27.7634
 20
-14.427
 11
-27.6075
 21
-14.533
  0
LINE
  8
0
 10
-27.6075
 20
-14.533
 11
-27.4453
 21
-14.6289
  0
LINE
  8
0
 10
-27.4453
 20
-14.6289
 11
-27.2773
 21
-14.7145
  0
LINE
  8
0
 10
-27.2773
 20
-14.7145
 11
-27.1044
 21
-14.7893
  0
LINE
  8
0
 10
-27.1044
 20
-14.7893
 11
-26.927
 21
-14.8532
  0
LINE
  8
0
 10
-26.927
 20
-14.8532
 11
-26.7461
 21
-14.9057
  0
LINE
  8
0
 10
-26.7461
 20
-14.9057
 11
-26.5621
 21
-14.9469
  0
LINE
  8
0
 10
-26.5621
 20
-14.9469
 11
-26.376
 21
-14.9763
  0
LINE
  8
0
 10
-26.376
 20
-14.9763
 11
-26.1884
 21
-14.9941
  0
LINE
  8
0
 10
-26.1884
 20
-14.9941
 11
-26
 21
-15
  0
LINE
  8
0
 10
-26
 20
-15
 11
26
 21
-15
  0
LINE
  8
0
 10
26
 20
-15
 11
26.1884
 21
-14.9941
  0
LINE
  8
0
 10
-6.79999
 20
9.75002
 11
-6.87534
 21
9.75238
  0
LINE
  8
0
 10
-6.87534
 20
9.75238
 11
-6.95038
 21
9.75948
  0
LINE
  8
0
 10
-6.95038
 20
9.75948
 11
-7.02484
 21
9.77127
  0
LINE
  8
0
 10
-7.02484
 20
9.77127
 11
-7.0984
 21
9.78772
  0
LINE
  8
0
 10
-7.0984
 20
9.78772
 11
-7.17081
 21
9.80875
  0
LINE
  8
0
 10
-7.17081
 20
9.80875
 11
-7.24173
 21
9.83429
  0
LINE
  8
0
 10
-7.24173
 20
9.83429
 11
-7.31091
 21
9.86423
  0
LINE
  8
0
 10
-7.31091
 20
9.86423
 11
-7.37808
 21
9.89845
  0
LINE
  8
0
 10
-7.37808
 20
9.89845
 11
-7.44298
 21
9.93683
  0
LINE
  8
0
 10
-7.44298
 20
9.93683
 11
-7.50533
 21
9.9792
  0
LINE
  8
0
 10
-7.50533
 20
9.9792
 11
-7.5649
 21
10.0254
  0
LINE
  8
0
 10
-7.5649
 20
10.0254
 11
-7.62143
 21
10.0753
  0
LINE
  8
0
 10
-7.62143
 20
10.0753
 11
-7.67474
 21
10.1286
  0
LINE
  8
0
 10
-7.67474
 20
10.1286
 11
-7.72459
 21
10.1851
  0
LINE
  8
0
 10
-7.72459
 20
10.1851
 11
-7.7708
 21
10.2447
  0
LINE
  8
0
 10
-7.7708
 20
10.2447
 11
-7.81317
 21
10.307
  0
LINE
  8
0
 10
-7.81317
 20
10.307
 11
-7.85155
 21
10.3719
  0
LINE
  8
0
 10
-7.85155
 20
10.3719
 11
-7.88577
 21
10.4391
  0
LINE
  8
0
 10
-7.88577
 20
10.4391
 11
-7.91571
 21
10.5083
  0
LINE
  8
0
 10
-7.91571
 20
10.5083
 11
-7.94125
 21
10.5792
  0
LINE
  8
0
 10
-7.94125
 20
10.5792
 11
-7.96228
 21
10.6516
  0
LINE
  8
0
 10
-7.96228
 20
10.6516
 11
-7.97873
 21
10.7252
  0
LINE
  8
0
 10
-7.97873
 20
10.7252
 11
-7.99052
 21
10.7996
  0
LINE
  8
0
 10
-7.99052
 20
10.7996
 11
-7.99762
 21
10.8747
  0
LINE
  8
0
 10
-7.99762
 20
10.8747
 11
-7.99998
 21
10.95
  0
LINE
  8
0
 10
-7.99998
 20
10.95
 11
-7.99998
 21
11.05
  0
LINE
  8
0
 10
-7.99998
 20
11.05
 11
-7.99762
 21
11.1253
  0
LINE
  8
0
 10
-7.99762
 20
11.1253
 11
-7.99052
 21
11.2004
  0
LINE
  8
0
 10
-7.99052
 20
11.2004
 11
-7.97873
 21
11.2748
  0
LINE
  8
0
 10
-7.97873
 20
11.2748
 11
-7.96228
 21
11.3484
  0
LINE
  8
0
 10
-7.96228
 20
11.3484
 11
-7.94125
 21
11.4208
  0
LINE
  8
0
 10
-7.94125
 20
11.4208
 11
-7.91571
 21
11.4917
  0
LINE
  8
0
 10
-7.91571
 20
11.4917
 11
-7.88577
 21
11.5609
  0
LINE
  8
0
 10
-7.88577
 20
11.5609
 11
-7.85155
 21
11.6281
  0
LINE
  8
0
 10
-7.85155
 20
11.6281
 11
-7.81317
 21
11.693
  0
LINE
  8
0
 10
-7.81317
 20
11.693
 11
-7.7708
 21
11.7553
  0
LINE
  8
0
 10
-7.7708
 20
11.7553
 11
-7.72459
 21
11.8149
  0
LINE
  8
0
 10
-7.72459
 20
11.8149
 11
-7.67474
 21
11.8714
  0
LINE
  8
0
 10
-7.67474
 20
11.8714
 11
-7.62143
 21
11.9247
  0
LINE
  8
0
 10
-7.62143
 20
11.9247
 11
-7.5649
 21
11.9746
  0
LINE
  8
0
 10
-7.5649
 20
11.9746
 11
-7.50533
 21
12.0208
  0
LINE
  8
0
 10
-7.50533
 20
12.0208
 11
-7.44298
 21
12.0632
  0
LINE
  8
0
 10
-7.44298
 20
12.0632
 11
-7.37808
 21
12.1015
  0
LINE
  8
0
 10
-7.37808
 20
12.1015
 11
-7.31091
 21
12.1358
  0
LINE
  8
0
 10
-7.31091
 20
12.1358
 11
-7.24173
 21
12.1657
  0
LINE
  8
0
 10
-7.24173
 20
12.1657
 11
-7.17081
 21
12.1913
  0
LINE
  8
0
 10
-7.17081
 20
12.1913
 11
-7.0984
 21
12.2123
  0
LINE
  8
0
 10
-7.0984
 20
12.2123
 11
-7.02484
 21
12.2287
  0
LINE
  8
0
 10
-7.02484
 20
12.2287
 11
-6.95038
 21
12.2405
  0
LINE
  8
0
 10
-6.95038
 20
12.2405
 11
-6.87534
 21
12.2476
  0
LINE
  8
0
 10
-6.87534
 20
12.2476
 11
-6.79999
 21
12.25
  0
LINE
  8
0
 10
-6.79999
 20
12.25
 11
6.79999
 21
12.25
  0
LINE
  8
0
 10
6.79999
 20
12.25
 11
6.87534
 21
12.2476
  0
LINE
  8
0
 10
6.87534
 20
12.2476
 11
6.95038
 21
12.2405
  0
LINE
  8
0
 10
6.95038
 20
12.2405
 11
7.02484
 21
12.2287
  0
LINE
  8
0
 10
7.02484
 20
12.2287
 11
7.0984
 21
12.2123
  0
LINE
  8
0
 10
7.0984
 20
12.2123
 11
7.17081
 21
12.1913
  0
LINE
  8
0
 10
7.17081
 20
12.1913
 11
7.24173
 21
12.1657
  0
LINE
  8
0
 10
7.24173
 20
12.1657
 11
7.31091
 21
12.1358
  0
LINE
  8
0
 10
7.31091
 20
12.1358
 11
7.37808
 21
12.1015
  0
LINE
  8
0
 10
7.37808
 20
12.1015
 11
7.44298
 21
12.0632
  0
LINE
  8
0
 10
7.44298
 20
12.0632
 11
7.50533
 21
12.0208
  0
LINE
  8
0
 10
7.50533
 20
12.0208
 11
7.5649
 21
11.9746
  0
LINE
  8
0
 10
7.5649
 20
11.9746
 11
7.62143
 21
11.9247
  0
LINE
  8
0
 10
7.62143
 20
11.9247
 11
7.67474
 21
11.8714
  0
LINE
  8
0
 10
7.67474
 20
11.8714
 11
7.72459
 21
11.8149
  0
LINE
  8
0
 10
7.72459
 20
11.8149
 11
7.7708
 21
11.7553
  0
LINE
  8
0
 10
7.7708
 20
11.7553
 11
7.81317
 21
11.693
  0
LINE
  8
0
 10
7.81317
 20
11.693
 11
7.85155
 21
11.6281
  0
LINE
  8
0
 10
7.85155
 20
11.6281
 11
7.88577
 21
11.5609
  0
LINE
  8
0
 10
7.88577
 20
11.5609
 11
7.91571
 21
11.4917
  0
LINE
  8
0
 10
7.91571
 20
11.4917
 11
7.94125
 21
11.4208
  0
LINE
  8
0
 10
7.94125
 20
11.4208
 11
7.96228
 21
11.3484
  0
LINE
  8
0
 10
7.96228
 20
11.3484
 11
7.97873
 21
11.2748
  0
LINE
  8
0
 10
7.97873
 20
11.2748
 11
7.99052
 21
11.2004
  0
LINE
  8
0
 10
7.99052
 20
11.2004
 11
7.99762
 21
11.1253
  0
LINE
  8
0
 10
7.99762
 20
11.1253
 11
7.99998
 21
11.05
  0
LINE
  8
0
 10
7.99998
 20
11.05
 11
7.99998
 21
10.95
  0
LINE
  8
0
 10
7.99998
 20
10.95
 11
7.99762
 21
10.8747
  0
LINE
  8
0
 10
7.99762
 20
10.8747
 11
7.99052
 21
10.7996
  0
LINE
  8
0
 10
7.99052
 20
10.7996
 11
7.97873
 21
10.7252
  0
LINE
  8
0
 10
7.97873
 20
10.7252
 11
7.96228
 21
10.6516
  0
LINE
  8
0
 10
7.96228
 20
10.6516
 11
7.94125
 21
10.5792
  0
LINE
  8
0
 10
7.94125
 20
10.5792
 11
7.91571
 21
10.5083
  0
LINE
  8
0
 10
7.91571
 20
10.5083
 11
7.88577
 21
10.4391
  0
LINE
  8
0
 10
7.88577
 20
10.4391
 11
7.85155
 21
10.3719
  0
LINE
  8
0
 10
7.85155
 20
10.3719
 11
7.81317
 21
10.307
  0
LINE
  8
0
 10
7.81317
 20
10.307
 11
7.7708
 21
10.2447
  0
LINE
  8
0
 10
7.7708
 20
10.2447
 11
7.72459
 21
10.1851
  0
LINE
  8
0
 10
7.72459
 20
10.1851
 11
7.67474
 21
10.1286
  0
LINE
  8
0
 10
7.67474
 20
10.1286
 11
7.62143
 21
10.0753
  0
LINE
  8
0
 10
7.62143
 20
10.0753
 11
7.5649
 21
10.0254
  0
LINE
  8
0
 10
7.5649
 20
10.0254
 11
7.50533
 21
9.9792
  0
LINE
  8
0
 10
7.50533
 20
9.9792
 11
7.44298
 21
9.93683
  0
LINE
  8
0
 10
7.44298
 20
9.93683
 11
7.37808
 21
9.89845
  0
LINE
  8
0
 10
7.37808
 20
9.89845
 11
7.31091
 21
9.86423
  0
LINE
  8
0
 10
7.31091
 20
9.86423
 11
7.24173
 21
9.83429
  0
LINE
  8
0
 10
7.24173
 20
9.83429
 11
7.17081
 21
9.80875
  0
LINE
  8
0
 10
7.17081
 20
9.80875
 11
7.0984
 21
9.78772
  0
LINE
  8
0
 10
7.0984
 20
9.78772
 11
7.02484
 21
9.77127
  0
LINE
  8
0
 10
7.02484
 20
9.77127
 11
6.95038
 21
9.75948
  0
LINE
  8
0
 10
6.95038
 20
9.75948
 11
6.87534
 21
9.75238
  0
LINE
  8
0
 10
6.87534
 20
9.75238
 11
6.79999
 21
9.75002
  0
LINE
  8
0
 10
6.79999
 20
9.75002
 11
-6.79999
 21
9.75002
  0
LINE
  8
0
 10
-23.55
 20
-9.99998
 11
-23.6253
 21
-9.99762
  0
LINE
  8
0
 10
-23.6253
 20
-9.99762
 11
-23.7004
 21
-9.99052
  0
LINE
  8
0
 10
-23.7004
 20
-9.99052
 11
-23.7748
 21
-9.97873
  0
LINE
  8
0
 10
-23.7748
 20
-9.97873
 11
-23.8484
 21
-9.96228
  0
LINE
  8
0
 10
-23.8484
 20
-9.96228
 11
-23.9208
 21
-9.94125
  0
LINE
  8
0
 10
-23.9208
 20
-9.94125
 11
-23.9917
 21
-9.91571
  0
LINE
  8
0
 10
-23.9917
 20
-9.91571
 11
-24.0609
 21
-9.88577
  0
LINE
  8
0
 10
-24.0609
 20
-9.88577
 11
-24.1281
 21
-9.85155
  0
LINE
  8
0
 10
-24.1281
 20
-9.85155
 11
-24.193
 21
-9.81317
  0
LINE
  8
0
 10
-24.193
 20
-9.81317
 11
-24.2553
 21
-9.7708
  0
LINE
  8
0
 10
-24.2553
 20
-9.7708
 11
-24.3149
 21
-9.72459
  0
LINE
  8
0
 10
-24.3149
 20
-9.72459
 11
-24.3714
 21
-9.67474
  0
LINE
  8
0
 10
-24.3714
 20
-9.67474
 11
-24.4247
 21
-9.62143
  0
LINE
  8
0
 10
-24.4247
 20
-9.62143
 11
-24.4746
 21
-9.5649
  0
LINE
  8
0
 10
-24.4746
 20
-9.5649
 11
-24.5208
 21
-9.50533
  0
LINE
  8
0
 10
-24.5208
 20
-9.50533
 11
-24.5632
 21
-9.44298
  0
LINE
  8
0
 10
-24.5632
 20
-9.44298
 11
-24.6015
 21
-9.37808
  0
LINE
  8
0
 10
-24.6015
 20
-9.37808
 11
-24.6358
 21
-9.31091
  0
LINE
  8
0
 10
-24.6358
 20
-9.31091
 11
-24.6657
 21
-9.24173
  0
LINE
  8
0
 10
-24.6657
 20
-9.24173
 11
-24.6913
 21
-9.17081
  0
LINE
  8
0
 10
-24.6913
 20
-9.17081
 11
-24.7123
 21
-9.0984
  0
LINE
  8
0
 10
-24.7123
 20
-9.0984
 11
-24.7287
 21
-9.02484
  0
LINE
  8
0
 10
-24.7287
 20
-9.02484
 11
-24.7405
 21
-8.95038
  0
LINE
  8
0
 10
-24.7405
 20
-8.95038
 11
-24.7476
 21
-8.87534
  0
LINE
  8
0
 10
-24.7476
 20
-8.87534
 11
-24.75
 21
-8.79999
  0
LINE
  8
0
 10
-24.75
 20
-8.79999
 11
-24.75
 21
8.79999
  0
LINE
  8
0
 10
-24.75
 20
8.79999
 11
-24.7476
 21
8.87534
  0
LINE
  8
0
 10
-24.7476
 20
8.87534
 11
-24.7405
 21
8.95038
  0
LINE
  8
0
 10
-24.7405
 20
8.95038
 11
-24.7287
 21
9.02484
  0
LINE
  8
0
 10
-24.7287
 20
9.02484
 11
-24.7123
 21
9.0984
  0
LINE
  8
0
 10
-24.7123
 20
9.0984
 11
-24.6913
 21
9.17081
  0
LINE
  8
0
 10
-24.6913
 20
9.17081
 11
-24.6657
 21
9.24173
  0
LINE
  8
0
 10
-24.6657
 20
9.24173
 11
-24.6358
 21
9.31091
  0
LINE
  8
0
 10
-24.6358
 20
9.31091
 11
-24.6015
 21
9.37808
  0
LINE
  8
0
 10
-24.6015
 20
9.37808
 11
-24.5632
 21
9.44298
  0
LINE
  8
0
 10
-24.5632
 20
9.44298
 11
-24.5208
 21
9.50533
  0
LINE
  8
0
 10
-24.5208
 20
9.50533
 11
-24.4746
 21
9.5649
  0
LINE
  8
0
 10
-24.4746
 20
9.5649
 11
-24.4247
 21
9.62143
  0
LINE
  8
0
 10
-24.4247
 20
9.62143
 11
-24.3714
 21
9.67474
  0
LINE
  8
0
 10
-24.3714
 20
9.67474
 11
-24.3149
 21
9.72459
  0
LINE
  8
0
 10
-24.3149
 20
9.72459
 11
-24.2553
 21
9.7708
  0
LINE
  8
0
 10
-24.2553
 20
9.7708
 11
-24.193
 21
9.81317
  0
LINE
  8
0
 10
-24.193
 20
9.81317
 11
-24.1281
 21
9.85155
  0
LINE
  8
0
 10
-24.1281
 20
9.85155
 11
-24.0609
 21
9.88577
  0
LINE
  8
0
 10
-24.0609
 20
9.88577
 11
-23.9917
 21
9.91571
  0
LINE
  8
0
 10
-23.9917
 20
9.91571
 11
-23.9208
 21
9.94125
  0
LINE
  8
0
 10
-23.9208
 20
9.94125
 11
-23.8484
 21
9.96228
  0
LINE
  8
0
 10
-23.8484
 20
9.96228
 11
-23.7748
 21
9.97873
  0
LINE
  8
0
 10
-23.7748
 20
9.97873
 11
-23.7004
 21
9.99052
  0
LINE
  8
0
 10
-23.7004
 20
9.99052
 11
-23.6253
 21
9.99762
  0
LINE
  8
0
 10
-23.6253
 20
9.99762
 11
-23.55
 21
9.99998
  0
LINE
  8
0
 10
-23.55
 20
9.99998
 11
-23.45
 21
9.99998
  0
LINE
  8
0
 10
-23.45
 20
9.99998
 11
-23.3747
 21
9.99762
  0
LINE
  8
0
 10
-23.3747
 20
9.99762
 11
-23.2996
 21
9.99052
  0
LINE
  8
0
 10
-23.2996
 20
9.99052
 11
-23.2252
 21
9.97873
  0
LINE
  8
0
 10
-23.2252
 20
9.97873
 11
-23.1516
 21
9.96228
  0
LINE
  8
0
 10
-23.1516
 20
9.96228
 11
-23.0792
 21
9.94125
  0
LINE
  8
0
 10
-23.0792
 20
9.94125
 11
-23.0083
 21
9.91571
  0
LINE
  8
0
 10
-23.0083
 20
9.91571
 11
-22.9391
 21
9.88577
  0
LINE
  8
0
 10
-22.9391
 20
9.88577
 11
-22.8719
 21
9.85155
  0
LINE
  8
0
 10
-22.8719
 20
9.85155
 11
-22.807
 21
9.81317
  0
LINE
  8
0
 10
-22.807
 20
9.81317
 11
-22.7447
 21
9.7708
  0
LINE
  8
0
 10
-22.7447
 20
9.7708
 11
-22.6851
 21
9.72459
  0
LINE
  8
0
 10
-22.6851
 20
9.72459
 11
-22.6286
 21
9.67474
  0
LINE
  8
0
 10
-22.6286
 20
9.67474
 11
-22.5753
 21
9.62143
  0
LINE
  8
0
 10
-22.5753
 20
9.62143
 11
-22.5254
 21
9.5649
  0
LINE
  8
0
 10
-22.5254
 20
9.5649
 11
-22.4792
 21
9.50533
  0
LINE
  8
0
 10
-22.4792
 20
9.50533
 11
-22.4368
 21
9.44298
  0
LINE
  8
0
 10
-22.4368
 20
9.44298
 11
-22.3985
 21
9.37808
  0
LINE
  8
0
 10
-22.3985
 20
9.37808
 11
-22.3642
 21
9.31091
  0
LINE
  8
0
 10
-22.3642
 20
9.31091
 11
-22.3343
 21
9.24173
  0
LINE
  8
0
 10
-22.3343
 20
9.24173
 11
-22.3087
 21
9.17081
  0
LINE
  8
0
 10
-22.3087
 20
9.17081
 11
-22.2877
 21
9.0984
  0
LINE
  8
0
 10
-22.2877
 20
9.0984
 11
-22.2713
 21
9.02484
  0
LINE
  8
0
 10
-22.2713
 20
9.02484
 11
-22.2595
 21
8.95038
  0
LINE
  8
0
 10
-22.2595
 20
8.95038
 11
-22.2524
 21
8.87534
  0
LINE
  8
0
 10
-22.2524
 20
8.87534
 11
-22.25
 21
8.79999
  0
LINE
  8
0
 10
-22.25
 20
8.79999
 11
-22.25
 21
-8.79999
  0
LINE
  8
0
 10
-22.25
 20
-8.79999
 11
-22.2524
 21
-8.87534
  0
LINE
  8
0
 10
-22.2524
 20
-8.87534
 11
-22.2595
 21
-8.95038
  0
LINE
  8
0
 10
-22.2595
 20
-8.95038
 11
-22.2713
 21
-9.02484
  0
LINE
  8
0
 10
-22.2713
 20
-9.02484
 11
-22.2877
 21
-9.0984
  0
LINE
  8
0
 10
-22.2877
 20
-9.0984
 11
-22.3087
 21
-9.17081
  0
LINE
  8
0
 10
-22.3087
 20
-9.17081
 11
-22.3343
 21
-9.24173
  0
LINE
  8
0
 10
-22.3343
 20
-9.24173
 11
-22.3642
 21
-9.31091
  0
LINE
  8
0
 10
-22.3642
 20
-9.31091
 11
-22.3985
 21
-9.37808
  0
LINE
  8
0
 10
-22.3985
 20
-9.37808
 11
-22.4368
 21
-9.44298
  0
LINE
  8
0
 10
-22.4368
 20
-9.44298
 11
-22.4792
 21
-9.50533
  0
LINE
  8
0
 10
-22.4792
 20
-9.50533
 11
-22.5254
 21
-9.5649
  0
LINE
  8
0
 10
-22.5254
 20
-9.5649
 11
-22.5753
 21
-9.62143
  0
LINE
  8
0
 10
-22.5753
 20
-9.62143
 11
-22.6286
 21
-9.67474
  0
LINE
  8
0
 10
-22.6286
 20
-9.67474
 11
-22.6851
 21
-9.72459
  0
LINE
  8
0
 10
-22.6851
 20
-9.72459
 11
-22.7447
 21
-9.7708
  0
LINE
  8
0
 10
-22.7447
 20
-9.7708
 11
-22.807
 21
-9.81317
  0
LINE
  8
0
 10
-22.807
 20
-9.81317
 11
-22.8719
 21
-9.85155
  0
LINE
  8
0
 10
-22.8719
 20
-9.85155
 11
-22.9391
 21
-9.88577
  0
LINE
  8
0
 10
-22.9391
 20
-9.88577
 11
-23.0083
 21
-9.91571
  0
LINE
  8
0
 10
-23.0083
 20
-9.91571
 11
-23.0792
 21
-9.94125
  0
LINE
  8
0
 10
-23.0792
 20
-9.94125
 11
-23.1516
 21
-9.96228
  0
LINE
  8
0
 10
-23.1516
 20
-9.96228
 11
-23.2252
 21
-9.97873
  0
LINE
  8
0
 10
-23.2252
 20
-9.97873
 11
-23.2996
 21
-9.99052
  0
LINE
  8
0
 10
-23.2996
 20
-9.99052
 11
-23.3747
 21
-9.99762
  0
LINE
  8
0
 10
-23.3747
 20
-9.99762
 11
-23.45
 21
-9.99998
  0
LINE
  8
0
 10
-23.45
 20
-9.99998
 11
-23.55
 21
-9.99998
  0
LINE
  8
0
 10
23.45
 20
-9.99998
 11
23.3747
 21
-9.99762
  0
LINE
  8
0
 10
23.3747
 20
-9.99762
 11
23.2996
 21
-9.99052
  0
LINE
  8
0
 10
23.2996
 20
-9.99052
 11
23.2252
 21
-9.97873
  0
LINE
  8
0
 10
23.2252
 20
-9.97873
 11
23.1516
 21
-9.96228
  0
LINE
  8
0
 10
23.1516
 20
-9.96228
 11
23.0792
 21
-9.94125
  0
LINE
  8
0
 10
23.0792
 20
-9.94125
 11
23.0083
 21
-9.91571
  0
LINE
  8
0
 10
23.0083
 20
-9.91571
 11
22.9391
 21
-9.88577
  0
LINE
  8
0
 10
22.9391
 20
-9.88577
 11
22.8719
 21
-9.85155
  0
LINE
  8
0
 10
22.8719
 20
-9.85155
 11
22.807
 21
-9.81317
  0
LINE
  8
0
 10
22.807
 20
-9.81317
 11
22.7447
 21
-9.7708
  0
LINE
  8
0
 10
22.7447
 20
-9.7708
 11
22.6851
 21
-9.72459
  0
LINE
  8
0
 10
22.6851
 20
-9.72459
 11
22.6286
 21
-9.67474
  0
LINE
  8
0
 10
22.6286
 20
-9.67474
 11
22.5753
 21
-9.62143
  0
LINE
  8
0
 10
22.5753
 20
-9.62143
 11
22.5254
 21
-9.5649
  0
LINE
  8
0
 10
22.5254
 20
-9.5649
 11
22.4792
 21
-9.50533
  0
LINE
  8
0
 10
22.4792
 20
-9.50533
 11
22.4368
 21
-9.44298
  0
LINE
  8
0
 10
22.4368
 20
-9.44298
 11
22.3985
 21
-9.37808
  0
LINE
  8
0
 10
22.3985
 20
-9.37808
 11
22.3642
 21
-9.31091
  0
LINE
  8
0
 10
22.3642
 20
-9.31091
 11
22.3343
 21
-9.24173
  0
LINE
  8
0
 10
22.3343
 20
-9.24173
 11
22.3087
 21
-9.17081
  0
LINE
  8
0
 10
22.3087
 20
-9.17081
 11
22.2877
 21
-9.0984
  0
LINE
  8
0
 10
22.2877
 20
-9.0984
 11
22.2713
 21
-9.02484
  0
LINE
  8
0
 10
22.2713
 20
-9.02484
 11
22.2595
 21
-8.95038
  0
LINE
  8
0
 10
22.2595
 20
-8.95038
 11
22.2524
 21
-8.87534
  0
LINE
  8
0
 10
22.2524
 20
-8.87534
 11
22.25
 21
-8.79999
  0
LINE
  8
0
 10
22.25
 20
-8.79999
 11
22.25
 21
8.79999
  0
LINE
  8
0
 10
22.25
 20
8.79999
 11
22.2524
 21
8.87534
  0
LINE
  8
0
 10
22.2524
 20
8.87534
 11
22.2595
 21
8.95038
  0
LINE
  8
0
 10
22.2595
 20
8.95038
 11
22.2713
 21
9.02484
  0
LINE
  8
0
 10
22.2713
 20
9.02484
 11
22.2877
 21
9.0984
  0
LINE
  8
0
 10
22.2877
 20
9.0984
 11
22.3087
 21
9.17081
  0
LINE
  8
0
 10
22.3087
 20
9.17081
 11
22.3343
 21
9.24173
  0
LINE
  8
0
 10
22.3343
 20
9.24173
 11
22.3642
 21
9.31091
  0
LINE
  8
0
 10
22.3642
 20
9.31091
 11
22.3985
 21
9.37808
  0
LINE
  8
0
 10
22.3985
 20
9.37808
 11
22.4368
 21
9.44298
  0
LINE
  8
0
 10
22.4368
 20
9.44298
 11
22.4792
 21
9.50533
  0
LINE
  8
0
 10
22.4792
 20
9.50533
 11
22.5254
 21
9.5649
  0
LINE
  8
0
 10
22.5254
 20
9.5649
 11
22.5753
 21
9.62143
  0
LINE
  8
0
 10
22.5753
 20
9.62143
 11
22.6286
 21
9.67474
  0
LINE
  8
0
 10
22.6286
 20
9.67474
 11
22.6851
 21
9.72459
  0
LINE
  8
0
 10
22.6851
 20
9.72459
 11
22.7447
 21
9.7708
  0
LINE
  8
0
 10
22.7447
 20
9.7708
 11
22.807
 21
9.81317
  0
LINE
  8
0
 10
22.807
 20
9.81317
 11
22.8719
 21
9.85155
  0
LINE
  8
0
 10
22.8719
 20
9.85155
 11
22.9391
 21
9.88577
  0
LINE
  8
0
 10
22.9391
 20
9.88577
 11
23.0083
 21
9.91571
  0
LINE
  8
0
 10
23.0083
 20
9.91571
 11
23.0792
 21
9.94125
  0
LINE
  8
0
 10
23.0792
 20
9.94125
 11
23.1516
 21
9.96228
  0
LINE
  8
0
 10
23.1516
 20
9.96228
 11
23.2252
 21
9.97873
  0
LINE
  8
0
 10
23.2252
 20
9.97873
 11
23.2996
 21
9.99052
  0
LINE
  8
0
 10
23.2996
 20
9.99052
 11
23.3747
 21
9.99762
  0
LINE
  8
0
 10
23.3747
 20
9.99762
 11
23.45
 21
9.99998
  0
LINE
  8
0
 10
23.45
 20
9.99998
 11
23.55
 21
9.99998
  0
LINE
  8
0
 10
23.55
 20
9.99998
 11
23.6253
 21
9.99762
  0
LINE
  8
0
 10
23.6253
 20
9.99762
 11
23.7004
 21
9.99052
  0
LINE
  8
0
 10
23.7004
 20
9.99052
 11
23.7748
 21
9.97873
  0
LINE
  8
0
 10
23.7748
 20
9.97873
 11
23.8484
 21
9.96228
  0
LINE
  8
0
 10
23.8484
 20
9.96228
 11
23.9208
 21
9.94125
  0
LINE
  8
0
 10
23.9208
 20
9.94125
 11
23.9917
 21
9.91571
  0
LINE
  8
0
 10
23.9917
 20
9.91571
 11
24.0609
 21
9.88577
  0
LINE
  8
0
 10
24.0609
 20
9.88577
 11
24.1281
 21
9.85155
  0
LINE
  8
0
 10
24.1281
 20
9.85155
 11
24.193
 21
9.81317
  0
LINE
  8
0
 10
24.193
 20
9.81317
 11
24.2553
 21
9.7708
  0
LINE
  8
0
 10
24.2553
 20
9.7708
 11
24.3149
 21
9.72459
  0
LINE
  8
0
 10
24.3149
 20
9.72459
 11
24.3714
 21
9.67474
  0
LINE
  8
0
 10
24.3714
 20
9.67474
 11
24.4247
 21
9.62143
  0
LINE
  8
0
 10
24.4247
 20
9.62143
 11
24.4746
 21
9.5649
  0
LINE
  8
0
 10
24.4746
 20
9.5649
 11
24.5208
 21
9.50533
  0
LINE
  8
0
 10
24.5208
 20
9.50533
 11
24.5632
 21
9.44298
  0
LINE
  8
0
 10
24.5632
 20
9.44298
 11
24.6015
 21
9.37808
  0
LINE
  8
0
 10
24.6015
 20
9.37808
 11
24.6358
 21
9.31091
  0
LINE
  8
0
 10
24.6358
 20
9.31091
 11
24.6657
 21
9.24173
  0
LINE
  8
0
 10
24.6657
 20
9.24173
 11
24.6913
 21
9.17081
  0
LINE
  8
0
 10
24.6913
 20
9.17081
 11
24.7123
 21
9.0984
  0
LINE
  8
0
 10
24.7123
 20
9.0984
 11
24.7287
 21
9.02484
  0
LINE
  8
0
 10
24.7287
 20
9.02484
 11
24.7405
 21
8.95038
  0
LINE
  8
0
 10
24.7405
 20
8.95038
 11
24.7476
 21
8.87534
  0
LINE
  8
0
 10
24.7476
 20
8.87534
 11
24.75
 21
8.79999
  0
LINE
  8
0
 10
24.75
 20
8.79999
 11
24.75
 21
-8.79999
  0
LINE
  8
0
 10
24.75
 20
-8.79999
 11
24.7476
 21
-8.87534
  0
LINE
  8
0
 10
24.7476
 20
-8.87534
 11
24.7405
 21
-8.95038
  0
LINE
  8
0
 10
24.7405
 20
-8.95038
 11
24.7287
 21
-9.02484
  0
LINE
  8
0
 10
24.7287
 20
-9.02484
 11
24.7123
 21
-9.0984
  0
LINE
  8
0
 10
24.7123
 20
-9.0984
 11
24.6913
 21
-9.17081
  0
LINE
  8
0
 10
24.6913
 20
-9.17081
 11
24.6657
 21
-9.24173
  0
LINE
  8
0
 10
24.6657
 20
-9.24173
 11
24.6358
 21
-9.31091
  0
LINE
  8
0
 10
24.6358
 20
-9.31091
 11
24.6015
 21
-9.37808
  0
LINE
  8
0
 10
24.6015
 20
-9.37808
 11
24.5632
 21
-9.44298
  0
LINE
  8
0
 10
24.5632
 20
-9.44298
 11
24.5208
 21
-9.50533
  0
LINE
  8
0
 10
24.5208
 20
-9.50533
 11
24.4746
 21
-9.5649
  0
LINE
  8
0
 10
24.4746
 20
-9.5649
 11
24.4247
 21
-9.62143
  0
LINE
  8
0
 10
24.4247
 20
-9.62143
 11
24.3714
 21
-9.67474
  0
LINE
  8
0
 10
24.3714
 20
-9.67474
 11
24.3149
 21
-9.72459
  0
LINE
  8
0
 10
24.3149
 20
-9.72459
 11
24.2553
 21
-9.7708
  0
LINE
  8
0
 10
24.2553
 20
-9.7708
 11
24.193
 21
-9.81317
  0
LINE
  8
0
 10
24.193
 20
-9.81317
 11
24.1281
 21
-9.85155
  0
LINE
  8
0
 10
24.1281
 20
-9.85155
 11
24.0609
 21
-9.88577
  0
LINE
  8
0
 10
24.0609
 20
-9.88577
 11
23.9917
 21
-9.91571
  0
LINE
  8
0
 10
23.9917
 20
-9.91571
 11
23.9208
 21
-9.94125
  0
LINE
  8
0
 10
23.9208
 20
-9.94125
 11
23.8484
 21
-9.96228
  0
LINE
  8
0
 10
23.8484
 20
-9.96228
 11
23.7748
 21
-9.97873
  0
LINE
  8
0
 10
23.7748
 20
-9.97873
 11
23.7004
 21
-9.99052
  0
LINE
  8
0
 10
23.7004
 20
-9.99052
 11
23.6253
 21
-9.99762
  0
LINE
  8
0
 10
23.6253
 20
-9.99762
 11
23.55
 21
-9.99998
  0
LINE
  8
0
 10
23.55
 20
-9.99998
 11
23.45
 21
-9.99998
  0
LINE
  8
0
 10
-12.55
 20
-9.99998
 11
-12.6253
 21
-9.99762
  0
LINE
  8
0
 10
-12.6253
 20
-9.99762
 11
-12.7004
 21
-9.99052
  0
LINE
  8
0
 10
-12.7004
 20
-9.99052
 11
-12.7748
 21
-9.97873
  0
LINE
  8
0
 10
-12.7748
 20
-9.97873
 11
-12.8484
 21
-9.96228
  0
LINE
  8
0
 10
-12.8484
 20
-9.96228
 11
-12.9208
 21
-9.94125
  0
LINE
  8
0
 10
-12.9208
 20
-9.94125
 11
-12.9917
 21
-9.91571
  0
LINE
  8
0
 10
-12.9917
 20
-9.91571
 11
-13.0609
 21
-9.88577
  0
LINE
  8
0
 10
-13.0609
 20
-9.88577
 11
-13.1281
 21
-9.85155
  0
LINE
  8
0
 10
-13.1281
 20
-9.85155
 11
-13.193
 21
-9.81317
  0
LINE
  8
0
 10
-13.193
 20
-9.81317
 11
-13.2553
 21
-9.7708
  0
LINE
  8
0
 10
-13.2553
 20
-9.7708
 11
-13.3149
 21
-9.72459
  0
LINE
  8
0
 10
-13.3149
 20
-9.72459
 11
-13.3714
 21
-9.67474
  0
LINE
  8
0
 10
-13.3714
 20
-9.67474
 11
-13.4247
 21
-9.62143
  0
LINE
  8
0
 10
-13.4247
 20
-9.62143
 11
-13.4746
 21
-9.5649
  0
LINE
  8
0
 10
-13.4746
 20
-9.5649
 11
-13.5208
 21
-9.50533
  0
LINE
  8
0
 10
-13.5208
 20
-9.50533
 11
-13.5632
 21
-9.44298
  0
LINE
  8
0
 10
-13.5632
 20
-9.44298
 11
-13.6015
 21
-9.37808
  0
LINE
  8
0
 10
-13.6015
 20
-9.37808
 11
-13.6358
 21
-9.31091
  0
LINE
  8
0
 10
-13.6358
 20
-9.31091
 11
-13.6657
 21
-9.24173
  0
LINE
  8
0
 10
-13.6657
 20
-9.24173
 11
-13.6913
 21
-9.17081
  0
LINE
  8
0
 10
-13.6913
 20
-9.17081
 11
-13.7123
 21
-9.0984
  0
LINE
  8
0
 10
-13.7123
 20
-9.0984
 11
-13.7287
 21
-9.02484
  0
LINE
  8
0
 10
-13.7287
 20
-9.02484
 11
-13.7405
 21
-8.95038
  0
LINE
  8
0
 10
-13.7405
 20
-8.95038
 11
-13.7476
 21
-8.87534
  0
LINE
  8
0
 10
-13.7476
 20
-8.87534
 11
-13.75
 21
-8.79999
  0
LINE
  8
0
 10
-13.75
 20
-8.79999
 11
-13.75
 21
8.79999
  0
LINE
  8
0
 10
-13.75
 20
8.79999
 11
-13.7476
 21
8.87534
  0
LINE
  8
0
 10
-13.7476
 20
8.87534
 11
-13.7405
 21
8.95038
  0
LINE
  8
0
 10
-13.7405
 20
8.95038
 11
-13.7287
 21
9.02484
  0
LINE
  8
0
 10
-13.7287
 20
9.02484
 11
-13.7123
 21
9.0984
  0
LINE
  8
0
 10
-13.7123
 20
9.0984
 11
-13.6913
 21
9.17081
  0
LINE
  8
0
 10
-13.6913
 20
9.17081
 11
-13.6657
 21
9.24173
  0
LINE
  8
0
 10
-13.6657
 20
9.24173
 11
-13.6358
 21
9.31091
  0
LINE
  8
0
 10
-13.6358
 20
9.31091
 11
-13.6015
 21
9.37808
  0
LINE
  8
0
 10
-13.6015
 20
9.37808
 11
-13.5632
 21
9.44298
  0
LINE
  8
0
 10
-13.5632
 20
9.44298
 11
-13.5208
 21
9.50533
  0
LINE
  8
0
 10
-13.5208
 20
9.50533
 11
-13.4746
 21
9.5649
  0
LINE
  8
0
 10
-13.4746
 20
9.5649
 11
-13.4247
 21
9.62143
  0
LINE
  8
0
 10
-13.4247
 20
9.62143
 11
-13.3714
 21
9.67474
  0
LINE
  8
0
 10
-13.3714
 20
9.67474
 11
-13.3149
 21
9.72459
  0
LINE
  8
0
 10
-13.3149
 20
9.72459
 11
-13.2553
 21
9.7708
  0
LINE
  8
0
 10
-13.2553
 20
9.7708
 11
-13.193
 21
9.81317
  0
LINE
  8
0
 10
-13.193
 20
9.81317
 11
-13.1281
 21
9.85155
  0
LINE
  8
0
 10
-13.1281
 20
9.85155
 11
-13.0609
 21
9.88577
  0
LINE
  8
0
 10
-13.0609
 20
9.88577
 11
-12.9917
 21
9.91571
  0
LINE
  8
0
 10
-12.9917
 20
9.91571
 11
-12.9208
 21
9.94125
  0
LINE
  8
0
 10
-12.9208
 20
9.94125
 11
-12.8484
 21
9.96228
  0
LINE
  8
0
 10
-12.8484
 20
9.96228
 11
-12.7748
 21
9.97873
  0
LINE
  8
0
 10
-12.7748
 20
9.97873
 11
-12.7004
 21
9.99052
  0
LINE
  8
0
 10
-12.7004
 20
9.99052
 11
-12.6253
 21
9.99762
  0
LINE
  8
0
 10
-12.6253
 20
9.99762
 11
-12.55
 21
9.99998
  0
LINE
  8
0
 10
-12.55
 20
9.99998
 11
-12.45
 21
9.99998
  0
LINE
  8
0
 10
-12.45
 20
9.99998
 11
-12.3747
 21
9.99762
  0
LINE
  8
0
 10
-12.3747
 20
9.99762
 11
-12.2996
 21
9.99052
  0
LINE
  8
0
 10
-12.2996
 20
9.99052
 11
-12.2252
 21
9.97873
  0
LINE
  8
0
 10
-12.2252
 20
9.97873
 11
-12.1516
 21
9.96228
  0
LINE
  8
0
 10
-12.1516
 20
9.96228
 11
-12.0792
 21
9.94125
  0
LINE
  8
0
 10
-12.0792
 20
9.94125
 11
-12.0083
 21
9.91571
  0
LINE
  8
0
 10
-12.0083
 20
9.91571
 11
-11.9391
 21
9.88577
  0
LINE
  8
0
 10
-11.9391
 20
9.88577
 11
-11.8719
 21
9.85155
  0
LINE
  8
0
 10
-11.8719
 20
9.85155
 11
-11.807
 21
9.81317
  0
LINE
  8
0
 10
-11.807
 20
9.81317
 11
-11.7447
 21
9.7708
  0
LINE
  8
0
 10
-11.7447
 20
9.7708
 11
-11.6851
 21
9.72459
  0
LINE
  8
0
 10
-11.6851
 20
9.72459
 11
-11.6286
 21
9.67474
  0
LINE
  8
0
 10
-11.6286
 20
9.67474
 11
-11.5753
 21
9.62143
  0
LINE
  8
0
 10
-11.5753
 20
9.62143
 11
-11.5254
 21
9.5649
  0
LINE
  8
0
 10
-11.5254
 20
9.5649
 11
-11.4792
 21
9.50533
  0
LINE
  8
0
 10
-11.4792
 20
9.50533
 11
-11.4368
 21
9.44298
  0
LINE
  8
0
 10
-11.4368
 20
9.44298
 11
-11.3985
 21
9.37808
  0
LINE
  8
0
 10
-11.3985
 20
9.37808
 11
-11.3642
 21
9.31091
  0
LINE
  8
0
 10
-11.3642
 20
9.31091
 11
-11.3343
 21
9.24173
  0
LINE
  8
0
 10
-11.3343
 20
9.24173
 11
-11.3087
 21
9.17081
  0
LINE
  8
0
 10
-11.3087
 20
9.17081
 11
-11.2877
 21
9.0984
  0
LINE
  8
0
 10
-11.2877
 20
9.0984
 11
-11.2713
 21
9.02484
  0
LINE
  8
0
 10
-11.2713
 20
9.02484
 11
-11.2595
 21
8.95038
  0
LINE
  8
0
 10
-11.2595
 20
8.95038
 11
-11.2524
 21
8.87534
  0
LINE
  8
0
 10
-11.2524
 20
8.87534
 11
-11.25
 21
8.79999
  0
LINE
  8
0
 10
-11.25
 20
8.79999
 11
-11.25
 21
1.24998
  0
LINE
  8
0
 10
-11.25
 20
1.24998
 11
11.25
 21
1.24998
  0
LINE
  8
0
 10
11.25
 20
1.24998
 11
11.25
 21
8.79999
  0
LINE
  8
0
 10
11.25
 20
8.79999
 11
11.2524
 21
8.87534
  0
LINE
  8
0
 10
11.2524
 20
8.87534
 11
11.2595
 21
8.95038
  0
LINE
  8
0
 10
11.2595
 20
8.95038
 11
11.2713
 21
9.02484
  0
LINE
  8
0
 10
11.2713
 20
9.02484
 11
11.2877
 21
9.0984
  0
LINE
  8
0
 10
11.2877
 20
9.0984
 11
11.3087
 21
9.17081
  0
LINE
  8
0
 10
11.3087
 20
9.17081
 11
11.3343
 21
9.24173
  0
LINE
  8
0
 10
11.3343
 20
9.24173
 11
11.3642
 21
9.31091
  0
LINE
  8
0
 10
11.3642
 20
9.31091
 11
11.3985
 21
9.37808
  0
LINE
  8
0
 10
11.3985
 20
9.37808
 11
11.4368
 21
9.44298
  0
LINE
  8
0
 10
11.4368
 20
9.44298
 11
11.4792
 21
9.50533
  0
LINE
  8
0
 10
11.4792
 20
9.50533
 11
11.5254
 21
9.5649
  0
LINE
  8
0
 10
11.5254
 20
9.5649
 11
11.5753
 21
9.62143
  0
LINE
  8
0
 10
11.5753
 20
9.62143
 11
11.6286
 21
9.67474
  0
LINE
  8
0
 10
11.6286
 20
9.67474
 11
11.6851
 21
9.72459
  0
LINE
  8
0
 10
11.6851
 20
9.72459
 11
11.7447
 21
9.7708
  0
LINE
  8
0
 10
11.7447
 20
9.7708
 11
11.807
 21
9.81317
  0
LINE
  8
0
 10
11.807
 20
9.81317
 11
11.8719
 21
9.85155
  0
LINE
  8
0
 10
11.8719
 20
9.85155
 11
11.9391
 21
9.88577
  0
LINE
  8
0
 10
11.9391
 20
9.88577
 11
12.0083
 21
9.91571
  0
LINE
  8
0
 10
12.0083
 20
9.91571
 11
12.0792
 21
9.94125
  0
LINE
  8
0
 10
12.0792
 20
9.94125
 11
12.1516
 21
9.96228
  0
LINE
  8
0
 10
12.1516
 20
9.96228
 11
12.2252
 21
9.97873
  0
LINE
  8
0
 10
12.2252
 20
9.97873
 11
12.2996
 21
9.99052
  0
LINE
  8
0
 10
12.2996
 20
9.99052
 11
12.3747
 21
9.99762
  0
LINE
  8
0
 10
12.3747
 20
9.99762
 11
12.45
 21
9.99998
  0
LINE
  8
0
 10
12.45
 20
9.99998
 11
12.55
 21
9.99998
  0
LINE
  8
0
 10
12.55
 20
9.99998
 11
12.6253
 21
9.99762
  0
LINE
  8
0
 10
12.6253
 20
9.99762
 11
12.7004
 21
9.99052
  0
LINE
  8
0
 10
12.7004
 20
9.99052
 11
12.7748
 21
9.97873
  0
LINE
  8
0
 10
12.7748
 20
9.97873
 11
12.8484
 21
9.96228
  0
LINE
  8
0
 10
12.8484
 20
9.96228
 11
12.9208
 21
9.94125
  0
LINE
  8
0
 10
12.9208
 20
9.94125
 11
12.9917
 21
9.91571
  0
LINE
  8
0
 10
12.9917
 20
9.91571
 11
13.0609
 21
9.88577
  0
LINE
  8
0
 10
13.0609
 20
9.88577
 11
13.1281
 21
9.85155
  0
LINE
  8
0
 10
13.1281
 20
9.85155
 11
13.193
 21
9.81317
  0
LINE
  8
0
 10
13.193
 20
9.81317
 11
13.2553
 21
9.7708
  0
LINE
  8
0
 10
13.2553
 20
9.7708
 11
13.3149
 21
9.72459
  0
LINE
  8
0
 10
13.3149
 20
9.72459
 11
13.3714
 21
9.67474
  0
LINE
  8
0
 10
13.3714
 20
9.67474
 11
13.4247
 21
9.62143
  0
LINE
  8
0
 10
13.4247
 20
9.62143
 11
13.4746
 21
9.5649
  0
LINE
  8
0
 10
13.4746
 20
9.5649
 11
13.5208
 21
9.50533
  0
LINE
  8
0
 10
13.5208
 20
9.50533
 11
13.5632
 21
9.44298
  0
LINE
  8
0
 10
13.5632
 20
9.44298
 11
13.6015
 21
9.37808
  0
LINE
  8
0
 10
13.6015
 20
9.37808
 11
13.6358
 21
9.31091
  0
LINE
  8
0
 10
13.6358
 20
9.31091
 11
13.6657
 21
9.24173
  0
LINE
  8
0
 10
13.6657
 20
9.24173
 11
13.6913
 21
9.17081
  0
LINE
  8
0
 10
13.6913
 20
9.17081
 11
13.7123
 21
9.0984
  0
LINE
  8
0
 10
13.7123
 20
9.0984
 11
13.7287
 21
9.02484
  0
LINE
  8
0
 10
13.7287
 20
9.02484
 11
13.7405
 21
8.95038
  0
LINE
  8
0
 10
13.7405
 20
8.95038
 11
13.7476
 21
8.87534
  0
LINE
  8
0
 10
13.7476
 20
8.87534
 11
13.75
 21
8.79999
  0
LINE
  8
0
 10
13.75
 20
8.79999
 11
13.75
 21
-8.79999
  0
LINE
  8
0
 10
13.75
 20
-8.79999
 11
13.7476
 21
-8.87534
  0
LINE
  8
0
 10
13.7476
 20
-8.87534
 11
13.7405
 21
-8.95038
  0
LINE
  8
0
 10
13.7405
 20
-8.95038
 11
13.7287
 21
-9.02484
  0
LINE
  8
0
 10
13.7287
 20
-9.02484
 11
13.7123
 21
-9.0984
  0
LINE
  8
0
 10
13.7123
 20
-9.0984
 11
13.6913
 21
-9.17081
  0
LINE
  8
0
 10
13.6913
 20
-9.17081
 11
13.6657
 21
-9.24173
  0
LINE
  8
0
 10
13.6657
 20
-9.24173
 11
13.6358
 21
-9.31091
  0
LINE
  8
0
 10
13.6358
 20
-9.31091
 11
13.6015
 21
-9.37808
  0
LINE
  8
0
 10
13.6015
 20
-9.37808
 11
13.5632
 21
-9.44298
  0
LINE
  8
0
 10
13.5632
 20
-9.44298
 11
13.5208
 21
-9.50533
  0
LINE
  8
0
 10
13.5208
 20
-9.50533
 11
13.4746
 21
-9.5649
  0
LINE
  8
0
 10
13.4746
 20
-9.5649
 11
13.4247
 21
-9.62143
  0
LINE
  8
0
 10
13.4247
 20
-9.62143
 11
13.3714
 21
-9.67474
  0
LINE
  8
0
 10
13.3714
 20
-9.67474
 11
13.3149
 21
-9.72459
  0
LINE
  8
0
 10
13.3149
 20
-9.72459
 11
13.2553
 21
-9.7708
  0
LINE
  8
0
 10
13.2553
 20
-9.7708
 11
13.193
 21
-9.81317
  0
LINE
  8
0
 10
13.193
 20
-9.81317
 11
13.1281
 21
-9.85155
  0
LINE
  8
0
 10
13.1281
 20
-9.85155
 11
13.0609
 21
-9.88577
  0
LINE
  8
0
 10
13.0609
 20
-9.88577
 11
12.9917
 21
-9.91571
  0
LINE
  8
0
 10
12.9917
 20
-9.91571
 11
12.9208
 21
-9.94125
  0
LINE
  8
0
 10
12.9208
 20
-9.94125
 11
12.8484
 21
-9.96228
  0
LINE
  8
0
 10
12.8484
 20
-9.96228
 11
12.7748
 21
-9.97873
  0
LINE
  8
0
 10
12.7748
 20
-9.97873
 11
12.7004
 21
-9.99052
  0
LINE
  8
0
 10
12.7004
 20
-9.99052
 11
12.6253
 21
-9.99762
  0
LINE
  8
0
 10
12.6253
 20
-9.99762
 11
12.55
 21
-9.99998
  0
LINE
  8
0
 10
12.55
 20
-9.99998
 11
12.45
 21
-9.99998
  0
LINE
  8
0
 10
12.45
 20
-9.99998
 11
12.3747
 21
-9.99762
  0
LINE
  8
0
 10
12.3747
 20
-9.99762
 11
12.2996
 21
-9.99052
  0
LINE
  8
0
 10
12.2996
 20
-9.99052
 11
12.2252
 21
-9.97873
  0
LINE
  8
0
 10
12.2252
 20
-9.97873
 11
12.1516
 21
-9.96228
  0
LINE
  8
0
 10
12.1516
 20
-9.96228
 11
12.0792
 21
-9.94125
  0
LINE
  8
0
 10
12.0792
 20
-9.94125
 11
12.0083
 21
-9.91571
  0
LINE
  8
0
 10
12.0083
 20
-9.91571
 11
11.9391
 21
-9.88577
  0
LINE
  8
0
 10
11.9391
 20
-9.88577
 11
11.8719
 21
-9.85155
  0
LINE
  8
0
 10
11.8719
 20
-9.85155
 11
11.807
 21
-9.81317
  0
LINE
  8
0
 10
11.807
 20
-9.81317
 11
11.7447
 21
-9.7708
  0
LINE
  8
0
 10
11.7447
 20
-9.7708
 11
11.6851
 21
-9.72459
  0
LINE
  8
0
 10
11.6851
 20
-9.72459
 11
11.6286
 21
-9.67474
  0
LINE
  8
0
 10
11.6286
 20
-9.67474
 11
11.5753
 21
-9.62143
  0
LINE
  8
0
 10
11.5753
 20
-9.62143
 11
11.5254
 21
-9.5649
  0
LINE
  8
0
 10
11.5254
 20
-9.5649
 11
11.4792
 21
-9.50533
  0
LINE
  8
0
 10
11.4792
 20
-9.50533
 11
11.4368
 21
-9.44298
  0
LINE
  8
0
 10
11.4368
 20
-9.44298
 11
11.3985
 21
-9.37808
  0
LINE
  8
0
 10
11.3985
 20
-9.37808
 11
11.3642
 21
-9.31091
  0
LINE
  8
0
 10
11.3642
 20
-9.31091
 11
11.3343
 21
-9.24173
  0
LINE
  8
0
 10
11.3343
 20
-9.24173
 11
11.3087
 21
-9.17081
  0
LINE
  8
0
 10
11.3087
 20
-9.17081
 11
11.2877
 21
-9.0984
  0
LINE
  8
0
 10
11.2877
 20
-9.0984
 11
11.2713
 21
-9.02484
  0
LINE
  8
0
 10
11.2713
 20
-9.02484
 11
11.2595
 21
-8.95038
  0
LINE
  8
0
 10
11.2595
 20
-8.95038
 11
11.2524
 21
-8.87534
  0
LINE
  8
0
 10
11.2524
 20
-8.87534
 11
11.25
 21
-8.79999
  0
LINE
  8
0
 10
11.25
 20
-8.79999
 11
11.25
 21
-1.24998
  0
LINE
  8
0
 10
11.25
 20
-1.24998
 11
-11.25
 21
-1.24998
  0
LINE
  8
0
 10
-11.25
 20
-1.24998
 11
-11.25
 21
-8.79999
  0
LINE
  8
0
 10
-11.25
 20
-8.79999
 11
-11.2524
 21
-8.87534
  0
LINE
  8
0
 10
-11.2524
 20
-8.87534
 11
-11.2595
 21
-8.95038
  0
LINE
  8
0
 10
-11.2595
 20
-8.95038
 11
-11.2713
 21
-9.02484
  0
LINE
  8
0
 10
-11.2713
 20
-9.02484
 11
-11.2877
 21
-9.0984
  0
LINE
  8
0
 10
-11.2877
 20
-9.0984
 11
-11.3087
 21
-9.17081
  0
LINE
  8
0
 10
-11.3087
 20
-9.17081
 11
-11.3343
 21
-9.24173
  0
LINE
  8
0
 10
-11.3343
 20
-9.24173
 11
-11.3642
 21
-9.31091
  0
LINE
  8
0
 10
-11.3642
 20
-9.31091
 11
-11.3985
 21
-9.37808
  0
LINE
  8
0
 10
-11.3985
 20
-9.37808
 11
-11.4368
 21
-9.44298
  0
LINE
  8
0
 10
-11.4368
 20
-9.44298
 11
-11.4792
 21
-9.50533
  0
LINE
  8
0
 10
-11.4792
 20
-9.50533
 11
-11.5254
 21
-9.5649
  0
LINE
  8
0
 10
-11.5254
 20
-9.5649
 11
-11.5753
 21
-9.62143
  0
LINE
  8
0
 10
-11.5753
 20
-9.62143
 11
-11.6286
 21
-9.67474
  0
LINE
  8
0
 10
-11.6286
 20
-9.67474
 11
-11.6851
 21
-9.72459
  0
LINE
  8
0
 10
-11.6851
 20
-9.72459
 11
-11.7447
 21
-9.7708
  0
LINE
  8
0
 10
-11.7447
 20
-9.7708
 11
-11.807
 21
-9.81317
  0
LINE
  8
0
 10
-11.807
 20
-9.81317
 11
-11.8719
 21
-9.85155
  0
LINE
  8
0
 10
-11.8719
 20
-9.85155
 11
-11.9391
 21
-9.88577
  0
LINE
  8
0
 10
-11.9391
 20
-9.88577
 11
-12.0083
 21
-9.91571
  0
LINE
  8
0
 10
-12.0083
 20
-9.91571
 11
-12.0792
 21
-9.94125
  0
LINE
  8
0
 10
-12.0792
 20
-9.94125
 11
-12.1516
 21
-9.96228
  0
LINE
  8
0
 10
-12.1516
 20
-9.96228
 11
-12.2252
 21
-9.97873
  0
LINE
  8
0
 10
-12.2252
 20
-9.97873
 11
-12.2996
 21
-9.99052
  0
LINE
  8
0
 10
-12.2996
 20
-9.99052
 11
-12.3747
 21
-9.99762
  0
LINE
  8
0
 10
-12.3747
 20
-9.99762
 11
-12.45
 21
-9.99998
  0
LINE
  8
0
 10
-12.45
 20
-9.99998
 11
-12.55
 21
-9.99998
  0
LINE
  8
0
 10
-6.79999
 20
-12.25
 11
-6.87534
 21
-12.2476
  0
LINE
  8
0
 10
-6.87534
 20
-12.2476
 11
-6.95038
 21
-12.2405
  0
LINE
  8
0
 10
-6.95038
 20
-12.2405
 11
-7.02484
 21
-12.2287
  0
LINE
  8
0
 10
-7.02484
 20
-12.2287
 11
-7.0984
 21
-12.2123
  0
LINE
  8
0
 10
-7.0984
 20
-12.2123
 11
-7.17081
 21
-12.1913
  0
LINE
  8
0
 10
-7.17081
 20
-12.1913
 11
-7.24173
 21
-12.1657
  0
LINE
  8
0
 10
-7.24173
 20
-12.1657
 11
-7.31091
 21
-12.1358
  0
LINE
  8
0
 10
-7.31091
 20
-12.1358
 11
-7.37808
 21
-12.1015
  0
LINE
  8
0
 10
-7.37808
 20
-12.1015
 11
-7.44298
 21
-12.0632
  0
LINE
  8
0
 10
-7.44298
 20
-12.0632
 11
-7.50533
 21
-12.0208
  0
LINE
  8
0
 10
-7.50533
 20
-12.0208
 11
-7.5649
 21
-11.9746
  0
LINE
  8
0
 10
-7.5649
 20
-11.9746
 11
-7.62143
 21
-11.9247
  0
LINE
  8
0
 10
-7.62143
 20
-11.9247
 11
-7.67474
 21
-11.8714
  0
LINE
  8
0
 10
-7.67474
 20
-11.8714
 11
-7.72459
 21
-11.8149
  0
LINE
  8
0
 10
-7.72459
 20
-11.8149
 11
-7.7708
 21
-11.7553
  0
LINE
  8
0
 10
-7.7708
 20
-11.7553
 11
-7.81317
 21
-11.693
  0
LINE
  8
0
 10
-7.81317
 20
-11.693
 11
-7.85155
 21
-11.6281
  0
LINE
  8
0
 10
-7.85155
 20
-11.6281
 11
-7.88577
 21
-11.5609
  0
LINE
  8
0
 10
-7.88577
 20
-11.5609
 11
-7.91571
 21
-11.4917
  0
LINE
  8
0
 10
-7.91571
 20
-11.4917
 11
-7.94125
 21
-11.4208
  0
LINE
  8
0
 10
-7.94125
 20
-11.4208
 11
-7.96228
 21
-11.3484
  0
LINE
  8
0
 10
-7.96228
 20
-11.3484
 11
-7.97873
 21
-11.2748
  0
LINE
  8
0
 10
-7.97873
 20
-11.2748
 11
-7.99052
 21
-11.2004
  0
LINE
  8
0
 10
-7.99052
 20
-11.2004
 11
-7.99762
 21
-11.1253
  0
LINE
  8
0
 10
-7.99762
 20
-11.1253
 11
-7.99998
 21
-11.05
  0
LINE
  8
0
 10
-7.99998
 20
-11.05
 11
-7.99998
 21
-10.95
  0
LINE
  8
0
 10
-7.99998
 20
-10.95
 11
-7.99762
 21
-10.8747
  0
LINE
  8
0
 10
-7.99762
 20
-10.8747
 11
-7.99052
 21
-10.7996
  0
LINE
  8
0
 10
-7.99052
 20
-10.7996
 11
-7.97873
 21
-10.7252
  0
LINE
  8
0
 10
-7.97873
 20
-10.7252
 11
-7.96228
 21
-10.6516
  0
LINE
  8
0
 10
-7.96228
 20
-10.6516
 11
-7.94125
 21
-10.5792
  0
LINE
  8
0
 10
-7.94125
 20
-10.5792
 11
-7.91571
 21
-10.5083
  0
LINE
  8
0
 10
-7.91571
 20
-10.5083
 11
-7.88577
 21
-10.4391
  0
LINE
  8
0
 10
-7.88577
 20
-10.4391
 11
-7.85155
 21
-10.3719
  0
LINE
  8
0
 10
-7.85155
 20
-10.3719
 11
-7.81317
 21
-10.307
  0
LINE
  8
0
 10
-7.81317
 20
-10.307
 11
-7.7708
 21
-10.2447
  0
LINE
  8
0
 10
-7.7708
 20
-10.2447
 11
-7.72459
 21
-10.1851
  0
LINE
  8
0
 10
-7.72459
 20
-10.1851
 11
-7.67474
 21
-10.1286
  0
LINE
  8
0
 10
-7.67474
 20
-10.1286
 11
-7.62143
 21
-10.0753
  0
LINE
  8
0
 10
-7.62143
 20
-10.0753
 11
-7.5649
 21
-10.0254
  0
LINE
  8
0
 10
-7.5649
 20
-10.0254
 11
-7.50533
 21
-9.9792
  0
LINE
  8
0
 10
-7.50533
 20
-9.9792
 11
-7.44298
 21
-9.93683
  0
LINE
  8
0
 10
-7.44298
 20
-9.93683
 11
-7.37808
 21
-9.89845
  0
LINE
  8
0
 10
-7.37808
 20
-9.89845
 11
-7.31091
 21
-9.86423
  0
LINE
  8
0
 10
-7.31091
 20
-9.86423
 11
-7.24173
 21
-9.83429
  0
LINE
  8
0
 10
-7.24173
 20
-9.83429
 11
-7.17081
 21
-9.80875
  0
LINE
  8
0
 10
-7.17081
 20
-9.80875
 11
-7.0984
 21
-9.78772
  0
LINE
  8
0
 10
-7.0984
 20
-9.78772
 11
-7.02484
 21
-9.77127
  0
LINE
  8
0
 10
-7.02484
 20
-9.77127
 11
-6.95038
 21
-9.75948
  0
LINE
  8
0
 10
-6.95038
 20
-9.75948
 11
-6.87534
 21
-9.75238
  0
LINE
  8
0
 10
-6.87534
 20
-9.75238
 11
-6.79999
 21
-9.75002
  0
LINE
  8
0
 10
-6.79999
 20
-9.75002
 11
6.79999
 21
-9.75002
  0
LINE
  8
0
 10
6.79999
 20
-9.75002
 11
6.87534
 21
-9.75238
  0
LINE
  8
0
 10
6.87534
 20
-9.75238
 11
6.95038
 21
-9.75948
  0
LINE
  8
0
 10
6.95038
 20
-9.75948
 11
7.02484
 21
-9.77127
  0
LINE
  8
0
 10
7.02484
 20
-9.77127
 11
7.0984
 21
-9.78772
  0
LINE
  8
0
 10
7.0984
 20
-9.78772
 11
7.17081
 21
-9.80875
  0
LINE
  8
0
 10
7.17081
 20
-9.80875
 11
7.24173
 21
-9.83429
  0
LINE
  8
0
 10
7.24173
 20
-9.83429
 11
7.31091
 21
-9.86423
  0
LINE
  8
0
 10
7.31091
 20
-9.86423
 11
7.37808
 21
-9.89845
  0
LINE
  8
0
 10
7.37808
 20
-9.89845
 11
7.44298
 21
-9.93683
  0
LINE
  8
0
 10
7.44298
 20
-9.93683
 11
7.50533
 21
-9.9792
  0
LINE
  8
0
 10
7.50533
 20
-9.9792
 11
7.5649
 21
-10.0254
  0
LINE
  8
0
 10
7.5649
 20
-10.0254
 11
7.62143
 21
-10.0753
  0
LINE
  8
0
 10
7.62143
 20
-10.0753
 11
7.67474
 21
-10.1286
  0
LINE
  8
0
 10
7.67474
 20
-10.1286
 11
7.72459
 21
-10.1851
  0
LINE
  8
0
 10
7.72459
 20
-10.1851
 11
7.7708
 21
-10.2447
  0
LINE
  8
0
 10
7.7708
 20
-10.2447
 11
7.81317
 21
-10.307
  0
LINE
  8
0
 10
7.81317
 20
-10.307
 11
7.85155
 21
-10.3719
  0
LINE
  8
0
 10
7.85155
 20
-10.3719
 11
7.88577
 21
-10.4391
  0
LINE
  8
0
 10
7.88577
 20
-10.4391
 11
7.91571
 21
-10.5083
  0
LINE
  8
0
 10
7.91571
 20
-10.5083
 11
7.94125
 21
-10.5792
  0
LINE
  8
0
 10
7.94125
 20
-10.5792
 11
7.96228
 21
-10.6516
  0
LINE
  8
0
 10
7.96228
 20
-10.6516
 11
7.97873
 21
-10.7252
  0
LINE
  8
0
 10
7.97873
 20
-10.7252
 11
7.99052
 21
-10.7996
  0
LINE
  8
0
 10
7.99052
 20
-10.7996
 11
7.99762
 21
-10.8747
  0
LINE
  8
0
 10
7.99762
 20
-10.8747
 11
7.99998
 21
-10.95
  0
LINE
  8
0
 10
7.99998
 20
-10.95
 11
7.99998
 21
-11.05
  0
LINE
  8
0
 10
7.99998
 20
-11.05
 11
7.99762
 21
-11.1253
  0
LINE
  8
0
 10
7.99762
 20
-11.1253
 11
7.99052
 21
-11.2004
  0
LINE
  8
0
 10
7.99052
 20
-11.2004
 11
7.97873
 21
-11.2748
  0
LINE
  8
0
 10
7.97873
 20
-11.2748
 11
7.96228
 21
-11.3484
  0
LINE
  8
0
 10
7.96228
 20
-11.3484
 11
7.94125
 21
-11.4208
  0
LINE
  8
0
 10
7.94125
 20
-11.4208
 11
7.91571
 21
-11.4917
  0
LINE
  8
0
 10
7.91571
 20
-11.4917
 11
7.88577
 21
-11.5609
  0
LINE
  8
0
 10
7.88577
 20
-11.5609
 11
7.85155
 21
-11.6281
  0
LINE
  8
0
 10
7.85155
 20
-11.6281
 11
7.81317
 21
-11.693
  0
LINE
  8
0
 10
7.81317
 20
-11.693
 11
7.7708
 21
-11.7553
  0
LINE
  8
0
 10
7.7708
 20
-11.7553
 11
7.72459
 21
-11.8149
  0
LINE
  8
0
 10
7.72459
 20
-11.8149
 11
7.67474
 21
-11.8714
  0
LINE
  8
0
 10
7.67474
 20
-11.8714
 11
7.62143
 21
-11.9247
  0
LINE
  8
0
 10
7.62143
 20
-11.9247
 11
7.5649
 21
-11.9746
  0
LINE
  8
0
 10
7.5649
 20
-11.9746
 11
7.50533
 21
-12.0208
  0
LINE
  8
0
 10
7.50533
 20
-12.0208
 11
7.44298
 21
-12.0632
  0
LINE
  8
0
 10
7.44298
 20
-12.0632
 11
7.37808
 21
-12.1015
  0
LINE
  8
0
 10
7.37808
 20
-12.1015
 11
7.31091
 21
-12.1358
  0
LINE
  8
0
 10
7.31091
 20
-12.1358
 11
7.24173
 21
-12.1657
  0
LINE
  8
0
 10
7.24173
 20
-12.1657
 11
7.17081
 21
-12.1913
  0
LINE
  8
0
 10
7.17081
 20
-12.1913
 11
7.0984
 21
-12.2123
  0
LINE
  8
0
 10
7.0984
 20
-12.2123
 11
7.02484
 21
-12.2287
  0
LINE
  8
0
 10
7.02484
 20
-12.2287
 11
6.95038
 21
-12.2405
  0
LINE
  8
0
 10
6.95038
 20
-12.2405
 11
6.87534
 21
-12.2476
  0
LINE
  8
0
 10
6.87534
 20
-12.2476
 11
6.79999
 21
-12.25
  0
LINE
  8
0
 10
6.79999
 20
-12.25
 11
-6.79999
 21
-12.25
  0
ENDSEC
  0
SECTION
  2
OBJECTS
  0
DICTIONARY
  0
ENDSEC
  0
EOF
