  0
SECTION
  2
BLOCKS
  0
ENDSEC
  0
SECTION
  2
ENTITIES
  0
LINE
  8
0
 10
-18
 20
65
 11
-6
 21
65
  0
LINE
  8
0
 10
-6
 20
65
 11
-6
 21
45
  0
LINE
  8
0
 10
-6
 20
45
 11
206
 21
45
  0
LINE
  8
0
 10
206
 20
45
 11
206
 21
65
  0
LINE
  8
0
 10
206
 20
65
 11
218
 21
65
  0
LINE
  8
0
 10
218
 20
65
 11
218
 21
45
  0
LINE
  8
0
 10
218
 20
45
 11
228.3
 21
45
  0
LINE
  8
0
 10
228.3
 20
45
 11
228.928
 21
45.0197
  0
LINE
  8
0
 10
228.928
 20
45.0197
 11
229.553
 21
45.0789
  0
LINE
  8
0
 10
229.553
 20
45.0789
 11
230.174
 21
45.1771
  0
LINE
  8
0
 10
230.174
 20
45.1771
 11
230.787
 21
45.3142
  0
LINE
  8
0
 10
230.787
 20
45.3142
 11
231.39
 21
45.4894
  0
LINE
  8
0
 10
231.39
 20
45.4894
 11
231.981
 21
45.7022
  0
LINE
  8
0
 10
231.981
 20
45.7022
 11
232.558
 21
45.9517
  0
LINE
  8
0
 10
232.558
 20
45.9517
 11
233.118
 21
46.2369
  0
LINE
  8
0
 10
233.118
 20
46.2369
 11
233.658
 21
46.5567
  0
LINE
  8
0
 10
233.658
 20
46.5567
 11
234.178
 21
46.9098
  0
LINE
  8
0
 10
234.178
 20
46.9098
 11
234.674
 21
47.2949
  0
LINE
  8
0
 10
234.674
 20
47.2949
 11
235.145
 21
47.7103
  0
LINE
  8
0
 10
235.145
 20
47.7103
 11
235.59
 21
48.1545
  0
LINE
  8
0
 10
235.59
 20
48.1545
 11
236.005
 21
48.6258
  0
LINE
  8
0
 10
236.005
 20
48.6258
 11
236.39
 21
49.1222
  0
LINE
  8
0
 10
236.39
 20
49.1222
 11
236.743
 21
49.6417
  0
LINE
  8
0
 10
236.743
 20
49.6417
 11
237.063
 21
50.1825
  0
LINE
  8
0
 10
237.063
 20
50.1825
 11
237.348
 21
50.7422
  0
LINE
  8
0
 10
237.348
 20
50.7422
 11
237.598
 21
51.3188
  0
LINE
  8
0
 10
237.598
 20
51.3188
 11
237.811
 21
51.9098
  0
LINE
  8
0
 10
237.811
 20
51.9098
 11
237.986
 21
52.5131
  0
LINE
  8
0
 10
237.986
 20
52.5131
 11
238.123
 21
53.1262
  0
LINE
  8
0
 10
238.123
 20
53.1262
 11
238.221
 21
53.7467
  0
LINE
  8
0
 10
238.221
 20
53.7467
 11
238.28
 21
54.3721
  0
LINE
  8
0
 10
238.28
 20
54.3721
 11
238.3
 21
55
  0
LINE
  8
0
 10
238.3
 20
55
 11
238.3
 21
77.3
  0
LINE
  8
0
 10
238.3
 20
77.3
 11
238.28
 21
77.9279
  0
LINE
  8
0
 10
238.28
 20
77.9279
 11
238.221
 21
78.5533
  0
LINE
  8
0
 10
238.221
 20
78.5533
 11
238.123
 21
79.1738
  0
LINE
  8
0
 10
238.123
 20
79.1738
 11
237.986
 21
79.7869
  0
LINE
  8
0
 10
237.986
 20
79.7869
 11
237.811
 21
80.3902
  0
LINE
  8
0
 10
237.811
 20
80.3902
 11
237.598
 21
80.9812
  0
LINE
  8
0
 10
237.598
 20
80.9812
 11
237.348
 21
81.5578
  0
LINE
  8
0
 10
237.348
 20
81.5578
 11
237.063
 21
82.1175
  0
LINE
  8
0
 10
237.063
 20
82.1175
 11
236.743
 21
82.6582
  0
LINE
  8
0
 10
236.743
 20
82.6582
 11
236.39
 21
83.1778
  0
LINE
  8
0
 10
236.39
 20
83.1778
 11
236.005
 21
83.6742
  0
LINE
  8
0
 10
236.005
 20
83.6742
 11
235.59
 21
84.1454
  0
LINE
  8
0
 10
235.59
 20
84.1454
 11
235.145
 21
84.5897
  0
LINE
  8
0
 10
235.145
 20
84.5897
 11
234.674
 21
85.0051
  0
LINE
  8
0
 10
234.674
 20
85.0051
 11
234.178
 21
85.3902
  0
LINE
  8
0
 10
234.178
 20
85.3902
 11
233.658
 21
85.7433
  0
LINE
  8
0
 10
233.658
 20
85.7433
 11
233.118
 21
86.063
  0
LINE
  8
0
 10
233.118
 20
86.063
 11
232.558
 21
86.3483
  0
LINE
  8
0
 10
232.558
 20
86.3483
 11
231.981
 21
86.5977
  0
LINE
  8
0
 10
231.981
 20
86.5977
 11
231.39
 21
86.8105
  0
LINE
  8
0
 10
231.39
 20
86.8105
 11
230.787
 21
86.9858
  0
LINE
  8
0
 10
230.787
 20
86.9858
 11
230.174
 21
87.1228
  0
LINE
  8
0
 10
230.174
 20
87.1228
 11
229.553
 21
87.2211
  0
LINE
  8
0
 10
229.553
 20
87.2211
 11
228.928
 21
87.2802
  0
LINE
  8
0
 10
228.928
 20
87.2802
 11
228.3
 21
87.3
  0
LINE
  8
0
 10
228.3
 20
87.3
 11
-50
 21
87.3
  0
LINE
  8
0
 10
-50
 20
87.3
 11
-50.6279
 21
87.2802
  0
LINE
  8
0
 10
-50.6279
 20
87.2802
 11
-51.2533
 21
87.2211
  0
LINE
  8
0
 10
-51.2533
 20
87.2211
 11
-51.8738
 21
87.1228
  0
LINE
  8
0
 10
-51.8738
 20
87.1228
 11
-52.4869
 21
86.9858
  0
LINE
  8
0
 10
-52.4869
 20
86.9858
 11
-53.0902
 21
86.8105
  0
LINE
  8
0
 10
-53.0902
 20
86.8105
 11
-53.6812
 21
86.5977
  0
LINE
  8
0
 10
-53.6812
 20
86.5977
 11
-54.2578
 21
86.3483
  0
LINE
  8
0
 10
-54.2578
 20
86.3483
 11
-54.8175
 21
86.063
  0
LINE
  8
0
 10
-54.8175
 20
86.063
 11
-55.3583
 21
85.7433
  0
LINE
  8
0
 10
-55.3583
 20
85.7433
 11
-55.8778
 21
85.3902
  0
LINE
  8
0
 10
-55.8778
 20
85.3902
 11
-56.3742
 21
85.0051
  0
LINE
  8
0
 10
-56.3742
 20
85.0051
 11
-56.8455
 21
84.5897
  0
LINE
  8
0
 10
-56.8455
 20
84.5897
 11
-57.2897
 21
84.1454
  0
LINE
  8
0
 10
-57.2897
 20
84.1454
 11
-57.7051
 21
83.6742
  0
LINE
  8
0
 10
-57.7051
 20
83.6742
 11
-58.0902
 21
83.1778
  0
LINE
  8
0
 10
-58.0902
 20
83.1778
 11
-58.4433
 21
82.6582
  0
LINE
  8
0
 10
-58.4433
 20
82.6582
 11
-58.7631
 21
82.1175
  0
LINE
  8
0
 10
-58.7631
 20
82.1175
 11
-59.0483
 21
81.5578
  0
LINE
  8
0
 10
-59.0483
 20
81.5578
 11
-59.2978
 21
80.9812
  0
LINE
  8
0
 10
-59.2978
 20
80.9812
 11
-59.5106
 21
80.3902
  0
LINE
  8
0
 10
-59.5106
 20
80.3902
 11
-59.6858
 21
79.7869
  0
LINE
  8
0
 10
-59.6858
 20
79.7869
 11
-59.8229
 21
79.1738
  0
LINE
  8
0
 10
-59.8229
 20
79.1738
 11
-59.9211
 21
78.5533
  0
LINE
  8
0
 10
-59.9211
 20
78.5533
 11
-59.9803
 21
77.9279
  0
LINE
  8
0
 10
-59.9803
 20
77.9279
 11
-60
 21
77.3
  0
LINE
  8
0
 10
-60
 20
77.3
 11
-60
 21
55
  0
LINE
  8
0
 10
-60
 20
55
 11
-59.9803
 21
54.3721
  0
LINE
  8
0
 10
-59.9803
 20
54.3721
 11
-59.9211
 21
53.7467
  0
LINE
  8
0
 10
-59.9211
 20
53.7467
 11
-59.8229
 21
53.1262
  0
LINE
  8
0
 10
-59.8229
 20
53.1262
 11
-59.6858
 21
52.5131
  0
LINE
  8
0
 10
-59.6858
 20
52.5131
 11
-59.5106
 21
51.9098
  0
LINE
  8
0
 10
-59.5106
 20
51.9098
 11
-59.2978
 21
51.3188
  0
LINE
  8
0
 10
-59.2978
 20
51.3188
 11
-59.0483
 21
50.7422
  0
LINE
  8
0
 10
-59.0483
 20
50.7422
 11
-58.7631
 21
50.1825
  0
LINE
  8
0
 10
-58.7631
 20
50.1825
 11
-58.4433
 21
49.6417
  0
LINE
  8
0
 10
-58.4433
 20
49.6417
 11
-58.0902
 21
49.1222
  0
LINE
  8
0
 10
-58.0902
 20
49.1222
 11
-57.7051
 21
48.6258
  0
LINE
  8
0
 10
-57.7051
 20
48.6258
 11
-57.2897
 21
48.1545
  0
LINE
  8
0
 10
-57.2897
 20
48.1545
 11
-56.8455
 21
47.7103
  0
LINE
  8
0
 10
-56.8455
 20
47.7103
 11
-56.3742
 21
47.2949
  0
LINE
  8
0
 10
-56.3742
 20
47.2949
 11
-55.8778
 21
46.9098
  0
LINE
  8
0
 10
-55.8778
 20
46.9098
 11
-55.3583
 21
46.5567
  0
LINE
  8
0
 10
-55.3583
 20
46.5567
 11
-54.8175
 21
46.2369
  0
LINE
  8
0
 10
-54.8175
 20
46.2369
 11
-54.2578
 21
45.9517
  0
LINE
  8
0
 10
-54.2578
 20
45.9517
 11
-53.6812
 21
45.7022
  0
LINE
  8
0
 10
-53.6812
 20
45.7022
 11
-53.0902
 21
45.4894
  0
LINE
  8
0
 10
-53.0902
 20
45.4894
 11
-52.4869
 21
45.3142
  0
LINE
  8
0
 10
-52.4869
 20
45.3142
 11
-51.8738
 21
45.1771
  0
LINE
  8
0
 10
-51.8738
 20
45.1771
 11
-51.2533
 21
45.0789
  0
LINE
  8
0
 10
-51.2533
 20
45.0789
 11
-50.6279
 21
45.0197
  0
LINE
  8
0
 10
-50.6279
 20
45.0197
 11
-50
 21
45
  0
LINE
  8
0
 10
-50
 20
45
 11
-18
 21
45
  0
LINE
  8
0
 10
-18
 20
45
 11
-18
 21
65
  0
LINE
  8
0
 10
-54.5942
 20
80.0029
 11
-54.688
 21
80.0118
  0
LINE
  8
0
 10
-54.688
 20
80.0118
 11
-54.7811
 21
80.0266
  0
LINE
  8
0
 10
-54.7811
 20
80.0266
 11
-54.873
 21
80.0471
  0
LINE
  8
0
 10
-54.873
 20
80.0471
 11
-54.9635
 21
80.0734
  0
LINE
  8
0
 10
-54.9635
 20
80.0734
 11
-55.0522
 21
80.1053
  0
LINE
  8
0
 10
-55.0522
 20
80.1053
 11
-55.1387
 21
80.1427
  0
LINE
  8
0
 10
-55.1387
 20
80.1427
 11
-55.2226
 21
80.1855
  0
LINE
  8
0
 10
-55.2226
 20
80.1855
 11
-55.3037
 21
80.2335
  0
LINE
  8
0
 10
-55.3037
 20
80.2335
 11
-55.3817
 21
80.2865
  0
LINE
  8
0
 10
-55.3817
 20
80.2865
 11
-55.4561
 21
80.3442
  0
LINE
  8
0
 10
-55.4561
 20
80.3442
 11
-55.5268
 21
80.4065
  0
LINE
  8
0
 10
-55.5268
 20
80.4065
 11
-55.5934
 21
80.4732
  0
LINE
  8
0
 10
-55.5934
 20
80.4732
 11
-55.6558
 21
80.5439
  0
LINE
  8
0
 10
-55.6558
 20
80.5439
 11
-55.7135
 21
80.6183
  0
LINE
  8
0
 10
-55.7135
 20
80.6183
 11
-55.7665
 21
80.6963
  0
LINE
  8
0
 10
-55.7665
 20
80.6963
 11
-55.8145
 21
80.7774
  0
LINE
  8
0
 10
-55.8145
 20
80.7774
 11
-55.8572
 21
80.8613
  0
LINE
  8
0
 10
-55.8572
 20
80.8613
 11
-55.8947
 21
80.9478
  0
LINE
  8
0
 10
-55.8947
 20
80.9478
 11
-55.9266
 21
81.0365
  0
LINE
  8
0
 10
-55.9266
 20
81.0365
 11
-55.9529
 21
81.127
  0
LINE
  8
0
 10
-55.9529
 20
81.127
 11
-55.9734
 21
81.2189
  0
LINE
  8
0
 10
-55.9734
 20
81.2189
 11
-55.9882
 21
81.312
  0
LINE
  8
0
 10
-55.9882
 20
81.312
 11
-55.997
 21
81.4058
  0
LINE
  8
0
 10
-55.997
 20
81.4058
 11
-56
 21
81.5
  0
LINE
  8
0
 10
-56
 20
81.5
 11
-55.997
 21
81.5942
  0
LINE
  8
0
 10
-55.997
 20
81.5942
 11
-55.9882
 21
81.688
  0
LINE
  8
0
 10
-55.9882
 20
81.688
 11
-55.9734
 21
81.7811
  0
LINE
  8
0
 10
-55.9734
 20
81.7811
 11
-55.9529
 21
81.873
  0
LINE
  8
0
 10
-55.9529
 20
81.873
 11
-55.9266
 21
81.9635
  0
LINE
  8
0
 10
-55.9266
 20
81.9635
 11
-55.8947
 21
82.0522
  0
LINE
  8
0
 10
-55.8947
 20
82.0522
 11
-55.8572
 21
82.1387
  0
LINE
  8
0
 10
-55.8572
 20
82.1387
 11
-55.8145
 21
82.2226
  0
LINE
  8
0
 10
-55.8145
 20
82.2226
 11
-55.7665
 21
82.3037
  0
LINE
  8
0
 10
-55.7665
 20
82.3037
 11
-55.7135
 21
82.3817
  0
LINE
  8
0
 10
-55.7135
 20
82.3817
 11
-55.6558
 21
82.4561
  0
LINE
  8
0
 10
-55.6558
 20
82.4561
 11
-55.5934
 21
82.5268
  0
LINE
  8
0
 10
-55.5934
 20
82.5268
 11
-55.5268
 21
82.5934
  0
LINE
  8
0
 10
-55.5268
 20
82.5934
 11
-55.4561
 21
82.6558
  0
LINE
  8
0
 10
-55.4561
 20
82.6558
 11
-55.3817
 21
82.7135
  0
LINE
  8
0
 10
-55.3817
 20
82.7135
 11
-55.3037
 21
82.7665
  0
LINE
  8
0
 10
-55.3037
 20
82.7665
 11
-55.2226
 21
82.8145
  0
LINE
  8
0
 10
-55.2226
 20
82.8145
 11
-55.1387
 21
82.8572
  0
LINE
  8
0
 10
-55.1387
 20
82.8572
 11
-55.0522
 21
82.8947
  0
LINE
  8
0
 10
-55.0522
 20
82.8947
 11
-54.9635
 21
82.9266
  0
LINE
  8
0
 10
-54.9635
 20
82.9266
 11
-54.873
 21
82.9529
  0
LINE
  8
0
 10
-54.873
 20
82.9529
 11
-54.7811
 21
82.9734
  0
LINE
  8
0
 10
-54.7811
 20
82.9734
 11
-54.688
 21
82.9882
  0
LINE
  8
0
 10
-54.688
 20
82.9882
 11
-54.5942
 21
82.997
  0
LINE
  8
0
 10
-54.5942
 20
82.997
 11
-54.5
 21
83
  0
LINE
  8
0
 10
-54.5
 20
83
 11
-54.4058
 21
82.997
  0
LINE
  8
0
 10
-54.4058
 20
82.997
 11
-54.312
 21
82.9882
  0
LINE
  8
0
 10
-54.312
 20
82.9882
 11
-54.2189
 21
82.9734
  0
LINE
  8
0
 10
-54.2189
 20
82.9734
 11
-54.127
 21
82.9529
  0
LINE
  8
0
 10
-54.127
 20
82.9529
 11
-54.0365
 21
82.9266
  0
LINE
  8
0
 10
-54.0365
 20
82.9266
 11
-53.9478
 21
82.8947
  0
LINE
  8
0
 10
-53.9478
 20
82.8947
 11
-53.8613
 21
82.8572
  0
LINE
  8
0
 10
-53.8613
 20
82.8572
 11
-53.7774
 21
82.8145
  0
LINE
  8
0
 10
-53.7774
 20
82.8145
 11
-53.6963
 21
82.7665
  0
LINE
  8
0
 10
-53.6963
 20
82.7665
 11
-53.6183
 21
82.7135
  0
LINE
  8
0
 10
-53.6183
 20
82.7135
 11
-53.5439
 21
82.6558
  0
LINE
  8
0
 10
-53.5439
 20
82.6558
 11
-53.4732
 21
82.5934
  0
LINE
  8
0
 10
-53.4732
 20
82.5934
 11
-53.4065
 21
82.5268
  0
LINE
  8
0
 10
-53.4065
 20
82.5268
 11
-53.3442
 21
82.4561
  0
LINE
  8
0
 10
-53.3442
 20
82.4561
 11
-53.2865
 21
82.3817
  0
LINE
  8
0
 10
-53.2865
 20
82.3817
 11
-53.2335
 21
82.3037
  0
LINE
  8
0
 10
-53.2335
 20
82.3037
 11
-53.1855
 21
82.2226
  0
LINE
  8
0
 10
-53.1855
 20
82.2226
 11
-53.1427
 21
82.1387
  0
LINE
  8
0
 10
-53.1427
 20
82.1387
 11
-53.1053
 21
82.0522
  0
LINE
  8
0
 10
-53.1053
 20
82.0522
 11
-53.0734
 21
81.9635
  0
LINE
  8
0
 10
-53.0734
 20
81.9635
 11
-53.0471
 21
81.873
  0
LINE
  8
0
 10
-53.0471
 20
81.873
 11
-53.0266
 21
81.7811
  0
LINE
  8
0
 10
-53.0266
 20
81.7811
 11
-53.0118
 21
81.688
  0
LINE
  8
0
 10
-53.0118
 20
81.688
 11
-53.0029
 21
81.5942
  0
LINE
  8
0
 10
-53.0029
 20
81.5942
 11
-53
 21
81.5
  0
LINE
  8
0
 10
-53
 20
81.5
 11
-53.0029
 21
81.4058
  0
LINE
  8
0
 10
-53.0029
 20
81.4058
 11
-53.0118
 21
81.312
  0
LINE
  8
0
 10
-53.0118
 20
81.312
 11
-53.0266
 21
81.2189
  0
LINE
  8
0
 10
-53.0266
 20
81.2189
 11
-53.0471
 21
81.127
  0
LINE
  8
0
 10
-53.0471
 20
81.127
 11
-53.0734
 21
81.0365
  0
LINE
  8
0
 10
-53.0734
 20
81.0365
 11
-53.1053
 21
80.9478
  0
LINE
  8
0
 10
-53.1053
 20
80.9478
 11
-53.1427
 21
80.8613
  0
LINE
  8
0
 10
-53.1427
 20
80.8613
 11
-53.1855
 21
80.7774
  0
LINE
  8
0
 10
-53.1855
 20
80.7774
 11
-53.2335
 21
80.6963
  0
LINE
  8
0
 10
-53.2335
 20
80.6963
 11
-53.2865
 21
80.6183
  0
LINE
  8
0
 10
-53.2865
 20
80.6183
 11
-53.3442
 21
80.5439
  0
LINE
  8
0
 10
-53.3442
 20
80.5439
 11
-53.4065
 21
80.4732
  0
LINE
  8
0
 10
-53.4065
 20
80.4732
 11
-53.4732
 21
80.4065
  0
LINE
  8
0
 10
-53.4732
 20
80.4065
 11
-53.5439
 21
80.3442
  0
LINE
  8
0
 10
-53.5439
 20
80.3442
 11
-53.6183
 21
80.2865
  0
LINE
  8
0
 10
-53.6183
 20
80.2865
 11
-53.6963
 21
80.2335
  0
LINE
  8
0
 10
-53.6963
 20
80.2335
 11
-53.7774
 21
80.1855
  0
LINE
  8
0
 10
-53.7774
 20
80.1855
 11
-53.8613
 21
80.1427
  0
LINE
  8
0
 10
-53.8613
 20
80.1427
 11
-53.9478
 21
80.1053
  0
LINE
  8
0
 10
-53.9478
 20
80.1053
 11
-54.0365
 21
80.0734
  0
LINE
  8
0
 10
-54.0365
 20
80.0734
 11
-54.127
 21
80.0471
  0
LINE
  8
0
 10
-54.127
 20
80.0471
 11
-54.2189
 21
80.0266
  0
LINE
  8
0
 10
-54.2189
 20
80.0266
 11
-54.312
 21
80.0118
  0
LINE
  8
0
 10
-54.312
 20
80.0118
 11
-54.4058
 21
80.0029
  0
LINE
  8
0
 10
-54.4058
 20
80.0029
 11
-54.5
 21
80
  0
LINE
  8
0
 10
-54.5
 20
80
 11
-54.5942
 21
80.0029
  0
LINE
  8
0
 10
-23.5942
 20
80.0029
 11
-23.688
 21
80.0118
  0
LINE
  8
0
 10
-23.688
 20
80.0118
 11
-23.7811
 21
80.0266
  0
LINE
  8
0
 10
-23.7811
 20
80.0266
 11
-23.873
 21
80.0471
  0
LINE
  8
0
 10
-23.873
 20
80.0471
 11
-23.9635
 21
80.0734
  0
LINE
  8
0
 10
-23.9635
 20
80.0734
 11
-24.0522
 21
80.1053
  0
LINE
  8
0
 10
-24.0522
 20
80.1053
 11
-24.1387
 21
80.1427
  0
LINE
  8
0
 10
-24.1387
 20
80.1427
 11
-24.2226
 21
80.1855
  0
LINE
  8
0
 10
-24.2226
 20
80.1855
 11
-24.3037
 21
80.2335
  0
LINE
  8
0
 10
-24.3037
 20
80.2335
 11
-24.3817
 21
80.2865
  0
LINE
  8
0
 10
-24.3817
 20
80.2865
 11
-24.4561
 21
80.3442
  0
LINE
  8
0
 10
-24.4561
 20
80.3442
 11
-24.5268
 21
80.4065
  0
LINE
  8
0
 10
-24.5268
 20
80.4065
 11
-24.5935
 21
80.4732
  0
LINE
  8
0
 10
-24.5935
 20
80.4732
 11
-24.6558
 21
80.5439
  0
LINE
  8
0
 10
-24.6558
 20
80.5439
 11
-24.7135
 21
80.6183
  0
LINE
  8
0
 10
-24.7135
 20
80.6183
 11
-24.7665
 21
80.6963
  0
LINE
  8
0
 10
-24.7665
 20
80.6963
 11
-24.8145
 21
80.7774
  0
LINE
  8
0
 10
-24.8145
 20
80.7774
 11
-24.8573
 21
80.8613
  0
LINE
  8
0
 10
-24.8573
 20
80.8613
 11
-24.8947
 21
80.9478
  0
LINE
  8
0
 10
-24.8947
 20
80.9478
 11
-24.9266
 21
81.0365
  0
LINE
  8
0
 10
-24.9266
 20
81.0365
 11
-24.9529
 21
81.127
  0
LINE
  8
0
 10
-24.9529
 20
81.127
 11
-24.9734
 21
81.2189
  0
LINE
  8
0
 10
-24.9734
 20
81.2189
 11
-24.9882
 21
81.312
  0
LINE
  8
0
 10
-24.9882
 20
81.312
 11
-24.9971
 21
81.4058
  0
LINE
  8
0
 10
-24.9971
 20
81.4058
 11
-25
 21
81.5
  0
LINE
  8
0
 10
-25
 20
81.5
 11
-24.9971
 21
81.5942
  0
LINE
  8
0
 10
-24.9971
 20
81.5942
 11
-24.9882
 21
81.688
  0
LINE
  8
0
 10
-24.9882
 20
81.688
 11
-24.9734
 21
81.7811
  0
LINE
  8
0
 10
-24.9734
 20
81.7811
 11
-24.9529
 21
81.873
  0
LINE
  8
0
 10
-24.9529
 20
81.873
 11
-24.9266
 21
81.9635
  0
LINE
  8
0
 10
-24.9266
 20
81.9635
 11
-24.8947
 21
82.0522
  0
LINE
  8
0
 10
-24.8947
 20
82.0522
 11
-24.8573
 21
82.1387
  0
LINE
  8
0
 10
-24.8573
 20
82.1387
 11
-24.8145
 21
82.2226
  0
LINE
  8
0
 10
-24.8145
 20
82.2226
 11
-24.7665
 21
82.3037
  0
LINE
  8
0
 10
-24.7665
 20
82.3037
 11
-24.7135
 21
82.3817
  0
LINE
  8
0
 10
-24.7135
 20
82.3817
 11
-24.6558
 21
82.4561
  0
LINE
  8
0
 10
-24.6558
 20
82.4561
 11
-24.5935
 21
82.5268
  0
LINE
  8
0
 10
-24.5935
 20
82.5268
 11
-24.5268
 21
82.5934
  0
LINE
  8
0
 10
-24.5268
 20
82.5934
 11
-24.4561
 21
82.6558
  0
LINE
  8
0
 10
-24.4561
 20
82.6558
 11
-24.3817
 21
82.7135
  0
LINE
  8
0
 10
-24.3817
 20
82.7135
 11
-24.3037
 21
82.7665
  0
LINE
  8
0
 10
-24.3037
 20
82.7665
 11
-24.2226
 21
82.8145
  0
LINE
  8
0
 10
-24.2226
 20
82.8145
 11
-24.1387
 21
82.8572
  0
LINE
  8
0
 10
-24.1387
 20
82.8572
 11
-24.0522
 21
82.8947
  0
LINE
  8
0
 10
-24.0522
 20
82.8947
 11
-23.9635
 21
82.9266
  0
LINE
  8
0
 10
-23.9635
 20
82.9266
 11
-23.873
 21
82.9529
  0
LINE
  8
0
 10
-23.873
 20
82.9529
 11
-23.7811
 21
82.9734
  0
LINE
  8
0
 10
-23.7811
 20
82.9734
 11
-23.688
 21
82.9882
  0
LINE
  8
0
 10
-23.688
 20
82.9882
 11
-23.5942
 21
82.997
  0
LINE
  8
0
 10
-23.5942
 20
82.997
 11
-23.5
 21
83
  0
LINE
  8
0
 10
-23.5
 20
83
 11
-23.4058
 21
82.997
  0
LINE
  8
0
 10
-23.4058
 20
82.997
 11
-23.312
 21
82.9882
  0
LINE
  8
0
 10
-23.312
 20
82.9882
 11
-23.2189
 21
82.9734
  0
LINE
  8
0
 10
-23.2189
 20
82.9734
 11
-23.127
 21
82.9529
  0
LINE
  8
0
 10
-23.127
 20
82.9529
 11
-23.0365
 21
82.9266
  0
LINE
  8
0
 10
-23.0365
 20
82.9266
 11
-22.9478
 21
82.8947
  0
LINE
  8
0
 10
-22.9478
 20
82.8947
 11
-22.8613
 21
82.8572
  0
LINE
  8
0
 10
-22.8613
 20
82.8572
 11
-22.7774
 21
82.8145
  0
LINE
  8
0
 10
-22.7774
 20
82.8145
 11
-22.6963
 21
82.7665
  0
LINE
  8
0
 10
-22.6963
 20
82.7665
 11
-22.6183
 21
82.7135
  0
LINE
  8
0
 10
-22.6183
 20
82.7135
 11
-22.5439
 21
82.6558
  0
LINE
  8
0
 10
-22.5439
 20
82.6558
 11
-22.4732
 21
82.5934
  0
LINE
  8
0
 10
-22.4732
 20
82.5934
 11
-22.4066
 21
82.5268
  0
LINE
  8
0
 10
-22.4066
 20
82.5268
 11
-22.3442
 21
82.4561
  0
LINE
  8
0
 10
-22.3442
 20
82.4561
 11
-22.2865
 21
82.3817
  0
LINE
  8
0
 10
-22.2865
 20
82.3817
 11
-22.2335
 21
82.3037
  0
LINE
  8
0
 10
-22.2335
 20
82.3037
 11
-22.1855
 21
82.2226
  0
LINE
  8
0
 10
-22.1855
 20
82.2226
 11
-22.1428
 21
82.1387
  0
LINE
  8
0
 10
-22.1428
 20
82.1387
 11
-22.1053
 21
82.0522
  0
LINE
  8
0
 10
-22.1053
 20
82.0522
 11
-22.0734
 21
81.9635
  0
LINE
  8
0
 10
-22.0734
 20
81.9635
 11
-22.0471
 21
81.873
  0
LINE
  8
0
 10
-22.0471
 20
81.873
 11
-22.0266
 21
81.7811
  0
LINE
  8
0
 10
-22.0266
 20
81.7811
 11
-22.0118
 21
81.688
  0
LINE
  8
0
 10
-22.0118
 20
81.688
 11
-22.003
 21
81.5942
  0
LINE
  8
0
 10
-22.003
 20
81.5942
 11
-22
 21
81.5
  0
LINE
  8
0
 10
-22
 20
81.5
 11
-22.003
 21
81.4058
  0
LINE
  8
0
 10
-22.003
 20
81.4058
 11
-22.0118
 21
81.312
  0
LINE
  8
0
 10
-22.0118
 20
81.312
 11
-22.0266
 21
81.2189
  0
LINE
  8
0
 10
-22.0266
 20
81.2189
 11
-22.0471
 21
81.127
  0
LINE
  8
0
 10
-22.0471
 20
81.127
 11
-22.0734
 21
81.0365
  0
LINE
  8
0
 10
-22.0734
 20
81.0365
 11
-22.1053
 21
80.9478
  0
LINE
  8
0
 10
-22.1053
 20
80.9478
 11
-22.1428
 21
80.8613
  0
LINE
  8
0
 10
-22.1428
 20
80.8613
 11
-22.1855
 21
80.7774
  0
LINE
  8
0
 10
-22.1855
 20
80.7774
 11
-22.2335
 21
80.6963
  0
LINE
  8
0
 10
-22.2335
 20
80.6963
 11
-22.2865
 21
80.6183
  0
LINE
  8
0
 10
-22.2865
 20
80.6183
 11
-22.3442
 21
80.5439
  0
LINE
  8
0
 10
-22.3442
 20
80.5439
 11
-22.4066
 21
80.4732
  0
LINE
  8
0
 10
-22.4066
 20
80.4732
 11
-22.4732
 21
80.4065
  0
LINE
  8
0
 10
-22.4732
 20
80.4065
 11
-22.5439
 21
80.3442
  0
LINE
  8
0
 10
-22.5439
 20
80.3442
 11
-22.6183
 21
80.2865
  0
LINE
  8
0
 10
-22.6183
 20
80.2865
 11
-22.6963
 21
80.2335
  0
LINE
  8
0
 10
-22.6963
 20
80.2335
 11
-22.7774
 21
80.1855
  0
LINE
  8
0
 10
-22.7774
 20
80.1855
 11
-22.8613
 21
80.1427
  0
LINE
  8
0
 10
-22.8613
 20
80.1427
 11
-22.9478
 21
80.1053
  0
LINE
  8
0
 10
-22.9478
 20
80.1053
 11
-23.0365
 21
80.0734
  0
LINE
  8
0
 10
-23.0365
 20
80.0734
 11
-23.127
 21
80.0471
  0
LINE
  8
0
 10
-23.127
 20
80.0471
 11
-23.2189
 21
80.0266
  0
LINE
  8
0
 10
-23.2189
 20
80.0266
 11
-23.312
 21
80.0118
  0
LINE
  8
0
 10
-23.312
 20
80.0118
 11
-23.4058
 21
80.0029
  0
LINE
  8
0
 10
-23.4058
 20
80.0029
 11
-23.5
 21
80
  0
LINE
  8
0
 10
-23.5
 20
80
 11
-23.5942
 21
80.0029
  0
LINE
  8
0
 10
9
 20
65
 11
8.68605
 21
65.0099
  0
LINE
  8
0
 10
8.68605
 20
65.0099
 11
8.37334
 21
65.0394
  0
LINE
  8
0
 10
8.37334
 20
65.0394
 11
8.0631
 21
65.0886
  0
LINE
  8
0
 10
8.0631
 20
65.0886
 11
7.75656
 21
65.1571
  0
LINE
  8
0
 10
7.75656
 20
65.1571
 11
7.45493
 21
65.2447
  0
LINE
  8
0
 10
7.45493
 20
65.2447
 11
7.15938
 21
65.3511
  0
LINE
  8
0
 10
7.15938
 20
65.3511
 11
6.87111
 21
65.4759
  0
LINE
  8
0
 10
6.87111
 20
65.4759
 11
6.59123
 21
65.6185
  0
LINE
  8
0
 10
6.59123
 20
65.6185
 11
6.32088
 21
65.7784
  0
LINE
  8
0
 10
6.32088
 20
65.7784
 11
6.06108
 21
65.9549
  0
LINE
  8
0
 10
6.06108
 20
65.9549
 11
5.81288
 21
66.1474
  0
LINE
  8
0
 10
5.81288
 20
66.1474
 11
5.57727
 21
66.3552
  0
LINE
  8
0
 10
5.57727
 20
66.3552
 11
5.35516
 21
66.5773
  0
LINE
  8
0
 10
5.35516
 20
66.5773
 11
5.14745
 21
66.8129
  0
LINE
  8
0
 10
5.14745
 20
66.8129
 11
4.95493
 21
67.0611
  0
LINE
  8
0
 10
4.95493
 20
67.0611
 11
4.77837
 21
67.3209
  0
LINE
  8
0
 10
4.77837
 20
67.3209
 11
4.61847
 21
67.5912
  0
LINE
  8
0
 10
4.61847
 20
67.5912
 11
4.47588
 21
67.8711
  0
LINE
  8
0
 10
4.47588
 20
67.8711
 11
4.35112
 21
68.1594
  0
LINE
  8
0
 10
4.35112
 20
68.1594
 11
4.24472
 21
68.4549
  0
LINE
  8
0
 10
4.24472
 20
68.4549
 11
4.15709
 21
68.7566
  0
LINE
  8
0
 10
4.15709
 20
68.7566
 11
4.08858
 21
69.0631
  0
LINE
  8
0
 10
4.08858
 20
69.0631
 11
4.03943
 21
69.3733
  0
LINE
  8
0
 10
4.03943
 20
69.3733
 11
4.00987
 21
69.6861
  0
LINE
  8
0
 10
4.00987
 20
69.6861
 11
4
 21
70
  0
LINE
  8
0
 10
4
 20
70
 11
4
 21
72
  0
LINE
  8
0
 10
4
 20
72
 11
4.00987
 21
72.3139
  0
LINE
  8
0
 10
4.00987
 20
72.3139
 11
4.03943
 21
72.6267
  0
LINE
  8
0
 10
4.03943
 20
72.6267
 11
4.08858
 21
72.9369
  0
LINE
  8
0
 10
4.08858
 20
72.9369
 11
4.15709
 21
73.2434
  0
LINE
  8
0
 10
4.15709
 20
73.2434
 11
4.24472
 21
73.5451
  0
LINE
  8
0
 10
4.24472
 20
73.5451
 11
4.35112
 21
73.8406
  0
LINE
  8
0
 10
4.35112
 20
73.8406
 11
4.47588
 21
74.1289
  0
LINE
  8
0
 10
4.47588
 20
74.1289
 11
4.61847
 21
74.4088
  0
LINE
  8
0
 10
4.61847
 20
74.4088
 11
4.77837
 21
74.6791
  0
LINE
  8
0
 10
4.77837
 20
74.6791
 11
4.95493
 21
74.9389
  0
LINE
  8
0
 10
4.95493
 20
74.9389
 11
5.14745
 21
75.1871
  0
LINE
  8
0
 10
5.14745
 20
75.1871
 11
5.35516
 21
75.4227
  0
LINE
  8
0
 10
5.35516
 20
75.4227
 11
5.57727
 21
75.6448
  0
LINE
  8
0
 10
5.57727
 20
75.6448
 11
5.81288
 21
75.8526
  0
LINE
  8
0
 10
5.81288
 20
75.8526
 11
6.06108
 21
76.0451
  0
LINE
  8
0
 10
6.06108
 20
76.0451
 11
6.32088
 21
76.2216
  0
LINE
  8
0
 10
6.32088
 20
76.2216
 11
6.59123
 21
76.3815
  0
LINE
  8
0
 10
6.59123
 20
76.3815
 11
6.87111
 21
76.5241
  0
LINE
  8
0
 10
6.87111
 20
76.5241
 11
7.15938
 21
76.6489
  0
LINE
  8
0
 10
7.15938
 20
76.6489
 11
7.45493
 21
76.7553
  0
LINE
  8
0
 10
7.45493
 20
76.7553
 11
7.75656
 21
76.8429
  0
LINE
  8
0
 10
7.75656
 20
76.8429
 11
8.0631
 21
76.9114
  0
LINE
  8
0
 10
8.0631
 20
76.9114
 11
8.37334
 21
76.9606
  0
LINE
  8
0
 10
8.37334
 20
76.9606
 11
8.68605
 21
76.9901
  0
LINE
  8
0
 10
8.68605
 20
76.9901
 11
9
 21
77
  0
LINE
  8
0
 10
9
 20
77
 11
191
 21
77
  0
LINE
  8
0
 10
191
 20
77
 11
191.314
 21
76.9901
  0
LINE
  8
0
 10
191.314
 20
76.9901
 11
191.627
 21
76.9606
  0
LINE
  8
0
 10
191.627
 20
76.9606
 11
191.937
 21
76.9114
  0
LINE
  8
0
 10
191.937
 20
76.9114
 11
192.243
 21
76.8429
  0
LINE
  8
0
 10
192.243
 20
76.8429
 11
192.545
 21
76.7553
  0
LINE
  8
0
 10
192.545
 20
76.7553
 11
192.841
 21
76.6489
  0
LINE
  8
0
 10
192.841
 20
76.6489
 11
193.129
 21
76.5241
  0
LINE
  8
0
 10
193.129
 20
76.5241
 11
193.409
 21
76.3815
  0
LINE
  8
0
 10
193.409
 20
76.3815
 11
193.679
 21
76.2216
  0
LINE
  8
0
 10
193.679
 20
76.2216
 11
193.939
 21
76.0451
  0
LINE
  8
0
 10
193.939
 20
76.0451
 11
194.187
 21
75.8526
  0
LINE
  8
0
 10
194.187
 20
75.8526
 11
194.423
 21
75.6448
  0
LINE
  8
0
 10
194.423
 20
75.6448
 11
194.645
 21
75.4227
  0
LINE
  8
0
 10
194.645
 20
75.4227
 11
194.853
 21
75.1871
  0
LINE
  8
0
 10
194.853
 20
75.1871
 11
195.045
 21
74.9389
  0
LINE
  8
0
 10
195.045
 20
74.9389
 11
195.222
 21
74.6791
  0
LINE
  8
0
 10
195.222
 20
74.6791
 11
195.382
 21
74.4088
  0
LINE
  8
0
 10
195.382
 20
74.4088
 11
195.524
 21
74.1289
  0
LINE
  8
0
 10
195.524
 20
74.1289
 11
195.649
 21
73.8406
  0
LINE
  8
0
 10
195.649
 20
73.8406
 11
195.755
 21
73.5451
  0
LINE
  8
0
 10
195.755
 20
73.5451
 11
195.843
 21
73.2434
  0
LINE
  8
0
 10
195.843
 20
73.2434
 11
195.911
 21
72.9369
  0
LINE
  8
0
 10
195.911
 20
72.9369
 11
195.961
 21
72.6267
  0
LINE
  8
0
 10
195.961
 20
72.6267
 11
195.99
 21
72.3139
  0
LINE
  8
0
 10
195.99
 20
72.3139
 11
196
 21
72
  0
LINE
  8
0
 10
196
 20
72
 11
196
 21
70
  0
LINE
  8
0
 10
196
 20
70
 11
195.99
 21
69.6861
  0
LINE
  8
0
 10
195.99
 20
69.6861
 11
195.961
 21
69.3733
  0
LINE
  8
0
 10
195.961
 20
69.3733
 11
195.911
 21
69.0631
  0
LINE
  8
0
 10
195.911
 20
69.0631
 11
195.843
 21
68.7566
  0
LINE
  8
0
 10
195.843
 20
68.7566
 11
195.755
 21
68.4549
  0
LINE
  8
0
 10
195.755
 20
68.4549
 11
195.649
 21
68.1594
  0
LINE
  8
0
 10
195.649
 20
68.1594
 11
195.524
 21
67.8711
  0
LINE
  8
0
 10
195.524
 20
67.8711
 11
195.382
 21
67.5912
  0
LINE
  8
0
 10
195.382
 20
67.5912
 11
195.222
 21
67.3209
  0
LINE
  8
0
 10
195.222
 20
67.3209
 11
195.045
 21
67.0611
  0
LINE
  8
0
 10
195.045
 20
67.0611
 11
194.853
 21
66.8129
  0
LINE
  8
0
 10
194.853
 20
66.8129
 11
194.645
 21
66.5773
  0
LINE
  8
0
 10
194.645
 20
66.5773
 11
194.423
 21
66.3552
  0
LINE
  8
0
 10
194.423
 20
66.3552
 11
194.187
 21
66.1474
  0
LINE
  8
0
 10
194.187
 20
66.1474
 11
193.939
 21
65.9549
  0
LINE
  8
0
 10
193.939
 20
65.9549
 11
193.679
 21
65.7784
  0
LINE
  8
0
 10
193.679
 20
65.7784
 11
193.409
 21
65.6185
  0
LINE
  8
0
 10
193.409
 20
65.6185
 11
193.129
 21
65.4759
  0
LINE
  8
0
 10
193.129
 20
65.4759
 11
192.841
 21
65.3511
  0
LINE
  8
0
 10
192.841
 20
65.3511
 11
192.545
 21
65.2447
  0
LINE
  8
0
 10
192.545
 20
65.2447
 11
192.243
 21
65.1571
  0
LINE
  8
0
 10
192.243
 20
65.1571
 11
191.937
 21
65.0886
  0
LINE
  8
0
 10
191.937
 20
65.0886
 11
191.627
 21
65.0394
  0
LINE
  8
0
 10
191.627
 20
65.0394
 11
191.314
 21
65.0099
  0
LINE
  8
0
 10
191.314
 20
65.0099
 11
191
 21
65
  0
LINE
  8
0
 10
191
 20
65
 11
9
 21
65
  0
LINE
  8
0
 10
-39.6907
 20
55.0217
 11
-40.3787
 21
55.0867
  0
LINE
  8
0
 10
-40.3787
 20
55.0867
 11
-41.0612
 21
55.1949
  0
LINE
  8
0
 10
-41.0612
 20
55.1949
 11
-41.7356
 21
55.3456
  0
LINE
  8
0
 10
-41.7356
 20
55.3456
 11
-42.3992
 21
55.5384
  0
LINE
  8
0
 10
-42.3992
 20
55.5384
 11
-43.0494
 21
55.7725
  0
LINE
  8
0
 10
-43.0494
 20
55.7725
 11
-43.6836
 21
56.0469
  0
LINE
  8
0
 10
-43.6836
 20
56.0469
 11
-44.2993
 21
56.3606
  0
LINE
  8
0
 10
-44.2993
 20
56.3606
 11
-44.8941
 21
56.7124
  0
LINE
  8
0
 10
-44.8941
 20
56.7124
 11
-45.4656
 21
57.1008
  0
LINE
  8
0
 10
-45.4656
 20
57.1008
 11
-46.0117
 21
57.5244
  0
LINE
  8
0
 10
-46.0117
 20
57.5244
 11
-46.53
 21
57.9814
  0
LINE
  8
0
 10
-46.53
 20
57.9814
 11
-47.0186
 21
58.47
  0
LINE
  8
0
 10
-47.0186
 20
58.47
 11
-47.4756
 21
58.9883
  0
LINE
  8
0
 10
-47.4756
 20
58.9883
 11
-47.8992
 21
59.5344
  0
LINE
  8
0
 10
-47.8992
 20
59.5344
 11
-48.2876
 21
60.1059
  0
LINE
  8
0
 10
-48.2876
 20
60.1059
 11
-48.6394
 21
60.7007
  0
LINE
  8
0
 10
-48.6394
 20
60.7007
 11
-48.9531
 21
61.3164
  0
LINE
  8
0
 10
-48.9531
 20
61.3164
 11
-49.2275
 21
61.9506
  0
LINE
  8
0
 10
-49.2275
 20
61.9506
 11
-49.4616
 21
62.6008
  0
LINE
  8
0
 10
-49.4616
 20
62.6008
 11
-49.6544
 21
63.2644
  0
LINE
  8
0
 10
-49.6544
 20
63.2644
 11
-49.8051
 21
63.9388
  0
LINE
  8
0
 10
-49.8051
 20
63.9388
 11
-49.9133
 21
64.6213
  0
LINE
  8
0
 10
-49.9133
 20
64.6213
 11
-49.9783
 21
65.3093
  0
LINE
  8
0
 10
-49.9783
 20
65.3093
 11
-50
 21
66
  0
LINE
  8
0
 10
-50
 20
66
 11
-49.9783
 21
66.6907
  0
LINE
  8
0
 10
-49.9783
 20
66.6907
 11
-49.9133
 21
67.3787
  0
LINE
  8
0
 10
-49.9133
 20
67.3787
 11
-49.8051
 21
68.0612
  0
LINE
  8
0
 10
-49.8051
 20
68.0612
 11
-49.6544
 21
68.7356
  0
LINE
  8
0
 10
-49.6544
 20
68.7356
 11
-49.4616
 21
69.3992
  0
LINE
  8
0
 10
-49.4616
 20
69.3992
 11
-49.2275
 21
70.0494
  0
LINE
  8
0
 10
-49.2275
 20
70.0494
 11
-48.9531
 21
70.6836
  0
LINE
  8
0
 10
-48.9531
 20
70.6836
 11
-48.6394
 21
71.2993
  0
LINE
  8
0
 10
-48.6394
 20
71.2993
 11
-48.2876
 21
71.8941
  0
LINE
  8
0
 10
-48.2876
 20
71.8941
 11
-47.8992
 21
72.4656
  0
LINE
  8
0
 10
-47.8992
 20
72.4656
 11
-47.4756
 21
73.0117
  0
LINE
  8
0
 10
-47.4756
 20
73.0117
 11
-47.0186
 21
73.53
  0
LINE
  8
0
 10
-47.0186
 20
73.53
 11
-46.53
 21
74.0186
  0
LINE
  8
0
 10
-46.53
 20
74.0186
 11
-46.0117
 21
74.4756
  0
LINE
  8
0
 10
-46.0117
 20
74.4756
 11
-45.4656
 21
74.8992
  0
LINE
  8
0
 10
-45.4656
 20
74.8992
 11
-44.8941
 21
75.2876
  0
LINE
  8
0
 10
-44.8941
 20
75.2876
 11
-44.2993
 21
75.6394
  0
LINE
  8
0
 10
-44.2993
 20
75.6394
 11
-43.6836
 21
75.9531
  0
LINE
  8
0
 10
-43.6836
 20
75.9531
 11
-43.0494
 21
76.2275
  0
LINE
  8
0
 10
-43.0494
 20
76.2275
 11
-42.3992
 21
76.4616
  0
LINE
  8
0
 10
-42.3992
 20
76.4616
 11
-41.7356
 21
76.6544
  0
LINE
  8
0
 10
-41.7356
 20
76.6544
 11
-41.0612
 21
76.8051
  0
LINE
  8
0
 10
-41.0612
 20
76.8051
 11
-40.3787
 21
76.9133
  0
LINE
  8
0
 10
-40.3787
 20
76.9133
 11
-39.6907
 21
76.9783
  0
LINE
  8
0
 10
-39.6907
 20
76.9783
 11
-39
 21
77
  0
LINE
  8
0
 10
-39
 20
77
 11
-38.3093
 21
76.9783
  0
LINE
  8
0
 10
-38.3093
 20
76.9783
 11
-37.6213
 21
76.9133
  0
LINE
  8
0
 10
-37.6213
 20
76.9133
 11
-36.9388
 21
76.8051
  0
LINE
  8
0
 10
-36.9388
 20
76.8051
 11
-36.2644
 21
76.6544
  0
LINE
  8
0
 10
-36.2644
 20
76.6544
 11
-35.6008
 21
76.4616
  0
LINE
  8
0
 10
-35.6008
 20
76.4616
 11
-34.9506
 21
76.2275
  0
LINE
  8
0
 10
-34.9506
 20
76.2275
 11
-34.3164
 21
75.9531
  0
LINE
  8
0
 10
-34.3164
 20
75.9531
 11
-33.7007
 21
75.6394
  0
LINE
  8
0
 10
-33.7007
 20
75.6394
 11
-33.1059
 21
75.2876
  0
LINE
  8
0
 10
-33.1059
 20
75.2876
 11
-32.5344
 21
74.8992
  0
LINE
  8
0
 10
-32.5344
 20
74.8992
 11
-31.9883
 21
74.4756
  0
LINE
  8
0
 10
-31.9883
 20
74.4756
 11
-31.47
 21
74.0186
  0
LINE
  8
0
 10
-31.47
 20
74.0186
 11
-30.9814
 21
73.53
  0
LINE
  8
0
 10
-30.9814
 20
73.53
 11
-30.5244
 21
73.0117
  0
LINE
  8
0
 10
-30.5244
 20
73.0117
 11
-30.1008
 21
72.4656
  0
LINE
  8
0
 10
-30.1008
 20
72.4656
 11
-29.7124
 21
71.8941
  0
LINE
  8
0
 10
-29.7124
 20
71.8941
 11
-29.3606
 21
71.2993
  0
LINE
  8
0
 10
-29.3606
 20
71.2993
 11
-29.0469
 21
70.6836
  0
LINE
  8
0
 10
-29.0469
 20
70.6836
 11
-28.7725
 21
70.0494
  0
LINE
  8
0
 10
-28.7725
 20
70.0494
 11
-28.5384
 21
69.3992
  0
LINE
  8
0
 10
-28.5384
 20
69.3992
 11
-28.3456
 21
68.7356
  0
LINE
  8
0
 10
-28.3456
 20
68.7356
 11
-28.1949
 21
68.0612
  0
LINE
  8
0
 10
-28.1949
 20
68.0612
 11
-28.0867
 21
67.3787
  0
LINE
  8
0
 10
-28.0867
 20
67.3787
 11
-28.0217
 21
66.6907
  0
LINE
  8
0
 10
-28.0217
 20
66.6907
 11
-28
 21
66
  0
LINE
  8
0
 10
-28
 20
66
 11
-28.0217
 21
65.3093
  0
LINE
  8
0
 10
-28.0217
 20
65.3093
 11
-28.0867
 21
64.6213
  0
LINE
  8
0
 10
-28.0867
 20
64.6213
 11
-28.1949
 21
63.9388
  0
LINE
  8
0
 10
-28.1949
 20
63.9388
 11
-28.3456
 21
63.2644
  0
LINE
  8
0
 10
-28.3456
 20
63.2644
 11
-28.5384
 21
62.6008
  0
LINE
  8
0
 10
-28.5384
 20
62.6008
 11
-28.7725
 21
61.9506
  0
LINE
  8
0
 10
-28.7725
 20
61.9506
 11
-29.0469
 21
61.3164
  0
LINE
  8
0
 10
-29.0469
 20
61.3164
 11
-29.3606
 21
60.7007
  0
LINE
  8
0
 10
-29.3606
 20
60.7007
 11
-29.7124
 21
60.1059
  0
LINE
  8
0
 10
-29.7124
 20
60.1059
 11
-30.1008
 21
59.5344
  0
LINE
  8
0
 10
-30.1008
 20
59.5344
 11
-30.5244
 21
58.9883
  0
LINE
  8
0
 10
-30.5244
 20
58.9883
 11
-30.9814
 21
58.47
  0
LINE
  8
0
 10
-30.9814
 20
58.47
 11
-31.47
 21
57.9814
  0
LINE
  8
0
 10
-31.47
 20
57.9814
 11
-31.9883
 21
57.5244
  0
LINE
  8
0
 10
-31.9883
 20
57.5244
 11
-32.5344
 21
57.1008
  0
LINE
  8
0
 10
-32.5344
 20
57.1008
 11
-33.1059
 21
56.7124
  0
LINE
  8
0
 10
-33.1059
 20
56.7124
 11
-33.7007
 21
56.3606
  0
LINE
  8
0
 10
-33.7007
 20
56.3606
 11
-34.3164
 21
56.0469
  0
LINE
  8
0
 10
-34.3164
 20
56.0469
 11
-34.9506
 21
55.7725
  0
LINE
  8
0
 10
-34.9506
 20
55.7725
 11
-35.6008
 21
55.5384
  0
LINE
  8
0
 10
-35.6008
 20
55.5384
 11
-36.2644
 21
55.3456
  0
LINE
  8
0
 10
-36.2644
 20
55.3456
 11
-36.9388
 21
55.1949
  0
LINE
  8
0
 10
-36.9388
 20
55.1949
 11
-37.6213
 21
55.0867
  0
LINE
  8
0
 10
-37.6213
 20
55.0867
 11
-38.3093
 21
55.0217
  0
LINE
  8
0
 10
-38.3093
 20
55.0217
 11
-39
 21
55
  0
LINE
  8
0
 10
-39
 20
55
 11
-39.6907
 21
55.0217
  0
LINE
  8
0
 10
227.843
 20
63.5049
 11
227.687
 21
63.5197
  0
LINE
  8
0
 10
227.687
 20
63.5197
 11
227.532
 21
63.5443
  0
LINE
  8
0
 10
227.532
 20
63.5443
 11
227.378
 21
63.5785
  0
LINE
  8
0
 10
227.378
 20
63.5785
 11
227.227
 21
63.6223
  0
LINE
  8
0
 10
227.227
 20
63.6223
 11
227.08
 21
63.6756
  0
LINE
  8
0
 10
227.08
 20
63.6756
 11
226.936
 21
63.7379
  0
LINE
  8
0
 10
226.936
 20
63.7379
 11
226.796
 21
63.8092
  0
LINE
  8
0
 10
226.796
 20
63.8092
 11
226.66
 21
63.8892
  0
LINE
  8
0
 10
226.66
 20
63.8892
 11
226.531
 21
63.9774
  0
LINE
  8
0
 10
226.531
 20
63.9774
 11
226.406
 21
64.0737
  0
LINE
  8
0
 10
226.406
 20
64.0737
 11
226.289
 21
64.1776
  0
LINE
  8
0
 10
226.289
 20
64.1776
 11
226.178
 21
64.2886
  0
LINE
  8
0
 10
226.178
 20
64.2886
 11
226.074
 21
64.4064
  0
LINE
  8
0
 10
226.074
 20
64.4064
 11
225.977
 21
64.5305
  0
LINE
  8
0
 10
225.977
 20
64.5305
 11
225.889
 21
64.6604
  0
LINE
  8
0
 10
225.889
 20
64.6604
 11
225.809
 21
64.7956
  0
LINE
  8
0
 10
225.809
 20
64.7956
 11
225.738
 21
64.9355
  0
LINE
  8
0
 10
225.738
 20
64.9355
 11
225.676
 21
65.0797
  0
LINE
  8
0
 10
225.676
 20
65.0797
 11
225.622
 21
65.2274
  0
LINE
  8
0
 10
225.622
 20
65.2274
 11
225.579
 21
65.3783
  0
LINE
  8
0
 10
225.579
 20
65.3783
 11
225.544
 21
65.5315
  0
LINE
  8
0
 10
225.544
 20
65.5315
 11
225.52
 21
65.6867
  0
LINE
  8
0
 10
225.52
 20
65.6867
 11
225.505
 21
65.843
  0
LINE
  8
0
 10
225.505
 20
65.843
 11
225.5
 21
66
  0
LINE
  8
0
 10
225.5
 20
66
 11
225.505
 21
66.157
  0
LINE
  8
0
 10
225.505
 20
66.157
 11
225.52
 21
66.3133
  0
LINE
  8
0
 10
225.52
 20
66.3133
 11
225.544
 21
66.4684
  0
LINE
  8
0
 10
225.544
 20
66.4684
 11
225.579
 21
66.6217
  0
LINE
  8
0
 10
225.579
 20
66.6217
 11
225.622
 21
66.7725
  0
LINE
  8
0
 10
225.622
 20
66.7725
 11
225.676
 21
66.9203
  0
LINE
  8
0
 10
225.676
 20
66.9203
 11
225.738
 21
67.0644
  0
LINE
  8
0
 10
225.738
 20
67.0644
 11
225.809
 21
67.2044
  0
LINE
  8
0
 10
225.809
 20
67.2044
 11
225.889
 21
67.3396
  0
LINE
  8
0
 10
225.889
 20
67.3396
 11
225.977
 21
67.4695
  0
LINE
  8
0
 10
225.977
 20
67.4695
 11
226.074
 21
67.5936
  0
LINE
  8
0
 10
226.074
 20
67.5936
 11
226.178
 21
67.7114
  0
LINE
  8
0
 10
226.178
 20
67.7114
 11
226.289
 21
67.8224
  0
LINE
  8
0
 10
226.289
 20
67.8224
 11
226.406
 21
67.9263
  0
LINE
  8
0
 10
226.406
 20
67.9263
 11
226.531
 21
68.0225
  0
LINE
  8
0
 10
226.531
 20
68.0225
 11
226.66
 21
68.1108
  0
LINE
  8
0
 10
226.66
 20
68.1108
 11
226.796
 21
68.1908
  0
LINE
  8
0
 10
226.796
 20
68.1908
 11
226.936
 21
68.2621
  0
LINE
  8
0
 10
226.936
 20
68.2621
 11
227.08
 21
68.3244
  0
LINE
  8
0
 10
227.08
 20
68.3244
 11
227.227
 21
68.3776
  0
LINE
  8
0
 10
227.227
 20
68.3776
 11
227.378
 21
68.4214
  0
LINE
  8
0
 10
227.378
 20
68.4214
 11
227.532
 21
68.4557
  0
LINE
  8
0
 10
227.532
 20
68.4557
 11
227.687
 21
68.4803
  0
LINE
  8
0
 10
227.687
 20
68.4803
 11
227.843
 21
68.4951
  0
LINE
  8
0
 10
227.843
 20
68.4951
 11
228
 21
68.5
  0
LINE
  8
0
 10
228
 20
68.5
 11
228.157
 21
68.4951
  0
LINE
  8
0
 10
228.157
 20
68.4951
 11
228.313
 21
68.4803
  0
LINE
  8
0
 10
228.313
 20
68.4803
 11
228.468
 21
68.4557
  0
LINE
  8
0
 10
228.468
 20
68.4557
 11
228.622
 21
68.4214
  0
LINE
  8
0
 10
228.622
 20
68.4214
 11
228.773
 21
68.3776
  0
LINE
  8
0
 10
228.773
 20
68.3776
 11
228.92
 21
68.3244
  0
LINE
  8
0
 10
228.92
 20
68.3244
 11
229.064
 21
68.2621
  0
LINE
  8
0
 10
229.064
 20
68.2621
 11
229.204
 21
68.1908
  0
LINE
  8
0
 10
229.204
 20
68.1908
 11
229.34
 21
68.1108
  0
LINE
  8
0
 10
229.34
 20
68.1108
 11
229.469
 21
68.0225
  0
LINE
  8
0
 10
229.469
 20
68.0225
 11
229.594
 21
67.9263
  0
LINE
  8
0
 10
229.594
 20
67.9263
 11
229.711
 21
67.8224
  0
LINE
  8
0
 10
229.711
 20
67.8224
 11
229.822
 21
67.7114
  0
LINE
  8
0
 10
229.822
 20
67.7114
 11
229.926
 21
67.5936
  0
LINE
  8
0
 10
229.926
 20
67.5936
 11
230.023
 21
67.4695
  0
LINE
  8
0
 10
230.023
 20
67.4695
 11
230.111
 21
67.3396
  0
LINE
  8
0
 10
230.111
 20
67.3396
 11
230.191
 21
67.2044
  0
LINE
  8
0
 10
230.191
 20
67.2044
 11
230.262
 21
67.0644
  0
LINE
  8
0
 10
230.262
 20
67.0644
 11
230.324
 21
66.9203
  0
LINE
  8
0
 10
230.324
 20
66.9203
 11
230.378
 21
66.7725
  0
LINE
  8
0
 10
230.378
 20
66.7725
 11
230.421
 21
66.6217
  0
LINE
  8
0
 10
230.421
 20
66.6217
 11
230.456
 21
66.4684
  0
LINE
  8
0
 10
230.456
 20
66.4684
 11
230.48
 21
66.3133
  0
LINE
  8
0
 10
230.48
 20
66.3133
 11
230.495
 21
66.157
  0
LINE
  8
0
 10
230.495
 20
66.157
 11
230.5
 21
66
  0
LINE
  8
0
 10
230.5
 20
66
 11
230.495
 21
65.843
  0
LINE
  8
0
 10
230.495
 20
65.843
 11
230.48
 21
65.6867
  0
LINE
  8
0
 10
230.48
 20
65.6867
 11
230.456
 21
65.5315
  0
LINE
  8
0
 10
230.456
 20
65.5315
 11
230.421
 21
65.3783
  0
LINE
  8
0
 10
230.421
 20
65.3783
 11
230.378
 21
65.2274
  0
LINE
  8
0
 10
230.378
 20
65.2274
 11
230.324
 21
65.0797
  0
LINE
  8
0
 10
230.324
 20
65.0797
 11
230.262
 21
64.9355
  0
LINE
  8
0
 10
230.262
 20
64.9355
 11
230.191
 21
64.7956
  0
LINE
  8
0
 10
230.191
 20
64.7956
 11
230.111
 21
64.6604
  0
LINE
  8
0
 10
230.111
 20
64.6604
 11
230.023
 21
64.5305
  0
LINE
  8
0
 10
230.023
 20
64.5305
 11
229.926
 21
64.4064
  0
LINE
  8
0
 10
229.926
 20
64.4064
 11
229.822
 21
64.2886
  0
LINE
  8
0
 10
229.822
 20
64.2886
 11
229.711
 21
64.1776
  0
LINE
  8
0
 10
229.711
 20
64.1776
 11
229.594
 21
64.0737
  0
LINE
  8
0
 10
229.594
 20
64.0737
 11
229.469
 21
63.9774
  0
LINE
  8
0
 10
229.469
 20
63.9774
 11
229.34
 21
63.8892
  0
LINE
  8
0
 10
229.34
 20
63.8892
 11
229.204
 21
63.8092
  0
LINE
  8
0
 10
229.204
 20
63.8092
 11
229.064
 21
63.7379
  0
LINE
  8
0
 10
229.064
 20
63.7379
 11
228.92
 21
63.6756
  0
LINE
  8
0
 10
228.92
 20
63.6756
 11
228.773
 21
63.6223
  0
LINE
  8
0
 10
228.773
 20
63.6223
 11
228.622
 21
63.5785
  0
LINE
  8
0
 10
228.622
 20
63.5785
 11
228.468
 21
63.5443
  0
LINE
  8
0
 10
228.468
 20
63.5443
 11
228.313
 21
63.5197
  0
LINE
  8
0
 10
228.313
 20
63.5197
 11
228.157
 21
63.5049
  0
LINE
  8
0
 10
228.157
 20
63.5049
 11
228
 21
63.5
  0
LINE
  8
0
 10
228
 20
63.5
 11
227.843
 21
63.5049
  0
LINE
  8
0
 10
-54.5942
 20
49.003
 11
-54.688
 21
49.0118
  0
LINE
  8
0
 10
-54.688
 20
49.0118
 11
-54.7811
 21
49.0266
  0
LINE
  8
0
 10
-54.7811
 20
49.0266
 11
-54.873
 21
49.0471
  0
LINE
  8
0
 10
-54.873
 20
49.0471
 11
-54.9635
 21
49.0734
  0
LINE
  8
0
 10
-54.9635
 20
49.0734
 11
-55.0522
 21
49.1053
  0
LINE
  8
0
 10
-55.0522
 20
49.1053
 11
-55.1387
 21
49.1428
  0
LINE
  8
0
 10
-55.1387
 20
49.1428
 11
-55.2226
 21
49.1855
  0
LINE
  8
0
 10
-55.2226
 20
49.1855
 11
-55.3037
 21
49.2335
  0
LINE
  8
0
 10
-55.3037
 20
49.2335
 11
-55.3817
 21
49.2865
  0
LINE
  8
0
 10
-55.3817
 20
49.2865
 11
-55.4561
 21
49.3442
  0
LINE
  8
0
 10
-55.4561
 20
49.3442
 11
-55.5268
 21
49.4066
  0
LINE
  8
0
 10
-55.5268
 20
49.4066
 11
-55.5934
 21
49.4732
  0
LINE
  8
0
 10
-55.5934
 20
49.4732
 11
-55.6558
 21
49.5439
  0
LINE
  8
0
 10
-55.6558
 20
49.5439
 11
-55.7135
 21
49.6183
  0
LINE
  8
0
 10
-55.7135
 20
49.6183
 11
-55.7665
 21
49.6963
  0
LINE
  8
0
 10
-55.7665
 20
49.6963
 11
-55.8145
 21
49.7774
  0
LINE
  8
0
 10
-55.8145
 20
49.7774
 11
-55.8572
 21
49.8613
  0
LINE
  8
0
 10
-55.8572
 20
49.8613
 11
-55.8947
 21
49.9478
  0
LINE
  8
0
 10
-55.8947
 20
49.9478
 11
-55.9266
 21
50.0365
  0
LINE
  8
0
 10
-55.9266
 20
50.0365
 11
-55.9529
 21
50.127
  0
LINE
  8
0
 10
-55.9529
 20
50.127
 11
-55.9734
 21
50.2189
  0
LINE
  8
0
 10
-55.9734
 20
50.2189
 11
-55.9882
 21
50.312
  0
LINE
  8
0
 10
-55.9882
 20
50.312
 11
-55.997
 21
50.4058
  0
LINE
  8
0
 10
-55.997
 20
50.4058
 11
-56
 21
50.5
  0
LINE
  8
0
 10
-56
 20
50.5
 11
-55.997
 21
50.5942
  0
LINE
  8
0
 10
-55.997
 20
50.5942
 11
-55.9882
 21
50.688
  0
LINE
  8
0
 10
-55.9882
 20
50.688
 11
-55.9734
 21
50.7811
  0
LINE
  8
0
 10
-55.9734
 20
50.7811
 11
-55.9529
 21
50.873
  0
LINE
  8
0
 10
-55.9529
 20
50.873
 11
-55.9266
 21
50.9635
  0
LINE
  8
0
 10
-55.9266
 20
50.9635
 11
-55.8947
 21
51.0522
  0
LINE
  8
0
 10
-55.8947
 20
51.0522
 11
-55.8572
 21
51.1387
  0
LINE
  8
0
 10
-55.8572
 20
51.1387
 11
-55.8145
 21
51.2226
  0
LINE
  8
0
 10
-55.8145
 20
51.2226
 11
-55.7665
 21
51.3037
  0
LINE
  8
0
 10
-55.7665
 20
51.3037
 11
-55.7135
 21
51.3817
  0
LINE
  8
0
 10
-55.7135
 20
51.3817
 11
-55.6558
 21
51.4561
  0
LINE
  8
0
 10
-55.6558
 20
51.4561
 11
-55.5934
 21
51.5268
  0
LINE
  8
0
 10
-55.5934
 20
51.5268
 11
-55.5268
 21
51.5935
  0
LINE
  8
0
 10
-55.5268
 20
51.5935
 11
-55.4561
 21
51.6558
  0
LINE
  8
0
 10
-55.4561
 20
51.6558
 11
-55.3817
 21
51.7135
  0
LINE
  8
0
 10
-55.3817
 20
51.7135
 11
-55.3037
 21
51.7665
  0
LINE
  8
0
 10
-55.3037
 20
51.7665
 11
-55.2226
 21
51.8145
  0
LINE
  8
0
 10
-55.2226
 20
51.8145
 11
-55.1387
 21
51.8573
  0
LINE
  8
0
 10
-55.1387
 20
51.8573
 11
-55.0522
 21
51.8947
  0
LINE
  8
0
 10
-55.0522
 20
51.8947
 11
-54.9635
 21
51.9266
  0
LINE
  8
0
 10
-54.9635
 20
51.9266
 11
-54.873
 21
51.9529
  0
LINE
  8
0
 10
-54.873
 20
51.9529
 11
-54.7811
 21
51.9734
  0
LINE
  8
0
 10
-54.7811
 20
51.9734
 11
-54.688
 21
51.9882
  0
LINE
  8
0
 10
-54.688
 20
51.9882
 11
-54.5942
 21
51.9971
  0
LINE
  8
0
 10
-54.5942
 20
51.9971
 11
-54.5
 21
52
  0
LINE
  8
0
 10
-54.5
 20
52
 11
-54.4058
 21
51.9971
  0
LINE
  8
0
 10
-54.4058
 20
51.9971
 11
-54.312
 21
51.9882
  0
LINE
  8
0
 10
-54.312
 20
51.9882
 11
-54.2189
 21
51.9734
  0
LINE
  8
0
 10
-54.2189
 20
51.9734
 11
-54.127
 21
51.9529
  0
LINE
  8
0
 10
-54.127
 20
51.9529
 11
-54.0365
 21
51.9266
  0
LINE
  8
0
 10
-54.0365
 20
51.9266
 11
-53.9478
 21
51.8947
  0
LINE
  8
0
 10
-53.9478
 20
51.8947
 11
-53.8613
 21
51.8573
  0
LINE
  8
0
 10
-53.8613
 20
51.8573
 11
-53.7774
 21
51.8145
  0
LINE
  8
0
 10
-53.7774
 20
51.8145
 11
-53.6963
 21
51.7665
  0
LINE
  8
0
 10
-53.6963
 20
51.7665
 11
-53.6183
 21
51.7135
  0
LINE
  8
0
 10
-53.6183
 20
51.7135
 11
-53.5439
 21
51.6558
  0
LINE
  8
0
 10
-53.5439
 20
51.6558
 11
-53.4732
 21
51.5935
  0
LINE
  8
0
 10
-53.4732
 20
51.5935
 11
-53.4065
 21
51.5268
  0
LINE
  8
0
 10
-53.4065
 20
51.5268
 11
-53.3442
 21
51.4561
  0
LINE
  8
0
 10
-53.3442
 20
51.4561
 11
-53.2865
 21
51.3817
  0
LINE
  8
0
 10
-53.2865
 20
51.3817
 11
-53.2335
 21
51.3037
  0
LINE
  8
0
 10
-53.2335
 20
51.3037
 11
-53.1855
 21
51.2226
  0
LINE
  8
0
 10
-53.1855
 20
51.2226
 11
-53.1427
 21
51.1387
  0
LINE
  8
0
 10
-53.1427
 20
51.1387
 11
-53.1053
 21
51.0522
  0
LINE
  8
0
 10
-53.1053
 20
51.0522
 11
-53.0734
 21
50.9635
  0
LINE
  8
0
 10
-53.0734
 20
50.9635
 11
-53.0471
 21
50.873
  0
LINE
  8
0
 10
-53.0471
 20
50.873
 11
-53.0266
 21
50.7811
  0
LINE
  8
0
 10
-53.0266
 20
50.7811
 11
-53.0118
 21
50.688
  0
LINE
  8
0
 10
-53.0118
 20
50.688
 11
-53.0029
 21
50.5942
  0
LINE
  8
0
 10
-53.0029
 20
50.5942
 11
-53
 21
50.5
  0
LINE
  8
0
 10
-53
 20
50.5
 11
-53.0029
 21
50.4058
  0
LINE
  8
0
 10
-53.0029
 20
50.4058
 11
-53.0118
 21
50.312
  0
LINE
  8
0
 10
-53.0118
 20
50.312
 11
-53.0266
 21
50.2189
  0
LINE
  8
0
 10
-53.0266
 20
50.2189
 11
-53.0471
 21
50.127
  0
LINE
  8
0
 10
-53.0471
 20
50.127
 11
-53.0734
 21
50.0365
  0
LINE
  8
0
 10
-53.0734
 20
50.0365
 11
-53.1053
 21
49.9478
  0
LINE
  8
0
 10
-53.1053
 20
49.9478
 11
-53.1427
 21
49.8613
  0
LINE
  8
0
 10
-53.1427
 20
49.8613
 11
-53.1855
 21
49.7774
  0
LINE
  8
0
 10
-53.1855
 20
49.7774
 11
-53.2335
 21
49.6963
  0
LINE
  8
0
 10
-53.2335
 20
49.6963
 11
-53.2865
 21
49.6183
  0
LINE
  8
0
 10
-53.2865
 20
49.6183
 11
-53.3442
 21
49.5439
  0
LINE
  8
0
 10
-53.3442
 20
49.5439
 11
-53.4065
 21
49.4732
  0
LINE
  8
0
 10
-53.4065
 20
49.4732
 11
-53.4732
 21
49.4066
  0
LINE
  8
0
 10
-53.4732
 20
49.4066
 11
-53.5439
 21
49.3442
  0
LINE
  8
0
 10
-53.5439
 20
49.3442
 11
-53.6183
 21
49.2865
  0
LINE
  8
0
 10
-53.6183
 20
49.2865
 11
-53.6963
 21
49.2335
  0
LINE
  8
0
 10
-53.6963
 20
49.2335
 11
-53.7774
 21
49.1855
  0
LINE
  8
0
 10
-53.7774
 20
49.1855
 11
-53.8613
 21
49.1428
  0
LINE
  8
0
 10
-53.8613
 20
49.1428
 11
-53.9478
 21
49.1053
  0
LINE
  8
0
 10
-53.9478
 20
49.1053
 11
-54.0365
 21
49.0734
  0
LINE
  8
0
 10
-54.0365
 20
49.0734
 11
-54.127
 21
49.0471
  0
LINE
  8
0
 10
-54.127
 20
49.0471
 11
-54.2189
 21
49.0266
  0
LINE
  8
0
 10
-54.2189
 20
49.0266
 11
-54.312
 21
49.0118
  0
LINE
  8
0
 10
-54.312
 20
49.0118
 11
-54.4058
 21
49.003
  0
LINE
  8
0
 10
-54.4058
 20
49.003
 11
-54.5
 21
49
  0
LINE
  8
0
 10
-54.5
 20
49
 11
-54.5942
 21
49.003
  0
LINE
  8
0
 10
-23.5942
 20
49.003
 11
-23.688
 21
49.0118
  0
LINE
  8
0
 10
-23.688
 20
49.0118
 11
-23.7811
 21
49.0266
  0
LINE
  8
0
 10
-23.7811
 20
49.0266
 11
-23.873
 21
49.0471
  0
LINE
  8
0
 10
-23.873
 20
49.0471
 11
-23.9635
 21
49.0734
  0
LINE
  8
0
 10
-23.9635
 20
49.0734
 11
-24.0522
 21
49.1053
  0
LINE
  8
0
 10
-24.0522
 20
49.1053
 11
-24.1387
 21
49.1428
  0
LINE
  8
0
 10
-24.1387
 20
49.1428
 11
-24.2226
 21
49.1855
  0
LINE
  8
0
 10
-24.2226
 20
49.1855
 11
-24.3037
 21
49.2335
  0
LINE
  8
0
 10
-24.3037
 20
49.2335
 11
-24.3817
 21
49.2865
  0
LINE
  8
0
 10
-24.3817
 20
49.2865
 11
-24.4561
 21
49.3442
  0
LINE
  8
0
 10
-24.4561
 20
49.3442
 11
-24.5268
 21
49.4066
  0
LINE
  8
0
 10
-24.5268
 20
49.4066
 11
-24.5935
 21
49.4732
  0
LINE
  8
0
 10
-24.5935
 20
49.4732
 11
-24.6558
 21
49.5439
  0
LINE
  8
0
 10
-24.6558
 20
49.5439
 11
-24.7135
 21
49.6183
  0
LINE
  8
0
 10
-24.7135
 20
49.6183
 11
-24.7665
 21
49.6963
  0
LINE
  8
0
 10
-24.7665
 20
49.6963
 11
-24.8145
 21
49.7774
  0
LINE
  8
0
 10
-24.8145
 20
49.7774
 11
-24.8573
 21
49.8613
  0
LINE
  8
0
 10
-24.8573
 20
49.8613
 11
-24.8947
 21
49.9478
  0
LINE
  8
0
 10
-24.8947
 20
49.9478
 11
-24.9266
 21
50.0365
  0
LINE
  8
0
 10
-24.9266
 20
50.0365
 11
-24.9529
 21
50.127
  0
LINE
  8
0
 10
-24.9529
 20
50.127
 11
-24.9734
 21
50.2189
  0
LINE
  8
0
 10
-24.9734
 20
50.2189
 11
-24.9882
 21
50.312
  0
LINE
  8
0
 10
-24.9882
 20
50.312
 11
-24.9971
 21
50.4058
  0
LINE
  8
0
 10
-24.9971
 20
50.4058
 11
-25
 21
50.5
  0
LINE
  8
0
 10
-25
 20
50.5
 11
-24.9971
 21
50.5942
  0
LINE
  8
0
 10
-24.9971
 20
50.5942
 11
-24.9882
 21
50.688
  0
LINE
  8
0
 10
-24.9882
 20
50.688
 11
-24.9734
 21
50.7811
  0
LINE
  8
0
 10
-24.9734
 20
50.7811
 11
-24.9529
 21
50.873
  0
LINE
  8
0
 10
-24.9529
 20
50.873
 11
-24.9266
 21
50.9635
  0
LINE
  8
0
 10
-24.9266
 20
50.9635
 11
-24.8947
 21
51.0522
  0
LINE
  8
0
 10
-24.8947
 20
51.0522
 11
-24.8573
 21
51.1387
  0
LINE
  8
0
 10
-24.8573
 20
51.1387
 11
-24.8145
 21
51.2226
  0
LINE
  8
0
 10
-24.8145
 20
51.2226
 11
-24.7665
 21
51.3037
  0
LINE
  8
0
 10
-24.7665
 20
51.3037
 11
-24.7135
 21
51.3817
  0
LINE
  8
0
 10
-24.7135
 20
51.3817
 11
-24.6558
 21
51.4561
  0
LINE
  8
0
 10
-24.6558
 20
51.4561
 11
-24.5935
 21
51.5268
  0
LINE
  8
0
 10
-24.5935
 20
51.5268
 11
-24.5268
 21
51.5935
  0
LINE
  8
0
 10
-24.5268
 20
51.5935
 11
-24.4561
 21
51.6558
  0
LINE
  8
0
 10
-24.4561
 20
51.6558
 11
-24.3817
 21
51.7135
  0
LINE
  8
0
 10
-24.3817
 20
51.7135
 11
-24.3037
 21
51.7665
  0
LINE
  8
0
 10
-24.3037
 20
51.7665
 11
-24.2226
 21
51.8145
  0
LINE
  8
0
 10
-24.2226
 20
51.8145
 11
-24.1387
 21
51.8573
  0
LINE
  8
0
 10
-24.1387
 20
51.8573
 11
-24.0522
 21
51.8947
  0
LINE
  8
0
 10
-24.0522
 20
51.8947
 11
-23.9635
 21
51.9266
  0
LINE
  8
0
 10
-23.9635
 20
51.9266
 11
-23.873
 21
51.9529
  0
LINE
  8
0
 10
-23.873
 20
51.9529
 11
-23.7811
 21
51.9734
  0
LINE
  8
0
 10
-23.7811
 20
51.9734
 11
-23.688
 21
51.9882
  0
LINE
  8
0
 10
-23.688
 20
51.9882
 11
-23.5942
 21
51.9971
  0
LINE
  8
0
 10
-23.5942
 20
51.9971
 11
-23.5
 21
52
  0
LINE
  8
0
 10
-23.5
 20
52
 11
-23.4058
 21
51.9971
  0
LINE
  8
0
 10
-23.4058
 20
51.9971
 11
-23.312
 21
51.9882
  0
LINE
  8
0
 10
-23.312
 20
51.9882
 11
-23.2189
 21
51.9734
  0
LINE
  8
0
 10
-23.2189
 20
51.9734
 11
-23.127
 21
51.9529
  0
LINE
  8
0
 10
-23.127
 20
51.9529
 11
-23.0365
 21
51.9266
  0
LINE
  8
0
 10
-23.0365
 20
51.9266
 11
-22.9478
 21
51.8947
  0
LINE
  8
0
 10
-22.9478
 20
51.8947
 11
-22.8613
 21
51.8573
  0
LINE
  8
0
 10
-22.8613
 20
51.8573
 11
-22.7774
 21
51.8145
  0
LINE
  8
0
 10
-22.7774
 20
51.8145
 11
-22.6963
 21
51.7665
  0
LINE
  8
0
 10
-22.6963
 20
51.7665
 11
-22.6183
 21
51.7135
  0
LINE
  8
0
 10
-22.6183
 20
51.7135
 11
-22.5439
 21
51.6558
  0
LINE
  8
0
 10
-22.5439
 20
51.6558
 11
-22.4732
 21
51.5935
  0
LINE
  8
0
 10
-22.4732
 20
51.5935
 11
-22.4066
 21
51.5268
  0
LINE
  8
0
 10
-22.4066
 20
51.5268
 11
-22.3442
 21
51.4561
  0
LINE
  8
0
 10
-22.3442
 20
51.4561
 11
-22.2865
 21
51.3817
  0
LINE
  8
0
 10
-22.2865
 20
51.3817
 11
-22.2335
 21
51.3037
  0
LINE
  8
0
 10
-22.2335
 20
51.3037
 11
-22.1855
 21
51.2226
  0
LINE
  8
0
 10
-22.1855
 20
51.2226
 11
-22.1428
 21
51.1387
  0
LINE
  8
0
 10
-22.1428
 20
51.1387
 11
-22.1053
 21
51.0522
  0
LINE
  8
0
 10
-22.1053
 20
51.0522
 11
-22.0734
 21
50.9635
  0
LINE
  8
0
 10
-22.0734
 20
50.9635
 11
-22.0471
 21
50.873
  0
LINE
  8
0
 10
-22.0471
 20
50.873
 11
-22.0266
 21
50.7811
  0
LINE
  8
0
 10
-22.0266
 20
50.7811
 11
-22.0118
 21
50.688
  0
LINE
  8
0
 10
-22.0118
 20
50.688
 11
-22.003
 21
50.5942
  0
LINE
  8
0
 10
-22.003
 20
50.5942
 11
-22
 21
50.5
  0
LINE
  8
0
 10
-22
 20
50.5
 11
-22.003
 21
50.4058
  0
LINE
  8
0
 10
-22.003
 20
50.4058
 11
-22.0118
 21
50.312
  0
LINE
  8
0
 10
-22.0118
 20
50.312
 11
-22.0266
 21
50.2189
  0
LINE
  8
0
 10
-22.0266
 20
50.2189
 11
-22.0471
 21
50.127
  0
LINE
  8
0
 10
-22.0471
 20
50.127
 11
-22.0734
 21
50.0365
  0
LINE
  8
0
 10
-22.0734
 20
50.0365
 11
-22.1053
 21
49.9478
  0
LINE
  8
0
 10
-22.1053
 20
49.9478
 11
-22.1428
 21
49.8613
  0
LINE
  8
0
 10
-22.1428
 20
49.8613
 11
-22.1855
 21
49.7774
  0
LINE
  8
0
 10
-22.1855
 20
49.7774
 11
-22.2335
 21
49.6963
  0
LINE
  8
0
 10
-22.2335
 20
49.6963
 11
-22.2865
 21
49.6183
  0
LINE
  8
0
 10
-22.2865
 20
49.6183
 11
-22.3442
 21
49.5439
  0
LINE
  8
0
 10
-22.3442
 20
49.5439
 11
-22.4066
 21
49.4732
  0
LINE
  8
0
 10
-22.4066
 20
49.4732
 11
-22.4732
 21
49.4066
  0
LINE
  8
0
 10
-22.4732
 20
49.4066
 11
-22.5439
 21
49.3442
  0
LINE
  8
0
 10
-22.5439
 20
49.3442
 11
-22.6183
 21
49.2865
  0
LINE
  8
0
 10
-22.6183
 20
49.2865
 11
-22.6963
 21
49.2335
  0
LINE
  8
0
 10
-22.6963
 20
49.2335
 11
-22.7774
 21
49.1855
  0
LINE
  8
0
 10
-22.7774
 20
49.1855
 11
-22.8613
 21
49.1428
  0
LINE
  8
0
 10
-22.8613
 20
49.1428
 11
-22.9478
 21
49.1053
  0
LINE
  8
0
 10
-22.9478
 20
49.1053
 11
-23.0365
 21
49.0734
  0
LINE
  8
0
 10
-23.0365
 20
49.0734
 11
-23.127
 21
49.0471
  0
LINE
  8
0
 10
-23.127
 20
49.0471
 11
-23.2189
 21
49.0266
  0
LINE
  8
0
 10
-23.2189
 20
49.0266
 11
-23.312
 21
49.0118
  0
LINE
  8
0
 10
-23.312
 20
49.0118
 11
-23.4058
 21
49.003
  0
LINE
  8
0
 10
-23.4058
 20
49.003
 11
-23.5
 21
49
  0
LINE
  8
0
 10
-23.5
 20
49
 11
-23.5942
 21
49.003
  0
LINE
  8
0
 10
176.384
 20
-33.9926
 11
177.011
 21
-33.9488
  0
LINE
  8
0
 10
177.011
 20
-33.9488
 11
177.634
 21
-33.8656
  0
LINE
  8
0
 10
177.634
 20
-33.8656
 11
178.25
 21
-33.7436
  0
LINE
  8
0
 10
178.25
 20
-33.7436
 11
178.857
 21
-33.5831
  0
LINE
  8
0
 10
178.857
 20
-33.5831
 11
179.453
 21
-33.3848
  0
LINE
  8
0
 10
179.453
 20
-33.3848
 11
180.036
 21
-33.1494
  0
LINE
  8
0
 10
180.036
 20
-33.1494
 11
180.602
 21
-32.8779
  0
LINE
  8
0
 10
180.602
 20
-32.8779
 11
181.151
 21
-32.5714
  0
LINE
  8
0
 10
181.151
 20
-32.5714
 11
181.679
 21
-32.2311
  0
LINE
  8
0
 10
181.679
 20
-32.2311
 11
182.184
 21
-31.8583
  0
LINE
  8
0
 10
182.184
 20
-31.8583
 11
182.666
 21
-31.4545
  0
LINE
  8
0
 10
182.666
 20
-31.4545
 11
183.121
 21
-31.0212
  0
LINE
  8
0
 10
183.121
 20
-31.0212
 11
183.547
 21
-30.5602
  0
LINE
  8
0
 10
183.547
 20
-30.5602
 11
183.944
 21
-30.0734
  0
LINE
  8
0
 10
183.944
 20
-30.0734
 11
184.31
 21
-29.5626
  0
LINE
  8
0
 10
184.31
 20
-29.5626
 11
184.643
 21
-29.0298
  0
LINE
  8
0
 10
184.643
 20
-29.0298
 11
184.942
 21
-28.4772
  0
LINE
  8
0
 10
184.942
 20
-28.4772
 11
185.205
 21
-27.9069
  0
LINE
  8
0
 10
185.205
 20
-27.9069
 11
185.432
 21
-27.3212
  0
LINE
  8
0
 10
185.432
 20
-27.3212
 11
185.622
 21
-26.7224
  0
LINE
  8
0
 10
185.622
 20
-26.7224
 11
185.774
 21
-26.1128
  0
LINE
  8
0
 10
185.774
 20
-26.1128
 11
185.888
 21
-25.4949
  0
LINE
  8
0
 10
185.888
 20
-25.4949
 11
185.962
 21
-24.8711
  0
LINE
  8
0
 10
185.962
 20
-24.8711
 11
185.997
 21
-24.2439
  0
LINE
  8
0
 10
185.997
 20
-24.2439
 11
185.993
 21
-23.6157
  0
LINE
  8
0
 10
185.993
 20
-23.6157
 11
183.989
 21
28.4658
  0
LINE
  8
0
 10
183.989
 20
28.4658
 11
183.94
 21
29.0921
  0
LINE
  8
0
 10
183.94
 20
29.0921
 11
183.852
 21
29.7141
  0
LINE
  8
0
 10
183.852
 20
29.7141
 11
183.725
 21
30.3293
  0
LINE
  8
0
 10
183.725
 20
30.3293
 11
183.559
 21
30.9354
  0
LINE
  8
0
 10
183.559
 20
30.9354
 11
183.356
 21
31.5298
  0
LINE
  8
0
 10
183.356
 20
31.5298
 11
183.116
 21
32.1104
  0
LINE
  8
0
 10
183.116
 20
32.1104
 11
182.84
 21
32.6747
  0
LINE
  8
0
 10
182.84
 20
32.6747
 11
182.529
 21
33.2205
  0
LINE
  8
0
 10
182.529
 20
33.2205
 11
182.185
 21
33.7457
  0
LINE
  8
0
 10
182.185
 20
33.7457
 11
181.808
 21
34.2483
  0
LINE
  8
0
 10
181.808
 20
34.2483
 11
181.4
 21
34.7262
  0
LINE
  8
0
 10
181.4
 20
34.7262
 11
180.963
 21
35.1776
  0
LINE
  8
0
 10
180.963
 20
35.1776
 11
180.498
 21
35.6006
  0
LINE
  8
0
 10
180.498
 20
35.6006
 11
180.008
 21
35.9937
  0
LINE
  8
0
 10
180.008
 20
35.9937
 11
179.495
 21
36.3552
  0
LINE
  8
0
 10
179.495
 20
36.3552
 11
178.959
 21
36.6837
  0
LINE
  8
0
 10
178.959
 20
36.6837
 11
178.404
 21
36.978
  0
LINE
  8
0
 10
178.404
 20
36.978
 11
177.832
 21
37.2368
  0
LINE
  8
0
 10
177.832
 20
37.2368
 11
177.244
 21
37.4591
  0
LINE
  8
0
 10
177.244
 20
37.4591
 11
176.644
 21
37.6442
  0
LINE
  8
0
 10
176.644
 20
37.6442
 11
176.033
 21
37.7912
  0
LINE
  8
0
 10
176.033
 20
37.7912
 11
175.414
 21
37.8995
  0
LINE
  8
0
 10
175.414
 20
37.8995
 11
147.253
 21
41.9211
  0
LINE
  8
0
 10
147.253
 20
41.9211
 11
146.628
 21
41.9803
  0
LINE
  8
0
 10
146.628
 20
41.9803
 11
146
 21
42
  0
LINE
  8
0
 10
146
 20
42
 11
141
 21
41.9996
  0
LINE
  8
0
 10
141
 20
41.9996
 11
141
 21
18
  0
LINE
  8
0
 10
141
 20
18
 11
135
 21
18
  0
LINE
  8
0
 10
135
 20
18
 11
135
 21
41.9991
  0
LINE
  8
0
 10
135
 20
41.9991
 11
105.742
 21
41.9967
  0
LINE
  8
0
 10
105.742
 20
41.9967
 11
105.115
 21
41.9608
  0
LINE
  8
0
 10
105.115
 20
41.9608
 11
104.492
 21
41.8856
  0
LINE
  8
0
 10
104.492
 20
41.8856
 11
103.874
 21
41.7713
  0
LINE
  8
0
 10
103.874
 20
41.7713
 11
103.264
 21
41.6185
  0
LINE
  8
0
 10
103.264
 20
41.6185
 11
102.666
 21
41.4278
  0
LINE
  8
0
 10
102.666
 20
41.4278
 11
102.08
 21
41.1998
  0
LINE
  8
0
 10
102.08
 20
41.1998
 11
101.511
 21
40.9356
  0
LINE
  8
0
 10
101.511
 20
40.9356
 11
100.958
 21
40.636
  0
LINE
  8
0
 10
100.958
 20
40.636
 11
100.426
 21
40.3024
  0
LINE
  8
0
 10
100.426
 20
40.3024
 11
99.9157
 21
39.9361
  0
LINE
  8
0
 10
99.9157
 20
39.9361
 11
69.4735
 21
16.5766
  0
LINE
  8
0
 10
69.4735
 20
16.5766
 11
69.0107
 21
16.1518
  0
LINE
  8
0
 10
69.0107
 20
16.1518
 11
68.5754
 21
15.6989
  0
LINE
  8
0
 10
68.5754
 20
15.6989
 11
68.1694
 21
15.2195
  0
LINE
  8
0
 10
68.1694
 20
15.2195
 11
67.7943
 21
14.7155
  0
LINE
  8
0
 10
67.7943
 20
14.7155
 11
67.4516
 21
14.189
  0
LINE
  8
0
 10
67.4516
 20
14.189
 11
67.1427
 21
13.642
  0
LINE
  8
0
 10
67.1427
 20
13.642
 11
66.8687
 21
13.0767
  0
LINE
  8
0
 10
66.8687
 20
13.0767
 11
66.6308
 21
12.4953
  0
LINE
  8
0
 10
66.6308
 20
12.4953
 11
66.4298
 21
11.9001
  0
LINE
  8
0
 10
66.4298
 20
11.9001
 11
56.3142
 21
-21.5131
  0
LINE
  8
0
 10
56.3142
 20
-21.5131
 11
56.1771
 21
-22.1262
  0
LINE
  8
0
 10
56.1771
 20
-22.1262
 11
56.0789
 21
-22.7467
  0
LINE
  8
0
 10
56.0789
 20
-22.7467
 11
56.0197
 21
-23.3721
  0
LINE
  8
0
 10
56.0197
 20
-23.3721
 11
56
 21
-24
  0
LINE
  8
0
 10
56
 20
-24
 11
56.0197
 21
-24.6279
  0
LINE
  8
0
 10
56.0197
 20
-24.6279
 11
56.0789
 21
-25.2533
  0
LINE
  8
0
 10
56.0789
 20
-25.2533
 11
56.1771
 21
-25.8738
  0
LINE
  8
0
 10
56.1771
 20
-25.8738
 11
56.3142
 21
-26.4869
  0
LINE
  8
0
 10
56.3142
 20
-26.4869
 11
56.4894
 21
-27.0902
  0
LINE
  8
0
 10
56.4894
 20
-27.0902
 11
56.7022
 21
-27.6812
  0
LINE
  8
0
 10
56.7022
 20
-27.6812
 11
56.9517
 21
-28.2578
  0
LINE
  8
0
 10
56.9517
 20
-28.2578
 11
57.2369
 21
-28.8175
  0
LINE
  8
0
 10
57.2369
 20
-28.8175
 11
57.5567
 21
-29.3583
  0
LINE
  8
0
 10
57.5567
 20
-29.3583
 11
57.9098
 21
-29.8778
  0
LINE
  8
0
 10
57.9098
 20
-29.8778
 11
58.2949
 21
-30.3742
  0
LINE
  8
0
 10
58.2949
 20
-30.3742
 11
58.7103
 21
-30.8455
  0
LINE
  8
0
 10
58.7103
 20
-30.8455
 11
59.1545
 21
-31.2897
  0
LINE
  8
0
 10
59.1545
 20
-31.2897
 11
59.6258
 21
-31.7051
  0
LINE
  8
0
 10
59.6258
 20
-31.7051
 11
60.1222
 21
-32.0902
  0
LINE
  8
0
 10
60.1222
 20
-32.0902
 11
60.6417
 21
-32.4433
  0
LINE
  8
0
 10
60.6417
 20
-32.4433
 11
61.1825
 21
-32.7631
  0
LINE
  8
0
 10
61.1825
 20
-32.7631
 11
61.7422
 21
-33.0483
  0
LINE
  8
0
 10
61.7422
 20
-33.0483
 11
62.3188
 21
-33.2978
  0
LINE
  8
0
 10
62.3188
 20
-33.2978
 11
62.9098
 21
-33.5106
  0
LINE
  8
0
 10
62.9098
 20
-33.5106
 11
63.5131
 21
-33.6858
  0
LINE
  8
0
 10
63.5131
 20
-33.6858
 11
64.1262
 21
-33.8229
  0
LINE
  8
0
 10
64.1262
 20
-33.8229
 11
64.7467
 21
-33.9211
  0
LINE
  8
0
 10
64.7467
 20
-33.9211
 11
65.3721
 21
-33.9803
  0
LINE
  8
0
 10
65.3721
 20
-33.9803
 11
66
 21
-34
  0
LINE
  8
0
 10
66
 20
-34
 11
176.384
 21
-33.9926
  0
LINE
  8
0
 10
125.812
 20
33.0059
 11
125.624
 21
33.0237
  0
LINE
  8
0
 10
125.624
 20
33.0237
 11
125.438
 21
33.0531
  0
LINE
  8
0
 10
125.438
 20
33.0531
 11
125.254
 21
33.0942
  0
LINE
  8
0
 10
125.254
 20
33.0942
 11
125.073
 21
33.1468
  0
LINE
  8
0
 10
125.073
 20
33.1468
 11
124.896
 21
33.2107
  0
LINE
  8
0
 10
124.896
 20
33.2107
 11
124.723
 21
33.2855
  0
LINE
  8
0
 10
124.723
 20
33.2855
 11
124.555
 21
33.3711
  0
LINE
  8
0
 10
124.555
 20
33.3711
 11
124.393
 21
33.467
  0
LINE
  8
0
 10
124.393
 20
33.467
 11
124.237
 21
33.5729
  0
LINE
  8
0
 10
124.237
 20
33.5729
 11
124.088
 21
33.6884
  0
LINE
  8
0
 10
124.088
 20
33.6884
 11
123.946
 21
33.8131
  0
LINE
  8
0
 10
123.946
 20
33.8131
 11
123.813
 21
33.9464
  0
LINE
  8
0
 10
123.813
 20
33.9464
 11
123.688
 21
34.0877
  0
LINE
  8
0
 10
123.688
 20
34.0877
 11
123.573
 21
34.2366
  0
LINE
  8
0
 10
123.573
 20
34.2366
 11
123.467
 21
34.3925
  0
LINE
  8
0
 10
123.467
 20
34.3925
 11
123.371
 21
34.5547
  0
LINE
  8
0
 10
123.371
 20
34.5547
 11
123.286
 21
34.7227
  0
LINE
  8
0
 10
123.286
 20
34.7227
 11
123.211
 21
34.8956
  0
LINE
  8
0
 10
123.211
 20
34.8956
 11
123.147
 21
35.0729
  0
LINE
  8
0
 10
123.147
 20
35.0729
 11
123.094
 21
35.2539
  0
LINE
  8
0
 10
123.094
 20
35.2539
 11
123.053
 21
35.4379
  0
LINE
  8
0
 10
123.053
 20
35.4379
 11
123.024
 21
35.624
  0
LINE
  8
0
 10
123.024
 20
35.624
 11
123.006
 21
35.8116
  0
LINE
  8
0
 10
123.006
 20
35.8116
 11
123
 21
36
  0
LINE
  8
0
 10
123
 20
36
 11
123.006
 21
36.1884
  0
LINE
  8
0
 10
123.006
 20
36.1884
 11
123.024
 21
36.376
  0
LINE
  8
0
 10
123.024
 20
36.376
 11
123.053
 21
36.5621
  0
LINE
  8
0
 10
123.053
 20
36.5621
 11
123.094
 21
36.7461
  0
LINE
  8
0
 10
123.094
 20
36.7461
 11
123.147
 21
36.927
  0
LINE
  8
0
 10
123.147
 20
36.927
 11
123.211
 21
37.1044
  0
LINE
  8
0
 10
123.211
 20
37.1044
 11
123.286
 21
37.2773
  0
LINE
  8
0
 10
123.286
 20
37.2773
 11
123.371
 21
37.4453
  0
LINE
  8
0
 10
123.371
 20
37.4453
 11
123.467
 21
37.6075
  0
LINE
  8
0
 10
123.467
 20
37.6075
 11
123.573
 21
37.7634
  0
LINE
  8
0
 10
123.573
 20
37.7634
 11
123.688
 21
37.9123
  0
LINE
  8
0
 10
123.688
 20
37.9123
 11
123.813
 21
38.0536
  0
LINE
  8
0
 10
123.813
 20
38.0536
 11
123.946
 21
38.1869
  0
LINE
  8
0
 10
123.946
 20
38.1869
 11
124.088
 21
38.3115
  0
LINE
  8
0
 10
124.088
 20
38.3115
 11
124.237
 21
38.427
  0
LINE
  8
0
 10
124.237
 20
38.427
 11
124.393
 21
38.533
  0
LINE
  8
0
 10
124.393
 20
38.533
 11
124.555
 21
38.6289
  0
LINE
  8
0
 10
124.555
 20
38.6289
 11
124.723
 21
38.7145
  0
LINE
  8
0
 10
124.723
 20
38.7145
 11
124.896
 21
38.7893
  0
LINE
  8
0
 10
124.896
 20
38.7893
 11
125.073
 21
38.8532
  0
LINE
  8
0
 10
125.073
 20
38.8532
 11
125.254
 21
38.9057
  0
LINE
  8
0
 10
125.254
 20
38.9057
 11
125.438
 21
38.9469
  0
LINE
  8
0
 10
125.438
 20
38.9469
 11
125.624
 21
38.9763
  0
LINE
  8
0
 10
125.624
 20
38.9763
 11
125.812
 21
38.9941
  0
LINE
  8
0
 10
125.812
 20
38.9941
 11
126
 21
39
  0
LINE
  8
0
 10
126
 20
39
 11
126.188
 21
38.9941
  0
LINE
  8
0
 10
126.188
 20
38.9941
 11
126.376
 21
38.9763
  0
LINE
  8
0
 10
126.376
 20
38.9763
 11
126.562
 21
38.9469
  0
LINE
  8
0
 10
126.562
 20
38.9469
 11
126.746
 21
38.9057
  0
LINE
  8
0
 10
126.746
 20
38.9057
 11
126.927
 21
38.8532
  0
LINE
  8
0
 10
126.927
 20
38.8532
 11
127.104
 21
38.7893
  0
LINE
  8
0
 10
127.104
 20
38.7893
 11
127.277
 21
38.7145
  0
LINE
  8
0
 10
127.277
 20
38.7145
 11
127.445
 21
38.6289
  0
LINE
  8
0
 10
127.445
 20
38.6289
 11
127.607
 21
38.533
  0
LINE
  8
0
 10
127.607
 20
38.533
 11
127.763
 21
38.427
  0
LINE
  8
0
 10
127.763
 20
38.427
 11
127.912
 21
38.3115
  0
LINE
  8
0
 10
127.912
 20
38.3115
 11
128.054
 21
38.1869
  0
LINE
  8
0
 10
128.054
 20
38.1869
 11
128.187
 21
38.0536
  0
LINE
  8
0
 10
128.187
 20
38.0536
 11
128.312
 21
37.9123
  0
LINE
  8
0
 10
128.312
 20
37.9123
 11
128.427
 21
37.7634
  0
LINE
  8
0
 10
128.427
 20
37.7634
 11
128.533
 21
37.6075
  0
LINE
  8
0
 10
128.533
 20
37.6075
 11
128.629
 21
37.4453
  0
LINE
  8
0
 10
128.629
 20
37.4453
 11
128.714
 21
37.2773
  0
LINE
  8
0
 10
128.714
 20
37.2773
 11
128.789
 21
37.1044
  0
LINE
  8
0
 10
128.789
 20
37.1044
 11
128.853
 21
36.927
  0
LINE
  8
0
 10
128.853
 20
36.927
 11
128.906
 21
36.7461
  0
LINE
  8
0
 10
128.906
 20
36.7461
 11
128.947
 21
36.5621
  0
LINE
  8
0
 10
128.947
 20
36.5621
 11
128.976
 21
36.376
  0
LINE
  8
0
 10
128.976
 20
36.376
 11
128.994
 21
36.1884
  0
LINE
  8
0
 10
128.994
 20
36.1884
 11
129
 21
36
  0
LINE
  8
0
 10
129
 20
36
 11
128.994
 21
35.8116
  0
LINE
  8
0
 10
128.994
 20
35.8116
 11
128.976
 21
35.624
  0
LINE
  8
0
 10
128.976
 20
35.624
 11
128.947
 21
35.4379
  0
LINE
  8
0
 10
128.947
 20
35.4379
 11
128.906
 21
35.2539
  0
LINE
  8
0
 10
128.906
 20
35.2539
 11
128.853
 21
35.0729
  0
LINE
  8
0
 10
128.853
 20
35.0729
 11
128.789
 21
34.8956
  0
LINE
  8
0
 10
128.789
 20
34.8956
 11
128.714
 21
34.7227
  0
LINE
  8
0
 10
128.714
 20
34.7227
 11
128.629
 21
34.5547
  0
LINE
  8
0
 10
128.629
 20
34.5547
 11
128.533
 21
34.3925
  0
LINE
  8
0
 10
128.533
 20
34.3925
 11
128.427
 21
34.2366
  0
LINE
  8
0
 10
128.427
 20
34.2366
 11
128.312
 21
34.0877
  0
LINE
  8
0
 10
128.312
 20
34.0877
 11
128.187
 21
33.9464
  0
LINE
  8
0
 10
128.187
 20
33.9464
 11
128.054
 21
33.8131
  0
LINE
  8
0
 10
128.054
 20
33.8131
 11
127.912
 21
33.6884
  0
LINE
  8
0
 10
127.912
 20
33.6884
 11
127.763
 21
33.5729
  0
LINE
  8
0
 10
127.763
 20
33.5729
 11
127.607
 21
33.467
  0
LINE
  8
0
 10
127.607
 20
33.467
 11
127.445
 21
33.3711
  0
LINE
  8
0
 10
127.445
 20
33.3711
 11
127.277
 21
33.2855
  0
LINE
  8
0
 10
127.277
 20
33.2855
 11
127.104
 21
33.2107
  0
LINE
  8
0
 10
127.104
 20
33.2107
 11
126.927
 21
33.1468
  0
LINE
  8
0
 10
126.927
 20
33.1468
 11
126.746
 21
33.0942
  0
LINE
  8
0
 10
126.746
 20
33.0942
 11
126.562
 21
33.0531
  0
LINE
  8
0
 10
126.562
 20
33.0531
 11
126.376
 21
33.0237
  0
LINE
  8
0
 10
126.376
 20
33.0237
 11
126.188
 21
33.0059
  0
LINE
  8
0
 10
126.188
 20
33.0059
 11
126
 21
33
  0
LINE
  8
0
 10
126
 20
33
 11
125.812
 21
33.0059
  0
LINE
  8
0
 10
122.5
 20
7
 11
122.374
 21
7.00395
  0
LINE
  8
0
 10
122.374
 20
7.00395
 11
122.249
 21
7.01578
  0
LINE
  8
0
 10
122.249
 20
7.01578
 11
122.125
 21
7.03543
  0
LINE
  8
0
 10
122.125
 20
7.03543
 11
122.003
 21
7.06284
  0
LINE
  8
0
 10
122.003
 20
7.06284
 11
121.882
 21
7.0979
  0
LINE
  8
0
 10
121.882
 20
7.0979
 11
121.764
 21
7.14046
  0
LINE
  8
0
 10
121.764
 20
7.14046
 11
121.648
 21
7.19035
  0
LINE
  8
0
 10
121.648
 20
7.19035
 11
121.536
 21
7.24739
  0
LINE
  8
0
 10
121.536
 20
7.24739
 11
121.428
 21
7.31136
  0
LINE
  8
0
 10
121.428
 20
7.31136
 11
121.324
 21
7.38197
  0
LINE
  8
0
 10
121.324
 20
7.38197
 11
121.225
 21
7.45898
  0
LINE
  8
0
 10
121.225
 20
7.45898
 11
121.131
 21
7.54207
  0
LINE
  8
0
 10
121.131
 20
7.54207
 11
121.042
 21
7.63092
  0
LINE
  8
0
 10
121.042
 20
7.63092
 11
120.959
 21
7.72516
  0
LINE
  8
0
 10
120.959
 20
7.72516
 11
120.882
 21
7.82443
  0
LINE
  8
0
 10
120.882
 20
7.82443
 11
120.811
 21
7.92836
  0
LINE
  8
0
 10
120.811
 20
7.92836
 11
120.747
 21
8.0365
  0
LINE
  8
0
 10
120.747
 20
8.0365
 11
120.69
 21
8.14845
  0
LINE
  8
0
 10
120.69
 20
8.14845
 11
120.64
 21
8.26376
  0
LINE
  8
0
 10
120.64
 20
8.26376
 11
120.598
 21
8.38197
  0
LINE
  8
0
 10
120.598
 20
8.38197
 11
120.563
 21
8.50262
  0
LINE
  8
0
 10
120.563
 20
8.50262
 11
120.535
 21
8.62524
  0
LINE
  8
0
 10
120.535
 20
8.62524
 11
120.516
 21
8.74934
  0
LINE
  8
0
 10
120.516
 20
8.74934
 11
120.504
 21
8.87442
  0
LINE
  8
0
 10
120.504
 20
8.87442
 11
120.5
 21
9
  0
LINE
  8
0
 10
120.5
 20
9
 11
120.5
 21
27
  0
LINE
  8
0
 10
120.5
 20
27
 11
120.504
 21
27.1256
  0
LINE
  8
0
 10
120.504
 20
27.1256
 11
120.516
 21
27.2507
  0
LINE
  8
0
 10
120.516
 20
27.2507
 11
120.535
 21
27.3748
  0
LINE
  8
0
 10
120.535
 20
27.3748
 11
120.563
 21
27.4974
  0
LINE
  8
0
 10
120.563
 20
27.4974
 11
120.598
 21
27.618
  0
LINE
  8
0
 10
120.598
 20
27.618
 11
120.64
 21
27.7362
  0
LINE
  8
0
 10
120.64
 20
27.7362
 11
120.69
 21
27.8515
  0
LINE
  8
0
 10
120.69
 20
27.8515
 11
120.747
 21
27.9635
  0
LINE
  8
0
 10
120.747
 20
27.9635
 11
120.811
 21
28.0716
  0
LINE
  8
0
 10
120.811
 20
28.0716
 11
120.882
 21
28.1756
  0
LINE
  8
0
 10
120.882
 20
28.1756
 11
120.959
 21
28.2748
  0
LINE
  8
0
 10
120.959
 20
28.2748
 11
121.042
 21
28.3691
  0
LINE
  8
0
 10
121.042
 20
28.3691
 11
121.131
 21
28.4579
  0
LINE
  8
0
 10
121.131
 20
28.4579
 11
121.225
 21
28.541
  0
LINE
  8
0
 10
121.225
 20
28.541
 11
121.324
 21
28.618
  0
LINE
  8
0
 10
121.324
 20
28.618
 11
121.428
 21
28.6886
  0
LINE
  8
0
 10
121.428
 20
28.6886
 11
121.536
 21
28.7526
  0
LINE
  8
0
 10
121.536
 20
28.7526
 11
121.648
 21
28.8096
  0
LINE
  8
0
 10
121.648
 20
28.8096
 11
121.764
 21
28.8595
  0
LINE
  8
0
 10
121.764
 20
28.8595
 11
121.882
 21
28.9021
  0
LINE
  8
0
 10
121.882
 20
28.9021
 11
122.003
 21
28.9372
  0
LINE
  8
0
 10
122.003
 20
28.9372
 11
122.125
 21
28.9646
  0
LINE
  8
0
 10
122.125
 20
28.9646
 11
122.249
 21
28.9842
  0
LINE
  8
0
 10
122.249
 20
28.9842
 11
122.374
 21
28.996
  0
LINE
  8
0
 10
122.374
 20
28.996
 11
122.5
 21
29
  0
LINE
  8
0
 10
122.5
 20
29
 11
129.5
 21
29
  0
LINE
  8
0
 10
129.5
 20
29
 11
129.626
 21
28.996
  0
LINE
  8
0
 10
129.626
 20
28.996
 11
129.751
 21
28.9842
  0
LINE
  8
0
 10
129.751
 20
28.9842
 11
129.875
 21
28.9646
  0
LINE
  8
0
 10
129.875
 20
28.9646
 11
129.997
 21
28.9372
  0
LINE
  8
0
 10
129.997
 20
28.9372
 11
130.118
 21
28.9021
  0
LINE
  8
0
 10
130.118
 20
28.9021
 11
130.236
 21
28.8595
  0
LINE
  8
0
 10
130.236
 20
28.8595
 11
130.352
 21
28.8096
  0
LINE
  8
0
 10
130.352
 20
28.8096
 11
130.464
 21
28.7526
  0
LINE
  8
0
 10
130.464
 20
28.7526
 11
130.572
 21
28.6886
  0
LINE
  8
0
 10
130.572
 20
28.6886
 11
130.676
 21
28.618
  0
LINE
  8
0
 10
130.676
 20
28.618
 11
130.775
 21
28.541
  0
LINE
  8
0
 10
130.775
 20
28.541
 11
130.869
 21
28.4579
  0
LINE
  8
0
 10
130.869
 20
28.4579
 11
130.958
 21
28.3691
  0
LINE
  8
0
 10
130.958
 20
28.3691
 11
131.041
 21
28.2748
  0
LINE
  8
0
 10
131.041
 20
28.2748
 11
131.118
 21
28.1756
  0
LINE
  8
0
 10
131.118
 20
28.1756
 11
131.189
 21
28.0716
  0
LINE
  8
0
 10
131.189
 20
28.0716
 11
131.253
 21
27.9635
  0
LINE
  8
0
 10
131.253
 20
27.9635
 11
131.31
 21
27.8515
  0
LINE
  8
0
 10
131.31
 20
27.8515
 11
131.36
 21
27.7362
  0
LINE
  8
0
 10
131.36
 20
27.7362
 11
131.402
 21
27.618
  0
LINE
  8
0
 10
131.402
 20
27.618
 11
131.437
 21
27.4974
  0
LINE
  8
0
 10
131.437
 20
27.4974
 11
131.465
 21
27.3748
  0
LINE
  8
0
 10
131.465
 20
27.3748
 11
131.484
 21
27.2507
  0
LINE
  8
0
 10
131.484
 20
27.2507
 11
131.496
 21
27.1256
  0
LINE
  8
0
 10
131.496
 20
27.1256
 11
131.5
 21
27
  0
LINE
  8
0
 10
131.5
 20
27
 11
131.5
 21
9
  0
LINE
  8
0
 10
131.5
 20
9
 11
131.496
 21
8.87442
  0
LINE
  8
0
 10
131.496
 20
8.87442
 11
131.484
 21
8.74934
  0
LINE
  8
0
 10
131.484
 20
8.74934
 11
131.465
 21
8.62524
  0
LINE
  8
0
 10
131.465
 20
8.62524
 11
131.437
 21
8.50262
  0
LINE
  8
0
 10
131.437
 20
8.50262
 11
131.402
 21
8.38197
  0
LINE
  8
0
 10
131.402
 20
8.38197
 11
131.36
 21
8.26376
  0
LINE
  8
0
 10
131.36
 20
8.26376
 11
131.31
 21
8.14845
  0
LINE
  8
0
 10
131.31
 20
8.14845
 11
131.253
 21
8.0365
  0
LINE
  8
0
 10
131.253
 20
8.0365
 11
131.189
 21
7.92836
  0
LINE
  8
0
 10
131.189
 20
7.92836
 11
131.118
 21
7.82443
  0
LINE
  8
0
 10
131.118
 20
7.82443
 11
131.041
 21
7.72516
  0
LINE
  8
0
 10
131.041
 20
7.72516
 11
130.958
 21
7.63092
  0
LINE
  8
0
 10
130.958
 20
7.63092
 11
130.869
 21
7.54207
  0
LINE
  8
0
 10
130.869
 20
7.54207
 11
130.775
 21
7.45898
  0
LINE
  8
0
 10
130.775
 20
7.45898
 11
130.676
 21
7.38197
  0
LINE
  8
0
 10
130.676
 20
7.38197
 11
130.572
 21
7.31136
  0
LINE
  8
0
 10
130.572
 20
7.31136
 11
130.464
 21
7.24739
  0
LINE
  8
0
 10
130.464
 20
7.24739
 11
130.352
 21
7.19035
  0
LINE
  8
0
 10
130.352
 20
7.19035
 11
130.236
 21
7.14046
  0
LINE
  8
0
 10
130.236
 20
7.14046
 11
130.118
 21
7.0979
  0
LINE
  8
0
 10
130.118
 20
7.0979
 11
129.997
 21
7.06284
  0
LINE
  8
0
 10
129.997
 20
7.06284
 11
129.875
 21
7.03543
  0
LINE
  8
0
 10
129.875
 20
7.03543
 11
129.751
 21
7.01578
  0
LINE
  8
0
 10
129.751
 20
7.01578
 11
129.626
 21
7.00395
  0
LINE
  8
0
 10
129.626
 20
7.00395
 11
129.5
 21
7
  0
LINE
  8
0
 10
129.5
 20
7
 11
122.5
 21
7
  0
LINE
  8
0
 10
125.812
 20
-2.99408
 11
125.624
 21
-2.97633
  0
LINE
  8
0
 10
125.624
 20
-2.97633
 11
125.438
 21
-2.94685
  0
LINE
  8
0
 10
125.438
 20
-2.94685
 11
125.254
 21
-2.90575
  0
LINE
  8
0
 10
125.254
 20
-2.90575
 11
125.073
 21
-2.85316
  0
LINE
  8
0
 10
125.073
 20
-2.85316
 11
124.896
 21
-2.78932
  0
LINE
  8
0
 10
124.896
 20
-2.78932
 11
124.723
 21
-2.71448
  0
LINE
  8
0
 10
124.723
 20
-2.71448
 11
124.555
 21
-2.62891
  0
LINE
  8
0
 10
124.555
 20
-2.62891
 11
124.393
 21
-2.53297
  0
LINE
  8
0
 10
124.393
 20
-2.53297
 11
124.237
 21
-2.42705
  0
LINE
  8
0
 10
124.237
 20
-2.42705
 11
124.088
 21
-2.31154
  0
LINE
  8
0
 10
124.088
 20
-2.31154
 11
123.946
 21
-2.1869
  0
LINE
  8
0
 10
123.946
 20
-2.1869
 11
123.813
 21
-2.05363
  0
LINE
  8
0
 10
123.813
 20
-2.05363
 11
123.688
 21
-1.91226
  0
LINE
  8
0
 10
123.688
 20
-1.91226
 11
123.573
 21
-1.76335
  0
LINE
  8
0
 10
123.573
 20
-1.76335
 11
123.467
 21
-1.60747
  0
LINE
  8
0
 10
123.467
 20
-1.60747
 11
123.371
 21
-1.44525
  0
LINE
  8
0
 10
123.371
 20
-1.44525
 11
123.286
 21
-1.27733
  0
LINE
  8
0
 10
123.286
 20
-1.27733
 11
123.211
 21
-1.10437
  0
LINE
  8
0
 10
123.211
 20
-1.10437
 11
123.147
 21
-0.927048
  0
LINE
  8
0
 10
123.147
 20
-0.927048
 11
123.094
 21
-0.746063
  0
LINE
  8
0
 10
123.094
 20
-0.746063
 11
123.053
 21
-0.562134
  0
LINE
  8
0
 10
123.053
 20
-0.562134
 11
123.024
 21
-0.375992
  0
LINE
  8
0
 10
123.024
 20
-0.375992
 11
123.006
 21
-0.18837
  0
LINE
  8
0
 10
123.006
 20
-0.18837
 11
123
 21
1.52588e-005
  0
LINE
  8
0
 10
123
 20
1.52588e-005
 11
123.006
 21
0.188385
  0
LINE
  8
0
 10
123.006
 20
0.188385
 11
123.024
 21
0.376007
  0
LINE
  8
0
 10
123.024
 20
0.376007
 11
123.053
 21
0.562149
  0
LINE
  8
0
 10
123.053
 20
0.562149
 11
123.094
 21
0.746078
  0
LINE
  8
0
 10
123.094
 20
0.746078
 11
123.147
 21
0.927063
  0
LINE
  8
0
 10
123.147
 20
0.927063
 11
123.211
 21
1.10439
  0
LINE
  8
0
 10
123.211
 20
1.10439
 11
123.286
 21
1.27734
  0
LINE
  8
0
 10
123.286
 20
1.27734
 11
123.371
 21
1.44527
  0
LINE
  8
0
 10
123.371
 20
1.44527
 11
123.467
 21
1.60748
  0
LINE
  8
0
 10
123.467
 20
1.60748
 11
123.573
 21
1.76337
  0
LINE
  8
0
 10
123.573
 20
1.76337
 11
123.688
 21
1.91228
  0
LINE
  8
0
 10
123.688
 20
1.91228
 11
123.813
 21
2.05365
  0
LINE
  8
0
 10
123.813
 20
2.05365
 11
123.946
 21
2.18692
  0
LINE
  8
0
 10
123.946
 20
2.18692
 11
124.088
 21
2.31155
  0
LINE
  8
0
 10
124.088
 20
2.31155
 11
124.237
 21
2.42706
  0
LINE
  8
0
 10
124.237
 20
2.42706
 11
124.393
 21
2.53299
  0
LINE
  8
0
 10
124.393
 20
2.53299
 11
124.555
 21
2.62892
  0
LINE
  8
0
 10
124.555
 20
2.62892
 11
124.723
 21
2.71449
  0
LINE
  8
0
 10
124.723
 20
2.71449
 11
124.896
 21
2.78934
  0
LINE
  8
0
 10
124.896
 20
2.78934
 11
125.073
 21
2.85318
  0
LINE
  8
0
 10
125.073
 20
2.85318
 11
125.254
 21
2.90576
  0
LINE
  8
0
 10
125.254
 20
2.90576
 11
125.438
 21
2.94687
  0
LINE
  8
0
 10
125.438
 20
2.94687
 11
125.624
 21
2.97635
  0
LINE
  8
0
 10
125.624
 20
2.97635
 11
125.812
 21
2.99409
  0
LINE
  8
0
 10
125.812
 20
2.99409
 11
126
 21
3
  0
LINE
  8
0
 10
126
 20
3
 11
126.188
 21
2.99409
  0
LINE
  8
0
 10
126.188
 20
2.99409
 11
126.376
 21
2.97635
  0
LINE
  8
0
 10
126.376
 20
2.97635
 11
126.562
 21
2.94687
  0
LINE
  8
0
 10
126.562
 20
2.94687
 11
126.746
 21
2.90576
  0
LINE
  8
0
 10
126.746
 20
2.90576
 11
126.927
 21
2.85318
  0
LINE
  8
0
 10
126.927
 20
2.85318
 11
127.104
 21
2.78934
  0
LINE
  8
0
 10
127.104
 20
2.78934
 11
127.277
 21
2.71449
  0
LINE
  8
0
 10
127.277
 20
2.71449
 11
127.445
 21
2.62892
  0
LINE
  8
0
 10
127.445
 20
2.62892
 11
127.607
 21
2.53299
  0
LINE
  8
0
 10
127.607
 20
2.53299
 11
127.763
 21
2.42706
  0
LINE
  8
0
 10
127.763
 20
2.42706
 11
127.912
 21
2.31155
  0
LINE
  8
0
 10
127.912
 20
2.31155
 11
128.054
 21
2.18692
  0
LINE
  8
0
 10
128.054
 20
2.18692
 11
128.187
 21
2.05365
  0
LINE
  8
0
 10
128.187
 20
2.05365
 11
128.312
 21
1.91228
  0
LINE
  8
0
 10
128.312
 20
1.91228
 11
128.427
 21
1.76337
  0
LINE
  8
0
 10
128.427
 20
1.76337
 11
128.533
 21
1.60748
  0
LINE
  8
0
 10
128.533
 20
1.60748
 11
128.629
 21
1.44527
  0
LINE
  8
0
 10
128.629
 20
1.44527
 11
128.714
 21
1.27734
  0
LINE
  8
0
 10
128.714
 20
1.27734
 11
128.789
 21
1.10439
  0
LINE
  8
0
 10
128.789
 20
1.10439
 11
128.853
 21
0.927063
  0
LINE
  8
0
 10
128.853
 20
0.927063
 11
128.906
 21
0.746078
  0
LINE
  8
0
 10
128.906
 20
0.746078
 11
128.947
 21
0.562149
  0
LINE
  8
0
 10
128.947
 20
0.562149
 11
128.976
 21
0.376007
  0
LINE
  8
0
 10
128.976
 20
0.376007
 11
128.994
 21
0.188385
  0
LINE
  8
0
 10
128.994
 20
0.188385
 11
129
 21
0
  0
LINE
  8
0
 10
129
 20
0
 11
128.994
 21
-0.18837
  0
LINE
  8
0
 10
128.994
 20
-0.18837
 11
128.976
 21
-0.375992
  0
LINE
  8
0
 10
128.976
 20
-0.375992
 11
128.947
 21
-0.562134
  0
LINE
  8
0
 10
128.947
 20
-0.562134
 11
128.906
 21
-0.746063
  0
LINE
  8
0
 10
128.906
 20
-0.746063
 11
128.853
 21
-0.927048
  0
LINE
  8
0
 10
128.853
 20
-0.927048
 11
128.789
 21
-1.10437
  0
LINE
  8
0
 10
128.789
 20
-1.10437
 11
128.714
 21
-1.27733
  0
LINE
  8
0
 10
128.714
 20
-1.27733
 11
128.629
 21
-1.44525
  0
LINE
  8
0
 10
128.629
 20
-1.44525
 11
128.533
 21
-1.60747
  0
LINE
  8
0
 10
128.533
 20
-1.60747
 11
128.427
 21
-1.76335
  0
LINE
  8
0
 10
128.427
 20
-1.76335
 11
128.312
 21
-1.91226
  0
LINE
  8
0
 10
128.312
 20
-1.91226
 11
128.187
 21
-2.05363
  0
LINE
  8
0
 10
128.187
 20
-2.05363
 11
128.054
 21
-2.1869
  0
LINE
  8
0
 10
128.054
 20
-2.1869
 11
127.912
 21
-2.31154
  0
LINE
  8
0
 10
127.912
 20
-2.31154
 11
127.763
 21
-2.42705
  0
LINE
  8
0
 10
127.763
 20
-2.42705
 11
127.607
 21
-2.53297
  0
LINE
  8
0
 10
127.607
 20
-2.53297
 11
127.445
 21
-2.62891
  0
LINE
  8
0
 10
127.445
 20
-2.62891
 11
127.277
 21
-2.71448
  0
LINE
  8
0
 10
127.277
 20
-2.71448
 11
127.104
 21
-2.78932
  0
LINE
  8
0
 10
127.104
 20
-2.78932
 11
126.927
 21
-2.85316
  0
LINE
  8
0
 10
126.927
 20
-2.85316
 11
126.746
 21
-2.90575
  0
LINE
  8
0
 10
126.746
 20
-2.90575
 11
126.562
 21
-2.94685
  0
LINE
  8
0
 10
126.562
 20
-2.94685
 11
126.376
 21
-2.97633
  0
LINE
  8
0
 10
126.376
 20
-2.97633
 11
126.188
 21
-2.99408
  0
LINE
  8
0
 10
126.188
 20
-2.99408
 11
126
 21
-3
  0
LINE
  8
0
 10
126
 20
-3
 11
125.812
 21
-2.99408
  0
LINE
  8
0
 10
88.6861
 20
-9.99013
 11
88.3733
 21
-9.96057
  0
LINE
  8
0
 10
88.3733
 20
-9.96057
 11
88.0631
 21
-9.91142
  0
LINE
  8
0
 10
88.0631
 20
-9.91142
 11
87.7566
 21
-9.84291
  0
LINE
  8
0
 10
87.7566
 20
-9.84291
 11
87.4549
 21
-9.75528
  0
LINE
  8
0
 10
87.4549
 20
-9.75528
 11
87.1594
 21
-9.64888
  0
LINE
  8
0
 10
87.1594
 20
-9.64888
 11
86.8711
 21
-9.52412
  0
LINE
  8
0
 10
86.8711
 20
-9.52412
 11
86.5912
 21
-9.38153
  0
LINE
  8
0
 10
86.5912
 20
-9.38153
 11
86.3209
 21
-9.22163
  0
LINE
  8
0
 10
86.3209
 20
-9.22163
 11
86.0611
 21
-9.04507
  0
LINE
  8
0
 10
86.0611
 20
-9.04507
 11
85.8129
 21
-8.85255
  0
LINE
  8
0
 10
85.8129
 20
-8.85255
 11
85.5773
 21
-8.64484
  0
LINE
  8
0
 10
85.5773
 20
-8.64484
 11
85.3552
 21
-8.42273
  0
LINE
  8
0
 10
85.3552
 20
-8.42273
 11
85.1474
 21
-8.18712
  0
LINE
  8
0
 10
85.1474
 20
-8.18712
 11
84.9549
 21
-7.93892
  0
LINE
  8
0
 10
84.9549
 20
-7.93892
 11
84.7784
 21
-7.67912
  0
LINE
  8
0
 10
84.7784
 20
-7.67912
 11
84.6185
 21
-7.40877
  0
LINE
  8
0
 10
84.6185
 20
-7.40877
 11
84.4759
 21
-7.12889
  0
LINE
  8
0
 10
84.4759
 20
-7.12889
 11
84.3511
 21
-6.84062
  0
LINE
  8
0
 10
84.3511
 20
-6.84062
 11
84.2447
 21
-6.54507
  0
LINE
  8
0
 10
84.2447
 20
-6.54507
 11
84.1571
 21
-6.24344
  0
LINE
  8
0
 10
84.1571
 20
-6.24344
 11
84.0886
 21
-5.9369
  0
LINE
  8
0
 10
84.0886
 20
-5.9369
 11
84.0394
 21
-5.62666
  0
LINE
  8
0
 10
84.0394
 20
-5.62666
 11
84.0099
 21
-5.31395
  0
LINE
  8
0
 10
84.0099
 20
-5.31395
 11
84
 21
-4.99998
  0
LINE
  8
0
 10
84
 20
-4.99998
 11
84.0099
 21
-4.68604
  0
LINE
  8
0
 10
84.0099
 20
-4.68604
 11
84.0394
 21
-4.37332
  0
LINE
  8
0
 10
84.0394
 20
-4.37332
 11
84.0886
 21
-4.06308
  0
LINE
  8
0
 10
84.0886
 20
-4.06308
 11
84.1571
 21
-3.75655
  0
LINE
  8
0
 10
84.1571
 20
-3.75655
 11
84.2447
 21
-3.45491
  0
LINE
  8
0
 10
84.2447
 20
-3.45491
 11
84.3511
 21
-3.15936
  0
LINE
  8
0
 10
84.3511
 20
-3.15936
 11
84.4759
 21
-2.87109
  0
LINE
  8
0
 10
84.4759
 20
-2.87109
 11
84.6185
 21
-2.59122
  0
LINE
  8
0
 10
84.6185
 20
-2.59122
 11
84.7784
 21
-2.32086
  0
LINE
  8
0
 10
84.7784
 20
-2.32086
 11
84.9549
 21
-2.06107
  0
LINE
  8
0
 10
84.9549
 20
-2.06107
 11
85.1474
 21
-1.81287
  0
LINE
  8
0
 10
85.1474
 20
-1.81287
 11
85.3552
 21
-1.57726
  0
LINE
  8
0
 10
85.3552
 20
-1.57726
 11
85.5773
 21
-1.35515
  0
LINE
  8
0
 10
85.5773
 20
-1.35515
 11
85.8129
 21
-1.14743
  0
LINE
  8
0
 10
85.8129
 20
-1.14743
 11
86.0611
 21
-0.95491
  0
LINE
  8
0
 10
86.0611
 20
-0.95491
 11
86.3209
 21
-0.778351
  0
LINE
  8
0
 10
86.3209
 20
-0.778351
 11
86.5912
 21
-0.618454
  0
LINE
  8
0
 10
86.5912
 20
-0.618454
 11
86.8711
 21
-0.475861
  0
LINE
  8
0
 10
86.8711
 20
-0.475861
 11
87.1594
 21
-0.351105
  0
LINE
  8
0
 10
87.1594
 20
-0.351105
 11
87.4549
 21
-0.244705
  0
LINE
  8
0
 10
87.4549
 20
-0.244705
 11
87.7566
 21
-0.157074
  0
LINE
  8
0
 10
87.7566
 20
-0.157074
 11
88.0631
 21
-0.088562
  0
LINE
  8
0
 10
88.0631
 20
-0.088562
 11
88.3733
 21
-0.0394135
  0
LINE
  8
0
 10
88.3733
 20
-0.0394135
 11
88.6861
 21
-0.00985718
  0
LINE
  8
0
 10
88.6861
 20
-0.00985718
 11
89
 21
0
  0
LINE
  8
0
 10
89
 20
0
 11
89.314
 21
-0.00985718
  0
LINE
  8
0
 10
89.314
 20
-0.00985718
 11
89.6267
 21
-0.0394135
  0
LINE
  8
0
 10
89.6267
 20
-0.0394135
 11
89.9369
 21
-0.088562
  0
LINE
  8
0
 10
89.9369
 20
-0.088562
 11
90.2435
 21
-0.157074
  0
LINE
  8
0
 10
90.2435
 20
-0.157074
 11
90.5451
 21
-0.244705
  0
LINE
  8
0
 10
90.5451
 20
-0.244705
 11
90.8406
 21
-0.351105
  0
LINE
  8
0
 10
90.8406
 20
-0.351105
 11
91.1289
 21
-0.475861
  0
LINE
  8
0
 10
91.1289
 20
-0.475861
 11
91.4088
 21
-0.618454
  0
LINE
  8
0
 10
91.4088
 20
-0.618454
 11
91.6791
 21
-0.778351
  0
LINE
  8
0
 10
91.6791
 20
-0.778351
 11
91.9389
 21
-0.95491
  0
LINE
  8
0
 10
91.9389
 20
-0.95491
 11
92.1871
 21
-1.14743
  0
LINE
  8
0
 10
92.1871
 20
-1.14743
 11
92.4227
 21
-1.35515
  0
LINE
  8
0
 10
92.4227
 20
-1.35515
 11
92.6449
 21
-1.57726
  0
LINE
  8
0
 10
92.6449
 20
-1.57726
 11
92.8526
 21
-1.81287
  0
LINE
  8
0
 10
92.8526
 20
-1.81287
 11
93.0451
 21
-2.06107
  0
LINE
  8
0
 10
93.0451
 20
-2.06107
 11
93.2216
 21
-2.32086
  0
LINE
  8
0
 10
93.2216
 20
-2.32086
 11
93.3815
 21
-2.59122
  0
LINE
  8
0
 10
93.3815
 20
-2.59122
 11
93.5241
 21
-2.87109
  0
LINE
  8
0
 10
93.5241
 20
-2.87109
 11
93.6489
 21
-3.15936
  0
LINE
  8
0
 10
93.6489
 20
-3.15936
 11
93.7553
 21
-3.45491
  0
LINE
  8
0
 10
93.7553
 20
-3.45491
 11
93.8429
 21
-3.75655
  0
LINE
  8
0
 10
93.8429
 20
-3.75655
 11
93.9114
 21
-4.06308
  0
LINE
  8
0
 10
93.9114
 20
-4.06308
 11
93.9606
 21
-4.37332
  0
LINE
  8
0
 10
93.9606
 20
-4.37332
 11
93.9901
 21
-4.68604
  0
LINE
  8
0
 10
93.9901
 20
-4.68604
 11
94
 21
-5
  0
LINE
  8
0
 10
94
 20
-5
 11
93.9901
 21
-5.31395
  0
LINE
  8
0
 10
93.9901
 20
-5.31395
 11
93.9606
 21
-5.62666
  0
LINE
  8
0
 10
93.9606
 20
-5.62666
 11
93.9114
 21
-5.9369
  0
LINE
  8
0
 10
93.9114
 20
-5.9369
 11
93.8429
 21
-6.24344
  0
LINE
  8
0
 10
93.8429
 20
-6.24344
 11
93.7553
 21
-6.54507
  0
LINE
  8
0
 10
93.7553
 20
-6.54507
 11
93.6489
 21
-6.84062
  0
LINE
  8
0
 10
93.6489
 20
-6.84062
 11
93.5241
 21
-7.12889
  0
LINE
  8
0
 10
93.5241
 20
-7.12889
 11
93.3815
 21
-7.40877
  0
LINE
  8
0
 10
93.3815
 20
-7.40877
 11
93.2216
 21
-7.67912
  0
LINE
  8
0
 10
93.2216
 20
-7.67912
 11
93.0451
 21
-7.93892
  0
LINE
  8
0
 10
93.0451
 20
-7.93892
 11
92.8526
 21
-8.18712
  0
LINE
  8
0
 10
92.8526
 20
-8.18712
 11
92.6449
 21
-8.42273
  0
LINE
  8
0
 10
92.6449
 20
-8.42273
 11
92.4227
 21
-8.64484
  0
LINE
  8
0
 10
92.4227
 20
-8.64484
 11
92.1871
 21
-8.85255
  0
LINE
  8
0
 10
92.1871
 20
-8.85255
 11
91.9389
 21
-9.04507
  0
LINE
  8
0
 10
91.9389
 20
-9.04507
 11
91.6791
 21
-9.22163
  0
LINE
  8
0
 10
91.6791
 20
-9.22163
 11
91.4088
 21
-9.38153
  0
LINE
  8
0
 10
91.4088
 20
-9.38153
 11
91.1289
 21
-9.52412
  0
LINE
  8
0
 10
91.1289
 20
-9.52412
 11
90.8406
 21
-9.64888
  0
LINE
  8
0
 10
90.8406
 20
-9.64888
 11
90.5451
 21
-9.75528
  0
LINE
  8
0
 10
90.5451
 20
-9.75528
 11
90.2435
 21
-9.84291
  0
LINE
  8
0
 10
90.2435
 20
-9.84291
 11
89.9369
 21
-9.91142
  0
LINE
  8
0
 10
89.9369
 20
-9.91142
 11
89.6267
 21
-9.96057
  0
LINE
  8
0
 10
89.6267
 20
-9.96057
 11
89.314
 21
-9.99013
  0
LINE
  8
0
 10
89.314
 20
-9.99013
 11
89
 21
-10
  0
LINE
  8
0
 10
89
 20
-10
 11
88.6861
 21
-9.99013
  0
LINE
  8
0
 10
116.7
 20
-11.85
 11
116.7
 21
-6.14999
  0
LINE
  8
0
 10
116.7
 20
-6.14999
 11
129.3
 21
-6.14999
  0
LINE
  8
0
 10
129.3
 20
-6.14999
 11
129.3
 21
-11.85
  0
LINE
  8
0
 10
129.3
 20
-11.85
 11
116.7
 21
-11.85
  0
LINE
  8
0
 10
146
 20
-25
 11
146
 21
-13
  0
LINE
  8
0
 10
146
 20
-13
 11
176
 21
-13
  0
LINE
  8
0
 10
176
 20
-13
 11
176
 21
-25
  0
LINE
  8
0
 10
176
 20
-25
 11
146
 21
-25
  0
LINE
  8
0
 10
96
 20
-25
 11
96
 21
-19
  0
LINE
  8
0
 10
96
 20
-19
 11
66
 21
-19
  0
LINE
  8
0
 10
66
 20
-19
 11
66
 21
-13
  0
LINE
  8
0
 10
66
 20
-13
 11
106
 21
-13
  0
LINE
  8
0
 10
106
 20
-13
 11
106
 21
-19
  0
LINE
  8
0
 10
106
 20
-19
 11
126
 21
-19
  0
LINE
  8
0
 10
126
 20
-19
 11
126
 21
-25
  0
LINE
  8
0
 10
126
 20
-25
 11
96
 21
-25
  0
LINE
  8
0
 10
-15
 20
-35.9996
 11
-15
 21
-12
  0
LINE
  8
0
 10
-15
 20
-12
 11
-9
 21
-12
  0
LINE
  8
0
 10
-9
 20
-12
 11
-9
 21
-35.9991
  0
LINE
  8
0
 10
-9
 20
-35.9991
 11
20.2576
 21
-35.9967
  0
LINE
  8
0
 10
20.2576
 20
-35.9967
 11
20.8848
 21
-35.9608
  0
LINE
  8
0
 10
20.8848
 20
-35.9608
 11
21.5085
 21
-35.8856
  0
LINE
  8
0
 10
21.5085
 20
-35.8856
 11
22.1262
 21
-35.7713
  0
LINE
  8
0
 10
22.1262
 20
-35.7713
 11
22.7356
 21
-35.6185
  0
LINE
  8
0
 10
22.7356
 20
-35.6185
 11
23.3341
 21
-35.4278
  0
LINE
  8
0
 10
23.3341
 20
-35.4278
 11
23.9195
 21
-35.1998
  0
LINE
  8
0
 10
23.9195
 20
-35.1998
 11
24.4895
 21
-34.9356
  0
LINE
  8
0
 10
24.4895
 20
-34.9356
 11
25.0417
 21
-34.636
  0
LINE
  8
0
 10
25.0417
 20
-34.636
 11
25.574
 21
-34.3024
  0
LINE
  8
0
 10
25.574
 20
-34.3024
 11
26.0843
 21
-33.9361
  0
LINE
  8
0
 10
26.0843
 20
-33.9361
 11
56.5265
 21
-10.5766
  0
LINE
  8
0
 10
56.5265
 20
-10.5766
 11
56.9893
 21
-10.1518
  0
LINE
  8
0
 10
56.9893
 20
-10.1518
 11
57.4246
 21
-9.69887
  0
LINE
  8
0
 10
57.4246
 20
-9.69887
 11
57.8306
 21
-9.21945
  0
LINE
  8
0
 10
57.8306
 20
-9.21945
 11
58.2057
 21
-8.7155
  0
LINE
  8
0
 10
58.2057
 20
-8.7155
 11
58.5484
 21
-8.18898
  0
LINE
  8
0
 10
58.5484
 20
-8.18898
 11
58.8573
 21
-7.64198
  0
LINE
  8
0
 10
58.8573
 20
-7.64198
 11
59.1313
 21
-7.07668
  0
LINE
  8
0
 10
59.1313
 20
-7.07668
 11
59.3692
 21
-6.49527
  0
LINE
  8
0
 10
59.3692
 20
-6.49527
 11
59.5702
 21
-5.90007
  0
LINE
  8
0
 10
59.5702
 20
-5.90007
 11
69.6858
 21
27.5131
  0
LINE
  8
0
 10
69.6858
 20
27.5131
 11
69.8229
 21
28.1262
  0
LINE
  8
0
 10
69.8229
 20
28.1262
 11
69.9211
 21
28.7466
  0
LINE
  8
0
 10
69.9211
 20
28.7466
 11
69.9803
 21
29.3721
  0
LINE
  8
0
 10
69.9803
 20
29.3721
 11
70
 21
30
  0
LINE
  8
0
 10
70
 20
30
 11
69.9803
 21
30.6279
  0
LINE
  8
0
 10
69.9803
 20
30.6279
 11
69.9211
 21
31.2533
  0
LINE
  8
0
 10
69.9211
 20
31.2533
 11
69.8229
 21
31.8738
  0
LINE
  8
0
 10
69.8229
 20
31.8738
 11
69.6858
 21
32.4869
  0
LINE
  8
0
 10
69.6858
 20
32.4869
 11
69.5106
 21
33.0901
  0
LINE
  8
0
 10
69.5106
 20
33.0901
 11
69.2978
 21
33.6812
  0
LINE
  8
0
 10
69.2978
 20
33.6812
 11
69.0483
 21
34.2578
  0
LINE
  8
0
 10
69.0483
 20
34.2578
 11
68.7631
 21
34.8175
  0
LINE
  8
0
 10
68.7631
 20
34.8175
 11
68.4433
 21
35.3582
  0
LINE
  8
0
 10
68.4433
 20
35.3582
 11
68.0902
 21
35.8778
  0
LINE
  8
0
 10
68.0902
 20
35.8778
 11
67.7051
 21
36.3742
  0
LINE
  8
0
 10
67.7051
 20
36.3742
 11
67.2897
 21
36.8454
  0
LINE
  8
0
 10
67.2897
 20
36.8454
 11
66.8455
 21
37.2897
  0
LINE
  8
0
 10
66.8455
 20
37.2897
 11
66.3742
 21
37.7051
  0
LINE
  8
0
 10
66.3742
 20
37.7051
 11
65.8778
 21
38.0901
  0
LINE
  8
0
 10
65.8778
 20
38.0901
 11
65.3583
 21
38.4433
  0
LINE
  8
0
 10
65.3583
 20
38.4433
 11
64.8175
 21
38.763
  0
LINE
  8
0
 10
64.8175
 20
38.763
 11
64.2578
 21
39.0482
  0
LINE
  8
0
 10
64.2578
 20
39.0482
 11
63.6812
 21
39.2977
  0
LINE
  8
0
 10
63.6812
 20
39.2977
 11
63.0902
 21
39.5105
  0
LINE
  8
0
 10
63.0902
 20
39.5105
 11
62.4869
 21
39.6858
  0
LINE
  8
0
 10
62.4869
 20
39.6858
 11
61.8738
 21
39.8228
  0
LINE
  8
0
 10
61.8738
 20
39.8228
 11
61.2533
 21
39.9211
  0
LINE
  8
0
 10
61.2533
 20
39.9211
 11
60.6279
 21
39.9802
  0
LINE
  8
0
 10
60.6279
 20
39.9802
 11
60
 21
40
  0
LINE
  8
0
 10
60
 20
40
 11
-50.3843
 21
39.9926
  0
LINE
  8
0
 10
-50.3843
 20
39.9926
 11
-51.011
 21
39.9488
  0
LINE
  8
0
 10
-51.011
 20
39.9488
 11
-51.6337
 21
39.8656
  0
LINE
  8
0
 10
-51.6337
 20
39.8656
 11
-52.2499
 21
39.7436
  0
LINE
  8
0
 10
-52.2499
 20
39.7436
 11
-52.8573
 21
39.5831
  0
LINE
  8
0
 10
-52.8573
 20
39.5831
 11
-53.4534
 21
39.3848
  0
LINE
  8
0
 10
-53.4534
 20
39.3848
 11
-54.0358
 21
39.1494
  0
LINE
  8
0
 10
-54.0358
 20
39.1494
 11
-54.6024
 21
38.8779
  0
LINE
  8
0
 10
-54.6024
 20
38.8779
 11
-55.1507
 21
38.5714
  0
LINE
  8
0
 10
-55.1507
 20
38.5714
 11
-55.6788
 21
38.2311
  0
LINE
  8
0
 10
-55.6788
 20
38.2311
 11
-56.1844
 21
37.8583
  0
LINE
  8
0
 10
-56.1844
 20
37.8583
 11
-56.6656
 21
37.4545
  0
LINE
  8
0
 10
-56.6656
 20
37.4545
 11
-57.1206
 21
37.0212
  0
LINE
  8
0
 10
-57.1206
 20
37.0212
 11
-57.5474
 21
36.5602
  0
LINE
  8
0
 10
-57.5474
 20
36.5602
 11
-57.9444
 21
36.0734
  0
LINE
  8
0
 10
-57.9444
 20
36.0734
 11
-58.3101
 21
35.5626
  0
LINE
  8
0
 10
-58.3101
 20
35.5626
 11
-58.643
 21
35.0298
  0
LINE
  8
0
 10
-58.643
 20
35.0298
 11
-58.9417
 21
34.4772
  0
LINE
  8
0
 10
-58.9417
 20
34.4772
 11
-59.2052
 21
33.9069
  0
LINE
  8
0
 10
-59.2052
 20
33.9069
 11
-59.4324
 21
33.3212
  0
LINE
  8
0
 10
-59.4324
 20
33.3212
 11
-59.6223
 21
32.7224
  0
LINE
  8
0
 10
-59.6223
 20
32.7224
 11
-59.7742
 21
32.1128
  0
LINE
  8
0
 10
-59.7742
 20
32.1128
 11
-59.8876
 21
31.4949
  0
LINE
  8
0
 10
-59.8876
 20
31.4949
 11
-59.962
 21
30.8711
  0
LINE
  8
0
 10
-59.962
 20
30.8711
 11
-59.997
 21
30.2439
  0
LINE
  8
0
 10
-59.997
 20
30.2439
 11
-59.9926
 21
29.6157
  0
LINE
  8
0
 10
-59.9926
 20
29.6157
 11
-57.9891
 21
-22.4658
  0
LINE
  8
0
 10
-57.9891
 20
-22.4658
 11
-57.9402
 21
-23.0921
  0
LINE
  8
0
 10
-57.9402
 20
-23.0921
 11
-57.852
 21
-23.7141
  0
LINE
  8
0
 10
-57.852
 20
-23.7141
 11
-57.7249
 21
-24.3293
  0
LINE
  8
0
 10
-57.7249
 20
-24.3293
 11
-57.5595
 21
-24.9354
  0
LINE
  8
0
 10
-57.5595
 20
-24.9354
 11
-57.3563
 21
-25.5298
  0
LINE
  8
0
 10
-57.3563
 20
-25.5298
 11
-57.1162
 21
-26.1103
  0
LINE
  8
0
 10
-57.1162
 20
-26.1103
 11
-56.8401
 21
-26.6746
  0
LINE
  8
0
 10
-56.8401
 20
-26.6746
 11
-56.5291
 21
-27.2205
  0
LINE
  8
0
 10
-56.5291
 20
-27.2205
 11
-56.1845
 21
-27.7457
  0
LINE
  8
0
 10
-56.1845
 20
-27.7457
 11
-55.8076
 21
-28.2483
  0
LINE
  8
0
 10
-55.8076
 20
-28.2483
 11
-55.3998
 21
-28.7262
  0
LINE
  8
0
 10
-55.3998
 20
-28.7262
 11
-54.9629
 21
-29.1776
  0
LINE
  8
0
 10
-54.9629
 20
-29.1776
 11
-54.4985
 21
-29.6006
  0
LINE
  8
0
 10
-54.4985
 20
-29.6006
 11
-54.0084
 21
-29.9937
  0
LINE
  8
0
 10
-54.0084
 20
-29.9937
 11
-53.4946
 21
-30.3552
  0
LINE
  8
0
 10
-53.4946
 20
-30.3552
 11
-52.9591
 21
-30.6837
  0
LINE
  8
0
 10
-52.9591
 20
-30.6837
 11
-52.4041
 21
-30.9779
  0
LINE
  8
0
 10
-52.4041
 20
-30.9779
 11
-51.8317
 21
-31.2368
  0
LINE
  8
0
 10
-51.8317
 20
-31.2368
 11
-51.2441
 21
-31.4591
  0
LINE
  8
0
 10
-51.2441
 20
-31.4591
 11
-50.6438
 21
-31.6442
  0
LINE
  8
0
 10
-50.6438
 20
-31.6442
 11
-50.033
 21
-31.7911
  0
LINE
  8
0
 10
-50.033
 20
-31.7911
 11
-49.4142
 21
-31.8995
  0
LINE
  8
0
 10
-49.4142
 20
-31.8995
 11
-21.2533
 21
-35.9211
  0
LINE
  8
0
 10
-21.2533
 20
-35.9211
 11
-20.6279
 21
-35.9803
  0
LINE
  8
0
 10
-20.6279
 20
-35.9803
 11
-20
 21
-36
  0
LINE
  8
0
 10
-20
 20
-36
 11
-15
 21
-35.9996
  0
LINE
  8
0
 10
10
 20
25
 11
10
 21
31
  0
LINE
  8
0
 10
10
 20
31
 11
40
 21
31
  0
LINE
  8
0
 10
40
 20
31
 11
40
 21
25
  0
LINE
  8
0
 10
40
 20
25
 11
10
 21
25
  0
LINE
  8
0
 10
-40
 20
25
 11
-40
 21
31
  0
LINE
  8
0
 10
-40
 20
31
 11
-9.99998
 21
31
  0
LINE
  8
0
 10
-9.99998
 20
31
 11
-9.99998
 21
25
  0
LINE
  8
0
 10
-9.99998
 20
25
 11
-40
 21
25
  0
LINE
  8
0
 10
-2.29997
 20
12.15
 11
-2.29997
 21
17.85
  0
LINE
  8
0
 10
-2.29997
 20
17.85
 11
8.29999
 21
17.85
  0
LINE
  8
0
 10
8.29999
 20
17.85
 11
8.29999
 21
12.15
  0
LINE
  8
0
 10
8.29999
 20
12.15
 11
-2.29997
 21
12.15
  0
LINE
  8
0
 10
-3.5
 20
-23
 11
-3.62558
 21
-22.996
  0
LINE
  8
0
 10
-3.62558
 20
-22.996
 11
-3.75066
 21
-22.9842
  0
LINE
  8
0
 10
-3.75066
 20
-22.9842
 11
-3.87476
 21
-22.9646
  0
LINE
  8
0
 10
-3.87476
 20
-22.9646
 11
-3.99738
 21
-22.9372
  0
LINE
  8
0
 10
-3.99738
 20
-22.9372
 11
-4.11803
 21
-22.9021
  0
LINE
  8
0
 10
-4.11803
 20
-22.9021
 11
-4.23624
 21
-22.8595
  0
LINE
  8
0
 10
-4.23624
 20
-22.8595
 11
-4.35155
 21
-22.8096
  0
LINE
  8
0
 10
-4.35155
 20
-22.8096
 11
-4.4635
 21
-22.7526
  0
LINE
  8
0
 10
-4.4635
 20
-22.7526
 11
-4.57164
 21
-22.6886
  0
LINE
  8
0
 10
-4.57164
 20
-22.6886
 11
-4.67557
 21
-22.618
  0
LINE
  8
0
 10
-4.67557
 20
-22.618
 11
-4.77484
 21
-22.541
  0
LINE
  8
0
 10
-4.77484
 20
-22.541
 11
-4.86908
 21
-22.4579
  0
LINE
  8
0
 10
-4.86908
 20
-22.4579
 11
-4.95793
 21
-22.3691
  0
LINE
  8
0
 10
-4.95793
 20
-22.3691
 11
-5.04102
 21
-22.2748
  0
LINE
  8
0
 10
-5.04102
 20
-22.2748
 11
-5.11803
 21
-22.1756
  0
LINE
  8
0
 10
-5.11803
 20
-22.1756
 11
-5.18864
 21
-22.0716
  0
LINE
  8
0
 10
-5.18864
 20
-22.0716
 11
-5.25261
 21
-21.9635
  0
LINE
  8
0
 10
-5.25261
 20
-21.9635
 11
-5.30965
 21
-21.8515
  0
LINE
  8
0
 10
-5.30965
 20
-21.8515
 11
-5.35954
 21
-21.7362
  0
LINE
  8
0
 10
-5.35954
 20
-21.7362
 11
-5.4021
 21
-21.618
  0
LINE
  8
0
 10
-5.4021
 20
-21.618
 11
-5.43716
 21
-21.4974
  0
LINE
  8
0
 10
-5.43716
 20
-21.4974
 11
-5.46457
 21
-21.3748
  0
LINE
  8
0
 10
-5.46457
 20
-21.3748
 11
-5.48422
 21
-21.2507
  0
LINE
  8
0
 10
-5.48422
 20
-21.2507
 11
-5.49605
 21
-21.1256
  0
LINE
  8
0
 10
-5.49605
 20
-21.1256
 11
-5.5
 21
-21
  0
LINE
  8
0
 10
-5.5
 20
-21
 11
-5.5
 21
-2.99998
  0
LINE
  8
0
 10
-5.5
 20
-2.99998
 11
-5.49605
 21
-2.8744
  0
LINE
  8
0
 10
-5.49605
 20
-2.8744
 11
-5.48422
 21
-2.74933
  0
LINE
  8
0
 10
-5.48422
 20
-2.74933
 11
-5.46457
 21
-2.62523
  0
LINE
  8
0
 10
-5.46457
 20
-2.62523
 11
-5.43716
 21
-2.50261
  0
LINE
  8
0
 10
-5.43716
 20
-2.50261
 11
-5.4021
 21
-2.38196
  0
LINE
  8
0
 10
-5.4021
 20
-2.38196
 11
-5.35954
 21
-2.26375
  0
LINE
  8
0
 10
-5.35954
 20
-2.26375
 11
-5.30965
 21
-2.14844
  0
LINE
  8
0
 10
-5.30965
 20
-2.14844
 11
-5.25261
 21
-2.03648
  0
LINE
  8
0
 10
-5.25261
 20
-2.03648
 11
-5.18864
 21
-1.92834
  0
LINE
  8
0
 10
-5.18864
 20
-1.92834
 11
-5.11803
 21
-1.82442
  0
LINE
  8
0
 10
-5.11803
 20
-1.82442
 11
-5.04102
 21
-1.72514
  0
LINE
  8
0
 10
-5.04102
 20
-1.72514
 11
-4.95793
 21
-1.63091
  0
LINE
  8
0
 10
-4.95793
 20
-1.63091
 11
-4.86908
 21
-1.54205
  0
LINE
  8
0
 10
-4.86908
 20
-1.54205
 11
-4.77484
 21
-1.45897
  0
LINE
  8
0
 10
-4.77484
 20
-1.45897
 11
-4.67557
 21
-1.38196
  0
LINE
  8
0
 10
-4.67557
 20
-1.38196
 11
-4.57164
 21
-1.31134
  0
LINE
  8
0
 10
-4.57164
 20
-1.31134
 11
-4.4635
 21
-1.24738
  0
LINE
  8
0
 10
-4.4635
 20
-1.24738
 11
-4.35155
 21
-1.19034
  0
LINE
  8
0
 10
-4.35155
 20
-1.19034
 11
-4.23624
 21
-1.14044
  0
LINE
  8
0
 10
-4.23624
 20
-1.14044
 11
-4.11803
 21
-1.09789
  0
LINE
  8
0
 10
-4.11803
 20
-1.09789
 11
-3.99738
 21
-1.06282
  0
LINE
  8
0
 10
-3.99738
 20
-1.06282
 11
-3.87476
 21
-1.03542
  0
LINE
  8
0
 10
-3.87476
 20
-1.03542
 11
-3.75066
 21
-1.01576
  0
LINE
  8
0
 10
-3.75066
 20
-1.01576
 11
-3.62558
 21
-1.00395
  0
LINE
  8
0
 10
-3.62558
 20
-1.00395
 11
-3.5
 21
-0.999985
  0
LINE
  8
0
 10
-3.5
 20
-0.999985
 11
3.49998
 21
-1
  0
LINE
  8
0
 10
3.49998
 20
-1
 11
3.62556
 21
-1.00395
  0
LINE
  8
0
 10
3.62556
 20
-1.00395
 11
3.75064
 21
-1.01578
  0
LINE
  8
0
 10
3.75064
 20
-1.01578
 11
3.87474
 21
-1.03543
  0
LINE
  8
0
 10
3.87474
 20
-1.03543
 11
3.99736
 21
-1.06284
  0
LINE
  8
0
 10
3.99736
 20
-1.06284
 11
4.11801
 21
-1.0979
  0
LINE
  8
0
 10
4.11801
 20
-1.0979
 11
4.23622
 21
-1.14046
  0
LINE
  8
0
 10
4.23622
 20
-1.14046
 11
4.35153
 21
-1.19035
  0
LINE
  8
0
 10
4.35153
 20
-1.19035
 11
4.46349
 21
-1.24739
  0
LINE
  8
0
 10
4.46349
 20
-1.24739
 11
4.57162
 21
-1.31136
  0
LINE
  8
0
 10
4.57162
 20
-1.31136
 11
4.67555
 21
-1.38197
  0
LINE
  8
0
 10
4.67555
 20
-1.38197
 11
4.77483
 21
-1.45898
  0
LINE
  8
0
 10
4.77483
 20
-1.45898
 11
4.86906
 21
-1.54207
  0
LINE
  8
0
 10
4.86906
 20
-1.54207
 11
4.95792
 21
-1.63092
  0
LINE
  8
0
 10
4.95792
 20
-1.63092
 11
5.041
 21
-1.72516
  0
LINE
  8
0
 10
5.041
 20
-1.72516
 11
5.11801
 21
-1.82443
  0
LINE
  8
0
 10
5.11801
 20
-1.82443
 11
5.18863
 21
-1.92836
  0
LINE
  8
0
 10
5.18863
 20
-1.92836
 11
5.25259
 21
-2.0365
  0
LINE
  8
0
 10
5.25259
 20
-2.0365
 11
5.30963
 21
-2.14845
  0
LINE
  8
0
 10
5.30963
 20
-2.14845
 11
5.35953
 21
-2.26376
  0
LINE
  8
0
 10
5.35953
 20
-2.26376
 11
5.40208
 21
-2.38197
  0
LINE
  8
0
 10
5.40208
 20
-2.38197
 11
5.43715
 21
-2.50262
  0
LINE
  8
0
 10
5.43715
 20
-2.50262
 11
5.46455
 21
-2.62524
  0
LINE
  8
0
 10
5.46455
 20
-2.62524
 11
5.48421
 21
-2.74934
  0
LINE
  8
0
 10
5.48421
 20
-2.74934
 11
5.49603
 21
-2.87442
  0
LINE
  8
0
 10
5.49603
 20
-2.87442
 11
5.49998
 21
-3
  0
LINE
  8
0
 10
5.49998
 20
-3
 11
5.49998
 21
-21
  0
LINE
  8
0
 10
5.49998
 20
-21
 11
5.49603
 21
-21.1256
  0
LINE
  8
0
 10
5.49603
 20
-21.1256
 11
5.48421
 21
-21.2507
  0
LINE
  8
0
 10
5.48421
 20
-21.2507
 11
5.46455
 21
-21.3748
  0
LINE
  8
0
 10
5.46455
 20
-21.3748
 11
5.43715
 21
-21.4974
  0
LINE
  8
0
 10
5.43715
 20
-21.4974
 11
5.40208
 21
-21.618
  0
LINE
  8
0
 10
5.40208
 20
-21.618
 11
5.35953
 21
-21.7362
  0
LINE
  8
0
 10
5.35953
 20
-21.7362
 11
5.30963
 21
-21.8515
  0
LINE
  8
0
 10
5.30963
 20
-21.8515
 11
5.25259
 21
-21.9635
  0
LINE
  8
0
 10
5.25259
 20
-21.9635
 11
5.18863
 21
-22.0716
  0
LINE
  8
0
 10
5.18863
 20
-22.0716
 11
5.11801
 21
-22.1756
  0
LINE
  8
0
 10
5.11801
 20
-22.1756
 11
5.041
 21
-22.2748
  0
LINE
  8
0
 10
5.041
 20
-22.2748
 11
4.95792
 21
-22.3691
  0
LINE
  8
0
 10
4.95792
 20
-22.3691
 11
4.86906
 21
-22.4579
  0
LINE
  8
0
 10
4.86906
 20
-22.4579
 11
4.77483
 21
-22.541
  0
LINE
  8
0
 10
4.77483
 20
-22.541
 11
4.67555
 21
-22.618
  0
LINE
  8
0
 10
4.67555
 20
-22.618
 11
4.57162
 21
-22.6886
  0
LINE
  8
0
 10
4.57162
 20
-22.6886
 11
4.46349
 21
-22.7526
  0
LINE
  8
0
 10
4.46349
 20
-22.7526
 11
4.35153
 21
-22.8096
  0
LINE
  8
0
 10
4.35153
 20
-22.8096
 11
4.23622
 21
-22.8595
  0
LINE
  8
0
 10
4.23622
 20
-22.8595
 11
4.11801
 21
-22.9021
  0
LINE
  8
0
 10
4.11801
 20
-22.9021
 11
3.99736
 21
-22.9372
  0
LINE
  8
0
 10
3.99736
 20
-22.9372
 11
3.87474
 21
-22.9646
  0
LINE
  8
0
 10
3.87474
 20
-22.9646
 11
3.75064
 21
-22.9842
  0
LINE
  8
0
 10
3.75064
 20
-22.9842
 11
3.62556
 21
-22.996
  0
LINE
  8
0
 10
3.62556
 20
-22.996
 11
3.49998
 21
-23
  0
LINE
  8
0
 10
3.49998
 20
-23
 11
-3.5
 21
-23
  0
ENDSEC
  0
SECTION
  2
OBJECTS
  0
DICTIONARY
  0
ENDSEC
  0
EOF
