  0
SECTION
  2
BLOCKS
  0
ENDSEC
  0
SECTION
  2
ENTITIES
  0
LINE
  8
0
 10
18.6884
 20
50.0059
 11
18.876
 21
50.0237
  0
LINE
  8
0
 10
18.876
 20
50.0237
 11
19.0621
 21
50.0531
  0
LINE
  8
0
 10
19.0621
 20
50.0531
 11
19.2461
 21
50.0943
  0
LINE
  8
0
 10
19.2461
 20
50.0943
 11
19.427
 21
50.1468
  0
LINE
  8
0
 10
19.427
 20
50.1468
 11
19.6044
 21
50.2107
  0
LINE
  8
0
 10
19.6044
 20
50.2107
 11
19.7773
 21
50.2855
  0
LINE
  8
0
 10
19.7773
 20
50.2855
 11
19.9453
 21
50.3711
  0
LINE
  8
0
 10
19.9453
 20
50.3711
 11
20.1075
 21
50.467
  0
LINE
  8
0
 10
20.1075
 20
50.467
 11
20.2634
 21
50.573
  0
LINE
  8
0
 10
20.2634
 20
50.573
 11
20.4123
 21
50.6885
  0
LINE
  8
0
 10
20.4123
 20
50.6885
 11
20.5536
 21
50.8131
  0
LINE
  8
0
 10
20.5536
 20
50.8131
 11
20.6869
 21
50.9464
  0
LINE
  8
0
 10
20.6869
 20
50.9464
 11
20.8115
 21
51.0877
  0
LINE
  8
0
 10
20.8115
 20
51.0877
 11
20.927
 21
51.2366
  0
LINE
  8
0
 10
20.927
 20
51.2366
 11
21.033
 21
51.3925
  0
LINE
  8
0
 10
21.033
 20
51.3925
 11
21.1289
 21
51.5547
  0
LINE
  8
0
 10
21.1289
 20
51.5547
 11
21.2145
 21
51.7227
  0
LINE
  8
0
 10
21.2145
 20
51.7227
 11
21.2893
 21
51.8956
  0
LINE
  8
0
 10
21.2893
 20
51.8956
 11
21.3532
 21
52.073
  0
LINE
  8
0
 10
21.3532
 20
52.073
 11
21.4057
 21
52.2539
  0
LINE
  8
0
 10
21.4057
 20
52.2539
 11
21.4469
 21
52.4379
  0
LINE
  8
0
 10
21.4469
 20
52.4379
 11
21.4763
 21
52.624
  0
LINE
  8
0
 10
21.4763
 20
52.624
 11
21.4941
 21
52.8116
  0
LINE
  8
0
 10
21.4941
 20
52.8116
 11
21.5
 21
53
  0
LINE
  8
0
 10
21.5
 20
53
 11
21.5
 21
77
  0
LINE
  8
0
 10
21.5
 20
77
 11
21.4941
 21
77.1884
  0
LINE
  8
0
 10
21.4941
 20
77.1884
 11
21.4763
 21
77.376
  0
LINE
  8
0
 10
21.4763
 20
77.376
 11
21.4469
 21
77.5621
  0
LINE
  8
0
 10
21.4469
 20
77.5621
 11
21.4057
 21
77.7461
  0
LINE
  8
0
 10
21.4057
 20
77.7461
 11
21.3532
 21
77.927
  0
LINE
  8
0
 10
21.3532
 20
77.927
 11
21.2893
 21
78.1044
  0
LINE
  8
0
 10
21.2893
 20
78.1044
 11
21.2145
 21
78.2773
  0
LINE
  8
0
 10
21.2145
 20
78.2773
 11
21.1289
 21
78.4453
  0
LINE
  8
0
 10
21.1289
 20
78.4453
 11
21.033
 21
78.6075
  0
LINE
  8
0
 10
21.033
 20
78.6075
 11
20.927
 21
78.7634
  0
LINE
  8
0
 10
20.927
 20
78.7634
 11
20.8115
 21
78.9123
  0
LINE
  8
0
 10
20.8115
 20
78.9123
 11
20.6869
 21
79.0536
  0
LINE
  8
0
 10
20.6869
 20
79.0536
 11
20.5536
 21
79.1869
  0
LINE
  8
0
 10
20.5536
 20
79.1869
 11
20.4123
 21
79.3115
  0
LINE
  8
0
 10
20.4123
 20
79.3115
 11
20.2634
 21
79.427
  0
LINE
  8
0
 10
20.2634
 20
79.427
 11
20.1075
 21
79.533
  0
LINE
  8
0
 10
20.1075
 20
79.533
 11
19.9453
 21
79.6289
  0
LINE
  8
0
 10
19.9453
 20
79.6289
 11
19.7773
 21
79.7145
  0
LINE
  8
0
 10
19.7773
 20
79.7145
 11
19.6044
 21
79.7893
  0
LINE
  8
0
 10
19.6044
 20
79.7893
 11
19.427
 21
79.8532
  0
LINE
  8
0
 10
19.427
 20
79.8532
 11
19.2461
 21
79.9057
  0
LINE
  8
0
 10
19.2461
 20
79.9057
 11
19.0621
 21
79.9469
  0
LINE
  8
0
 10
19.0621
 20
79.9469
 11
18.876
 21
79.9763
  0
LINE
  8
0
 10
18.876
 20
79.9763
 11
18.6884
 21
79.9941
  0
LINE
  8
0
 10
18.6884
 20
79.9941
 11
18.5
 21
80
  0
LINE
  8
0
 10
18.5
 20
80
 11
-18.5
 21
80
  0
LINE
  8
0
 10
-18.5
 20
80
 11
-18.6884
 21
79.9941
  0
LINE
  8
0
 10
-18.6884
 20
79.9941
 11
-18.876
 21
79.9763
  0
LINE
  8
0
 10
-18.876
 20
79.9763
 11
-19.0621
 21
79.9469
  0
LINE
  8
0
 10
-19.0621
 20
79.9469
 11
-19.2461
 21
79.9057
  0
LINE
  8
0
 10
-19.2461
 20
79.9057
 11
-19.427
 21
79.8532
  0
LINE
  8
0
 10
-19.427
 20
79.8532
 11
-19.6044
 21
79.7893
  0
LINE
  8
0
 10
-19.6044
 20
79.7893
 11
-19.7773
 21
79.7145
  0
LINE
  8
0
 10
-19.7773
 20
79.7145
 11
-19.9453
 21
79.6289
  0
LINE
  8
0
 10
-19.9453
 20
79.6289
 11
-20.1075
 21
79.533
  0
LINE
  8
0
 10
-20.1075
 20
79.533
 11
-20.2634
 21
79.427
  0
LINE
  8
0
 10
-20.2634
 20
79.427
 11
-20.4123
 21
79.3115
  0
LINE
  8
0
 10
-20.4123
 20
79.3115
 11
-20.5536
 21
79.1869
  0
LINE
  8
0
 10
-20.5536
 20
79.1869
 11
-20.6869
 21
79.0536
  0
LINE
  8
0
 10
-20.6869
 20
79.0536
 11
-20.8115
 21
78.9123
  0
LINE
  8
0
 10
-20.8115
 20
78.9123
 11
-20.927
 21
78.7634
  0
LINE
  8
0
 10
-20.927
 20
78.7634
 11
-21.033
 21
78.6075
  0
LINE
  8
0
 10
-21.033
 20
78.6075
 11
-21.1289
 21
78.4453
  0
LINE
  8
0
 10
-21.1289
 20
78.4453
 11
-21.2145
 21
78.2773
  0
LINE
  8
0
 10
-21.2145
 20
78.2773
 11
-21.2893
 21
78.1044
  0
LINE
  8
0
 10
-21.2893
 20
78.1044
 11
-21.3532
 21
77.927
  0
LINE
  8
0
 10
-21.3532
 20
77.927
 11
-21.4057
 21
77.7461
  0
LINE
  8
0
 10
-21.4057
 20
77.7461
 11
-21.4469
 21
77.5621
  0
LINE
  8
0
 10
-21.4469
 20
77.5621
 11
-21.4763
 21
77.376
  0
LINE
  8
0
 10
-21.4763
 20
77.376
 11
-21.4941
 21
77.1884
  0
LINE
  8
0
 10
-21.4941
 20
77.1884
 11
-21.5
 21
77
  0
LINE
  8
0
 10
-21.5
 20
77
 11
-21.5
 21
53
  0
LINE
  8
0
 10
-21.5
 20
53
 11
-21.4941
 21
52.8116
  0
LINE
  8
0
 10
-21.4941
 20
52.8116
 11
-21.4763
 21
52.624
  0
LINE
  8
0
 10
-21.4763
 20
52.624
 11
-21.4469
 21
52.4379
  0
LINE
  8
0
 10
-21.4469
 20
52.4379
 11
-21.4057
 21
52.2539
  0
LINE
  8
0
 10
-21.4057
 20
52.2539
 11
-21.3532
 21
52.073
  0
LINE
  8
0
 10
-21.3532
 20
52.073
 11
-21.2893
 21
51.8956
  0
LINE
  8
0
 10
-21.2893
 20
51.8956
 11
-21.2145
 21
51.7227
  0
LINE
  8
0
 10
-21.2145
 20
51.7227
 11
-21.1289
 21
51.5547
  0
LINE
  8
0
 10
-21.1289
 20
51.5547
 11
-21.033
 21
51.3925
  0
LINE
  8
0
 10
-21.033
 20
51.3925
 11
-20.927
 21
51.2366
  0
LINE
  8
0
 10
-20.927
 20
51.2366
 11
-20.8115
 21
51.0877
  0
LINE
  8
0
 10
-20.8115
 20
51.0877
 11
-20.6869
 21
50.9464
  0
LINE
  8
0
 10
-20.6869
 20
50.9464
 11
-20.5536
 21
50.8131
  0
LINE
  8
0
 10
-20.5536
 20
50.8131
 11
-20.4123
 21
50.6885
  0
LINE
  8
0
 10
-20.4123
 20
50.6885
 11
-20.2634
 21
50.573
  0
LINE
  8
0
 10
-20.2634
 20
50.573
 11
-20.1075
 21
50.467
  0
LINE
  8
0
 10
-20.1075
 20
50.467
 11
-19.9453
 21
50.3711
  0
LINE
  8
0
 10
-19.9453
 20
50.3711
 11
-19.7773
 21
50.2855
  0
LINE
  8
0
 10
-19.7773
 20
50.2855
 11
-19.6044
 21
50.2107
  0
LINE
  8
0
 10
-19.6044
 20
50.2107
 11
-19.427
 21
50.1468
  0
LINE
  8
0
 10
-19.427
 20
50.1468
 11
-19.2461
 21
50.0943
  0
LINE
  8
0
 10
-19.2461
 20
50.0943
 11
-19.0621
 21
50.0531
  0
LINE
  8
0
 10
-19.0621
 20
50.0531
 11
-18.876
 21
50.0237
  0
LINE
  8
0
 10
-18.876
 20
50.0237
 11
-18.6884
 21
50.0059
  0
LINE
  8
0
 10
-18.6884
 20
50.0059
 11
-18.5
 21
50
  0
LINE
  8
0
 10
-18.5
 20
50
 11
18.5
 21
50
  0
LINE
  8
0
 10
18.5
 20
50
 11
18.6884
 21
50.0059
  0
LINE
  8
0
 10
-14.6884
 20
72.0059
 11
-14.876
 21
72.0237
  0
LINE
  8
0
 10
-14.876
 20
72.0237
 11
-15.0621
 21
72.0531
  0
LINE
  8
0
 10
-15.0621
 20
72.0531
 11
-15.2461
 21
72.0942
  0
LINE
  8
0
 10
-15.2461
 20
72.0942
 11
-15.427
 21
72.1468
  0
LINE
  8
0
 10
-15.427
 20
72.1468
 11
-15.6044
 21
72.2107
  0
LINE
  8
0
 10
-15.6044
 20
72.2107
 11
-15.7773
 21
72.2855
  0
LINE
  8
0
 10
-15.7773
 20
72.2855
 11
-15.9453
 21
72.3711
  0
LINE
  8
0
 10
-15.9453
 20
72.3711
 11
-16.1075
 21
72.467
  0
LINE
  8
0
 10
-16.1075
 20
72.467
 11
-16.2634
 21
72.5729
  0
LINE
  8
0
 10
-16.2634
 20
72.5729
 11
-16.4123
 21
72.6884
  0
LINE
  8
0
 10
-16.4123
 20
72.6884
 11
-16.5536
 21
72.8131
  0
LINE
  8
0
 10
-16.5536
 20
72.8131
 11
-16.6869
 21
72.9464
  0
LINE
  8
0
 10
-16.6869
 20
72.9464
 11
-16.8115
 21
73.0877
  0
LINE
  8
0
 10
-16.8115
 20
73.0877
 11
-16.927
 21
73.2366
  0
LINE
  8
0
 10
-16.927
 20
73.2366
 11
-17.033
 21
73.3925
  0
LINE
  8
0
 10
-17.033
 20
73.3925
 11
-17.1289
 21
73.5547
  0
LINE
  8
0
 10
-17.1289
 20
73.5547
 11
-17.2145
 21
73.7227
  0
LINE
  8
0
 10
-17.2145
 20
73.7227
 11
-17.2893
 21
73.8956
  0
LINE
  8
0
 10
-17.2893
 20
73.8956
 11
-17.3532
 21
74.0729
  0
LINE
  8
0
 10
-17.3532
 20
74.0729
 11
-17.4057
 21
74.2539
  0
LINE
  8
0
 10
-17.4057
 20
74.2539
 11
-17.4469
 21
74.4379
  0
LINE
  8
0
 10
-17.4469
 20
74.4379
 11
-17.4763
 21
74.624
  0
LINE
  8
0
 10
-17.4763
 20
74.624
 11
-17.4941
 21
74.8116
  0
LINE
  8
0
 10
-17.4941
 20
74.8116
 11
-17.5
 21
75
  0
LINE
  8
0
 10
-17.5
 20
75
 11
-17.4941
 21
75.1884
  0
LINE
  8
0
 10
-17.4941
 20
75.1884
 11
-17.4763
 21
75.376
  0
LINE
  8
0
 10
-17.4763
 20
75.376
 11
-17.4469
 21
75.5621
  0
LINE
  8
0
 10
-17.4469
 20
75.5621
 11
-17.4057
 21
75.7461
  0
LINE
  8
0
 10
-17.4057
 20
75.7461
 11
-17.3532
 21
75.927
  0
LINE
  8
0
 10
-17.3532
 20
75.927
 11
-17.2893
 21
76.1044
  0
LINE
  8
0
 10
-17.2893
 20
76.1044
 11
-17.2145
 21
76.2773
  0
LINE
  8
0
 10
-17.2145
 20
76.2773
 11
-17.1289
 21
76.4453
  0
LINE
  8
0
 10
-17.1289
 20
76.4453
 11
-17.033
 21
76.6075
  0
LINE
  8
0
 10
-17.033
 20
76.6075
 11
-16.927
 21
76.7634
  0
LINE
  8
0
 10
-16.927
 20
76.7634
 11
-16.8115
 21
76.9123
  0
LINE
  8
0
 10
-16.8115
 20
76.9123
 11
-16.6869
 21
77.0536
  0
LINE
  8
0
 10
-16.6869
 20
77.0536
 11
-16.5536
 21
77.1869
  0
LINE
  8
0
 10
-16.5536
 20
77.1869
 11
-16.4123
 21
77.3115
  0
LINE
  8
0
 10
-16.4123
 20
77.3115
 11
-16.2634
 21
77.427
  0
LINE
  8
0
 10
-16.2634
 20
77.427
 11
-16.1075
 21
77.533
  0
LINE
  8
0
 10
-16.1075
 20
77.533
 11
-15.9453
 21
77.6289
  0
LINE
  8
0
 10
-15.9453
 20
77.6289
 11
-15.7773
 21
77.7145
  0
LINE
  8
0
 10
-15.7773
 20
77.7145
 11
-15.6044
 21
77.7893
  0
LINE
  8
0
 10
-15.6044
 20
77.7893
 11
-15.427
 21
77.8532
  0
LINE
  8
0
 10
-15.427
 20
77.8532
 11
-15.2461
 21
77.9057
  0
LINE
  8
0
 10
-15.2461
 20
77.9057
 11
-15.0621
 21
77.9469
  0
LINE
  8
0
 10
-15.0621
 20
77.9469
 11
-14.876
 21
77.9763
  0
LINE
  8
0
 10
-14.876
 20
77.9763
 11
-14.6884
 21
77.9941
  0
LINE
  8
0
 10
-14.6884
 20
77.9941
 11
-14.5
 21
78
  0
LINE
  8
0
 10
-14.5
 20
78
 11
-14.3116
 21
77.9941
  0
LINE
  8
0
 10
-14.3116
 20
77.9941
 11
-14.124
 21
77.9763
  0
LINE
  8
0
 10
-14.124
 20
77.9763
 11
-13.9379
 21
77.9469
  0
LINE
  8
0
 10
-13.9379
 20
77.9469
 11
-13.7539
 21
77.9057
  0
LINE
  8
0
 10
-13.7539
 20
77.9057
 11
-13.5729
 21
77.8532
  0
LINE
  8
0
 10
-13.5729
 20
77.8532
 11
-13.3956
 21
77.7893
  0
LINE
  8
0
 10
-13.3956
 20
77.7893
 11
-13.2227
 21
77.7145
  0
LINE
  8
0
 10
-13.2227
 20
77.7145
 11
-13.0547
 21
77.6289
  0
LINE
  8
0
 10
-13.0547
 20
77.6289
 11
-12.8925
 21
77.533
  0
LINE
  8
0
 10
-12.8925
 20
77.533
 11
-12.7366
 21
77.427
  0
LINE
  8
0
 10
-12.7366
 20
77.427
 11
-12.5877
 21
77.3115
  0
LINE
  8
0
 10
-12.5877
 20
77.3115
 11
-12.4464
 21
77.1869
  0
LINE
  8
0
 10
-12.4464
 20
77.1869
 11
-12.3131
 21
77.0536
  0
LINE
  8
0
 10
-12.3131
 20
77.0536
 11
-12.1884
 21
76.9123
  0
LINE
  8
0
 10
-12.1884
 20
76.9123
 11
-12.0729
 21
76.7634
  0
LINE
  8
0
 10
-12.0729
 20
76.7634
 11
-11.967
 21
76.6075
  0
LINE
  8
0
 10
-11.967
 20
76.6075
 11
-11.8711
 21
76.4453
  0
LINE
  8
0
 10
-11.8711
 20
76.4453
 11
-11.7855
 21
76.2773
  0
LINE
  8
0
 10
-11.7855
 20
76.2773
 11
-11.7107
 21
76.1044
  0
LINE
  8
0
 10
-11.7107
 20
76.1044
 11
-11.6468
 21
75.927
  0
LINE
  8
0
 10
-11.6468
 20
75.927
 11
-11.5942
 21
75.7461
  0
LINE
  8
0
 10
-11.5942
 20
75.7461
 11
-11.5531
 21
75.5621
  0
LINE
  8
0
 10
-11.5531
 20
75.5621
 11
-11.5237
 21
75.376
  0
LINE
  8
0
 10
-11.5237
 20
75.376
 11
-11.5059
 21
75.1884
  0
LINE
  8
0
 10
-11.5059
 20
75.1884
 11
-11.5
 21
75
  0
LINE
  8
0
 10
-11.5
 20
75
 11
-11.5059
 21
74.8116
  0
LINE
  8
0
 10
-11.5059
 20
74.8116
 11
-11.5237
 21
74.624
  0
LINE
  8
0
 10
-11.5237
 20
74.624
 11
-11.5531
 21
74.4379
  0
LINE
  8
0
 10
-11.5531
 20
74.4379
 11
-11.5942
 21
74.2539
  0
LINE
  8
0
 10
-11.5942
 20
74.2539
 11
-11.6468
 21
74.0729
  0
LINE
  8
0
 10
-11.6468
 20
74.0729
 11
-11.7107
 21
73.8956
  0
LINE
  8
0
 10
-11.7107
 20
73.8956
 11
-11.7855
 21
73.7227
  0
LINE
  8
0
 10
-11.7855
 20
73.7227
 11
-11.8711
 21
73.5547
  0
LINE
  8
0
 10
-11.8711
 20
73.5547
 11
-11.967
 21
73.3925
  0
LINE
  8
0
 10
-11.967
 20
73.3925
 11
-12.0729
 21
73.2366
  0
LINE
  8
0
 10
-12.0729
 20
73.2366
 11
-12.1884
 21
73.0877
  0
LINE
  8
0
 10
-12.1884
 20
73.0877
 11
-12.3131
 21
72.9464
  0
LINE
  8
0
 10
-12.3131
 20
72.9464
 11
-12.4464
 21
72.8131
  0
LINE
  8
0
 10
-12.4464
 20
72.8131
 11
-12.5877
 21
72.6884
  0
LINE
  8
0
 10
-12.5877
 20
72.6884
 11
-12.7366
 21
72.5729
  0
LINE
  8
0
 10
-12.7366
 20
72.5729
 11
-12.8925
 21
72.467
  0
LINE
  8
0
 10
-12.8925
 20
72.467
 11
-13.0547
 21
72.3711
  0
LINE
  8
0
 10
-13.0547
 20
72.3711
 11
-13.2227
 21
72.2855
  0
LINE
  8
0
 10
-13.2227
 20
72.2855
 11
-13.3956
 21
72.2107
  0
LINE
  8
0
 10
-13.3956
 20
72.2107
 11
-13.5729
 21
72.1468
  0
LINE
  8
0
 10
-13.5729
 20
72.1468
 11
-13.7539
 21
72.0942
  0
LINE
  8
0
 10
-13.7539
 20
72.0942
 11
-13.9379
 21
72.0531
  0
LINE
  8
0
 10
-13.9379
 20
72.0531
 11
-14.124
 21
72.0237
  0
LINE
  8
0
 10
-14.124
 20
72.0237
 11
-14.3116
 21
72.0059
  0
LINE
  8
0
 10
-14.3116
 20
72.0059
 11
-14.5
 21
72
  0
LINE
  8
0
 10
-14.5
 20
72
 11
-14.6884
 21
72.0059
  0
LINE
  8
0
 10
-7.5
 20
73.95
 11
-7.56279
 21
73.952
  0
LINE
  8
0
 10
-7.56279
 20
73.952
 11
-7.62532
 21
73.9579
  0
LINE
  8
0
 10
-7.62532
 20
73.9579
 11
-7.68738
 21
73.9677
  0
LINE
  8
0
 10
-7.68738
 20
73.9677
 11
-7.74869
 21
73.9814
  0
LINE
  8
0
 10
-7.74869
 20
73.9814
 11
-7.80901
 21
73.999
  0
LINE
  8
0
 10
-7.80901
 20
73.999
 11
-7.86812
 21
74.0202
  0
LINE
  8
0
 10
-7.86812
 20
74.0202
 11
-7.92577
 21
74.0452
  0
LINE
  8
0
 10
-7.92577
 20
74.0452
 11
-7.98175
 21
74.0737
  0
LINE
  8
0
 10
-7.98175
 20
74.0737
 11
-8.03581
 21
74.1057
  0
LINE
  8
0
 10
-8.03581
 20
74.1057
 11
-8.08778
 21
74.141
  0
LINE
  8
0
 10
-8.08778
 20
74.141
 11
-8.13742
 21
74.1795
  0
LINE
  8
0
 10
-8.13742
 20
74.1795
 11
-8.18454
 21
74.2211
  0
LINE
  8
0
 10
-8.18454
 20
74.2211
 11
-8.22896
 21
74.2655
  0
LINE
  8
0
 10
-8.22896
 20
74.2655
 11
-8.27051
 21
74.3126
  0
LINE
  8
0
 10
-8.27051
 20
74.3126
 11
-8.30901
 21
74.3622
  0
LINE
  8
0
 10
-8.30901
 20
74.3622
 11
-8.34431
 21
74.4142
  0
LINE
  8
0
 10
-8.34431
 20
74.4142
 11
-8.3763
 21
74.4683
  0
LINE
  8
0
 10
-8.3763
 20
74.4683
 11
-8.40482
 21
74.5242
  0
LINE
  8
0
 10
-8.40482
 20
74.5242
 11
-8.42976
 21
74.5819
  0
LINE
  8
0
 10
-8.42976
 20
74.5819
 11
-8.45105
 21
74.641
  0
LINE
  8
0
 10
-8.45105
 20
74.641
 11
-8.46858
 21
74.7013
  0
LINE
  8
0
 10
-8.46858
 20
74.7013
 11
-8.48228
 21
74.7626
  0
LINE
  8
0
 10
-8.48228
 20
74.7626
 11
-8.49211
 21
74.8247
  0
LINE
  8
0
 10
-8.49211
 20
74.8247
 11
-8.49802
 21
74.8872
  0
LINE
  8
0
 10
-8.49802
 20
74.8872
 11
-8.5
 21
74.95
  0
LINE
  8
0
 10
-8.5
 20
74.95
 11
-8.5
 21
75.05
  0
LINE
  8
0
 10
-8.5
 20
75.05
 11
-8.49802
 21
75.1128
  0
LINE
  8
0
 10
-8.49802
 20
75.1128
 11
-8.49211
 21
75.1753
  0
LINE
  8
0
 10
-8.49211
 20
75.1753
 11
-8.48228
 21
75.2374
  0
LINE
  8
0
 10
-8.48228
 20
75.2374
 11
-8.46858
 21
75.2987
  0
LINE
  8
0
 10
-8.46858
 20
75.2987
 11
-8.45105
 21
75.359
  0
LINE
  8
0
 10
-8.45105
 20
75.359
 11
-8.42976
 21
75.4181
  0
LINE
  8
0
 10
-8.42976
 20
75.4181
 11
-8.40482
 21
75.4758
  0
LINE
  8
0
 10
-8.40482
 20
75.4758
 11
-8.3763
 21
75.5317
  0
LINE
  8
0
 10
-8.3763
 20
75.5317
 11
-8.34431
 21
75.5858
  0
LINE
  8
0
 10
-8.34431
 20
75.5858
 11
-8.30901
 21
75.6378
  0
LINE
  8
0
 10
-8.30901
 20
75.6378
 11
-8.27051
 21
75.6874
  0
LINE
  8
0
 10
-8.27051
 20
75.6874
 11
-8.22896
 21
75.7345
  0
LINE
  8
0
 10
-8.22896
 20
75.7345
 11
-8.18454
 21
75.7789
  0
LINE
  8
0
 10
-8.18454
 20
75.7789
 11
-8.13742
 21
75.8205
  0
LINE
  8
0
 10
-8.13742
 20
75.8205
 11
-8.08778
 21
75.859
  0
LINE
  8
0
 10
-8.08778
 20
75.859
 11
-8.03581
 21
75.8943
  0
LINE
  8
0
 10
-8.03581
 20
75.8943
 11
-7.98175
 21
75.9263
  0
LINE
  8
0
 10
-7.98175
 20
75.9263
 11
-7.92577
 21
75.9548
  0
LINE
  8
0
 10
-7.92577
 20
75.9548
 11
-7.86812
 21
75.9798
  0
LINE
  8
0
 10
-7.86812
 20
75.9798
 11
-7.80901
 21
76.001
  0
LINE
  8
0
 10
-7.80901
 20
76.001
 11
-7.74869
 21
76.0186
  0
LINE
  8
0
 10
-7.74869
 20
76.0186
 11
-7.68738
 21
76.0323
  0
LINE
  8
0
 10
-7.68738
 20
76.0323
 11
-7.62532
 21
76.0421
  0
LINE
  8
0
 10
-7.62532
 20
76.0421
 11
-7.56279
 21
76.048
  0
LINE
  8
0
 10
-7.56279
 20
76.048
 11
-7.5
 21
76.05
  0
LINE
  8
0
 10
-7.5
 20
76.05
 11
15.5
 21
76.05
  0
LINE
  8
0
 10
15.5
 20
76.05
 11
15.5628
 21
76.048
  0
LINE
  8
0
 10
15.5628
 20
76.048
 11
15.6253
 21
76.0421
  0
LINE
  8
0
 10
15.6253
 20
76.0421
 11
15.6874
 21
76.0323
  0
LINE
  8
0
 10
15.6874
 20
76.0323
 11
15.7487
 21
76.0186
  0
LINE
  8
0
 10
15.7487
 20
76.0186
 11
15.809
 21
76.001
  0
LINE
  8
0
 10
15.809
 20
76.001
 11
15.8681
 21
75.9798
  0
LINE
  8
0
 10
15.8681
 20
75.9798
 11
15.9258
 21
75.9548
  0
LINE
  8
0
 10
15.9258
 20
75.9548
 11
15.9818
 21
75.9263
  0
LINE
  8
0
 10
15.9818
 20
75.9263
 11
16.0358
 21
75.8943
  0
LINE
  8
0
 10
16.0358
 20
75.8943
 11
16.0878
 21
75.859
  0
LINE
  8
0
 10
16.0878
 20
75.859
 11
16.1374
 21
75.8205
  0
LINE
  8
0
 10
16.1374
 20
75.8205
 11
16.1845
 21
75.7789
  0
LINE
  8
0
 10
16.1845
 20
75.7789
 11
16.229
 21
75.7345
  0
LINE
  8
0
 10
16.229
 20
75.7345
 11
16.2705
 21
75.6874
  0
LINE
  8
0
 10
16.2705
 20
75.6874
 11
16.309
 21
75.6378
  0
LINE
  8
0
 10
16.309
 20
75.6378
 11
16.3443
 21
75.5858
  0
LINE
  8
0
 10
16.3443
 20
75.5858
 11
16.3763
 21
75.5317
  0
LINE
  8
0
 10
16.3763
 20
75.5317
 11
16.4048
 21
75.4758
  0
LINE
  8
0
 10
16.4048
 20
75.4758
 11
16.4298
 21
75.4181
  0
LINE
  8
0
 10
16.4298
 20
75.4181
 11
16.451
 21
75.359
  0
LINE
  8
0
 10
16.451
 20
75.359
 11
16.4686
 21
75.2987
  0
LINE
  8
0
 10
16.4686
 20
75.2987
 11
16.4823
 21
75.2374
  0
LINE
  8
0
 10
16.4823
 20
75.2374
 11
16.4921
 21
75.1753
  0
LINE
  8
0
 10
16.4921
 20
75.1753
 11
16.498
 21
75.1128
  0
LINE
  8
0
 10
16.498
 20
75.1128
 11
16.5
 21
75.05
  0
LINE
  8
0
 10
16.5
 20
75.05
 11
16.5
 21
74.95
  0
LINE
  8
0
 10
16.5
 20
74.95
 11
16.498
 21
74.8872
  0
LINE
  8
0
 10
16.498
 20
74.8872
 11
16.4921
 21
74.8247
  0
LINE
  8
0
 10
16.4921
 20
74.8247
 11
16.4823
 21
74.7626
  0
LINE
  8
0
 10
16.4823
 20
74.7626
 11
16.4686
 21
74.7013
  0
LINE
  8
0
 10
16.4686
 20
74.7013
 11
16.451
 21
74.641
  0
LINE
  8
0
 10
16.451
 20
74.641
 11
16.4298
 21
74.5819
  0
LINE
  8
0
 10
16.4298
 20
74.5819
 11
16.4048
 21
74.5242
  0
LINE
  8
0
 10
16.4048
 20
74.5242
 11
16.3763
 21
74.4683
  0
LINE
  8
0
 10
16.3763
 20
74.4683
 11
16.3443
 21
74.4142
  0
LINE
  8
0
 10
16.3443
 20
74.4142
 11
16.309
 21
74.3622
  0
LINE
  8
0
 10
16.309
 20
74.3622
 11
16.2705
 21
74.3126
  0
LINE
  8
0
 10
16.2705
 20
74.3126
 11
16.229
 21
74.2655
  0
LINE
  8
0
 10
16.229
 20
74.2655
 11
16.1845
 21
74.2211
  0
LINE
  8
0
 10
16.1845
 20
74.2211
 11
16.1374
 21
74.1795
  0
LINE
  8
0
 10
16.1374
 20
74.1795
 11
16.0878
 21
74.141
  0
LINE
  8
0
 10
16.0878
 20
74.141
 11
16.0358
 21
74.1057
  0
LINE
  8
0
 10
16.0358
 20
74.1057
 11
15.9818
 21
74.0737
  0
LINE
  8
0
 10
15.9818
 20
74.0737
 11
15.9258
 21
74.0452
  0
LINE
  8
0
 10
15.9258
 20
74.0452
 11
15.8681
 21
74.0202
  0
LINE
  8
0
 10
15.8681
 20
74.0202
 11
15.809
 21
73.999
  0
LINE
  8
0
 10
15.809
 20
73.999
 11
15.7487
 21
73.9814
  0
LINE
  8
0
 10
15.7487
 20
73.9814
 11
15.6874
 21
73.9677
  0
LINE
  8
0
 10
15.6874
 20
73.9677
 11
15.6253
 21
73.9579
  0
LINE
  8
0
 10
15.6253
 20
73.9579
 11
15.5628
 21
73.952
  0
LINE
  8
0
 10
15.5628
 20
73.952
 11
15.5
 21
73.95
  0
LINE
  8
0
 10
15.5
 20
73.95
 11
-7.5
 21
73.95
  0
LINE
  8
0
 10
14.3116
 20
62.0059
 11
14.124
 21
62.0237
  0
LINE
  8
0
 10
14.124
 20
62.0237
 11
13.9379
 21
62.0531
  0
LINE
  8
0
 10
13.9379
 20
62.0531
 11
13.7539
 21
62.0943
  0
LINE
  8
0
 10
13.7539
 20
62.0943
 11
13.5729
 21
62.1468
  0
LINE
  8
0
 10
13.5729
 20
62.1468
 11
13.3956
 21
62.2107
  0
LINE
  8
0
 10
13.3956
 20
62.2107
 11
13.2227
 21
62.2855
  0
LINE
  8
0
 10
13.2227
 20
62.2855
 11
13.0547
 21
62.3711
  0
LINE
  8
0
 10
13.0547
 20
62.3711
 11
12.8925
 21
62.467
  0
LINE
  8
0
 10
12.8925
 20
62.467
 11
12.7366
 21
62.573
  0
LINE
  8
0
 10
12.7366
 20
62.573
 11
12.5877
 21
62.6885
  0
LINE
  8
0
 10
12.5877
 20
62.6885
 11
12.4464
 21
62.8131
  0
LINE
  8
0
 10
12.4464
 20
62.8131
 11
12.3131
 21
62.9464
  0
LINE
  8
0
 10
12.3131
 20
62.9464
 11
12.1884
 21
63.0877
  0
LINE
  8
0
 10
12.1884
 20
63.0877
 11
12.0729
 21
63.2366
  0
LINE
  8
0
 10
12.0729
 20
63.2366
 11
11.967
 21
63.3925
  0
LINE
  8
0
 10
11.967
 20
63.3925
 11
11.8711
 21
63.5547
  0
LINE
  8
0
 10
11.8711
 20
63.5547
 11
11.7855
 21
63.7227
  0
LINE
  8
0
 10
11.7855
 20
63.7227
 11
11.7107
 21
63.8956
  0
LINE
  8
0
 10
11.7107
 20
63.8956
 11
11.6468
 21
64.073
  0
LINE
  8
0
 10
11.6468
 20
64.073
 11
11.5942
 21
64.2539
  0
LINE
  8
0
 10
11.5942
 20
64.2539
 11
11.5531
 21
64.4379
  0
LINE
  8
0
 10
11.5531
 20
64.4379
 11
11.5237
 21
64.624
  0
LINE
  8
0
 10
11.5237
 20
64.624
 11
11.5059
 21
64.8116
  0
LINE
  8
0
 10
11.5059
 20
64.8116
 11
11.5
 21
65
  0
LINE
  8
0
 10
11.5
 20
65
 11
11.5059
 21
65.1884
  0
LINE
  8
0
 10
11.5059
 20
65.1884
 11
11.5237
 21
65.376
  0
LINE
  8
0
 10
11.5237
 20
65.376
 11
11.5531
 21
65.5621
  0
LINE
  8
0
 10
11.5531
 20
65.5621
 11
11.5942
 21
65.7461
  0
LINE
  8
0
 10
11.5942
 20
65.7461
 11
11.6468
 21
65.927
  0
LINE
  8
0
 10
11.6468
 20
65.927
 11
11.7107
 21
66.1044
  0
LINE
  8
0
 10
11.7107
 20
66.1044
 11
11.7855
 21
66.2773
  0
LINE
  8
0
 10
11.7855
 20
66.2773
 11
11.8711
 21
66.4453
  0
LINE
  8
0
 10
11.8711
 20
66.4453
 11
11.967
 21
66.6075
  0
LINE
  8
0
 10
11.967
 20
66.6075
 11
12.0729
 21
66.7634
  0
LINE
  8
0
 10
12.0729
 20
66.7634
 11
12.1884
 21
66.9123
  0
LINE
  8
0
 10
12.1884
 20
66.9123
 11
12.3131
 21
67.0536
  0
LINE
  8
0
 10
12.3131
 20
67.0536
 11
12.4464
 21
67.1869
  0
LINE
  8
0
 10
12.4464
 20
67.1869
 11
12.5877
 21
67.3115
  0
LINE
  8
0
 10
12.5877
 20
67.3115
 11
12.7366
 21
67.427
  0
LINE
  8
0
 10
12.7366
 20
67.427
 11
12.8925
 21
67.533
  0
LINE
  8
0
 10
12.8925
 20
67.533
 11
13.0547
 21
67.6289
  0
LINE
  8
0
 10
13.0547
 20
67.6289
 11
13.2227
 21
67.7145
  0
LINE
  8
0
 10
13.2227
 20
67.7145
 11
13.3956
 21
67.7893
  0
LINE
  8
0
 10
13.3956
 20
67.7893
 11
13.5729
 21
67.8532
  0
LINE
  8
0
 10
13.5729
 20
67.8532
 11
13.7539
 21
67.9057
  0
LINE
  8
0
 10
13.7539
 20
67.9057
 11
13.9379
 21
67.9469
  0
LINE
  8
0
 10
13.9379
 20
67.9469
 11
14.124
 21
67.9763
  0
LINE
  8
0
 10
14.124
 20
67.9763
 11
14.3116
 21
67.9941
  0
LINE
  8
0
 10
14.3116
 20
67.9941
 11
14.5
 21
68
  0
LINE
  8
0
 10
14.5
 20
68
 11
14.6884
 21
67.9941
  0
LINE
  8
0
 10
14.6884
 20
67.9941
 11
14.876
 21
67.9763
  0
LINE
  8
0
 10
14.876
 20
67.9763
 11
15.0621
 21
67.9469
  0
LINE
  8
0
 10
15.0621
 20
67.9469
 11
15.2461
 21
67.9057
  0
LINE
  8
0
 10
15.2461
 20
67.9057
 11
15.427
 21
67.8532
  0
LINE
  8
0
 10
15.427
 20
67.8532
 11
15.6044
 21
67.7893
  0
LINE
  8
0
 10
15.6044
 20
67.7893
 11
15.7773
 21
67.7145
  0
LINE
  8
0
 10
15.7773
 20
67.7145
 11
15.9453
 21
67.6289
  0
LINE
  8
0
 10
15.9453
 20
67.6289
 11
16.1075
 21
67.533
  0
LINE
  8
0
 10
16.1075
 20
67.533
 11
16.2634
 21
67.427
  0
LINE
  8
0
 10
16.2634
 20
67.427
 11
16.4123
 21
67.3115
  0
LINE
  8
0
 10
16.4123
 20
67.3115
 11
16.5536
 21
67.1869
  0
LINE
  8
0
 10
16.5536
 20
67.1869
 11
16.6869
 21
67.0536
  0
LINE
  8
0
 10
16.6869
 20
67.0536
 11
16.8115
 21
66.9123
  0
LINE
  8
0
 10
16.8115
 20
66.9123
 11
16.927
 21
66.7634
  0
LINE
  8
0
 10
16.927
 20
66.7634
 11
17.033
 21
66.6075
  0
LINE
  8
0
 10
17.033
 20
66.6075
 11
17.1289
 21
66.4453
  0
LINE
  8
0
 10
17.1289
 20
66.4453
 11
17.2145
 21
66.2773
  0
LINE
  8
0
 10
17.2145
 20
66.2773
 11
17.2893
 21
66.1044
  0
LINE
  8
0
 10
17.2893
 20
66.1044
 11
17.3532
 21
65.927
  0
LINE
  8
0
 10
17.3532
 20
65.927
 11
17.4057
 21
65.7461
  0
LINE
  8
0
 10
17.4057
 20
65.7461
 11
17.4469
 21
65.5621
  0
LINE
  8
0
 10
17.4469
 20
65.5621
 11
17.4763
 21
65.376
  0
LINE
  8
0
 10
17.4763
 20
65.376
 11
17.4941
 21
65.1884
  0
LINE
  8
0
 10
17.4941
 20
65.1884
 11
17.5
 21
65
  0
LINE
  8
0
 10
17.5
 20
65
 11
17.4941
 21
64.8116
  0
LINE
  8
0
 10
17.4941
 20
64.8116
 11
17.4763
 21
64.624
  0
LINE
  8
0
 10
17.4763
 20
64.624
 11
17.4469
 21
64.4379
  0
LINE
  8
0
 10
17.4469
 20
64.4379
 11
17.4057
 21
64.2539
  0
LINE
  8
0
 10
17.4057
 20
64.2539
 11
17.3532
 21
64.073
  0
LINE
  8
0
 10
17.3532
 20
64.073
 11
17.2893
 21
63.8956
  0
LINE
  8
0
 10
17.2893
 20
63.8956
 11
17.2145
 21
63.7227
  0
LINE
  8
0
 10
17.2145
 20
63.7227
 11
17.1289
 21
63.5547
  0
LINE
  8
0
 10
17.1289
 20
63.5547
 11
17.033
 21
63.3925
  0
LINE
  8
0
 10
17.033
 20
63.3925
 11
16.927
 21
63.2366
  0
LINE
  8
0
 10
16.927
 20
63.2366
 11
16.8115
 21
63.0877
  0
LINE
  8
0
 10
16.8115
 20
63.0877
 11
16.6869
 21
62.9464
  0
LINE
  8
0
 10
16.6869
 20
62.9464
 11
16.5536
 21
62.8131
  0
LINE
  8
0
 10
16.5536
 20
62.8131
 11
16.4123
 21
62.6885
  0
LINE
  8
0
 10
16.4123
 20
62.6885
 11
16.2634
 21
62.573
  0
LINE
  8
0
 10
16.2634
 20
62.573
 11
16.1075
 21
62.467
  0
LINE
  8
0
 10
16.1075
 20
62.467
 11
15.9453
 21
62.3711
  0
LINE
  8
0
 10
15.9453
 20
62.3711
 11
15.7773
 21
62.2855
  0
LINE
  8
0
 10
15.7773
 20
62.2855
 11
15.6044
 21
62.2107
  0
LINE
  8
0
 10
15.6044
 20
62.2107
 11
15.427
 21
62.1468
  0
LINE
  8
0
 10
15.427
 20
62.1468
 11
15.2461
 21
62.0943
  0
LINE
  8
0
 10
15.2461
 20
62.0943
 11
15.0621
 21
62.0531
  0
LINE
  8
0
 10
15.0621
 20
62.0531
 11
14.876
 21
62.0237
  0
LINE
  8
0
 10
14.876
 20
62.0237
 11
14.6884
 21
62.0059
  0
LINE
  8
0
 10
14.6884
 20
62.0059
 11
14.5
 21
62
  0
LINE
  8
0
 10
14.5
 20
62
 11
14.3116
 21
62.0059
  0
LINE
  8
0
 10
-17
 20
63.95
 11
-17.0628
 21
63.952
  0
LINE
  8
0
 10
-17.0628
 20
63.952
 11
-17.1253
 21
63.9579
  0
LINE
  8
0
 10
-17.1253
 20
63.9579
 11
-17.1874
 21
63.9677
  0
LINE
  8
0
 10
-17.1874
 20
63.9677
 11
-17.2487
 21
63.9814
  0
LINE
  8
0
 10
-17.2487
 20
63.9814
 11
-17.309
 21
63.999
  0
LINE
  8
0
 10
-17.309
 20
63.999
 11
-17.3681
 21
64.0202
  0
LINE
  8
0
 10
-17.3681
 20
64.0202
 11
-17.4258
 21
64.0452
  0
LINE
  8
0
 10
-17.4258
 20
64.0452
 11
-17.4818
 21
64.0737
  0
LINE
  8
0
 10
-17.4818
 20
64.0737
 11
-17.5358
 21
64.1057
  0
LINE
  8
0
 10
-17.5358
 20
64.1057
 11
-17.5878
 21
64.141
  0
LINE
  8
0
 10
-17.5878
 20
64.141
 11
-17.6374
 21
64.1795
  0
LINE
  8
0
 10
-17.6374
 20
64.1795
 11
-17.6845
 21
64.2211
  0
LINE
  8
0
 10
-17.6845
 20
64.2211
 11
-17.729
 21
64.2655
  0
LINE
  8
0
 10
-17.729
 20
64.2655
 11
-17.7705
 21
64.3126
  0
LINE
  8
0
 10
-17.7705
 20
64.3126
 11
-17.809
 21
64.3622
  0
LINE
  8
0
 10
-17.809
 20
64.3622
 11
-17.8443
 21
64.4142
  0
LINE
  8
0
 10
-17.8443
 20
64.4142
 11
-17.8763
 21
64.4683
  0
LINE
  8
0
 10
-17.8763
 20
64.4683
 11
-17.9048
 21
64.5242
  0
LINE
  8
0
 10
-17.9048
 20
64.5242
 11
-17.9298
 21
64.5819
  0
LINE
  8
0
 10
-17.9298
 20
64.5819
 11
-17.951
 21
64.641
  0
LINE
  8
0
 10
-17.951
 20
64.641
 11
-17.9686
 21
64.7013
  0
LINE
  8
0
 10
-17.9686
 20
64.7013
 11
-17.9823
 21
64.7626
  0
LINE
  8
0
 10
-17.9823
 20
64.7626
 11
-17.9921
 21
64.8247
  0
LINE
  8
0
 10
-17.9921
 20
64.8247
 11
-17.998
 21
64.8872
  0
LINE
  8
0
 10
-17.998
 20
64.8872
 11
-18
 21
64.95
  0
LINE
  8
0
 10
-18
 20
64.95
 11
-18
 21
65.05
  0
LINE
  8
0
 10
-18
 20
65.05
 11
-17.998
 21
65.1128
  0
LINE
  8
0
 10
-17.998
 20
65.1128
 11
-17.9921
 21
65.1753
  0
LINE
  8
0
 10
-17.9921
 20
65.1753
 11
-17.9823
 21
65.2374
  0
LINE
  8
0
 10
-17.9823
 20
65.2374
 11
-17.9686
 21
65.2987
  0
LINE
  8
0
 10
-17.9686
 20
65.2987
 11
-17.951
 21
65.359
  0
LINE
  8
0
 10
-17.951
 20
65.359
 11
-17.9298
 21
65.4181
  0
LINE
  8
0
 10
-17.9298
 20
65.4181
 11
-17.9048
 21
65.4758
  0
LINE
  8
0
 10
-17.9048
 20
65.4758
 11
-17.8763
 21
65.5317
  0
LINE
  8
0
 10
-17.8763
 20
65.5317
 11
-17.8443
 21
65.5858
  0
LINE
  8
0
 10
-17.8443
 20
65.5858
 11
-17.809
 21
65.6378
  0
LINE
  8
0
 10
-17.809
 20
65.6378
 11
-17.7705
 21
65.6874
  0
LINE
  8
0
 10
-17.7705
 20
65.6874
 11
-17.729
 21
65.7345
  0
LINE
  8
0
 10
-17.729
 20
65.7345
 11
-17.6845
 21
65.7789
  0
LINE
  8
0
 10
-17.6845
 20
65.7789
 11
-17.6374
 21
65.8205
  0
LINE
  8
0
 10
-17.6374
 20
65.8205
 11
-17.5878
 21
65.859
  0
LINE
  8
0
 10
-17.5878
 20
65.859
 11
-17.5358
 21
65.8943
  0
LINE
  8
0
 10
-17.5358
 20
65.8943
 11
-17.4818
 21
65.9263
  0
LINE
  8
0
 10
-17.4818
 20
65.9263
 11
-17.4258
 21
65.9548
  0
LINE
  8
0
 10
-17.4258
 20
65.9548
 11
-17.3681
 21
65.9798
  0
LINE
  8
0
 10
-17.3681
 20
65.9798
 11
-17.309
 21
66.001
  0
LINE
  8
0
 10
-17.309
 20
66.001
 11
-17.2487
 21
66.0186
  0
LINE
  8
0
 10
-17.2487
 20
66.0186
 11
-17.1874
 21
66.0323
  0
LINE
  8
0
 10
-17.1874
 20
66.0323
 11
-17.1253
 21
66.0421
  0
LINE
  8
0
 10
-17.1253
 20
66.0421
 11
-17.0628
 21
66.048
  0
LINE
  8
0
 10
-17.0628
 20
66.048
 11
-17
 21
66.05
  0
LINE
  8
0
 10
-17
 20
66.05
 11
9
 21
66.05
  0
LINE
  8
0
 10
9
 20
66.05
 11
9.06279
 21
66.048
  0
LINE
  8
0
 10
9.06279
 20
66.048
 11
9.12532
 21
66.0421
  0
LINE
  8
0
 10
9.12532
 20
66.0421
 11
9.18738
 21
66.0323
  0
LINE
  8
0
 10
9.18738
 20
66.0323
 11
9.24869
 21
66.0186
  0
LINE
  8
0
 10
9.24869
 20
66.0186
 11
9.30901
 21
66.001
  0
LINE
  8
0
 10
9.30901
 20
66.001
 11
9.36812
 21
65.9798
  0
LINE
  8
0
 10
9.36812
 20
65.9798
 11
9.42577
 21
65.9548
  0
LINE
  8
0
 10
9.42577
 20
65.9548
 11
9.48175
 21
65.9263
  0
LINE
  8
0
 10
9.48175
 20
65.9263
 11
9.53581
 21
65.8943
  0
LINE
  8
0
 10
9.53581
 20
65.8943
 11
9.58778
 21
65.859
  0
LINE
  8
0
 10
9.58778
 20
65.859
 11
9.63742
 21
65.8205
  0
LINE
  8
0
 10
9.63742
 20
65.8205
 11
9.68454
 21
65.7789
  0
LINE
  8
0
 10
9.68454
 20
65.7789
 11
9.72896
 21
65.7345
  0
LINE
  8
0
 10
9.72896
 20
65.7345
 11
9.77051
 21
65.6874
  0
LINE
  8
0
 10
9.77051
 20
65.6874
 11
9.80901
 21
65.6378
  0
LINE
  8
0
 10
9.80901
 20
65.6378
 11
9.84431
 21
65.5858
  0
LINE
  8
0
 10
9.84431
 20
65.5858
 11
9.8763
 21
65.5317
  0
LINE
  8
0
 10
9.8763
 20
65.5317
 11
9.90482
 21
65.4758
  0
LINE
  8
0
 10
9.90482
 20
65.4758
 11
9.92976
 21
65.4181
  0
LINE
  8
0
 10
9.92976
 20
65.4181
 11
9.95105
 21
65.359
  0
LINE
  8
0
 10
9.95105
 20
65.359
 11
9.96858
 21
65.2987
  0
LINE
  8
0
 10
9.96858
 20
65.2987
 11
9.98228
 21
65.2374
  0
LINE
  8
0
 10
9.98228
 20
65.2374
 11
9.99211
 21
65.1753
  0
LINE
  8
0
 10
9.99211
 20
65.1753
 11
9.99802
 21
65.1128
  0
LINE
  8
0
 10
9.99802
 20
65.1128
 11
10
 21
65.05
  0
LINE
  8
0
 10
10
 20
65.05
 11
10
 21
64.95
  0
LINE
  8
0
 10
10
 20
64.95
 11
9.99802
 21
64.8872
  0
LINE
  8
0
 10
9.99802
 20
64.8872
 11
9.99211
 21
64.8247
  0
LINE
  8
0
 10
9.99211
 20
64.8247
 11
9.98228
 21
64.7626
  0
LINE
  8
0
 10
9.98228
 20
64.7626
 11
9.96858
 21
64.7013
  0
LINE
  8
0
 10
9.96858
 20
64.7013
 11
9.95105
 21
64.641
  0
LINE
  8
0
 10
9.95105
 20
64.641
 11
9.92976
 21
64.5819
  0
LINE
  8
0
 10
9.92976
 20
64.5819
 11
9.90482
 21
64.5242
  0
LINE
  8
0
 10
9.90482
 20
64.5242
 11
9.8763
 21
64.4683
  0
LINE
  8
0
 10
9.8763
 20
64.4683
 11
9.84431
 21
64.4142
  0
LINE
  8
0
 10
9.84431
 20
64.4142
 11
9.80901
 21
64.3622
  0
LINE
  8
0
 10
9.80901
 20
64.3622
 11
9.77051
 21
64.3126
  0
LINE
  8
0
 10
9.77051
 20
64.3126
 11
9.72896
 21
64.2655
  0
LINE
  8
0
 10
9.72896
 20
64.2655
 11
9.68454
 21
64.2211
  0
LINE
  8
0
 10
9.68454
 20
64.2211
 11
9.63742
 21
64.1795
  0
LINE
  8
0
 10
9.63742
 20
64.1795
 11
9.58778
 21
64.141
  0
LINE
  8
0
 10
9.58778
 20
64.141
 11
9.53581
 21
64.1057
  0
LINE
  8
0
 10
9.53581
 20
64.1057
 11
9.48175
 21
64.0737
  0
LINE
  8
0
 10
9.48175
 20
64.0737
 11
9.42577
 21
64.0452
  0
LINE
  8
0
 10
9.42577
 20
64.0452
 11
9.36812
 21
64.0202
  0
LINE
  8
0
 10
9.36812
 20
64.0202
 11
9.30901
 21
63.999
  0
LINE
  8
0
 10
9.30901
 20
63.999
 11
9.24869
 21
63.9814
  0
LINE
  8
0
 10
9.24869
 20
63.9814
 11
9.18738
 21
63.9677
  0
LINE
  8
0
 10
9.18738
 20
63.9677
 11
9.12532
 21
63.9579
  0
LINE
  8
0
 10
9.12532
 20
63.9579
 11
9.06279
 21
63.952
  0
LINE
  8
0
 10
9.06279
 20
63.952
 11
9
 21
63.95
  0
LINE
  8
0
 10
9
 20
63.95
 11
-17
 21
63.95
  0
LINE
  8
0
 10
-14.6884
 20
52.0059
 11
-14.876
 21
52.0237
  0
LINE
  8
0
 10
-14.876
 20
52.0237
 11
-15.0621
 21
52.0531
  0
LINE
  8
0
 10
-15.0621
 20
52.0531
 11
-15.2461
 21
52.0943
  0
LINE
  8
0
 10
-15.2461
 20
52.0943
 11
-15.427
 21
52.1468
  0
LINE
  8
0
 10
-15.427
 20
52.1468
 11
-15.6044
 21
52.2107
  0
LINE
  8
0
 10
-15.6044
 20
52.2107
 11
-15.7773
 21
52.2855
  0
LINE
  8
0
 10
-15.7773
 20
52.2855
 11
-15.9453
 21
52.3711
  0
LINE
  8
0
 10
-15.9453
 20
52.3711
 11
-16.1075
 21
52.467
  0
LINE
  8
0
 10
-16.1075
 20
52.467
 11
-16.2634
 21
52.573
  0
LINE
  8
0
 10
-16.2634
 20
52.573
 11
-16.4123
 21
52.6885
  0
LINE
  8
0
 10
-16.4123
 20
52.6885
 11
-16.5536
 21
52.8131
  0
LINE
  8
0
 10
-16.5536
 20
52.8131
 11
-16.6869
 21
52.9464
  0
LINE
  8
0
 10
-16.6869
 20
52.9464
 11
-16.8115
 21
53.0877
  0
LINE
  8
0
 10
-16.8115
 20
53.0877
 11
-16.927
 21
53.2366
  0
LINE
  8
0
 10
-16.927
 20
53.2366
 11
-17.033
 21
53.3925
  0
LINE
  8
0
 10
-17.033
 20
53.3925
 11
-17.1289
 21
53.5547
  0
LINE
  8
0
 10
-17.1289
 20
53.5547
 11
-17.2145
 21
53.7227
  0
LINE
  8
0
 10
-17.2145
 20
53.7227
 11
-17.2893
 21
53.8956
  0
LINE
  8
0
 10
-17.2893
 20
53.8956
 11
-17.3532
 21
54.073
  0
LINE
  8
0
 10
-17.3532
 20
54.073
 11
-17.4057
 21
54.2539
  0
LINE
  8
0
 10
-17.4057
 20
54.2539
 11
-17.4469
 21
54.4379
  0
LINE
  8
0
 10
-17.4469
 20
54.4379
 11
-17.4763
 21
54.624
  0
LINE
  8
0
 10
-17.4763
 20
54.624
 11
-17.4941
 21
54.8116
  0
LINE
  8
0
 10
-17.4941
 20
54.8116
 11
-17.5
 21
55
  0
LINE
  8
0
 10
-17.5
 20
55
 11
-17.4941
 21
55.1884
  0
LINE
  8
0
 10
-17.4941
 20
55.1884
 11
-17.4763
 21
55.376
  0
LINE
  8
0
 10
-17.4763
 20
55.376
 11
-17.4469
 21
55.5621
  0
LINE
  8
0
 10
-17.4469
 20
55.5621
 11
-17.4057
 21
55.7461
  0
LINE
  8
0
 10
-17.4057
 20
55.7461
 11
-17.3532
 21
55.9271
  0
LINE
  8
0
 10
-17.3532
 20
55.9271
 11
-17.2893
 21
56.1044
  0
LINE
  8
0
 10
-17.2893
 20
56.1044
 11
-17.2145
 21
56.2773
  0
LINE
  8
0
 10
-17.2145
 20
56.2773
 11
-17.1289
 21
56.4453
  0
LINE
  8
0
 10
-17.1289
 20
56.4453
 11
-17.033
 21
56.6075
  0
LINE
  8
0
 10
-17.033
 20
56.6075
 11
-16.927
 21
56.7634
  0
LINE
  8
0
 10
-16.927
 20
56.7634
 11
-16.8115
 21
56.9123
  0
LINE
  8
0
 10
-16.8115
 20
56.9123
 11
-16.6869
 21
57.0536
  0
LINE
  8
0
 10
-16.6869
 20
57.0536
 11
-16.5536
 21
57.1869
  0
LINE
  8
0
 10
-16.5536
 20
57.1869
 11
-16.4123
 21
57.3116
  0
LINE
  8
0
 10
-16.4123
 20
57.3116
 11
-16.2634
 21
57.4271
  0
LINE
  8
0
 10
-16.2634
 20
57.4271
 11
-16.1075
 21
57.533
  0
LINE
  8
0
 10
-16.1075
 20
57.533
 11
-15.9453
 21
57.6289
  0
LINE
  8
0
 10
-15.9453
 20
57.6289
 11
-15.7773
 21
57.7145
  0
LINE
  8
0
 10
-15.7773
 20
57.7145
 11
-15.6044
 21
57.7893
  0
LINE
  8
0
 10
-15.6044
 20
57.7893
 11
-15.427
 21
57.8532
  0
LINE
  8
0
 10
-15.427
 20
57.8532
 11
-15.2461
 21
57.9058
  0
LINE
  8
0
 10
-15.2461
 20
57.9058
 11
-15.0621
 21
57.9469
  0
LINE
  8
0
 10
-15.0621
 20
57.9469
 11
-14.876
 21
57.9763
  0
LINE
  8
0
 10
-14.876
 20
57.9763
 11
-14.6884
 21
57.9941
  0
LINE
  8
0
 10
-14.6884
 20
57.9941
 11
-14.5
 21
58
  0
LINE
  8
0
 10
-14.5
 20
58
 11
-14.3116
 21
57.9941
  0
LINE
  8
0
 10
-14.3116
 20
57.9941
 11
-14.124
 21
57.9763
  0
LINE
  8
0
 10
-14.124
 20
57.9763
 11
-13.9379
 21
57.9469
  0
LINE
  8
0
 10
-13.9379
 20
57.9469
 11
-13.7539
 21
57.9058
  0
LINE
  8
0
 10
-13.7539
 20
57.9058
 11
-13.5729
 21
57.8532
  0
LINE
  8
0
 10
-13.5729
 20
57.8532
 11
-13.3956
 21
57.7893
  0
LINE
  8
0
 10
-13.3956
 20
57.7893
 11
-13.2227
 21
57.7145
  0
LINE
  8
0
 10
-13.2227
 20
57.7145
 11
-13.0547
 21
57.6289
  0
LINE
  8
0
 10
-13.0547
 20
57.6289
 11
-12.8925
 21
57.533
  0
LINE
  8
0
 10
-12.8925
 20
57.533
 11
-12.7366
 21
57.4271
  0
LINE
  8
0
 10
-12.7366
 20
57.4271
 11
-12.5877
 21
57.3116
  0
LINE
  8
0
 10
-12.5877
 20
57.3116
 11
-12.4464
 21
57.1869
  0
LINE
  8
0
 10
-12.4464
 20
57.1869
 11
-12.3131
 21
57.0536
  0
LINE
  8
0
 10
-12.3131
 20
57.0536
 11
-12.1884
 21
56.9123
  0
LINE
  8
0
 10
-12.1884
 20
56.9123
 11
-12.0729
 21
56.7634
  0
LINE
  8
0
 10
-12.0729
 20
56.7634
 11
-11.967
 21
56.6075
  0
LINE
  8
0
 10
-11.967
 20
56.6075
 11
-11.8711
 21
56.4453
  0
LINE
  8
0
 10
-11.8711
 20
56.4453
 11
-11.7855
 21
56.2773
  0
LINE
  8
0
 10
-11.7855
 20
56.2773
 11
-11.7107
 21
56.1044
  0
LINE
  8
0
 10
-11.7107
 20
56.1044
 11
-11.6468
 21
55.9271
  0
LINE
  8
0
 10
-11.6468
 20
55.9271
 11
-11.5942
 21
55.7461
  0
LINE
  8
0
 10
-11.5942
 20
55.7461
 11
-11.5531
 21
55.5621
  0
LINE
  8
0
 10
-11.5531
 20
55.5621
 11
-11.5237
 21
55.376
  0
LINE
  8
0
 10
-11.5237
 20
55.376
 11
-11.5059
 21
55.1884
  0
LINE
  8
0
 10
-11.5059
 20
55.1884
 11
-11.5
 21
55
  0
LINE
  8
0
 10
-11.5
 20
55
 11
-11.5059
 21
54.8116
  0
LINE
  8
0
 10
-11.5059
 20
54.8116
 11
-11.5237
 21
54.624
  0
LINE
  8
0
 10
-11.5237
 20
54.624
 11
-11.5531
 21
54.4379
  0
LINE
  8
0
 10
-11.5531
 20
54.4379
 11
-11.5942
 21
54.2539
  0
LINE
  8
0
 10
-11.5942
 20
54.2539
 11
-11.6468
 21
54.073
  0
LINE
  8
0
 10
-11.6468
 20
54.073
 11
-11.7107
 21
53.8956
  0
LINE
  8
0
 10
-11.7107
 20
53.8956
 11
-11.7855
 21
53.7227
  0
LINE
  8
0
 10
-11.7855
 20
53.7227
 11
-11.8711
 21
53.5547
  0
LINE
  8
0
 10
-11.8711
 20
53.5547
 11
-11.967
 21
53.3925
  0
LINE
  8
0
 10
-11.967
 20
53.3925
 11
-12.0729
 21
53.2366
  0
LINE
  8
0
 10
-12.0729
 20
53.2366
 11
-12.1884
 21
53.0877
  0
LINE
  8
0
 10
-12.1884
 20
53.0877
 11
-12.3131
 21
52.9464
  0
LINE
  8
0
 10
-12.3131
 20
52.9464
 11
-12.4464
 21
52.8131
  0
LINE
  8
0
 10
-12.4464
 20
52.8131
 11
-12.5877
 21
52.6885
  0
LINE
  8
0
 10
-12.5877
 20
52.6885
 11
-12.7366
 21
52.573
  0
LINE
  8
0
 10
-12.7366
 20
52.573
 11
-12.8925
 21
52.467
  0
LINE
  8
0
 10
-12.8925
 20
52.467
 11
-13.0547
 21
52.3711
  0
LINE
  8
0
 10
-13.0547
 20
52.3711
 11
-13.2227
 21
52.2855
  0
LINE
  8
0
 10
-13.2227
 20
52.2855
 11
-13.3956
 21
52.2107
  0
LINE
  8
0
 10
-13.3956
 20
52.2107
 11
-13.5729
 21
52.1468
  0
LINE
  8
0
 10
-13.5729
 20
52.1468
 11
-13.7539
 21
52.0943
  0
LINE
  8
0
 10
-13.7539
 20
52.0943
 11
-13.9379
 21
52.0531
  0
LINE
  8
0
 10
-13.9379
 20
52.0531
 11
-14.124
 21
52.0237
  0
LINE
  8
0
 10
-14.124
 20
52.0237
 11
-14.3116
 21
52.0059
  0
LINE
  8
0
 10
-14.3116
 20
52.0059
 11
-14.5
 21
52
  0
LINE
  8
0
 10
-14.5
 20
52
 11
-14.6884
 21
52.0059
  0
LINE
  8
0
 10
-7.5
 20
53.95
 11
-7.56279
 21
53.952
  0
LINE
  8
0
 10
-7.56279
 20
53.952
 11
-7.62532
 21
53.9579
  0
LINE
  8
0
 10
-7.62532
 20
53.9579
 11
-7.68738
 21
53.9677
  0
LINE
  8
0
 10
-7.68738
 20
53.9677
 11
-7.74869
 21
53.9814
  0
LINE
  8
0
 10
-7.74869
 20
53.9814
 11
-7.80901
 21
53.999
  0
LINE
  8
0
 10
-7.80901
 20
53.999
 11
-7.86812
 21
54.0202
  0
LINE
  8
0
 10
-7.86812
 20
54.0202
 11
-7.92577
 21
54.0452
  0
LINE
  8
0
 10
-7.92577
 20
54.0452
 11
-7.98175
 21
54.0737
  0
LINE
  8
0
 10
-7.98175
 20
54.0737
 11
-8.03581
 21
54.1057
  0
LINE
  8
0
 10
-8.03581
 20
54.1057
 11
-8.08778
 21
54.141
  0
LINE
  8
0
 10
-8.08778
 20
54.141
 11
-8.13742
 21
54.1795
  0
LINE
  8
0
 10
-8.13742
 20
54.1795
 11
-8.18454
 21
54.2211
  0
LINE
  8
0
 10
-8.18454
 20
54.2211
 11
-8.22896
 21
54.2655
  0
LINE
  8
0
 10
-8.22896
 20
54.2655
 11
-8.27051
 21
54.3126
  0
LINE
  8
0
 10
-8.27051
 20
54.3126
 11
-8.30901
 21
54.3622
  0
LINE
  8
0
 10
-8.30901
 20
54.3622
 11
-8.34431
 21
54.4142
  0
LINE
  8
0
 10
-8.34431
 20
54.4142
 11
-8.3763
 21
54.4683
  0
LINE
  8
0
 10
-8.3763
 20
54.4683
 11
-8.40482
 21
54.5242
  0
LINE
  8
0
 10
-8.40482
 20
54.5242
 11
-8.42976
 21
54.5819
  0
LINE
  8
0
 10
-8.42976
 20
54.5819
 11
-8.45105
 21
54.641
  0
LINE
  8
0
 10
-8.45105
 20
54.641
 11
-8.46858
 21
54.7013
  0
LINE
  8
0
 10
-8.46858
 20
54.7013
 11
-8.48228
 21
54.7626
  0
LINE
  8
0
 10
-8.48228
 20
54.7626
 11
-8.49211
 21
54.8247
  0
LINE
  8
0
 10
-8.49211
 20
54.8247
 11
-8.49802
 21
54.8872
  0
LINE
  8
0
 10
-8.49802
 20
54.8872
 11
-8.5
 21
54.95
  0
LINE
  8
0
 10
-8.5
 20
54.95
 11
-8.5
 21
55.05
  0
LINE
  8
0
 10
-8.5
 20
55.05
 11
-8.49802
 21
55.1128
  0
LINE
  8
0
 10
-8.49802
 20
55.1128
 11
-8.49211
 21
55.1753
  0
LINE
  8
0
 10
-8.49211
 20
55.1753
 11
-8.48228
 21
55.2374
  0
LINE
  8
0
 10
-8.48228
 20
55.2374
 11
-8.46858
 21
55.2987
  0
LINE
  8
0
 10
-8.46858
 20
55.2987
 11
-8.45105
 21
55.359
  0
LINE
  8
0
 10
-8.45105
 20
55.359
 11
-8.42976
 21
55.4181
  0
LINE
  8
0
 10
-8.42976
 20
55.4181
 11
-8.40482
 21
55.4758
  0
LINE
  8
0
 10
-8.40482
 20
55.4758
 11
-8.3763
 21
55.5317
  0
LINE
  8
0
 10
-8.3763
 20
55.5317
 11
-8.34431
 21
55.5858
  0
LINE
  8
0
 10
-8.34431
 20
55.5858
 11
-8.30901
 21
55.6378
  0
LINE
  8
0
 10
-8.30901
 20
55.6378
 11
-8.27051
 21
55.6874
  0
LINE
  8
0
 10
-8.27051
 20
55.6874
 11
-8.22896
 21
55.7345
  0
LINE
  8
0
 10
-8.22896
 20
55.7345
 11
-8.18454
 21
55.7789
  0
LINE
  8
0
 10
-8.18454
 20
55.7789
 11
-8.13742
 21
55.8205
  0
LINE
  8
0
 10
-8.13742
 20
55.8205
 11
-8.08778
 21
55.859
  0
LINE
  8
0
 10
-8.08778
 20
55.859
 11
-8.03581
 21
55.8943
  0
LINE
  8
0
 10
-8.03581
 20
55.8943
 11
-7.98175
 21
55.9263
  0
LINE
  8
0
 10
-7.98175
 20
55.9263
 11
-7.92577
 21
55.9548
  0
LINE
  8
0
 10
-7.92577
 20
55.9548
 11
-7.86812
 21
55.9798
  0
LINE
  8
0
 10
-7.86812
 20
55.9798
 11
-7.80901
 21
56.001
  0
LINE
  8
0
 10
-7.80901
 20
56.001
 11
-7.74869
 21
56.0186
  0
LINE
  8
0
 10
-7.74869
 20
56.0186
 11
-7.68738
 21
56.0323
  0
LINE
  8
0
 10
-7.68738
 20
56.0323
 11
-7.62532
 21
56.0421
  0
LINE
  8
0
 10
-7.62532
 20
56.0421
 11
-7.56279
 21
56.048
  0
LINE
  8
0
 10
-7.56279
 20
56.048
 11
-7.5
 21
56.05
  0
LINE
  8
0
 10
-7.5
 20
56.05
 11
15.5
 21
56.05
  0
LINE
  8
0
 10
15.5
 20
56.05
 11
15.5628
 21
56.048
  0
LINE
  8
0
 10
15.5628
 20
56.048
 11
15.6253
 21
56.0421
  0
LINE
  8
0
 10
15.6253
 20
56.0421
 11
15.6874
 21
56.0323
  0
LINE
  8
0
 10
15.6874
 20
56.0323
 11
15.7487
 21
56.0186
  0
LINE
  8
0
 10
15.7487
 20
56.0186
 11
15.809
 21
56.001
  0
LINE
  8
0
 10
15.809
 20
56.001
 11
15.8681
 21
55.9798
  0
LINE
  8
0
 10
15.8681
 20
55.9798
 11
15.9258
 21
55.9548
  0
LINE
  8
0
 10
15.9258
 20
55.9548
 11
15.9818
 21
55.9263
  0
LINE
  8
0
 10
15.9818
 20
55.9263
 11
16.0358
 21
55.8943
  0
LINE
  8
0
 10
16.0358
 20
55.8943
 11
16.0878
 21
55.859
  0
LINE
  8
0
 10
16.0878
 20
55.859
 11
16.1374
 21
55.8205
  0
LINE
  8
0
 10
16.1374
 20
55.8205
 11
16.1845
 21
55.7789
  0
LINE
  8
0
 10
16.1845
 20
55.7789
 11
16.229
 21
55.7345
  0
LINE
  8
0
 10
16.229
 20
55.7345
 11
16.2705
 21
55.6874
  0
LINE
  8
0
 10
16.2705
 20
55.6874
 11
16.309
 21
55.6378
  0
LINE
  8
0
 10
16.309
 20
55.6378
 11
16.3443
 21
55.5858
  0
LINE
  8
0
 10
16.3443
 20
55.5858
 11
16.3763
 21
55.5317
  0
LINE
  8
0
 10
16.3763
 20
55.5317
 11
16.4048
 21
55.4758
  0
LINE
  8
0
 10
16.4048
 20
55.4758
 11
16.4298
 21
55.4181
  0
LINE
  8
0
 10
16.4298
 20
55.4181
 11
16.451
 21
55.359
  0
LINE
  8
0
 10
16.451
 20
55.359
 11
16.4686
 21
55.2987
  0
LINE
  8
0
 10
16.4686
 20
55.2987
 11
16.4823
 21
55.2374
  0
LINE
  8
0
 10
16.4823
 20
55.2374
 11
16.4921
 21
55.1753
  0
LINE
  8
0
 10
16.4921
 20
55.1753
 11
16.498
 21
55.1128
  0
LINE
  8
0
 10
16.498
 20
55.1128
 11
16.5
 21
55.05
  0
LINE
  8
0
 10
16.5
 20
55.05
 11
16.5
 21
54.95
  0
LINE
  8
0
 10
16.5
 20
54.95
 11
16.498
 21
54.8872
  0
LINE
  8
0
 10
16.498
 20
54.8872
 11
16.4921
 21
54.8247
  0
LINE
  8
0
 10
16.4921
 20
54.8247
 11
16.4823
 21
54.7626
  0
LINE
  8
0
 10
16.4823
 20
54.7626
 11
16.4686
 21
54.7013
  0
LINE
  8
0
 10
16.4686
 20
54.7013
 11
16.451
 21
54.641
  0
LINE
  8
0
 10
16.451
 20
54.641
 11
16.4298
 21
54.5819
  0
LINE
  8
0
 10
16.4298
 20
54.5819
 11
16.4048
 21
54.5242
  0
LINE
  8
0
 10
16.4048
 20
54.5242
 11
16.3763
 21
54.4683
  0
LINE
  8
0
 10
16.3763
 20
54.4683
 11
16.3443
 21
54.4142
  0
LINE
  8
0
 10
16.3443
 20
54.4142
 11
16.309
 21
54.3622
  0
LINE
  8
0
 10
16.309
 20
54.3622
 11
16.2705
 21
54.3126
  0
LINE
  8
0
 10
16.2705
 20
54.3126
 11
16.229
 21
54.2655
  0
LINE
  8
0
 10
16.229
 20
54.2655
 11
16.1845
 21
54.2211
  0
LINE
  8
0
 10
16.1845
 20
54.2211
 11
16.1374
 21
54.1795
  0
LINE
  8
0
 10
16.1374
 20
54.1795
 11
16.0878
 21
54.141
  0
LINE
  8
0
 10
16.0878
 20
54.141
 11
16.0358
 21
54.1057
  0
LINE
  8
0
 10
16.0358
 20
54.1057
 11
15.9818
 21
54.0737
  0
LINE
  8
0
 10
15.9818
 20
54.0737
 11
15.9258
 21
54.0452
  0
LINE
  8
0
 10
15.9258
 20
54.0452
 11
15.8681
 21
54.0202
  0
LINE
  8
0
 10
15.8681
 20
54.0202
 11
15.809
 21
53.999
  0
LINE
  8
0
 10
15.809
 20
53.999
 11
15.7487
 21
53.9814
  0
LINE
  8
0
 10
15.7487
 20
53.9814
 11
15.6874
 21
53.9677
  0
LINE
  8
0
 10
15.6874
 20
53.9677
 11
15.6253
 21
53.9579
  0
LINE
  8
0
 10
15.6253
 20
53.9579
 11
15.5628
 21
53.952
  0
LINE
  8
0
 10
15.5628
 20
53.952
 11
15.5
 21
53.95
  0
LINE
  8
0
 10
15.5
 20
53.95
 11
-7.5
 21
53.95
  0
LINE
  8
0
 10
18.6884
 20
17.0059
 11
18.876
 21
17.0237
  0
LINE
  8
0
 10
18.876
 20
17.0237
 11
19.0621
 21
17.0531
  0
LINE
  8
0
 10
19.0621
 20
17.0531
 11
19.2461
 21
17.0943
  0
LINE
  8
0
 10
19.2461
 20
17.0943
 11
19.427
 21
17.1468
  0
LINE
  8
0
 10
19.427
 20
17.1468
 11
19.6044
 21
17.2107
  0
LINE
  8
0
 10
19.6044
 20
17.2107
 11
19.7773
 21
17.2855
  0
LINE
  8
0
 10
19.7773
 20
17.2855
 11
19.9453
 21
17.3711
  0
LINE
  8
0
 10
19.9453
 20
17.3711
 11
20.1075
 21
17.467
  0
LINE
  8
0
 10
20.1075
 20
17.467
 11
20.2634
 21
17.573
  0
LINE
  8
0
 10
20.2634
 20
17.573
 11
20.4123
 21
17.6885
  0
LINE
  8
0
 10
20.4123
 20
17.6885
 11
20.5536
 21
17.8131
  0
LINE
  8
0
 10
20.5536
 20
17.8131
 11
20.6869
 21
17.9464
  0
LINE
  8
0
 10
20.6869
 20
17.9464
 11
20.8115
 21
18.0877
  0
LINE
  8
0
 10
20.8115
 20
18.0877
 11
20.927
 21
18.2366
  0
LINE
  8
0
 10
20.927
 20
18.2366
 11
21.033
 21
18.3925
  0
LINE
  8
0
 10
21.033
 20
18.3925
 11
21.1289
 21
18.5547
  0
LINE
  8
0
 10
21.1289
 20
18.5547
 11
21.2145
 21
18.7227
  0
LINE
  8
0
 10
21.2145
 20
18.7227
 11
21.2893
 21
18.8956
  0
LINE
  8
0
 10
21.2893
 20
18.8956
 11
21.3532
 21
19.073
  0
LINE
  8
0
 10
21.3532
 20
19.073
 11
21.4057
 21
19.2539
  0
LINE
  8
0
 10
21.4057
 20
19.2539
 11
21.4469
 21
19.4379
  0
LINE
  8
0
 10
21.4469
 20
19.4379
 11
21.4763
 21
19.624
  0
LINE
  8
0
 10
21.4763
 20
19.624
 11
21.4941
 21
19.8116
  0
LINE
  8
0
 10
21.4941
 20
19.8116
 11
21.5
 21
20
  0
LINE
  8
0
 10
21.5
 20
20
 11
21.5
 21
44
  0
LINE
  8
0
 10
21.5
 20
44
 11
21.4941
 21
44.1884
  0
LINE
  8
0
 10
21.4941
 20
44.1884
 11
21.4763
 21
44.376
  0
LINE
  8
0
 10
21.4763
 20
44.376
 11
21.4469
 21
44.5621
  0
LINE
  8
0
 10
21.4469
 20
44.5621
 11
21.4057
 21
44.7461
  0
LINE
  8
0
 10
21.4057
 20
44.7461
 11
21.3532
 21
44.927
  0
LINE
  8
0
 10
21.3532
 20
44.927
 11
21.2893
 21
45.1044
  0
LINE
  8
0
 10
21.2893
 20
45.1044
 11
21.2145
 21
45.2773
  0
LINE
  8
0
 10
21.2145
 20
45.2773
 11
21.1289
 21
45.4453
  0
LINE
  8
0
 10
21.1289
 20
45.4453
 11
21.033
 21
45.6075
  0
LINE
  8
0
 10
21.033
 20
45.6075
 11
20.927
 21
45.7634
  0
LINE
  8
0
 10
20.927
 20
45.7634
 11
20.8115
 21
45.9123
  0
LINE
  8
0
 10
20.8115
 20
45.9123
 11
20.6869
 21
46.0536
  0
LINE
  8
0
 10
20.6869
 20
46.0536
 11
20.5536
 21
46.1869
  0
LINE
  8
0
 10
20.5536
 20
46.1869
 11
20.4123
 21
46.3115
  0
LINE
  8
0
 10
20.4123
 20
46.3115
 11
20.2634
 21
46.427
  0
LINE
  8
0
 10
20.2634
 20
46.427
 11
20.1075
 21
46.533
  0
LINE
  8
0
 10
20.1075
 20
46.533
 11
19.9453
 21
46.6289
  0
LINE
  8
0
 10
19.9453
 20
46.6289
 11
19.7773
 21
46.7145
  0
LINE
  8
0
 10
19.7773
 20
46.7145
 11
19.6044
 21
46.7893
  0
LINE
  8
0
 10
19.6044
 20
46.7893
 11
19.427
 21
46.8532
  0
LINE
  8
0
 10
19.427
 20
46.8532
 11
19.2461
 21
46.9057
  0
LINE
  8
0
 10
19.2461
 20
46.9057
 11
19.0621
 21
46.9469
  0
LINE
  8
0
 10
19.0621
 20
46.9469
 11
18.876
 21
46.9763
  0
LINE
  8
0
 10
18.876
 20
46.9763
 11
18.6884
 21
46.9941
  0
LINE
  8
0
 10
18.6884
 20
46.9941
 11
18.5
 21
47
  0
LINE
  8
0
 10
18.5
 20
47
 11
-18.5
 21
47
  0
LINE
  8
0
 10
-18.5
 20
47
 11
-18.6884
 21
46.9941
  0
LINE
  8
0
 10
-18.6884
 20
46.9941
 11
-18.876
 21
46.9763
  0
LINE
  8
0
 10
-18.876
 20
46.9763
 11
-19.0621
 21
46.9469
  0
LINE
  8
0
 10
-19.0621
 20
46.9469
 11
-19.2461
 21
46.9057
  0
LINE
  8
0
 10
-19.2461
 20
46.9057
 11
-19.427
 21
46.8532
  0
LINE
  8
0
 10
-19.427
 20
46.8532
 11
-19.6044
 21
46.7893
  0
LINE
  8
0
 10
-19.6044
 20
46.7893
 11
-19.7773
 21
46.7145
  0
LINE
  8
0
 10
-19.7773
 20
46.7145
 11
-19.9453
 21
46.6289
  0
LINE
  8
0
 10
-19.9453
 20
46.6289
 11
-20.1075
 21
46.533
  0
LINE
  8
0
 10
-20.1075
 20
46.533
 11
-20.2634
 21
46.427
  0
LINE
  8
0
 10
-20.2634
 20
46.427
 11
-20.4123
 21
46.3115
  0
LINE
  8
0
 10
-20.4123
 20
46.3115
 11
-20.5536
 21
46.1869
  0
LINE
  8
0
 10
-20.5536
 20
46.1869
 11
-20.6869
 21
46.0536
  0
LINE
  8
0
 10
-20.6869
 20
46.0536
 11
-20.8115
 21
45.9123
  0
LINE
  8
0
 10
-20.8115
 20
45.9123
 11
-20.927
 21
45.7634
  0
LINE
  8
0
 10
-20.927
 20
45.7634
 11
-21.033
 21
45.6075
  0
LINE
  8
0
 10
-21.033
 20
45.6075
 11
-21.1289
 21
45.4453
  0
LINE
  8
0
 10
-21.1289
 20
45.4453
 11
-21.2145
 21
45.2773
  0
LINE
  8
0
 10
-21.2145
 20
45.2773
 11
-21.2893
 21
45.1044
  0
LINE
  8
0
 10
-21.2893
 20
45.1044
 11
-21.3532
 21
44.927
  0
LINE
  8
0
 10
-21.3532
 20
44.927
 11
-21.4057
 21
44.7461
  0
LINE
  8
0
 10
-21.4057
 20
44.7461
 11
-21.4469
 21
44.5621
  0
LINE
  8
0
 10
-21.4469
 20
44.5621
 11
-21.4763
 21
44.376
  0
LINE
  8
0
 10
-21.4763
 20
44.376
 11
-21.4941
 21
44.1884
  0
LINE
  8
0
 10
-21.4941
 20
44.1884
 11
-21.5
 21
44
  0
LINE
  8
0
 10
-21.5
 20
44
 11
-21.5
 21
20
  0
LINE
  8
0
 10
-21.5
 20
20
 11
-21.4941
 21
19.8116
  0
LINE
  8
0
 10
-21.4941
 20
19.8116
 11
-21.4763
 21
19.624
  0
LINE
  8
0
 10
-21.4763
 20
19.624
 11
-21.4469
 21
19.4379
  0
LINE
  8
0
 10
-21.4469
 20
19.4379
 11
-21.4057
 21
19.2539
  0
LINE
  8
0
 10
-21.4057
 20
19.2539
 11
-21.3532
 21
19.073
  0
LINE
  8
0
 10
-21.3532
 20
19.073
 11
-21.2893
 21
18.8956
  0
LINE
  8
0
 10
-21.2893
 20
18.8956
 11
-21.2145
 21
18.7227
  0
LINE
  8
0
 10
-21.2145
 20
18.7227
 11
-21.1289
 21
18.5547
  0
LINE
  8
0
 10
-21.1289
 20
18.5547
 11
-21.033
 21
18.3925
  0
LINE
  8
0
 10
-21.033
 20
18.3925
 11
-20.927
 21
18.2366
  0
LINE
  8
0
 10
-20.927
 20
18.2366
 11
-20.8115
 21
18.0877
  0
LINE
  8
0
 10
-20.8115
 20
18.0877
 11
-20.6869
 21
17.9464
  0
LINE
  8
0
 10
-20.6869
 20
17.9464
 11
-20.5536
 21
17.8131
  0
LINE
  8
0
 10
-20.5536
 20
17.8131
 11
-20.4123
 21
17.6885
  0
LINE
  8
0
 10
-20.4123
 20
17.6885
 11
-20.2634
 21
17.573
  0
LINE
  8
0
 10
-20.2634
 20
17.573
 11
-20.1075
 21
17.467
  0
LINE
  8
0
 10
-20.1075
 20
17.467
 11
-19.9453
 21
17.3711
  0
LINE
  8
0
 10
-19.9453
 20
17.3711
 11
-19.7773
 21
17.2855
  0
LINE
  8
0
 10
-19.7773
 20
17.2855
 11
-19.6044
 21
17.2107
  0
LINE
  8
0
 10
-19.6044
 20
17.2107
 11
-19.427
 21
17.1468
  0
LINE
  8
0
 10
-19.427
 20
17.1468
 11
-19.2461
 21
17.0943
  0
LINE
  8
0
 10
-19.2461
 20
17.0943
 11
-19.0621
 21
17.0531
  0
LINE
  8
0
 10
-19.0621
 20
17.0531
 11
-18.876
 21
17.0237
  0
LINE
  8
0
 10
-18.876
 20
17.0237
 11
-18.6884
 21
17.0059
  0
LINE
  8
0
 10
-18.6884
 20
17.0059
 11
-18.5
 21
17
  0
LINE
  8
0
 10
-18.5
 20
17
 11
18.5
 21
17
  0
LINE
  8
0
 10
18.5
 20
17
 11
18.6884
 21
17.0059
  0
LINE
  8
0
 10
-14.6884
 20
39.0059
 11
-14.876
 21
39.0237
  0
LINE
  8
0
 10
-14.876
 20
39.0237
 11
-15.0621
 21
39.0531
  0
LINE
  8
0
 10
-15.0621
 20
39.0531
 11
-15.2461
 21
39.0942
  0
LINE
  8
0
 10
-15.2461
 20
39.0942
 11
-15.427
 21
39.1468
  0
LINE
  8
0
 10
-15.427
 20
39.1468
 11
-15.6044
 21
39.2107
  0
LINE
  8
0
 10
-15.6044
 20
39.2107
 11
-15.7773
 21
39.2855
  0
LINE
  8
0
 10
-15.7773
 20
39.2855
 11
-15.9453
 21
39.3711
  0
LINE
  8
0
 10
-15.9453
 20
39.3711
 11
-16.1075
 21
39.467
  0
LINE
  8
0
 10
-16.1075
 20
39.467
 11
-16.2634
 21
39.5729
  0
LINE
  8
0
 10
-16.2634
 20
39.5729
 11
-16.4123
 21
39.6884
  0
LINE
  8
0
 10
-16.4123
 20
39.6884
 11
-16.5536
 21
39.8131
  0
LINE
  8
0
 10
-16.5536
 20
39.8131
 11
-16.6869
 21
39.9464
  0
LINE
  8
0
 10
-16.6869
 20
39.9464
 11
-16.8115
 21
40.0877
  0
LINE
  8
0
 10
-16.8115
 20
40.0877
 11
-16.927
 21
40.2366
  0
LINE
  8
0
 10
-16.927
 20
40.2366
 11
-17.033
 21
40.3925
  0
LINE
  8
0
 10
-17.033
 20
40.3925
 11
-17.1289
 21
40.5547
  0
LINE
  8
0
 10
-17.1289
 20
40.5547
 11
-17.2145
 21
40.7227
  0
LINE
  8
0
 10
-17.2145
 20
40.7227
 11
-17.2893
 21
40.8956
  0
LINE
  8
0
 10
-17.2893
 20
40.8956
 11
-17.3532
 21
41.0729
  0
LINE
  8
0
 10
-17.3532
 20
41.0729
 11
-17.4057
 21
41.2539
  0
LINE
  8
0
 10
-17.4057
 20
41.2539
 11
-17.4469
 21
41.4379
  0
LINE
  8
0
 10
-17.4469
 20
41.4379
 11
-17.4763
 21
41.624
  0
LINE
  8
0
 10
-17.4763
 20
41.624
 11
-17.4941
 21
41.8116
  0
LINE
  8
0
 10
-17.4941
 20
41.8116
 11
-17.5
 21
42
  0
LINE
  8
0
 10
-17.5
 20
42
 11
-17.4941
 21
42.1884
  0
LINE
  8
0
 10
-17.4941
 20
42.1884
 11
-17.4763
 21
42.376
  0
LINE
  8
0
 10
-17.4763
 20
42.376
 11
-17.4469
 21
42.5621
  0
LINE
  8
0
 10
-17.4469
 20
42.5621
 11
-17.4057
 21
42.7461
  0
LINE
  8
0
 10
-17.4057
 20
42.7461
 11
-17.3532
 21
42.927
  0
LINE
  8
0
 10
-17.3532
 20
42.927
 11
-17.2893
 21
43.1044
  0
LINE
  8
0
 10
-17.2893
 20
43.1044
 11
-17.2145
 21
43.2773
  0
LINE
  8
0
 10
-17.2145
 20
43.2773
 11
-17.1289
 21
43.4453
  0
LINE
  8
0
 10
-17.1289
 20
43.4453
 11
-17.033
 21
43.6075
  0
LINE
  8
0
 10
-17.033
 20
43.6075
 11
-16.927
 21
43.7634
  0
LINE
  8
0
 10
-16.927
 20
43.7634
 11
-16.8115
 21
43.9123
  0
LINE
  8
0
 10
-16.8115
 20
43.9123
 11
-16.6869
 21
44.0536
  0
LINE
  8
0
 10
-16.6869
 20
44.0536
 11
-16.5536
 21
44.1869
  0
LINE
  8
0
 10
-16.5536
 20
44.1869
 11
-16.4123
 21
44.3115
  0
LINE
  8
0
 10
-16.4123
 20
44.3115
 11
-16.2634
 21
44.427
  0
LINE
  8
0
 10
-16.2634
 20
44.427
 11
-16.1075
 21
44.533
  0
LINE
  8
0
 10
-16.1075
 20
44.533
 11
-15.9453
 21
44.6289
  0
LINE
  8
0
 10
-15.9453
 20
44.6289
 11
-15.7773
 21
44.7145
  0
LINE
  8
0
 10
-15.7773
 20
44.7145
 11
-15.6044
 21
44.7893
  0
LINE
  8
0
 10
-15.6044
 20
44.7893
 11
-15.427
 21
44.8532
  0
LINE
  8
0
 10
-15.427
 20
44.8532
 11
-15.2461
 21
44.9057
  0
LINE
  8
0
 10
-15.2461
 20
44.9057
 11
-15.0621
 21
44.9469
  0
LINE
  8
0
 10
-15.0621
 20
44.9469
 11
-14.876
 21
44.9763
  0
LINE
  8
0
 10
-14.876
 20
44.9763
 11
-14.6884
 21
44.9941
  0
LINE
  8
0
 10
-14.6884
 20
44.9941
 11
-14.5
 21
45
  0
LINE
  8
0
 10
-14.5
 20
45
 11
-14.3116
 21
44.9941
  0
LINE
  8
0
 10
-14.3116
 20
44.9941
 11
-14.124
 21
44.9763
  0
LINE
  8
0
 10
-14.124
 20
44.9763
 11
-13.9379
 21
44.9469
  0
LINE
  8
0
 10
-13.9379
 20
44.9469
 11
-13.7539
 21
44.9057
  0
LINE
  8
0
 10
-13.7539
 20
44.9057
 11
-13.5729
 21
44.8532
  0
LINE
  8
0
 10
-13.5729
 20
44.8532
 11
-13.3956
 21
44.7893
  0
LINE
  8
0
 10
-13.3956
 20
44.7893
 11
-13.2227
 21
44.7145
  0
LINE
  8
0
 10
-13.2227
 20
44.7145
 11
-13.0547
 21
44.6289
  0
LINE
  8
0
 10
-13.0547
 20
44.6289
 11
-12.8925
 21
44.533
  0
LINE
  8
0
 10
-12.8925
 20
44.533
 11
-12.7366
 21
44.427
  0
LINE
  8
0
 10
-12.7366
 20
44.427
 11
-12.5877
 21
44.3115
  0
LINE
  8
0
 10
-12.5877
 20
44.3115
 11
-12.4464
 21
44.1869
  0
LINE
  8
0
 10
-12.4464
 20
44.1869
 11
-12.3131
 21
44.0536
  0
LINE
  8
0
 10
-12.3131
 20
44.0536
 11
-12.1884
 21
43.9123
  0
LINE
  8
0
 10
-12.1884
 20
43.9123
 11
-12.0729
 21
43.7634
  0
LINE
  8
0
 10
-12.0729
 20
43.7634
 11
-11.967
 21
43.6075
  0
LINE
  8
0
 10
-11.967
 20
43.6075
 11
-11.8711
 21
43.4453
  0
LINE
  8
0
 10
-11.8711
 20
43.4453
 11
-11.7855
 21
43.2773
  0
LINE
  8
0
 10
-11.7855
 20
43.2773
 11
-11.7107
 21
43.1044
  0
LINE
  8
0
 10
-11.7107
 20
43.1044
 11
-11.6468
 21
42.927
  0
LINE
  8
0
 10
-11.6468
 20
42.927
 11
-11.5942
 21
42.7461
  0
LINE
  8
0
 10
-11.5942
 20
42.7461
 11
-11.5531
 21
42.5621
  0
LINE
  8
0
 10
-11.5531
 20
42.5621
 11
-11.5237
 21
42.376
  0
LINE
  8
0
 10
-11.5237
 20
42.376
 11
-11.5059
 21
42.1884
  0
LINE
  8
0
 10
-11.5059
 20
42.1884
 11
-11.5
 21
42
  0
LINE
  8
0
 10
-11.5
 20
42
 11
-11.5059
 21
41.8116
  0
LINE
  8
0
 10
-11.5059
 20
41.8116
 11
-11.5237
 21
41.624
  0
LINE
  8
0
 10
-11.5237
 20
41.624
 11
-11.5531
 21
41.4379
  0
LINE
  8
0
 10
-11.5531
 20
41.4379
 11
-11.5942
 21
41.2539
  0
LINE
  8
0
 10
-11.5942
 20
41.2539
 11
-11.6468
 21
41.0729
  0
LINE
  8
0
 10
-11.6468
 20
41.0729
 11
-11.7107
 21
40.8956
  0
LINE
  8
0
 10
-11.7107
 20
40.8956
 11
-11.7855
 21
40.7227
  0
LINE
  8
0
 10
-11.7855
 20
40.7227
 11
-11.8711
 21
40.5547
  0
LINE
  8
0
 10
-11.8711
 20
40.5547
 11
-11.967
 21
40.3925
  0
LINE
  8
0
 10
-11.967
 20
40.3925
 11
-12.0729
 21
40.2366
  0
LINE
  8
0
 10
-12.0729
 20
40.2366
 11
-12.1884
 21
40.0877
  0
LINE
  8
0
 10
-12.1884
 20
40.0877
 11
-12.3131
 21
39.9464
  0
LINE
  8
0
 10
-12.3131
 20
39.9464
 11
-12.4464
 21
39.8131
  0
LINE
  8
0
 10
-12.4464
 20
39.8131
 11
-12.5877
 21
39.6884
  0
LINE
  8
0
 10
-12.5877
 20
39.6884
 11
-12.7366
 21
39.5729
  0
LINE
  8
0
 10
-12.7366
 20
39.5729
 11
-12.8925
 21
39.467
  0
LINE
  8
0
 10
-12.8925
 20
39.467
 11
-13.0547
 21
39.3711
  0
LINE
  8
0
 10
-13.0547
 20
39.3711
 11
-13.2227
 21
39.2855
  0
LINE
  8
0
 10
-13.2227
 20
39.2855
 11
-13.3956
 21
39.2107
  0
LINE
  8
0
 10
-13.3956
 20
39.2107
 11
-13.5729
 21
39.1468
  0
LINE
  8
0
 10
-13.5729
 20
39.1468
 11
-13.7539
 21
39.0942
  0
LINE
  8
0
 10
-13.7539
 20
39.0942
 11
-13.9379
 21
39.0531
  0
LINE
  8
0
 10
-13.9379
 20
39.0531
 11
-14.124
 21
39.0237
  0
LINE
  8
0
 10
-14.124
 20
39.0237
 11
-14.3116
 21
39.0059
  0
LINE
  8
0
 10
-14.3116
 20
39.0059
 11
-14.5
 21
39
  0
LINE
  8
0
 10
-14.5
 20
39
 11
-14.6884
 21
39.0059
  0
LINE
  8
0
 10
-7.5
 20
40.95
 11
-7.56279
 21
40.952
  0
LINE
  8
0
 10
-7.56279
 20
40.952
 11
-7.62532
 21
40.9579
  0
LINE
  8
0
 10
-7.62532
 20
40.9579
 11
-7.68738
 21
40.9677
  0
LINE
  8
0
 10
-7.68738
 20
40.9677
 11
-7.74869
 21
40.9814
  0
LINE
  8
0
 10
-7.74869
 20
40.9814
 11
-7.80901
 21
40.999
  0
LINE
  8
0
 10
-7.80901
 20
40.999
 11
-7.86812
 21
41.0202
  0
LINE
  8
0
 10
-7.86812
 20
41.0202
 11
-7.92577
 21
41.0452
  0
LINE
  8
0
 10
-7.92577
 20
41.0452
 11
-7.98175
 21
41.0737
  0
LINE
  8
0
 10
-7.98175
 20
41.0737
 11
-8.03581
 21
41.1057
  0
LINE
  8
0
 10
-8.03581
 20
41.1057
 11
-8.08778
 21
41.141
  0
LINE
  8
0
 10
-8.08778
 20
41.141
 11
-8.13742
 21
41.1795
  0
LINE
  8
0
 10
-8.13742
 20
41.1795
 11
-8.18454
 21
41.2211
  0
LINE
  8
0
 10
-8.18454
 20
41.2211
 11
-8.22896
 21
41.2655
  0
LINE
  8
0
 10
-8.22896
 20
41.2655
 11
-8.27051
 21
41.3126
  0
LINE
  8
0
 10
-8.27051
 20
41.3126
 11
-8.30901
 21
41.3622
  0
LINE
  8
0
 10
-8.30901
 20
41.3622
 11
-8.34431
 21
41.4142
  0
LINE
  8
0
 10
-8.34431
 20
41.4142
 11
-8.3763
 21
41.4683
  0
LINE
  8
0
 10
-8.3763
 20
41.4683
 11
-8.40482
 21
41.5242
  0
LINE
  8
0
 10
-8.40482
 20
41.5242
 11
-8.42976
 21
41.5819
  0
LINE
  8
0
 10
-8.42976
 20
41.5819
 11
-8.45105
 21
41.641
  0
LINE
  8
0
 10
-8.45105
 20
41.641
 11
-8.46858
 21
41.7013
  0
LINE
  8
0
 10
-8.46858
 20
41.7013
 11
-8.48228
 21
41.7626
  0
LINE
  8
0
 10
-8.48228
 20
41.7626
 11
-8.49211
 21
41.8247
  0
LINE
  8
0
 10
-8.49211
 20
41.8247
 11
-8.49802
 21
41.8872
  0
LINE
  8
0
 10
-8.49802
 20
41.8872
 11
-8.5
 21
41.95
  0
LINE
  8
0
 10
-8.5
 20
41.95
 11
-8.5
 21
42.05
  0
LINE
  8
0
 10
-8.5
 20
42.05
 11
-8.49802
 21
42.1128
  0
LINE
  8
0
 10
-8.49802
 20
42.1128
 11
-8.49211
 21
42.1753
  0
LINE
  8
0
 10
-8.49211
 20
42.1753
 11
-8.48228
 21
42.2374
  0
LINE
  8
0
 10
-8.48228
 20
42.2374
 11
-8.46858
 21
42.2987
  0
LINE
  8
0
 10
-8.46858
 20
42.2987
 11
-8.45105
 21
42.359
  0
LINE
  8
0
 10
-8.45105
 20
42.359
 11
-8.42976
 21
42.4181
  0
LINE
  8
0
 10
-8.42976
 20
42.4181
 11
-8.40482
 21
42.4758
  0
LINE
  8
0
 10
-8.40482
 20
42.4758
 11
-8.3763
 21
42.5317
  0
LINE
  8
0
 10
-8.3763
 20
42.5317
 11
-8.34431
 21
42.5858
  0
LINE
  8
0
 10
-8.34431
 20
42.5858
 11
-8.30901
 21
42.6378
  0
LINE
  8
0
 10
-8.30901
 20
42.6378
 11
-8.27051
 21
42.6874
  0
LINE
  8
0
 10
-8.27051
 20
42.6874
 11
-8.22896
 21
42.7345
  0
LINE
  8
0
 10
-8.22896
 20
42.7345
 11
-8.18454
 21
42.7789
  0
LINE
  8
0
 10
-8.18454
 20
42.7789
 11
-8.13742
 21
42.8205
  0
LINE
  8
0
 10
-8.13742
 20
42.8205
 11
-8.08778
 21
42.859
  0
LINE
  8
0
 10
-8.08778
 20
42.859
 11
-8.03581
 21
42.8943
  0
LINE
  8
0
 10
-8.03581
 20
42.8943
 11
-7.98175
 21
42.9263
  0
LINE
  8
0
 10
-7.98175
 20
42.9263
 11
-7.92577
 21
42.9548
  0
LINE
  8
0
 10
-7.92577
 20
42.9548
 11
-7.86812
 21
42.9798
  0
LINE
  8
0
 10
-7.86812
 20
42.9798
 11
-7.80901
 21
43.001
  0
LINE
  8
0
 10
-7.80901
 20
43.001
 11
-7.74869
 21
43.0186
  0
LINE
  8
0
 10
-7.74869
 20
43.0186
 11
-7.68738
 21
43.0323
  0
LINE
  8
0
 10
-7.68738
 20
43.0323
 11
-7.62532
 21
43.0421
  0
LINE
  8
0
 10
-7.62532
 20
43.0421
 11
-7.56279
 21
43.048
  0
LINE
  8
0
 10
-7.56279
 20
43.048
 11
-7.5
 21
43.05
  0
LINE
  8
0
 10
-7.5
 20
43.05
 11
15.5
 21
43.05
  0
LINE
  8
0
 10
15.5
 20
43.05
 11
15.5628
 21
43.048
  0
LINE
  8
0
 10
15.5628
 20
43.048
 11
15.6253
 21
43.0421
  0
LINE
  8
0
 10
15.6253
 20
43.0421
 11
15.6874
 21
43.0323
  0
LINE
  8
0
 10
15.6874
 20
43.0323
 11
15.7487
 21
43.0186
  0
LINE
  8
0
 10
15.7487
 20
43.0186
 11
15.809
 21
43.001
  0
LINE
  8
0
 10
15.809
 20
43.001
 11
15.8681
 21
42.9798
  0
LINE
  8
0
 10
15.8681
 20
42.9798
 11
15.9258
 21
42.9548
  0
LINE
  8
0
 10
15.9258
 20
42.9548
 11
15.9818
 21
42.9263
  0
LINE
  8
0
 10
15.9818
 20
42.9263
 11
16.0358
 21
42.8943
  0
LINE
  8
0
 10
16.0358
 20
42.8943
 11
16.0878
 21
42.859
  0
LINE
  8
0
 10
16.0878
 20
42.859
 11
16.1374
 21
42.8205
  0
LINE
  8
0
 10
16.1374
 20
42.8205
 11
16.1845
 21
42.7789
  0
LINE
  8
0
 10
16.1845
 20
42.7789
 11
16.229
 21
42.7345
  0
LINE
  8
0
 10
16.229
 20
42.7345
 11
16.2705
 21
42.6874
  0
LINE
  8
0
 10
16.2705
 20
42.6874
 11
16.309
 21
42.6378
  0
LINE
  8
0
 10
16.309
 20
42.6378
 11
16.3443
 21
42.5858
  0
LINE
  8
0
 10
16.3443
 20
42.5858
 11
16.3763
 21
42.5317
  0
LINE
  8
0
 10
16.3763
 20
42.5317
 11
16.4048
 21
42.4758
  0
LINE
  8
0
 10
16.4048
 20
42.4758
 11
16.4298
 21
42.4181
  0
LINE
  8
0
 10
16.4298
 20
42.4181
 11
16.451
 21
42.359
  0
LINE
  8
0
 10
16.451
 20
42.359
 11
16.4686
 21
42.2987
  0
LINE
  8
0
 10
16.4686
 20
42.2987
 11
16.4823
 21
42.2374
  0
LINE
  8
0
 10
16.4823
 20
42.2374
 11
16.4921
 21
42.1753
  0
LINE
  8
0
 10
16.4921
 20
42.1753
 11
16.498
 21
42.1128
  0
LINE
  8
0
 10
16.498
 20
42.1128
 11
16.5
 21
42.05
  0
LINE
  8
0
 10
16.5
 20
42.05
 11
16.5
 21
41.95
  0
LINE
  8
0
 10
16.5
 20
41.95
 11
16.498
 21
41.8872
  0
LINE
  8
0
 10
16.498
 20
41.8872
 11
16.4921
 21
41.8247
  0
LINE
  8
0
 10
16.4921
 20
41.8247
 11
16.4823
 21
41.7626
  0
LINE
  8
0
 10
16.4823
 20
41.7626
 11
16.4686
 21
41.7013
  0
LINE
  8
0
 10
16.4686
 20
41.7013
 11
16.451
 21
41.641
  0
LINE
  8
0
 10
16.451
 20
41.641
 11
16.4298
 21
41.5819
  0
LINE
  8
0
 10
16.4298
 20
41.5819
 11
16.4048
 21
41.5242
  0
LINE
  8
0
 10
16.4048
 20
41.5242
 11
16.3763
 21
41.4683
  0
LINE
  8
0
 10
16.3763
 20
41.4683
 11
16.3443
 21
41.4142
  0
LINE
  8
0
 10
16.3443
 20
41.4142
 11
16.309
 21
41.3622
  0
LINE
  8
0
 10
16.309
 20
41.3622
 11
16.2705
 21
41.3126
  0
LINE
  8
0
 10
16.2705
 20
41.3126
 11
16.229
 21
41.2655
  0
LINE
  8
0
 10
16.229
 20
41.2655
 11
16.1845
 21
41.2211
  0
LINE
  8
0
 10
16.1845
 20
41.2211
 11
16.1374
 21
41.1795
  0
LINE
  8
0
 10
16.1374
 20
41.1795
 11
16.0878
 21
41.141
  0
LINE
  8
0
 10
16.0878
 20
41.141
 11
16.0358
 21
41.1057
  0
LINE
  8
0
 10
16.0358
 20
41.1057
 11
15.9818
 21
41.0737
  0
LINE
  8
0
 10
15.9818
 20
41.0737
 11
15.9258
 21
41.0452
  0
LINE
  8
0
 10
15.9258
 20
41.0452
 11
15.8681
 21
41.0202
  0
LINE
  8
0
 10
15.8681
 20
41.0202
 11
15.809
 21
40.999
  0
LINE
  8
0
 10
15.809
 20
40.999
 11
15.7487
 21
40.9814
  0
LINE
  8
0
 10
15.7487
 20
40.9814
 11
15.6874
 21
40.9677
  0
LINE
  8
0
 10
15.6874
 20
40.9677
 11
15.6253
 21
40.9579
  0
LINE
  8
0
 10
15.6253
 20
40.9579
 11
15.5628
 21
40.952
  0
LINE
  8
0
 10
15.5628
 20
40.952
 11
15.5
 21
40.95
  0
LINE
  8
0
 10
15.5
 20
40.95
 11
-7.5
 21
40.95
  0
LINE
  8
0
 10
14.3116
 20
29.0059
 11
14.124
 21
29.0237
  0
LINE
  8
0
 10
14.124
 20
29.0237
 11
13.9379
 21
29.0531
  0
LINE
  8
0
 10
13.9379
 20
29.0531
 11
13.7539
 21
29.0943
  0
LINE
  8
0
 10
13.7539
 20
29.0943
 11
13.5729
 21
29.1468
  0
LINE
  8
0
 10
13.5729
 20
29.1468
 11
13.3956
 21
29.2107
  0
LINE
  8
0
 10
13.3956
 20
29.2107
 11
13.2227
 21
29.2855
  0
LINE
  8
0
 10
13.2227
 20
29.2855
 11
13.0547
 21
29.3711
  0
LINE
  8
0
 10
13.0547
 20
29.3711
 11
12.8925
 21
29.467
  0
LINE
  8
0
 10
12.8925
 20
29.467
 11
12.7366
 21
29.573
  0
LINE
  8
0
 10
12.7366
 20
29.573
 11
12.5877
 21
29.6885
  0
LINE
  8
0
 10
12.5877
 20
29.6885
 11
12.4464
 21
29.8131
  0
LINE
  8
0
 10
12.4464
 20
29.8131
 11
12.3131
 21
29.9464
  0
LINE
  8
0
 10
12.3131
 20
29.9464
 11
12.1884
 21
30.0877
  0
LINE
  8
0
 10
12.1884
 20
30.0877
 11
12.0729
 21
30.2366
  0
LINE
  8
0
 10
12.0729
 20
30.2366
 11
11.967
 21
30.3925
  0
LINE
  8
0
 10
11.967
 20
30.3925
 11
11.8711
 21
30.5547
  0
LINE
  8
0
 10
11.8711
 20
30.5547
 11
11.7855
 21
30.7227
  0
LINE
  8
0
 10
11.7855
 20
30.7227
 11
11.7107
 21
30.8956
  0
LINE
  8
0
 10
11.7107
 20
30.8956
 11
11.6468
 21
31.073
  0
LINE
  8
0
 10
11.6468
 20
31.073
 11
11.5942
 21
31.2539
  0
LINE
  8
0
 10
11.5942
 20
31.2539
 11
11.5531
 21
31.4379
  0
LINE
  8
0
 10
11.5531
 20
31.4379
 11
11.5237
 21
31.624
  0
LINE
  8
0
 10
11.5237
 20
31.624
 11
11.5059
 21
31.8116
  0
LINE
  8
0
 10
11.5059
 20
31.8116
 11
11.5
 21
32
  0
LINE
  8
0
 10
11.5
 20
32
 11
11.5059
 21
32.1884
  0
LINE
  8
0
 10
11.5059
 20
32.1884
 11
11.5237
 21
32.376
  0
LINE
  8
0
 10
11.5237
 20
32.376
 11
11.5531
 21
32.5621
  0
LINE
  8
0
 10
11.5531
 20
32.5621
 11
11.5942
 21
32.7461
  0
LINE
  8
0
 10
11.5942
 20
32.7461
 11
11.6468
 21
32.927
  0
LINE
  8
0
 10
11.6468
 20
32.927
 11
11.7107
 21
33.1044
  0
LINE
  8
0
 10
11.7107
 20
33.1044
 11
11.7855
 21
33.2773
  0
LINE
  8
0
 10
11.7855
 20
33.2773
 11
11.8711
 21
33.4453
  0
LINE
  8
0
 10
11.8711
 20
33.4453
 11
11.967
 21
33.6075
  0
LINE
  8
0
 10
11.967
 20
33.6075
 11
12.0729
 21
33.7634
  0
LINE
  8
0
 10
12.0729
 20
33.7634
 11
12.1884
 21
33.9123
  0
LINE
  8
0
 10
12.1884
 20
33.9123
 11
12.3131
 21
34.0536
  0
LINE
  8
0
 10
12.3131
 20
34.0536
 11
12.4464
 21
34.1869
  0
LINE
  8
0
 10
12.4464
 20
34.1869
 11
12.5877
 21
34.3115
  0
LINE
  8
0
 10
12.5877
 20
34.3115
 11
12.7366
 21
34.427
  0
LINE
  8
0
 10
12.7366
 20
34.427
 11
12.8925
 21
34.533
  0
LINE
  8
0
 10
12.8925
 20
34.533
 11
13.0547
 21
34.6289
  0
LINE
  8
0
 10
13.0547
 20
34.6289
 11
13.2227
 21
34.7145
  0
LINE
  8
0
 10
13.2227
 20
34.7145
 11
13.3956
 21
34.7893
  0
LINE
  8
0
 10
13.3956
 20
34.7893
 11
13.5729
 21
34.8532
  0
LINE
  8
0
 10
13.5729
 20
34.8532
 11
13.7539
 21
34.9057
  0
LINE
  8
0
 10
13.7539
 20
34.9057
 11
13.9379
 21
34.9469
  0
LINE
  8
0
 10
13.9379
 20
34.9469
 11
14.124
 21
34.9763
  0
LINE
  8
0
 10
14.124
 20
34.9763
 11
14.3116
 21
34.9941
  0
LINE
  8
0
 10
14.3116
 20
34.9941
 11
14.5
 21
35
  0
LINE
  8
0
 10
14.5
 20
35
 11
14.6884
 21
34.9941
  0
LINE
  8
0
 10
14.6884
 20
34.9941
 11
14.876
 21
34.9763
  0
LINE
  8
0
 10
14.876
 20
34.9763
 11
15.0621
 21
34.9469
  0
LINE
  8
0
 10
15.0621
 20
34.9469
 11
15.2461
 21
34.9057
  0
LINE
  8
0
 10
15.2461
 20
34.9057
 11
15.427
 21
34.8532
  0
LINE
  8
0
 10
15.427
 20
34.8532
 11
15.6044
 21
34.7893
  0
LINE
  8
0
 10
15.6044
 20
34.7893
 11
15.7773
 21
34.7145
  0
LINE
  8
0
 10
15.7773
 20
34.7145
 11
15.9453
 21
34.6289
  0
LINE
  8
0
 10
15.9453
 20
34.6289
 11
16.1075
 21
34.533
  0
LINE
  8
0
 10
16.1075
 20
34.533
 11
16.2634
 21
34.427
  0
LINE
  8
0
 10
16.2634
 20
34.427
 11
16.4123
 21
34.3115
  0
LINE
  8
0
 10
16.4123
 20
34.3115
 11
16.5536
 21
34.1869
  0
LINE
  8
0
 10
16.5536
 20
34.1869
 11
16.6869
 21
34.0536
  0
LINE
  8
0
 10
16.6869
 20
34.0536
 11
16.8115
 21
33.9123
  0
LINE
  8
0
 10
16.8115
 20
33.9123
 11
16.927
 21
33.7634
  0
LINE
  8
0
 10
16.927
 20
33.7634
 11
17.033
 21
33.6075
  0
LINE
  8
0
 10
17.033
 20
33.6075
 11
17.1289
 21
33.4453
  0
LINE
  8
0
 10
17.1289
 20
33.4453
 11
17.2145
 21
33.2773
  0
LINE
  8
0
 10
17.2145
 20
33.2773
 11
17.2893
 21
33.1044
  0
LINE
  8
0
 10
17.2893
 20
33.1044
 11
17.3532
 21
32.927
  0
LINE
  8
0
 10
17.3532
 20
32.927
 11
17.4057
 21
32.7461
  0
LINE
  8
0
 10
17.4057
 20
32.7461
 11
17.4469
 21
32.5621
  0
LINE
  8
0
 10
17.4469
 20
32.5621
 11
17.4763
 21
32.376
  0
LINE
  8
0
 10
17.4763
 20
32.376
 11
17.4941
 21
32.1884
  0
LINE
  8
0
 10
17.4941
 20
32.1884
 11
17.5
 21
32
  0
LINE
  8
0
 10
17.5
 20
32
 11
17.4941
 21
31.8116
  0
LINE
  8
0
 10
17.4941
 20
31.8116
 11
17.4763
 21
31.624
  0
LINE
  8
0
 10
17.4763
 20
31.624
 11
17.4469
 21
31.4379
  0
LINE
  8
0
 10
17.4469
 20
31.4379
 11
17.4057
 21
31.2539
  0
LINE
  8
0
 10
17.4057
 20
31.2539
 11
17.3532
 21
31.073
  0
LINE
  8
0
 10
17.3532
 20
31.073
 11
17.2893
 21
30.8956
  0
LINE
  8
0
 10
17.2893
 20
30.8956
 11
17.2145
 21
30.7227
  0
LINE
  8
0
 10
17.2145
 20
30.7227
 11
17.1289
 21
30.5547
  0
LINE
  8
0
 10
17.1289
 20
30.5547
 11
17.033
 21
30.3925
  0
LINE
  8
0
 10
17.033
 20
30.3925
 11
16.927
 21
30.2366
  0
LINE
  8
0
 10
16.927
 20
30.2366
 11
16.8115
 21
30.0877
  0
LINE
  8
0
 10
16.8115
 20
30.0877
 11
16.6869
 21
29.9464
  0
LINE
  8
0
 10
16.6869
 20
29.9464
 11
16.5536
 21
29.8131
  0
LINE
  8
0
 10
16.5536
 20
29.8131
 11
16.4123
 21
29.6885
  0
LINE
  8
0
 10
16.4123
 20
29.6885
 11
16.2634
 21
29.573
  0
LINE
  8
0
 10
16.2634
 20
29.573
 11
16.1075
 21
29.467
  0
LINE
  8
0
 10
16.1075
 20
29.467
 11
15.9453
 21
29.3711
  0
LINE
  8
0
 10
15.9453
 20
29.3711
 11
15.7773
 21
29.2855
  0
LINE
  8
0
 10
15.7773
 20
29.2855
 11
15.6044
 21
29.2107
  0
LINE
  8
0
 10
15.6044
 20
29.2107
 11
15.427
 21
29.1468
  0
LINE
  8
0
 10
15.427
 20
29.1468
 11
15.2461
 21
29.0943
  0
LINE
  8
0
 10
15.2461
 20
29.0943
 11
15.0621
 21
29.0531
  0
LINE
  8
0
 10
15.0621
 20
29.0531
 11
14.876
 21
29.0237
  0
LINE
  8
0
 10
14.876
 20
29.0237
 11
14.6884
 21
29.0059
  0
LINE
  8
0
 10
14.6884
 20
29.0059
 11
14.5
 21
29
  0
LINE
  8
0
 10
14.5
 20
29
 11
14.3116
 21
29.0059
  0
LINE
  8
0
 10
-17
 20
30.95
 11
-17.0628
 21
30.952
  0
LINE
  8
0
 10
-17.0628
 20
30.952
 11
-17.1253
 21
30.9579
  0
LINE
  8
0
 10
-17.1253
 20
30.9579
 11
-17.1874
 21
30.9677
  0
LINE
  8
0
 10
-17.1874
 20
30.9677
 11
-17.2487
 21
30.9814
  0
LINE
  8
0
 10
-17.2487
 20
30.9814
 11
-17.309
 21
30.999
  0
LINE
  8
0
 10
-17.309
 20
30.999
 11
-17.3681
 21
31.0202
  0
LINE
  8
0
 10
-17.3681
 20
31.0202
 11
-17.4258
 21
31.0452
  0
LINE
  8
0
 10
-17.4258
 20
31.0452
 11
-17.4818
 21
31.0737
  0
LINE
  8
0
 10
-17.4818
 20
31.0737
 11
-17.5358
 21
31.1057
  0
LINE
  8
0
 10
-17.5358
 20
31.1057
 11
-17.5878
 21
31.141
  0
LINE
  8
0
 10
-17.5878
 20
31.141
 11
-17.6374
 21
31.1795
  0
LINE
  8
0
 10
-17.6374
 20
31.1795
 11
-17.6845
 21
31.2211
  0
LINE
  8
0
 10
-17.6845
 20
31.2211
 11
-17.729
 21
31.2655
  0
LINE
  8
0
 10
-17.729
 20
31.2655
 11
-17.7705
 21
31.3126
  0
LINE
  8
0
 10
-17.7705
 20
31.3126
 11
-17.809
 21
31.3622
  0
LINE
  8
0
 10
-17.809
 20
31.3622
 11
-17.8443
 21
31.4142
  0
LINE
  8
0
 10
-17.8443
 20
31.4142
 11
-17.8763
 21
31.4683
  0
LINE
  8
0
 10
-17.8763
 20
31.4683
 11
-17.9048
 21
31.5242
  0
LINE
  8
0
 10
-17.9048
 20
31.5242
 11
-17.9298
 21
31.5819
  0
LINE
  8
0
 10
-17.9298
 20
31.5819
 11
-17.951
 21
31.641
  0
LINE
  8
0
 10
-17.951
 20
31.641
 11
-17.9686
 21
31.7013
  0
LINE
  8
0
 10
-17.9686
 20
31.7013
 11
-17.9823
 21
31.7626
  0
LINE
  8
0
 10
-17.9823
 20
31.7626
 11
-17.9921
 21
31.8247
  0
LINE
  8
0
 10
-17.9921
 20
31.8247
 11
-17.998
 21
31.8872
  0
LINE
  8
0
 10
-17.998
 20
31.8872
 11
-18
 21
31.95
  0
LINE
  8
0
 10
-18
 20
31.95
 11
-18
 21
32.05
  0
LINE
  8
0
 10
-18
 20
32.05
 11
-17.998
 21
32.1128
  0
LINE
  8
0
 10
-17.998
 20
32.1128
 11
-17.9921
 21
32.1753
  0
LINE
  8
0
 10
-17.9921
 20
32.1753
 11
-17.9823
 21
32.2374
  0
LINE
  8
0
 10
-17.9823
 20
32.2374
 11
-17.9686
 21
32.2987
  0
LINE
  8
0
 10
-17.9686
 20
32.2987
 11
-17.951
 21
32.359
  0
LINE
  8
0
 10
-17.951
 20
32.359
 11
-17.9298
 21
32.4181
  0
LINE
  8
0
 10
-17.9298
 20
32.4181
 11
-17.9048
 21
32.4758
  0
LINE
  8
0
 10
-17.9048
 20
32.4758
 11
-17.8763
 21
32.5317
  0
LINE
  8
0
 10
-17.8763
 20
32.5317
 11
-17.8443
 21
32.5858
  0
LINE
  8
0
 10
-17.8443
 20
32.5858
 11
-17.809
 21
32.6378
  0
LINE
  8
0
 10
-17.809
 20
32.6378
 11
-17.7705
 21
32.6874
  0
LINE
  8
0
 10
-17.7705
 20
32.6874
 11
-17.729
 21
32.7345
  0
LINE
  8
0
 10
-17.729
 20
32.7345
 11
-17.6845
 21
32.7789
  0
LINE
  8
0
 10
-17.6845
 20
32.7789
 11
-17.6374
 21
32.8205
  0
LINE
  8
0
 10
-17.6374
 20
32.8205
 11
-17.5878
 21
32.859
  0
LINE
  8
0
 10
-17.5878
 20
32.859
 11
-17.5358
 21
32.8943
  0
LINE
  8
0
 10
-17.5358
 20
32.8943
 11
-17.4818
 21
32.9263
  0
LINE
  8
0
 10
-17.4818
 20
32.9263
 11
-17.4258
 21
32.9548
  0
LINE
  8
0
 10
-17.4258
 20
32.9548
 11
-17.3681
 21
32.9798
  0
LINE
  8
0
 10
-17.3681
 20
32.9798
 11
-17.309
 21
33.001
  0
LINE
  8
0
 10
-17.309
 20
33.001
 11
-17.2487
 21
33.0186
  0
LINE
  8
0
 10
-17.2487
 20
33.0186
 11
-17.1874
 21
33.0323
  0
LINE
  8
0
 10
-17.1874
 20
33.0323
 11
-17.1253
 21
33.0421
  0
LINE
  8
0
 10
-17.1253
 20
33.0421
 11
-17.0628
 21
33.048
  0
LINE
  8
0
 10
-17.0628
 20
33.048
 11
-17
 21
33.05
  0
LINE
  8
0
 10
-17
 20
33.05
 11
9
 21
33.05
  0
LINE
  8
0
 10
9
 20
33.05
 11
9.06279
 21
33.048
  0
LINE
  8
0
 10
9.06279
 20
33.048
 11
9.12532
 21
33.0421
  0
LINE
  8
0
 10
9.12532
 20
33.0421
 11
9.18738
 21
33.0323
  0
LINE
  8
0
 10
9.18738
 20
33.0323
 11
9.24869
 21
33.0186
  0
LINE
  8
0
 10
9.24869
 20
33.0186
 11
9.30901
 21
33.001
  0
LINE
  8
0
 10
9.30901
 20
33.001
 11
9.36812
 21
32.9798
  0
LINE
  8
0
 10
9.36812
 20
32.9798
 11
9.42577
 21
32.9548
  0
LINE
  8
0
 10
9.42577
 20
32.9548
 11
9.48175
 21
32.9263
  0
LINE
  8
0
 10
9.48175
 20
32.9263
 11
9.53581
 21
32.8943
  0
LINE
  8
0
 10
9.53581
 20
32.8943
 11
9.58778
 21
32.859
  0
LINE
  8
0
 10
9.58778
 20
32.859
 11
9.63742
 21
32.8205
  0
LINE
  8
0
 10
9.63742
 20
32.8205
 11
9.68454
 21
32.7789
  0
LINE
  8
0
 10
9.68454
 20
32.7789
 11
9.72896
 21
32.7345
  0
LINE
  8
0
 10
9.72896
 20
32.7345
 11
9.77051
 21
32.6874
  0
LINE
  8
0
 10
9.77051
 20
32.6874
 11
9.80901
 21
32.6378
  0
LINE
  8
0
 10
9.80901
 20
32.6378
 11
9.84431
 21
32.5858
  0
LINE
  8
0
 10
9.84431
 20
32.5858
 11
9.8763
 21
32.5317
  0
LINE
  8
0
 10
9.8763
 20
32.5317
 11
9.90482
 21
32.4758
  0
LINE
  8
0
 10
9.90482
 20
32.4758
 11
9.92976
 21
32.4181
  0
LINE
  8
0
 10
9.92976
 20
32.4181
 11
9.95105
 21
32.359
  0
LINE
  8
0
 10
9.95105
 20
32.359
 11
9.96858
 21
32.2987
  0
LINE
  8
0
 10
9.96858
 20
32.2987
 11
9.98228
 21
32.2374
  0
LINE
  8
0
 10
9.98228
 20
32.2374
 11
9.99211
 21
32.1753
  0
LINE
  8
0
 10
9.99211
 20
32.1753
 11
9.99802
 21
32.1128
  0
LINE
  8
0
 10
9.99802
 20
32.1128
 11
10
 21
32.05
  0
LINE
  8
0
 10
10
 20
32.05
 11
10
 21
31.95
  0
LINE
  8
0
 10
10
 20
31.95
 11
9.99802
 21
31.8872
  0
LINE
  8
0
 10
9.99802
 20
31.8872
 11
9.99211
 21
31.8247
  0
LINE
  8
0
 10
9.99211
 20
31.8247
 11
9.98228
 21
31.7626
  0
LINE
  8
0
 10
9.98228
 20
31.7626
 11
9.96858
 21
31.7013
  0
LINE
  8
0
 10
9.96858
 20
31.7013
 11
9.95105
 21
31.641
  0
LINE
  8
0
 10
9.95105
 20
31.641
 11
9.92976
 21
31.5819
  0
LINE
  8
0
 10
9.92976
 20
31.5819
 11
9.90482
 21
31.5242
  0
LINE
  8
0
 10
9.90482
 20
31.5242
 11
9.8763
 21
31.4683
  0
LINE
  8
0
 10
9.8763
 20
31.4683
 11
9.84431
 21
31.4142
  0
LINE
  8
0
 10
9.84431
 20
31.4142
 11
9.80901
 21
31.3622
  0
LINE
  8
0
 10
9.80901
 20
31.3622
 11
9.77051
 21
31.3126
  0
LINE
  8
0
 10
9.77051
 20
31.3126
 11
9.72896
 21
31.2655
  0
LINE
  8
0
 10
9.72896
 20
31.2655
 11
9.68454
 21
31.2211
  0
LINE
  8
0
 10
9.68454
 20
31.2211
 11
9.63742
 21
31.1795
  0
LINE
  8
0
 10
9.63742
 20
31.1795
 11
9.58778
 21
31.141
  0
LINE
  8
0
 10
9.58778
 20
31.141
 11
9.53581
 21
31.1057
  0
LINE
  8
0
 10
9.53581
 20
31.1057
 11
9.48175
 21
31.0737
  0
LINE
  8
0
 10
9.48175
 20
31.0737
 11
9.42577
 21
31.0452
  0
LINE
  8
0
 10
9.42577
 20
31.0452
 11
9.36812
 21
31.0202
  0
LINE
  8
0
 10
9.36812
 20
31.0202
 11
9.30901
 21
30.999
  0
LINE
  8
0
 10
9.30901
 20
30.999
 11
9.24869
 21
30.9814
  0
LINE
  8
0
 10
9.24869
 20
30.9814
 11
9.18738
 21
30.9677
  0
LINE
  8
0
 10
9.18738
 20
30.9677
 11
9.12532
 21
30.9579
  0
LINE
  8
0
 10
9.12532
 20
30.9579
 11
9.06279
 21
30.952
  0
LINE
  8
0
 10
9.06279
 20
30.952
 11
9
 21
30.95
  0
LINE
  8
0
 10
9
 20
30.95
 11
-17
 21
30.95
  0
LINE
  8
0
 10
-14.6884
 20
19.0059
 11
-14.876
 21
19.0237
  0
LINE
  8
0
 10
-14.876
 20
19.0237
 11
-15.0621
 21
19.0531
  0
LINE
  8
0
 10
-15.0621
 20
19.0531
 11
-15.2461
 21
19.0943
  0
LINE
  8
0
 10
-15.2461
 20
19.0943
 11
-15.427
 21
19.1468
  0
LINE
  8
0
 10
-15.427
 20
19.1468
 11
-15.6044
 21
19.2107
  0
LINE
  8
0
 10
-15.6044
 20
19.2107
 11
-15.7773
 21
19.2855
  0
LINE
  8
0
 10
-15.7773
 20
19.2855
 11
-15.9453
 21
19.3711
  0
LINE
  8
0
 10
-15.9453
 20
19.3711
 11
-16.1075
 21
19.467
  0
LINE
  8
0
 10
-16.1075
 20
19.467
 11
-16.2634
 21
19.573
  0
LINE
  8
0
 10
-16.2634
 20
19.573
 11
-16.4123
 21
19.6885
  0
LINE
  8
0
 10
-16.4123
 20
19.6885
 11
-16.5536
 21
19.8131
  0
LINE
  8
0
 10
-16.5536
 20
19.8131
 11
-16.6869
 21
19.9464
  0
LINE
  8
0
 10
-16.6869
 20
19.9464
 11
-16.8115
 21
20.0877
  0
LINE
  8
0
 10
-16.8115
 20
20.0877
 11
-16.927
 21
20.2366
  0
LINE
  8
0
 10
-16.927
 20
20.2366
 11
-17.033
 21
20.3925
  0
LINE
  8
0
 10
-17.033
 20
20.3925
 11
-17.1289
 21
20.5547
  0
LINE
  8
0
 10
-17.1289
 20
20.5547
 11
-17.2145
 21
20.7227
  0
LINE
  8
0
 10
-17.2145
 20
20.7227
 11
-17.2893
 21
20.8956
  0
LINE
  8
0
 10
-17.2893
 20
20.8956
 11
-17.3532
 21
21.073
  0
LINE
  8
0
 10
-17.3532
 20
21.073
 11
-17.4057
 21
21.2539
  0
LINE
  8
0
 10
-17.4057
 20
21.2539
 11
-17.4469
 21
21.4379
  0
LINE
  8
0
 10
-17.4469
 20
21.4379
 11
-17.4763
 21
21.624
  0
LINE
  8
0
 10
-17.4763
 20
21.624
 11
-17.4941
 21
21.8116
  0
LINE
  8
0
 10
-17.4941
 20
21.8116
 11
-17.5
 21
22
  0
LINE
  8
0
 10
-17.5
 20
22
 11
-17.4941
 21
22.1884
  0
LINE
  8
0
 10
-17.4941
 20
22.1884
 11
-17.4763
 21
22.376
  0
LINE
  8
0
 10
-17.4763
 20
22.376
 11
-17.4469
 21
22.5621
  0
LINE
  8
0
 10
-17.4469
 20
22.5621
 11
-17.4057
 21
22.7461
  0
LINE
  8
0
 10
-17.4057
 20
22.7461
 11
-17.3532
 21
22.9271
  0
LINE
  8
0
 10
-17.3532
 20
22.9271
 11
-17.2893
 21
23.1044
  0
LINE
  8
0
 10
-17.2893
 20
23.1044
 11
-17.2145
 21
23.2773
  0
LINE
  8
0
 10
-17.2145
 20
23.2773
 11
-17.1289
 21
23.4453
  0
LINE
  8
0
 10
-17.1289
 20
23.4453
 11
-17.033
 21
23.6075
  0
LINE
  8
0
 10
-17.033
 20
23.6075
 11
-16.927
 21
23.7634
  0
LINE
  8
0
 10
-16.927
 20
23.7634
 11
-16.8115
 21
23.9123
  0
LINE
  8
0
 10
-16.8115
 20
23.9123
 11
-16.6869
 21
24.0536
  0
LINE
  8
0
 10
-16.6869
 20
24.0536
 11
-16.5536
 21
24.1869
  0
LINE
  8
0
 10
-16.5536
 20
24.1869
 11
-16.4123
 21
24.3116
  0
LINE
  8
0
 10
-16.4123
 20
24.3116
 11
-16.2634
 21
24.4271
  0
LINE
  8
0
 10
-16.2634
 20
24.4271
 11
-16.1075
 21
24.533
  0
LINE
  8
0
 10
-16.1075
 20
24.533
 11
-15.9453
 21
24.6289
  0
LINE
  8
0
 10
-15.9453
 20
24.6289
 11
-15.7773
 21
24.7145
  0
LINE
  8
0
 10
-15.7773
 20
24.7145
 11
-15.6044
 21
24.7893
  0
LINE
  8
0
 10
-15.6044
 20
24.7893
 11
-15.427
 21
24.8532
  0
LINE
  8
0
 10
-15.427
 20
24.8532
 11
-15.2461
 21
24.9058
  0
LINE
  8
0
 10
-15.2461
 20
24.9058
 11
-15.0621
 21
24.9469
  0
LINE
  8
0
 10
-15.0621
 20
24.9469
 11
-14.876
 21
24.9763
  0
LINE
  8
0
 10
-14.876
 20
24.9763
 11
-14.6884
 21
24.9941
  0
LINE
  8
0
 10
-14.6884
 20
24.9941
 11
-14.5
 21
25
  0
LINE
  8
0
 10
-14.5
 20
25
 11
-14.3116
 21
24.9941
  0
LINE
  8
0
 10
-14.3116
 20
24.9941
 11
-14.124
 21
24.9763
  0
LINE
  8
0
 10
-14.124
 20
24.9763
 11
-13.9379
 21
24.9469
  0
LINE
  8
0
 10
-13.9379
 20
24.9469
 11
-13.7539
 21
24.9058
  0
LINE
  8
0
 10
-13.7539
 20
24.9058
 11
-13.5729
 21
24.8532
  0
LINE
  8
0
 10
-13.5729
 20
24.8532
 11
-13.3956
 21
24.7893
  0
LINE
  8
0
 10
-13.3956
 20
24.7893
 11
-13.2227
 21
24.7145
  0
LINE
  8
0
 10
-13.2227
 20
24.7145
 11
-13.0547
 21
24.6289
  0
LINE
  8
0
 10
-13.0547
 20
24.6289
 11
-12.8925
 21
24.533
  0
LINE
  8
0
 10
-12.8925
 20
24.533
 11
-12.7366
 21
24.4271
  0
LINE
  8
0
 10
-12.7366
 20
24.4271
 11
-12.5877
 21
24.3116
  0
LINE
  8
0
 10
-12.5877
 20
24.3116
 11
-12.4464
 21
24.1869
  0
LINE
  8
0
 10
-12.4464
 20
24.1869
 11
-12.3131
 21
24.0536
  0
LINE
  8
0
 10
-12.3131
 20
24.0536
 11
-12.1884
 21
23.9123
  0
LINE
  8
0
 10
-12.1884
 20
23.9123
 11
-12.0729
 21
23.7634
  0
LINE
  8
0
 10
-12.0729
 20
23.7634
 11
-11.967
 21
23.6075
  0
LINE
  8
0
 10
-11.967
 20
23.6075
 11
-11.8711
 21
23.4453
  0
LINE
  8
0
 10
-11.8711
 20
23.4453
 11
-11.7855
 21
23.2773
  0
LINE
  8
0
 10
-11.7855
 20
23.2773
 11
-11.7107
 21
23.1044
  0
LINE
  8
0
 10
-11.7107
 20
23.1044
 11
-11.6468
 21
22.9271
  0
LINE
  8
0
 10
-11.6468
 20
22.9271
 11
-11.5942
 21
22.7461
  0
LINE
  8
0
 10
-11.5942
 20
22.7461
 11
-11.5531
 21
22.5621
  0
LINE
  8
0
 10
-11.5531
 20
22.5621
 11
-11.5237
 21
22.376
  0
LINE
  8
0
 10
-11.5237
 20
22.376
 11
-11.5059
 21
22.1884
  0
LINE
  8
0
 10
-11.5059
 20
22.1884
 11
-11.5
 21
22
  0
LINE
  8
0
 10
-11.5
 20
22
 11
-11.5059
 21
21.8116
  0
LINE
  8
0
 10
-11.5059
 20
21.8116
 11
-11.5237
 21
21.624
  0
LINE
  8
0
 10
-11.5237
 20
21.624
 11
-11.5531
 21
21.4379
  0
LINE
  8
0
 10
-11.5531
 20
21.4379
 11
-11.5942
 21
21.2539
  0
LINE
  8
0
 10
-11.5942
 20
21.2539
 11
-11.6468
 21
21.073
  0
LINE
  8
0
 10
-11.6468
 20
21.073
 11
-11.7107
 21
20.8956
  0
LINE
  8
0
 10
-11.7107
 20
20.8956
 11
-11.7855
 21
20.7227
  0
LINE
  8
0
 10
-11.7855
 20
20.7227
 11
-11.8711
 21
20.5547
  0
LINE
  8
0
 10
-11.8711
 20
20.5547
 11
-11.967
 21
20.3925
  0
LINE
  8
0
 10
-11.967
 20
20.3925
 11
-12.0729
 21
20.2366
  0
LINE
  8
0
 10
-12.0729
 20
20.2366
 11
-12.1884
 21
20.0877
  0
LINE
  8
0
 10
-12.1884
 20
20.0877
 11
-12.3131
 21
19.9464
  0
LINE
  8
0
 10
-12.3131
 20
19.9464
 11
-12.4464
 21
19.8131
  0
LINE
  8
0
 10
-12.4464
 20
19.8131
 11
-12.5877
 21
19.6885
  0
LINE
  8
0
 10
-12.5877
 20
19.6885
 11
-12.7366
 21
19.573
  0
LINE
  8
0
 10
-12.7366
 20
19.573
 11
-12.8925
 21
19.467
  0
LINE
  8
0
 10
-12.8925
 20
19.467
 11
-13.0547
 21
19.3711
  0
LINE
  8
0
 10
-13.0547
 20
19.3711
 11
-13.2227
 21
19.2855
  0
LINE
  8
0
 10
-13.2227
 20
19.2855
 11
-13.3956
 21
19.2107
  0
LINE
  8
0
 10
-13.3956
 20
19.2107
 11
-13.5729
 21
19.1468
  0
LINE
  8
0
 10
-13.5729
 20
19.1468
 11
-13.7539
 21
19.0943
  0
LINE
  8
0
 10
-13.7539
 20
19.0943
 11
-13.9379
 21
19.0531
  0
LINE
  8
0
 10
-13.9379
 20
19.0531
 11
-14.124
 21
19.0237
  0
LINE
  8
0
 10
-14.124
 20
19.0237
 11
-14.3116
 21
19.0059
  0
LINE
  8
0
 10
-14.3116
 20
19.0059
 11
-14.5
 21
19
  0
LINE
  8
0
 10
-14.5
 20
19
 11
-14.6884
 21
19.0059
  0
LINE
  8
0
 10
-7.5
 20
20.95
 11
-7.56279
 21
20.952
  0
LINE
  8
0
 10
-7.56279
 20
20.952
 11
-7.62532
 21
20.9579
  0
LINE
  8
0
 10
-7.62532
 20
20.9579
 11
-7.68738
 21
20.9677
  0
LINE
  8
0
 10
-7.68738
 20
20.9677
 11
-7.74869
 21
20.9814
  0
LINE
  8
0
 10
-7.74869
 20
20.9814
 11
-7.80901
 21
20.999
  0
LINE
  8
0
 10
-7.80901
 20
20.999
 11
-7.86812
 21
21.0202
  0
LINE
  8
0
 10
-7.86812
 20
21.0202
 11
-7.92577
 21
21.0452
  0
LINE
  8
0
 10
-7.92577
 20
21.0452
 11
-7.98175
 21
21.0737
  0
LINE
  8
0
 10
-7.98175
 20
21.0737
 11
-8.03581
 21
21.1057
  0
LINE
  8
0
 10
-8.03581
 20
21.1057
 11
-8.08778
 21
21.141
  0
LINE
  8
0
 10
-8.08778
 20
21.141
 11
-8.13742
 21
21.1795
  0
LINE
  8
0
 10
-8.13742
 20
21.1795
 11
-8.18454
 21
21.2211
  0
LINE
  8
0
 10
-8.18454
 20
21.2211
 11
-8.22896
 21
21.2655
  0
LINE
  8
0
 10
-8.22896
 20
21.2655
 11
-8.27051
 21
21.3126
  0
LINE
  8
0
 10
-8.27051
 20
21.3126
 11
-8.30901
 21
21.3622
  0
LINE
  8
0
 10
-8.30901
 20
21.3622
 11
-8.34431
 21
21.4142
  0
LINE
  8
0
 10
-8.34431
 20
21.4142
 11
-8.3763
 21
21.4683
  0
LINE
  8
0
 10
-8.3763
 20
21.4683
 11
-8.40482
 21
21.5242
  0
LINE
  8
0
 10
-8.40482
 20
21.5242
 11
-8.42976
 21
21.5819
  0
LINE
  8
0
 10
-8.42976
 20
21.5819
 11
-8.45105
 21
21.641
  0
LINE
  8
0
 10
-8.45105
 20
21.641
 11
-8.46858
 21
21.7013
  0
LINE
  8
0
 10
-8.46858
 20
21.7013
 11
-8.48228
 21
21.7626
  0
LINE
  8
0
 10
-8.48228
 20
21.7626
 11
-8.49211
 21
21.8247
  0
LINE
  8
0
 10
-8.49211
 20
21.8247
 11
-8.49802
 21
21.8872
  0
LINE
  8
0
 10
-8.49802
 20
21.8872
 11
-8.5
 21
21.95
  0
LINE
  8
0
 10
-8.5
 20
21.95
 11
-8.5
 21
22.05
  0
LINE
  8
0
 10
-8.5
 20
22.05
 11
-8.49802
 21
22.1128
  0
LINE
  8
0
 10
-8.49802
 20
22.1128
 11
-8.49211
 21
22.1753
  0
LINE
  8
0
 10
-8.49211
 20
22.1753
 11
-8.48228
 21
22.2374
  0
LINE
  8
0
 10
-8.48228
 20
22.2374
 11
-8.46858
 21
22.2987
  0
LINE
  8
0
 10
-8.46858
 20
22.2987
 11
-8.45105
 21
22.359
  0
LINE
  8
0
 10
-8.45105
 20
22.359
 11
-8.42976
 21
22.4181
  0
LINE
  8
0
 10
-8.42976
 20
22.4181
 11
-8.40482
 21
22.4758
  0
LINE
  8
0
 10
-8.40482
 20
22.4758
 11
-8.3763
 21
22.5317
  0
LINE
  8
0
 10
-8.3763
 20
22.5317
 11
-8.34431
 21
22.5858
  0
LINE
  8
0
 10
-8.34431
 20
22.5858
 11
-8.30901
 21
22.6378
  0
LINE
  8
0
 10
-8.30901
 20
22.6378
 11
-8.27051
 21
22.6874
  0
LINE
  8
0
 10
-8.27051
 20
22.6874
 11
-8.22896
 21
22.7345
  0
LINE
  8
0
 10
-8.22896
 20
22.7345
 11
-8.18454
 21
22.7789
  0
LINE
  8
0
 10
-8.18454
 20
22.7789
 11
-8.13742
 21
22.8205
  0
LINE
  8
0
 10
-8.13742
 20
22.8205
 11
-8.08778
 21
22.859
  0
LINE
  8
0
 10
-8.08778
 20
22.859
 11
-8.03581
 21
22.8943
  0
LINE
  8
0
 10
-8.03581
 20
22.8943
 11
-7.98175
 21
22.9263
  0
LINE
  8
0
 10
-7.98175
 20
22.9263
 11
-7.92577
 21
22.9548
  0
LINE
  8
0
 10
-7.92577
 20
22.9548
 11
-7.86812
 21
22.9798
  0
LINE
  8
0
 10
-7.86812
 20
22.9798
 11
-7.80901
 21
23.001
  0
LINE
  8
0
 10
-7.80901
 20
23.001
 11
-7.74869
 21
23.0186
  0
LINE
  8
0
 10
-7.74869
 20
23.0186
 11
-7.68738
 21
23.0323
  0
LINE
  8
0
 10
-7.68738
 20
23.0323
 11
-7.62532
 21
23.0421
  0
LINE
  8
0
 10
-7.62532
 20
23.0421
 11
-7.56279
 21
23.048
  0
LINE
  8
0
 10
-7.56279
 20
23.048
 11
-7.5
 21
23.05
  0
LINE
  8
0
 10
-7.5
 20
23.05
 11
15.5
 21
23.05
  0
LINE
  8
0
 10
15.5
 20
23.05
 11
15.5628
 21
23.048
  0
LINE
  8
0
 10
15.5628
 20
23.048
 11
15.6253
 21
23.0421
  0
LINE
  8
0
 10
15.6253
 20
23.0421
 11
15.6874
 21
23.0323
  0
LINE
  8
0
 10
15.6874
 20
23.0323
 11
15.7487
 21
23.0186
  0
LINE
  8
0
 10
15.7487
 20
23.0186
 11
15.809
 21
23.001
  0
LINE
  8
0
 10
15.809
 20
23.001
 11
15.8681
 21
22.9798
  0
LINE
  8
0
 10
15.8681
 20
22.9798
 11
15.9258
 21
22.9548
  0
LINE
  8
0
 10
15.9258
 20
22.9548
 11
15.9818
 21
22.9263
  0
LINE
  8
0
 10
15.9818
 20
22.9263
 11
16.0358
 21
22.8943
  0
LINE
  8
0
 10
16.0358
 20
22.8943
 11
16.0878
 21
22.859
  0
LINE
  8
0
 10
16.0878
 20
22.859
 11
16.1374
 21
22.8205
  0
LINE
  8
0
 10
16.1374
 20
22.8205
 11
16.1845
 21
22.7789
  0
LINE
  8
0
 10
16.1845
 20
22.7789
 11
16.229
 21
22.7345
  0
LINE
  8
0
 10
16.229
 20
22.7345
 11
16.2705
 21
22.6874
  0
LINE
  8
0
 10
16.2705
 20
22.6874
 11
16.309
 21
22.6378
  0
LINE
  8
0
 10
16.309
 20
22.6378
 11
16.3443
 21
22.5858
  0
LINE
  8
0
 10
16.3443
 20
22.5858
 11
16.3763
 21
22.5317
  0
LINE
  8
0
 10
16.3763
 20
22.5317
 11
16.4048
 21
22.4758
  0
LINE
  8
0
 10
16.4048
 20
22.4758
 11
16.4298
 21
22.4181
  0
LINE
  8
0
 10
16.4298
 20
22.4181
 11
16.451
 21
22.359
  0
LINE
  8
0
 10
16.451
 20
22.359
 11
16.4686
 21
22.2987
  0
LINE
  8
0
 10
16.4686
 20
22.2987
 11
16.4823
 21
22.2374
  0
LINE
  8
0
 10
16.4823
 20
22.2374
 11
16.4921
 21
22.1753
  0
LINE
  8
0
 10
16.4921
 20
22.1753
 11
16.498
 21
22.1128
  0
LINE
  8
0
 10
16.498
 20
22.1128
 11
16.5
 21
22.05
  0
LINE
  8
0
 10
16.5
 20
22.05
 11
16.5
 21
21.95
  0
LINE
  8
0
 10
16.5
 20
21.95
 11
16.498
 21
21.8872
  0
LINE
  8
0
 10
16.498
 20
21.8872
 11
16.4921
 21
21.8247
  0
LINE
  8
0
 10
16.4921
 20
21.8247
 11
16.4823
 21
21.7626
  0
LINE
  8
0
 10
16.4823
 20
21.7626
 11
16.4686
 21
21.7013
  0
LINE
  8
0
 10
16.4686
 20
21.7013
 11
16.451
 21
21.641
  0
LINE
  8
0
 10
16.451
 20
21.641
 11
16.4298
 21
21.5819
  0
LINE
  8
0
 10
16.4298
 20
21.5819
 11
16.4048
 21
21.5242
  0
LINE
  8
0
 10
16.4048
 20
21.5242
 11
16.3763
 21
21.4683
  0
LINE
  8
0
 10
16.3763
 20
21.4683
 11
16.3443
 21
21.4142
  0
LINE
  8
0
 10
16.3443
 20
21.4142
 11
16.309
 21
21.3622
  0
LINE
  8
0
 10
16.309
 20
21.3622
 11
16.2705
 21
21.3126
  0
LINE
  8
0
 10
16.2705
 20
21.3126
 11
16.229
 21
21.2655
  0
LINE
  8
0
 10
16.229
 20
21.2655
 11
16.1845
 21
21.2211
  0
LINE
  8
0
 10
16.1845
 20
21.2211
 11
16.1374
 21
21.1795
  0
LINE
  8
0
 10
16.1374
 20
21.1795
 11
16.0878
 21
21.141
  0
LINE
  8
0
 10
16.0878
 20
21.141
 11
16.0358
 21
21.1057
  0
LINE
  8
0
 10
16.0358
 20
21.1057
 11
15.9818
 21
21.0737
  0
LINE
  8
0
 10
15.9818
 20
21.0737
 11
15.9258
 21
21.0452
  0
LINE
  8
0
 10
15.9258
 20
21.0452
 11
15.8681
 21
21.0202
  0
LINE
  8
0
 10
15.8681
 20
21.0202
 11
15.809
 21
20.999
  0
LINE
  8
0
 10
15.809
 20
20.999
 11
15.7487
 21
20.9814
  0
LINE
  8
0
 10
15.7487
 20
20.9814
 11
15.6874
 21
20.9677
  0
LINE
  8
0
 10
15.6874
 20
20.9677
 11
15.6253
 21
20.9579
  0
LINE
  8
0
 10
15.6253
 20
20.9579
 11
15.5628
 21
20.952
  0
LINE
  8
0
 10
15.5628
 20
20.952
 11
15.5
 21
20.95
  0
LINE
  8
0
 10
15.5
 20
20.95
 11
-7.5
 21
20.95
  0
LINE
  8
0
 10
25.1884
 20
-14.9941
 11
25.376
 21
-14.9763
  0
LINE
  8
0
 10
25.376
 20
-14.9763
 11
25.5621
 21
-14.9469
  0
LINE
  8
0
 10
25.5621
 20
-14.9469
 11
25.7461
 21
-14.9057
  0
LINE
  8
0
 10
25.7461
 20
-14.9057
 11
25.927
 21
-14.8532
  0
LINE
  8
0
 10
25.927
 20
-14.8532
 11
26.1044
 21
-14.7893
  0
LINE
  8
0
 10
26.1044
 20
-14.7893
 11
26.2773
 21
-14.7145
  0
LINE
  8
0
 10
26.2773
 20
-14.7145
 11
26.4453
 21
-14.6289
  0
LINE
  8
0
 10
26.4453
 20
-14.6289
 11
26.6075
 21
-14.533
  0
LINE
  8
0
 10
26.6075
 20
-14.533
 11
26.7634
 21
-14.427
  0
LINE
  8
0
 10
26.7634
 20
-14.427
 11
26.9123
 21
-14.3115
  0
LINE
  8
0
 10
26.9123
 20
-14.3115
 11
27.0536
 21
-14.1869
  0
LINE
  8
0
 10
27.0536
 20
-14.1869
 11
27.1869
 21
-14.0536
  0
LINE
  8
0
 10
27.1869
 20
-14.0536
 11
27.3115
 21
-13.9123
  0
LINE
  8
0
 10
27.3115
 20
-13.9123
 11
27.427
 21
-13.7634
  0
LINE
  8
0
 10
27.427
 20
-13.7634
 11
27.533
 21
-13.6075
  0
LINE
  8
0
 10
27.533
 20
-13.6075
 11
27.6289
 21
-13.4453
  0
LINE
  8
0
 10
27.6289
 20
-13.4453
 11
27.7145
 21
-13.2773
  0
LINE
  8
0
 10
27.7145
 20
-13.2773
 11
27.7893
 21
-13.1044
  0
LINE
  8
0
 10
27.7893
 20
-13.1044
 11
27.8532
 21
-12.927
  0
LINE
  8
0
 10
27.8532
 20
-12.927
 11
27.9057
 21
-12.7461
  0
LINE
  8
0
 10
27.9057
 20
-12.7461
 11
27.9469
 21
-12.5621
  0
LINE
  8
0
 10
27.9469
 20
-12.5621
 11
27.9763
 21
-12.376
  0
LINE
  8
0
 10
27.9763
 20
-12.376
 11
27.9941
 21
-12.1884
  0
LINE
  8
0
 10
27.9941
 20
-12.1884
 11
28
 21
-12
  0
LINE
  8
0
 10
28
 20
-12
 11
28
 21
12
  0
LINE
  8
0
 10
28
 20
12
 11
27.9941
 21
12.1884
  0
LINE
  8
0
 10
27.9941
 20
12.1884
 11
27.9763
 21
12.376
  0
LINE
  8
0
 10
27.9763
 20
12.376
 11
27.9469
 21
12.5621
  0
LINE
  8
0
 10
27.9469
 20
12.5621
 11
27.9057
 21
12.7461
  0
LINE
  8
0
 10
27.9057
 20
12.7461
 11
27.8532
 21
12.927
  0
LINE
  8
0
 10
27.8532
 20
12.927
 11
27.7893
 21
13.1044
  0
LINE
  8
0
 10
27.7893
 20
13.1044
 11
27.7145
 21
13.2773
  0
LINE
  8
0
 10
27.7145
 20
13.2773
 11
27.6289
 21
13.4453
  0
LINE
  8
0
 10
27.6289
 20
13.4453
 11
27.533
 21
13.6075
  0
LINE
  8
0
 10
27.533
 20
13.6075
 11
27.427
 21
13.7634
  0
LINE
  8
0
 10
27.427
 20
13.7634
 11
27.3115
 21
13.9123
  0
LINE
  8
0
 10
27.3115
 20
13.9123
 11
27.1869
 21
14.0536
  0
LINE
  8
0
 10
27.1869
 20
14.0536
 11
27.0536
 21
14.1869
  0
LINE
  8
0
 10
27.0536
 20
14.1869
 11
26.9123
 21
14.3115
  0
LINE
  8
0
 10
26.9123
 20
14.3115
 11
26.7634
 21
14.427
  0
LINE
  8
0
 10
26.7634
 20
14.427
 11
26.6075
 21
14.533
  0
LINE
  8
0
 10
26.6075
 20
14.533
 11
26.4453
 21
14.6289
  0
LINE
  8
0
 10
26.4453
 20
14.6289
 11
26.2773
 21
14.7145
  0
LINE
  8
0
 10
26.2773
 20
14.7145
 11
26.1044
 21
14.7893
  0
LINE
  8
0
 10
26.1044
 20
14.7893
 11
25.927
 21
14.8532
  0
LINE
  8
0
 10
25.927
 20
14.8532
 11
25.7461
 21
14.9057
  0
LINE
  8
0
 10
25.7461
 20
14.9057
 11
25.5621
 21
14.9469
  0
LINE
  8
0
 10
25.5621
 20
14.9469
 11
25.376
 21
14.9763
  0
LINE
  8
0
 10
25.376
 20
14.9763
 11
25.1884
 21
14.9941
  0
LINE
  8
0
 10
25.1884
 20
14.9941
 11
25
 21
15
  0
LINE
  8
0
 10
25
 20
15
 11
-25
 21
15
  0
LINE
  8
0
 10
-25
 20
15
 11
-25.1884
 21
14.9941
  0
LINE
  8
0
 10
-25.1884
 20
14.9941
 11
-25.376
 21
14.9763
  0
LINE
  8
0
 10
-25.376
 20
14.9763
 11
-25.5621
 21
14.9469
  0
LINE
  8
0
 10
-25.5621
 20
14.9469
 11
-25.7461
 21
14.9057
  0
LINE
  8
0
 10
-25.7461
 20
14.9057
 11
-25.927
 21
14.8532
  0
LINE
  8
0
 10
-25.927
 20
14.8532
 11
-26.1044
 21
14.7893
  0
LINE
  8
0
 10
-26.1044
 20
14.7893
 11
-26.2773
 21
14.7145
  0
LINE
  8
0
 10
-26.2773
 20
14.7145
 11
-26.4453
 21
14.6289
  0
LINE
  8
0
 10
-26.4453
 20
14.6289
 11
-26.6075
 21
14.533
  0
LINE
  8
0
 10
-26.6075
 20
14.533
 11
-26.7634
 21
14.427
  0
LINE
  8
0
 10
-26.7634
 20
14.427
 11
-26.9123
 21
14.3115
  0
LINE
  8
0
 10
-26.9123
 20
14.3115
 11
-27.0536
 21
14.1869
  0
LINE
  8
0
 10
-27.0536
 20
14.1869
 11
-27.1869
 21
14.0536
  0
LINE
  8
0
 10
-27.1869
 20
14.0536
 11
-27.3115
 21
13.9123
  0
LINE
  8
0
 10
-27.3115
 20
13.9123
 11
-27.427
 21
13.7634
  0
LINE
  8
0
 10
-27.427
 20
13.7634
 11
-27.533
 21
13.6075
  0
LINE
  8
0
 10
-27.533
 20
13.6075
 11
-27.6289
 21
13.4453
  0
LINE
  8
0
 10
-27.6289
 20
13.4453
 11
-27.7145
 21
13.2773
  0
LINE
  8
0
 10
-27.7145
 20
13.2773
 11
-27.7893
 21
13.1044
  0
LINE
  8
0
 10
-27.7893
 20
13.1044
 11
-27.8532
 21
12.927
  0
LINE
  8
0
 10
-27.8532
 20
12.927
 11
-27.9057
 21
12.7461
  0
LINE
  8
0
 10
-27.9057
 20
12.7461
 11
-27.9469
 21
12.5621
  0
LINE
  8
0
 10
-27.9469
 20
12.5621
 11
-27.9763
 21
12.376
  0
LINE
  8
0
 10
-27.9763
 20
12.376
 11
-27.9941
 21
12.1884
  0
LINE
  8
0
 10
-27.9941
 20
12.1884
 11
-28
 21
12
  0
LINE
  8
0
 10
-28
 20
12
 11
-28
 21
-12
  0
LINE
  8
0
 10
-28
 20
-12
 11
-27.9941
 21
-12.1884
  0
LINE
  8
0
 10
-27.9941
 20
-12.1884
 11
-27.9763
 21
-12.376
  0
LINE
  8
0
 10
-27.9763
 20
-12.376
 11
-27.9469
 21
-12.5621
  0
LINE
  8
0
 10
-27.9469
 20
-12.5621
 11
-27.9057
 21
-12.7461
  0
LINE
  8
0
 10
-27.9057
 20
-12.7461
 11
-27.8532
 21
-12.927
  0
LINE
  8
0
 10
-27.8532
 20
-12.927
 11
-27.7893
 21
-13.1044
  0
LINE
  8
0
 10
-27.7893
 20
-13.1044
 11
-27.7145
 21
-13.2773
  0
LINE
  8
0
 10
-27.7145
 20
-13.2773
 11
-27.6289
 21
-13.4453
  0
LINE
  8
0
 10
-27.6289
 20
-13.4453
 11
-27.533
 21
-13.6075
  0
LINE
  8
0
 10
-27.533
 20
-13.6075
 11
-27.427
 21
-13.7634
  0
LINE
  8
0
 10
-27.427
 20
-13.7634
 11
-27.3115
 21
-13.9123
  0
LINE
  8
0
 10
-27.3115
 20
-13.9123
 11
-27.1869
 21
-14.0536
  0
LINE
  8
0
 10
-27.1869
 20
-14.0536
 11
-27.0536
 21
-14.1869
  0
LINE
  8
0
 10
-27.0536
 20
-14.1869
 11
-26.9123
 21
-14.3115
  0
LINE
  8
0
 10
-26.9123
 20
-14.3115
 11
-26.7634
 21
-14.427
  0
LINE
  8
0
 10
-26.7634
 20
-14.427
 11
-26.6075
 21
-14.533
  0
LINE
  8
0
 10
-26.6075
 20
-14.533
 11
-26.4453
 21
-14.6289
  0
LINE
  8
0
 10
-26.4453
 20
-14.6289
 11
-26.2773
 21
-14.7145
  0
LINE
  8
0
 10
-26.2773
 20
-14.7145
 11
-26.1044
 21
-14.7893
  0
LINE
  8
0
 10
-26.1044
 20
-14.7893
 11
-25.927
 21
-14.8532
  0
LINE
  8
0
 10
-25.927
 20
-14.8532
 11
-25.7461
 21
-14.9057
  0
LINE
  8
0
 10
-25.7461
 20
-14.9057
 11
-25.5621
 21
-14.9469
  0
LINE
  8
0
 10
-25.5621
 20
-14.9469
 11
-25.376
 21
-14.9763
  0
LINE
  8
0
 10
-25.376
 20
-14.9763
 11
-25.1884
 21
-14.9941
  0
LINE
  8
0
 10
-25.1884
 20
-14.9941
 11
-25
 21
-15
  0
LINE
  8
0
 10
-25
 20
-15
 11
25
 21
-15
  0
LINE
  8
0
 10
25
 20
-15
 11
25.1884
 21
-14.9941
  0
LINE
  8
0
 10
-4
 20
9.75
 11
-4.06279
 21
9.75198
  0
LINE
  8
0
 10
-4.06279
 20
9.75198
 11
-4.12532
 21
9.75789
  0
LINE
  8
0
 10
-4.12532
 20
9.75789
 11
-4.18738
 21
9.76772
  0
LINE
  8
0
 10
-4.18738
 20
9.76772
 11
-4.24869
 21
9.78142
  0
LINE
  8
0
 10
-4.24869
 20
9.78142
 11
-4.30901
 21
9.79895
  0
LINE
  8
0
 10
-4.30901
 20
9.79895
 11
-4.36812
 21
9.82024
  0
LINE
  8
0
 10
-4.36812
 20
9.82024
 11
-4.42577
 21
9.84518
  0
LINE
  8
0
 10
-4.42577
 20
9.84518
 11
-4.48175
 21
9.8737
  0
LINE
  8
0
 10
-4.48175
 20
9.8737
 11
-4.53581
 21
9.90569
  0
LINE
  8
0
 10
-4.53581
 20
9.90569
 11
-4.58778
 21
9.94099
  0
LINE
  8
0
 10
-4.58778
 20
9.94099
 11
-4.63742
 21
9.97949
  0
LINE
  8
0
 10
-4.63742
 20
9.97949
 11
-4.68454
 21
10.021
  0
LINE
  8
0
 10
-4.68454
 20
10.021
 11
-4.72896
 21
10.0655
  0
LINE
  8
0
 10
-4.72896
 20
10.0655
 11
-4.77051
 21
10.1126
  0
LINE
  8
0
 10
-4.77051
 20
10.1126
 11
-4.80901
 21
10.1622
  0
LINE
  8
0
 10
-4.80901
 20
10.1622
 11
-4.84431
 21
10.2142
  0
LINE
  8
0
 10
-4.84431
 20
10.2142
 11
-4.8763
 21
10.2682
  0
LINE
  8
0
 10
-4.8763
 20
10.2682
 11
-4.90482
 21
10.3242
  0
LINE
  8
0
 10
-4.90482
 20
10.3242
 11
-4.92976
 21
10.3819
  0
LINE
  8
0
 10
-4.92976
 20
10.3819
 11
-4.95105
 21
10.441
  0
LINE
  8
0
 10
-4.95105
 20
10.441
 11
-4.96858
 21
10.5013
  0
LINE
  8
0
 10
-4.96858
 20
10.5013
 11
-4.98228
 21
10.5626
  0
LINE
  8
0
 10
-4.98228
 20
10.5626
 11
-4.99211
 21
10.6247
  0
LINE
  8
0
 10
-4.99211
 20
10.6247
 11
-4.99802
 21
10.6872
  0
LINE
  8
0
 10
-4.99802
 20
10.6872
 11
-5
 21
10.75
  0
LINE
  8
0
 10
-5
 20
10.75
 11
-5
 21
11.25
  0
LINE
  8
0
 10
-5
 20
11.25
 11
-4.99802
 21
11.3128
  0
LINE
  8
0
 10
-4.99802
 20
11.3128
 11
-4.99211
 21
11.3753
  0
LINE
  8
0
 10
-4.99211
 20
11.3753
 11
-4.98228
 21
11.4374
  0
LINE
  8
0
 10
-4.98228
 20
11.4374
 11
-4.96858
 21
11.4987
  0
LINE
  8
0
 10
-4.96858
 20
11.4987
 11
-4.95105
 21
11.559
  0
LINE
  8
0
 10
-4.95105
 20
11.559
 11
-4.92976
 21
11.6181
  0
LINE
  8
0
 10
-4.92976
 20
11.6181
 11
-4.90482
 21
11.6758
  0
LINE
  8
0
 10
-4.90482
 20
11.6758
 11
-4.8763
 21
11.7318
  0
LINE
  8
0
 10
-4.8763
 20
11.7318
 11
-4.84431
 21
11.7858
  0
LINE
  8
0
 10
-4.84431
 20
11.7858
 11
-4.80901
 21
11.8378
  0
LINE
  8
0
 10
-4.80901
 20
11.8378
 11
-4.77051
 21
11.8874
  0
LINE
  8
0
 10
-4.77051
 20
11.8874
 11
-4.72896
 21
11.9345
  0
LINE
  8
0
 10
-4.72896
 20
11.9345
 11
-4.68454
 21
11.979
  0
LINE
  8
0
 10
-4.68454
 20
11.979
 11
-4.63742
 21
12.0205
  0
LINE
  8
0
 10
-4.63742
 20
12.0205
 11
-4.58778
 21
12.059
  0
LINE
  8
0
 10
-4.58778
 20
12.059
 11
-4.53581
 21
12.0943
  0
LINE
  8
0
 10
-4.53581
 20
12.0943
 11
-4.48175
 21
12.1263
  0
LINE
  8
0
 10
-4.48175
 20
12.1263
 11
-4.42577
 21
12.1548
  0
LINE
  8
0
 10
-4.42577
 20
12.1548
 11
-4.36812
 21
12.1798
  0
LINE
  8
0
 10
-4.36812
 20
12.1798
 11
-4.30901
 21
12.201
  0
LINE
  8
0
 10
-4.30901
 20
12.201
 11
-4.24869
 21
12.2186
  0
LINE
  8
0
 10
-4.24869
 20
12.2186
 11
-4.18738
 21
12.2323
  0
LINE
  8
0
 10
-4.18738
 20
12.2323
 11
-4.12532
 21
12.2421
  0
LINE
  8
0
 10
-4.12532
 20
12.2421
 11
-4.06279
 21
12.248
  0
LINE
  8
0
 10
-4.06279
 20
12.248
 11
-4
 21
12.25
  0
LINE
  8
0
 10
-4
 20
12.25
 11
4
 21
12.25
  0
LINE
  8
0
 10
4
 20
12.25
 11
4.06279
 21
12.248
  0
LINE
  8
0
 10
4.06279
 20
12.248
 11
4.12532
 21
12.2421
  0
LINE
  8
0
 10
4.12532
 20
12.2421
 11
4.18738
 21
12.2323
  0
LINE
  8
0
 10
4.18738
 20
12.2323
 11
4.24869
 21
12.2186
  0
LINE
  8
0
 10
4.24869
 20
12.2186
 11
4.30901
 21
12.201
  0
LINE
  8
0
 10
4.30901
 20
12.201
 11
4.36812
 21
12.1798
  0
LINE
  8
0
 10
4.36812
 20
12.1798
 11
4.42577
 21
12.1548
  0
LINE
  8
0
 10
4.42577
 20
12.1548
 11
4.48175
 21
12.1263
  0
LINE
  8
0
 10
4.48175
 20
12.1263
 11
4.53581
 21
12.0943
  0
LINE
  8
0
 10
4.53581
 20
12.0943
 11
4.58778
 21
12.059
  0
LINE
  8
0
 10
4.58778
 20
12.059
 11
4.63742
 21
12.0205
  0
LINE
  8
0
 10
4.63742
 20
12.0205
 11
4.68454
 21
11.979
  0
LINE
  8
0
 10
4.68454
 20
11.979
 11
4.72896
 21
11.9345
  0
LINE
  8
0
 10
4.72896
 20
11.9345
 11
4.77051
 21
11.8874
  0
LINE
  8
0
 10
4.77051
 20
11.8874
 11
4.80901
 21
11.8378
  0
LINE
  8
0
 10
4.80901
 20
11.8378
 11
4.84431
 21
11.7858
  0
LINE
  8
0
 10
4.84431
 20
11.7858
 11
4.8763
 21
11.7318
  0
LINE
  8
0
 10
4.8763
 20
11.7318
 11
4.90482
 21
11.6758
  0
LINE
  8
0
 10
4.90482
 20
11.6758
 11
4.92976
 21
11.6181
  0
LINE
  8
0
 10
4.92976
 20
11.6181
 11
4.95105
 21
11.559
  0
LINE
  8
0
 10
4.95105
 20
11.559
 11
4.96858
 21
11.4987
  0
LINE
  8
0
 10
4.96858
 20
11.4987
 11
4.98228
 21
11.4374
  0
LINE
  8
0
 10
4.98228
 20
11.4374
 11
4.99211
 21
11.3753
  0
LINE
  8
0
 10
4.99211
 20
11.3753
 11
4.99802
 21
11.3128
  0
LINE
  8
0
 10
4.99802
 20
11.3128
 11
5
 21
11.25
  0
LINE
  8
0
 10
5
 20
11.25
 11
5
 21
10.75
  0
LINE
  8
0
 10
5
 20
10.75
 11
4.99802
 21
10.6872
  0
LINE
  8
0
 10
4.99802
 20
10.6872
 11
4.99211
 21
10.6247
  0
LINE
  8
0
 10
4.99211
 20
10.6247
 11
4.98228
 21
10.5626
  0
LINE
  8
0
 10
4.98228
 20
10.5626
 11
4.96858
 21
10.5013
  0
LINE
  8
0
 10
4.96858
 20
10.5013
 11
4.95105
 21
10.441
  0
LINE
  8
0
 10
4.95105
 20
10.441
 11
4.92976
 21
10.3819
  0
LINE
  8
0
 10
4.92976
 20
10.3819
 11
4.90482
 21
10.3242
  0
LINE
  8
0
 10
4.90482
 20
10.3242
 11
4.8763
 21
10.2682
  0
LINE
  8
0
 10
4.8763
 20
10.2682
 11
4.84431
 21
10.2142
  0
LINE
  8
0
 10
4.84431
 20
10.2142
 11
4.80901
 21
10.1622
  0
LINE
  8
0
 10
4.80901
 20
10.1622
 11
4.77051
 21
10.1126
  0
LINE
  8
0
 10
4.77051
 20
10.1126
 11
4.72896
 21
10.0655
  0
LINE
  8
0
 10
4.72896
 20
10.0655
 11
4.68454
 21
10.021
  0
LINE
  8
0
 10
4.68454
 20
10.021
 11
4.63742
 21
9.97949
  0
LINE
  8
0
 10
4.63742
 20
9.97949
 11
4.58778
 21
9.94099
  0
LINE
  8
0
 10
4.58778
 20
9.94099
 11
4.53581
 21
9.90569
  0
LINE
  8
0
 10
4.53581
 20
9.90569
 11
4.48175
 21
9.8737
  0
LINE
  8
0
 10
4.48175
 20
9.8737
 11
4.42577
 21
9.84518
  0
LINE
  8
0
 10
4.42577
 20
9.84518
 11
4.36812
 21
9.82024
  0
LINE
  8
0
 10
4.36812
 20
9.82024
 11
4.30901
 21
9.79895
  0
LINE
  8
0
 10
4.30901
 20
9.79895
 11
4.24869
 21
9.78142
  0
LINE
  8
0
 10
4.24869
 20
9.78142
 11
4.18738
 21
9.76772
  0
LINE
  8
0
 10
4.18738
 20
9.76772
 11
4.12532
 21
9.75789
  0
LINE
  8
0
 10
4.12532
 20
9.75789
 11
4.06279
 21
9.75198
  0
LINE
  8
0
 10
4.06279
 20
9.75198
 11
4
 21
9.75
  0
LINE
  8
0
 10
4
 20
9.75
 11
-4
 21
9.75
  0
LINE
  8
0
 10
-13.25
 20
-5
 11
-13.3128
 21
-4.99802
  0
LINE
  8
0
 10
-13.3128
 20
-4.99802
 11
-13.3753
 21
-4.99211
  0
LINE
  8
0
 10
-13.3753
 20
-4.99211
 11
-13.4374
 21
-4.98228
  0
LINE
  8
0
 10
-13.4374
 20
-4.98228
 11
-13.4987
 21
-4.96858
  0
LINE
  8
0
 10
-13.4987
 20
-4.96858
 11
-13.559
 21
-4.95105
  0
LINE
  8
0
 10
-13.559
 20
-4.95105
 11
-13.6181
 21
-4.92976
  0
LINE
  8
0
 10
-13.6181
 20
-4.92976
 11
-13.6758
 21
-4.90482
  0
LINE
  8
0
 10
-13.6758
 20
-4.90482
 11
-13.7318
 21
-4.8763
  0
LINE
  8
0
 10
-13.7318
 20
-4.8763
 11
-13.7858
 21
-4.84431
  0
LINE
  8
0
 10
-13.7858
 20
-4.84431
 11
-13.8378
 21
-4.80901
  0
LINE
  8
0
 10
-13.8378
 20
-4.80901
 11
-13.8874
 21
-4.77051
  0
LINE
  8
0
 10
-13.8874
 20
-4.77051
 11
-13.9345
 21
-4.72896
  0
LINE
  8
0
 10
-13.9345
 20
-4.72896
 11
-13.979
 21
-4.68454
  0
LINE
  8
0
 10
-13.979
 20
-4.68454
 11
-14.0205
 21
-4.63742
  0
LINE
  8
0
 10
-14.0205
 20
-4.63742
 11
-14.059
 21
-4.58778
  0
LINE
  8
0
 10
-14.059
 20
-4.58778
 11
-14.0943
 21
-4.53581
  0
LINE
  8
0
 10
-14.0943
 20
-4.53581
 11
-14.1263
 21
-4.48175
  0
LINE
  8
0
 10
-14.1263
 20
-4.48175
 11
-14.1548
 21
-4.42577
  0
LINE
  8
0
 10
-14.1548
 20
-4.42577
 11
-14.1798
 21
-4.36812
  0
LINE
  8
0
 10
-14.1798
 20
-4.36812
 11
-14.201
 21
-4.30901
  0
LINE
  8
0
 10
-14.201
 20
-4.30901
 11
-14.2186
 21
-4.24869
  0
LINE
  8
0
 10
-14.2186
 20
-4.24869
 11
-14.2323
 21
-4.18738
  0
LINE
  8
0
 10
-14.2323
 20
-4.18738
 11
-14.2421
 21
-4.12532
  0
LINE
  8
0
 10
-14.2421
 20
-4.12532
 11
-14.248
 21
-4.06279
  0
LINE
  8
0
 10
-14.248
 20
-4.06279
 11
-14.25
 21
-4
  0
LINE
  8
0
 10
-14.25
 20
-4
 11
-14.25
 21
4
  0
LINE
  8
0
 10
-14.25
 20
4
 11
-14.248
 21
4.06279
  0
LINE
  8
0
 10
-14.248
 20
4.06279
 11
-14.2421
 21
4.12532
  0
LINE
  8
0
 10
-14.2421
 20
4.12532
 11
-14.2323
 21
4.18738
  0
LINE
  8
0
 10
-14.2323
 20
4.18738
 11
-14.2186
 21
4.24869
  0
LINE
  8
0
 10
-14.2186
 20
4.24869
 11
-14.201
 21
4.30901
  0
LINE
  8
0
 10
-14.201
 20
4.30901
 11
-14.1798
 21
4.36812
  0
LINE
  8
0
 10
-14.1798
 20
4.36812
 11
-14.1548
 21
4.42577
  0
LINE
  8
0
 10
-14.1548
 20
4.42577
 11
-14.1263
 21
4.48175
  0
LINE
  8
0
 10
-14.1263
 20
4.48175
 11
-14.0943
 21
4.53581
  0
LINE
  8
0
 10
-14.0943
 20
4.53581
 11
-14.059
 21
4.58778
  0
LINE
  8
0
 10
-14.059
 20
4.58778
 11
-14.0205
 21
4.63742
  0
LINE
  8
0
 10
-14.0205
 20
4.63742
 11
-13.979
 21
4.68454
  0
LINE
  8
0
 10
-13.979
 20
4.68454
 11
-13.9345
 21
4.72896
  0
LINE
  8
0
 10
-13.9345
 20
4.72896
 11
-13.8874
 21
4.77051
  0
LINE
  8
0
 10
-13.8874
 20
4.77051
 11
-13.8378
 21
4.80901
  0
LINE
  8
0
 10
-13.8378
 20
4.80901
 11
-13.7858
 21
4.84431
  0
LINE
  8
0
 10
-13.7858
 20
4.84431
 11
-13.7318
 21
4.8763
  0
LINE
  8
0
 10
-13.7318
 20
4.8763
 11
-13.6758
 21
4.90482
  0
LINE
  8
0
 10
-13.6758
 20
4.90482
 11
-13.6181
 21
4.92976
  0
LINE
  8
0
 10
-13.6181
 20
4.92976
 11
-13.559
 21
4.95105
  0
LINE
  8
0
 10
-13.559
 20
4.95105
 11
-13.4987
 21
4.96858
  0
LINE
  8
0
 10
-13.4987
 20
4.96858
 11
-13.4374
 21
4.98228
  0
LINE
  8
0
 10
-13.4374
 20
4.98228
 11
-13.3753
 21
4.99211
  0
LINE
  8
0
 10
-13.3753
 20
4.99211
 11
-13.3128
 21
4.99802
  0
LINE
  8
0
 10
-13.3128
 20
4.99802
 11
-13.25
 21
5
  0
LINE
  8
0
 10
-13.25
 20
5
 11
-12.75
 21
5
  0
LINE
  8
0
 10
-12.75
 20
5
 11
-12.6872
 21
4.99802
  0
LINE
  8
0
 10
-12.6872
 20
4.99802
 11
-12.6247
 21
4.99211
  0
LINE
  8
0
 10
-12.6247
 20
4.99211
 11
-12.5626
 21
4.98228
  0
LINE
  8
0
 10
-12.5626
 20
4.98228
 11
-12.5013
 21
4.96858
  0
LINE
  8
0
 10
-12.5013
 20
4.96858
 11
-12.441
 21
4.95105
  0
LINE
  8
0
 10
-12.441
 20
4.95105
 11
-12.3819
 21
4.92976
  0
LINE
  8
0
 10
-12.3819
 20
4.92976
 11
-12.3242
 21
4.90482
  0
LINE
  8
0
 10
-12.3242
 20
4.90482
 11
-12.2682
 21
4.8763
  0
LINE
  8
0
 10
-12.2682
 20
4.8763
 11
-12.2142
 21
4.84431
  0
LINE
  8
0
 10
-12.2142
 20
4.84431
 11
-12.1622
 21
4.80901
  0
LINE
  8
0
 10
-12.1622
 20
4.80901
 11
-12.1126
 21
4.77051
  0
LINE
  8
0
 10
-12.1126
 20
4.77051
 11
-12.0655
 21
4.72896
  0
LINE
  8
0
 10
-12.0655
 20
4.72896
 11
-12.021
 21
4.68454
  0
LINE
  8
0
 10
-12.021
 20
4.68454
 11
-11.9795
 21
4.63742
  0
LINE
  8
0
 10
-11.9795
 20
4.63742
 11
-11.941
 21
4.58778
  0
LINE
  8
0
 10
-11.941
 20
4.58778
 11
-11.9057
 21
4.53581
  0
LINE
  8
0
 10
-11.9057
 20
4.53581
 11
-11.8737
 21
4.48175
  0
LINE
  8
0
 10
-11.8737
 20
4.48175
 11
-11.8452
 21
4.42577
  0
LINE
  8
0
 10
-11.8452
 20
4.42577
 11
-11.8202
 21
4.36812
  0
LINE
  8
0
 10
-11.8202
 20
4.36812
 11
-11.799
 21
4.30901
  0
LINE
  8
0
 10
-11.799
 20
4.30901
 11
-11.7814
 21
4.24869
  0
LINE
  8
0
 10
-11.7814
 20
4.24869
 11
-11.7677
 21
4.18738
  0
LINE
  8
0
 10
-11.7677
 20
4.18738
 11
-11.7579
 21
4.12532
  0
LINE
  8
0
 10
-11.7579
 20
4.12532
 11
-11.752
 21
4.06279
  0
LINE
  8
0
 10
-11.752
 20
4.06279
 11
-11.75
 21
4
  0
LINE
  8
0
 10
-11.75
 20
4
 11
-11.75
 21
1.2182
  0
LINE
  8
0
 10
-11.75
 20
1.2182
 11
-11.6874
 21
1.23228
  0
LINE
  8
0
 10
-11.6874
 20
1.23228
 11
-11.6253
 21
1.24211
  0
LINE
  8
0
 10
-11.6253
 20
1.24211
 11
-11.5628
 21
1.24802
  0
LINE
  8
0
 10
-11.5628
 20
1.24802
 11
-11.5
 21
1.25
  0
LINE
  8
0
 10
-11.5
 20
1.25
 11
11.5
 21
1.25
  0
LINE
  8
0
 10
11.5
 20
1.25
 11
11.5628
 21
1.24802
  0
LINE
  8
0
 10
11.5628
 20
1.24802
 11
11.6253
 21
1.24211
  0
LINE
  8
0
 10
11.6253
 20
1.24211
 11
11.6874
 21
1.23228
  0
LINE
  8
0
 10
11.6874
 20
1.23228
 11
11.75
 21
1.2182
  0
LINE
  8
0
 10
11.75
 20
1.2182
 11
11.75
 21
4
  0
LINE
  8
0
 10
11.75
 20
4
 11
11.752
 21
4.06279
  0
LINE
  8
0
 10
11.752
 20
4.06279
 11
11.7579
 21
4.12532
  0
LINE
  8
0
 10
11.7579
 20
4.12532
 11
11.7677
 21
4.18738
  0
LINE
  8
0
 10
11.7677
 20
4.18738
 11
11.7814
 21
4.24869
  0
LINE
  8
0
 10
11.7814
 20
4.24869
 11
11.799
 21
4.30901
  0
LINE
  8
0
 10
11.799
 20
4.30901
 11
11.8202
 21
4.36812
  0
LINE
  8
0
 10
11.8202
 20
4.36812
 11
11.8452
 21
4.42577
  0
LINE
  8
0
 10
11.8452
 20
4.42577
 11
11.8737
 21
4.48175
  0
LINE
  8
0
 10
11.8737
 20
4.48175
 11
11.9057
 21
4.53581
  0
LINE
  8
0
 10
11.9057
 20
4.53581
 11
11.941
 21
4.58778
  0
LINE
  8
0
 10
11.941
 20
4.58778
 11
11.9795
 21
4.63742
  0
LINE
  8
0
 10
11.9795
 20
4.63742
 11
12.021
 21
4.68454
  0
LINE
  8
0
 10
12.021
 20
4.68454
 11
12.0655
 21
4.72896
  0
LINE
  8
0
 10
12.0655
 20
4.72896
 11
12.1126
 21
4.77051
  0
LINE
  8
0
 10
12.1126
 20
4.77051
 11
12.1622
 21
4.80901
  0
LINE
  8
0
 10
12.1622
 20
4.80901
 11
12.2142
 21
4.84431
  0
LINE
  8
0
 10
12.2142
 20
4.84431
 11
12.2682
 21
4.8763
  0
LINE
  8
0
 10
12.2682
 20
4.8763
 11
12.3242
 21
4.90482
  0
LINE
  8
0
 10
12.3242
 20
4.90482
 11
12.3819
 21
4.92976
  0
LINE
  8
0
 10
12.3819
 20
4.92976
 11
12.441
 21
4.95105
  0
LINE
  8
0
 10
12.441
 20
4.95105
 11
12.5013
 21
4.96858
  0
LINE
  8
0
 10
12.5013
 20
4.96858
 11
12.5626
 21
4.98228
  0
LINE
  8
0
 10
12.5626
 20
4.98228
 11
12.6247
 21
4.99211
  0
LINE
  8
0
 10
12.6247
 20
4.99211
 11
12.6872
 21
4.99802
  0
LINE
  8
0
 10
12.6872
 20
4.99802
 11
12.75
 21
5
  0
LINE
  8
0
 10
12.75
 20
5
 11
13.25
 21
5
  0
LINE
  8
0
 10
13.25
 20
5
 11
13.3128
 21
4.99802
  0
LINE
  8
0
 10
13.3128
 20
4.99802
 11
13.3753
 21
4.99211
  0
LINE
  8
0
 10
13.3753
 20
4.99211
 11
13.4374
 21
4.98228
  0
LINE
  8
0
 10
13.4374
 20
4.98228
 11
13.4987
 21
4.96858
  0
LINE
  8
0
 10
13.4987
 20
4.96858
 11
13.559
 21
4.95105
  0
LINE
  8
0
 10
13.559
 20
4.95105
 11
13.6181
 21
4.92976
  0
LINE
  8
0
 10
13.6181
 20
4.92976
 11
13.6758
 21
4.90482
  0
LINE
  8
0
 10
13.6758
 20
4.90482
 11
13.7318
 21
4.8763
  0
LINE
  8
0
 10
13.7318
 20
4.8763
 11
13.7858
 21
4.84431
  0
LINE
  8
0
 10
13.7858
 20
4.84431
 11
13.8378
 21
4.80901
  0
LINE
  8
0
 10
13.8378
 20
4.80901
 11
13.8874
 21
4.77051
  0
LINE
  8
0
 10
13.8874
 20
4.77051
 11
13.9345
 21
4.72896
  0
LINE
  8
0
 10
13.9345
 20
4.72896
 11
13.979
 21
4.68454
  0
LINE
  8
0
 10
13.979
 20
4.68454
 11
14.0205
 21
4.63742
  0
LINE
  8
0
 10
14.0205
 20
4.63742
 11
14.059
 21
4.58778
  0
LINE
  8
0
 10
14.059
 20
4.58778
 11
14.0943
 21
4.53581
  0
LINE
  8
0
 10
14.0943
 20
4.53581
 11
14.1263
 21
4.48175
  0
LINE
  8
0
 10
14.1263
 20
4.48175
 11
14.1548
 21
4.42577
  0
LINE
  8
0
 10
14.1548
 20
4.42577
 11
14.1798
 21
4.36812
  0
LINE
  8
0
 10
14.1798
 20
4.36812
 11
14.201
 21
4.30901
  0
LINE
  8
0
 10
14.201
 20
4.30901
 11
14.2186
 21
4.24869
  0
LINE
  8
0
 10
14.2186
 20
4.24869
 11
14.2323
 21
4.18738
  0
LINE
  8
0
 10
14.2323
 20
4.18738
 11
14.2421
 21
4.12532
  0
LINE
  8
0
 10
14.2421
 20
4.12532
 11
14.248
 21
4.06279
  0
LINE
  8
0
 10
14.248
 20
4.06279
 11
14.25
 21
4
  0
LINE
  8
0
 10
14.25
 20
4
 11
14.25
 21
-4
  0
LINE
  8
0
 10
14.25
 20
-4
 11
14.248
 21
-4.06279
  0
LINE
  8
0
 10
14.248
 20
-4.06279
 11
14.2421
 21
-4.12532
  0
LINE
  8
0
 10
14.2421
 20
-4.12532
 11
14.2323
 21
-4.18738
  0
LINE
  8
0
 10
14.2323
 20
-4.18738
 11
14.2186
 21
-4.24869
  0
LINE
  8
0
 10
14.2186
 20
-4.24869
 11
14.201
 21
-4.30901
  0
LINE
  8
0
 10
14.201
 20
-4.30901
 11
14.1798
 21
-4.36812
  0
LINE
  8
0
 10
14.1798
 20
-4.36812
 11
14.1548
 21
-4.42577
  0
LINE
  8
0
 10
14.1548
 20
-4.42577
 11
14.1263
 21
-4.48175
  0
LINE
  8
0
 10
14.1263
 20
-4.48175
 11
14.0943
 21
-4.53581
  0
LINE
  8
0
 10
14.0943
 20
-4.53581
 11
14.059
 21
-4.58778
  0
LINE
  8
0
 10
14.059
 20
-4.58778
 11
14.0205
 21
-4.63742
  0
LINE
  8
0
 10
14.0205
 20
-4.63742
 11
13.979
 21
-4.68454
  0
LINE
  8
0
 10
13.979
 20
-4.68454
 11
13.9345
 21
-4.72896
  0
LINE
  8
0
 10
13.9345
 20
-4.72896
 11
13.8874
 21
-4.77051
  0
LINE
  8
0
 10
13.8874
 20
-4.77051
 11
13.8378
 21
-4.80901
  0
LINE
  8
0
 10
13.8378
 20
-4.80901
 11
13.7858
 21
-4.84431
  0
LINE
  8
0
 10
13.7858
 20
-4.84431
 11
13.7318
 21
-4.8763
  0
LINE
  8
0
 10
13.7318
 20
-4.8763
 11
13.6758
 21
-4.90482
  0
LINE
  8
0
 10
13.6758
 20
-4.90482
 11
13.6181
 21
-4.92976
  0
LINE
  8
0
 10
13.6181
 20
-4.92976
 11
13.559
 21
-4.95105
  0
LINE
  8
0
 10
13.559
 20
-4.95105
 11
13.4987
 21
-4.96858
  0
LINE
  8
0
 10
13.4987
 20
-4.96858
 11
13.4374
 21
-4.98228
  0
LINE
  8
0
 10
13.4374
 20
-4.98228
 11
13.3753
 21
-4.99211
  0
LINE
  8
0
 10
13.3753
 20
-4.99211
 11
13.3128
 21
-4.99802
  0
LINE
  8
0
 10
13.3128
 20
-4.99802
 11
13.25
 21
-5
  0
LINE
  8
0
 10
13.25
 20
-5
 11
12.75
 21
-5
  0
LINE
  8
0
 10
12.75
 20
-5
 11
12.6872
 21
-4.99802
  0
LINE
  8
0
 10
12.6872
 20
-4.99802
 11
12.6247
 21
-4.99211
  0
LINE
  8
0
 10
12.6247
 20
-4.99211
 11
12.5626
 21
-4.98228
  0
LINE
  8
0
 10
12.5626
 20
-4.98228
 11
12.5013
 21
-4.96858
  0
LINE
  8
0
 10
12.5013
 20
-4.96858
 11
12.441
 21
-4.95105
  0
LINE
  8
0
 10
12.441
 20
-4.95105
 11
12.3819
 21
-4.92976
  0
LINE
  8
0
 10
12.3819
 20
-4.92976
 11
12.3242
 21
-4.90482
  0
LINE
  8
0
 10
12.3242
 20
-4.90482
 11
12.2682
 21
-4.8763
  0
LINE
  8
0
 10
12.2682
 20
-4.8763
 11
12.2142
 21
-4.84431
  0
LINE
  8
0
 10
12.2142
 20
-4.84431
 11
12.1622
 21
-4.80901
  0
LINE
  8
0
 10
12.1622
 20
-4.80901
 11
12.1126
 21
-4.77051
  0
LINE
  8
0
 10
12.1126
 20
-4.77051
 11
12.0655
 21
-4.72896
  0
LINE
  8
0
 10
12.0655
 20
-4.72896
 11
12.021
 21
-4.68454
  0
LINE
  8
0
 10
12.021
 20
-4.68454
 11
11.9795
 21
-4.63742
  0
LINE
  8
0
 10
11.9795
 20
-4.63742
 11
11.941
 21
-4.58778
  0
LINE
  8
0
 10
11.941
 20
-4.58778
 11
11.9057
 21
-4.53581
  0
LINE
  8
0
 10
11.9057
 20
-4.53581
 11
11.8737
 21
-4.48175
  0
LINE
  8
0
 10
11.8737
 20
-4.48175
 11
11.8452
 21
-4.42577
  0
LINE
  8
0
 10
11.8452
 20
-4.42577
 11
11.8202
 21
-4.36812
  0
LINE
  8
0
 10
11.8202
 20
-4.36812
 11
11.799
 21
-4.30901
  0
LINE
  8
0
 10
11.799
 20
-4.30901
 11
11.7814
 21
-4.24869
  0
LINE
  8
0
 10
11.7814
 20
-4.24869
 11
11.7677
 21
-4.18738
  0
LINE
  8
0
 10
11.7677
 20
-4.18738
 11
11.7579
 21
-4.12532
  0
LINE
  8
0
 10
11.7579
 20
-4.12532
 11
11.752
 21
-4.06279
  0
LINE
  8
0
 10
11.752
 20
-4.06279
 11
11.75
 21
-4
  0
LINE
  8
0
 10
11.75
 20
-4
 11
11.75
 21
-1.2182
  0
LINE
  8
0
 10
11.75
 20
-1.2182
 11
11.6874
 21
-1.23228
  0
LINE
  8
0
 10
11.6874
 20
-1.23228
 11
11.6253
 21
-1.24211
  0
LINE
  8
0
 10
11.6253
 20
-1.24211
 11
11.5628
 21
-1.24802
  0
LINE
  8
0
 10
11.5628
 20
-1.24802
 11
11.5
 21
-1.25
  0
LINE
  8
0
 10
11.5
 20
-1.25
 11
-11.5
 21
-1.25
  0
LINE
  8
0
 10
-11.5
 20
-1.25
 11
-11.5628
 21
-1.24802
  0
LINE
  8
0
 10
-11.5628
 20
-1.24802
 11
-11.6253
 21
-1.24211
  0
LINE
  8
0
 10
-11.6253
 20
-1.24211
 11
-11.6874
 21
-1.23228
  0
LINE
  8
0
 10
-11.6874
 20
-1.23228
 11
-11.75
 21
-1.2182
  0
LINE
  8
0
 10
-11.75
 20
-1.2182
 11
-11.75
 21
-4
  0
LINE
  8
0
 10
-11.75
 20
-4
 11
-11.752
 21
-4.06279
  0
LINE
  8
0
 10
-11.752
 20
-4.06279
 11
-11.7579
 21
-4.12532
  0
LINE
  8
0
 10
-11.7579
 20
-4.12532
 11
-11.7677
 21
-4.18738
  0
LINE
  8
0
 10
-11.7677
 20
-4.18738
 11
-11.7814
 21
-4.24869
  0
LINE
  8
0
 10
-11.7814
 20
-4.24869
 11
-11.799
 21
-4.30901
  0
LINE
  8
0
 10
-11.799
 20
-4.30901
 11
-11.8202
 21
-4.36812
  0
LINE
  8
0
 10
-11.8202
 20
-4.36812
 11
-11.8452
 21
-4.42577
  0
LINE
  8
0
 10
-11.8452
 20
-4.42577
 11
-11.8737
 21
-4.48175
  0
LINE
  8
0
 10
-11.8737
 20
-4.48175
 11
-11.9057
 21
-4.53581
  0
LINE
  8
0
 10
-11.9057
 20
-4.53581
 11
-11.941
 21
-4.58778
  0
LINE
  8
0
 10
-11.941
 20
-4.58778
 11
-11.9795
 21
-4.63742
  0
LINE
  8
0
 10
-11.9795
 20
-4.63742
 11
-12.021
 21
-4.68454
  0
LINE
  8
0
 10
-12.021
 20
-4.68454
 11
-12.0655
 21
-4.72896
  0
LINE
  8
0
 10
-12.0655
 20
-4.72896
 11
-12.1126
 21
-4.77051
  0
LINE
  8
0
 10
-12.1126
 20
-4.77051
 11
-12.1622
 21
-4.80901
  0
LINE
  8
0
 10
-12.1622
 20
-4.80901
 11
-12.2142
 21
-4.84431
  0
LINE
  8
0
 10
-12.2142
 20
-4.84431
 11
-12.2682
 21
-4.8763
  0
LINE
  8
0
 10
-12.2682
 20
-4.8763
 11
-12.3242
 21
-4.90482
  0
LINE
  8
0
 10
-12.3242
 20
-4.90482
 11
-12.3819
 21
-4.92976
  0
LINE
  8
0
 10
-12.3819
 20
-4.92976
 11
-12.441
 21
-4.95105
  0
LINE
  8
0
 10
-12.441
 20
-4.95105
 11
-12.5013
 21
-4.96858
  0
LINE
  8
0
 10
-12.5013
 20
-4.96858
 11
-12.5626
 21
-4.98228
  0
LINE
  8
0
 10
-12.5626
 20
-4.98228
 11
-12.6247
 21
-4.99211
  0
LINE
  8
0
 10
-12.6247
 20
-4.99211
 11
-12.6872
 21
-4.99802
  0
LINE
  8
0
 10
-12.6872
 20
-4.99802
 11
-12.75
 21
-5
  0
LINE
  8
0
 10
-12.75
 20
-5
 11
-13.25
 21
-5
  0
LINE
  8
0
 10
22.75
 20
-5
 11
22.6872
 21
-4.99802
  0
LINE
  8
0
 10
22.6872
 20
-4.99802
 11
22.6247
 21
-4.99211
  0
LINE
  8
0
 10
22.6247
 20
-4.99211
 11
22.5626
 21
-4.98228
  0
LINE
  8
0
 10
22.5626
 20
-4.98228
 11
22.5013
 21
-4.96858
  0
LINE
  8
0
 10
22.5013
 20
-4.96858
 11
22.441
 21
-4.95105
  0
LINE
  8
0
 10
22.441
 20
-4.95105
 11
22.3819
 21
-4.92976
  0
LINE
  8
0
 10
22.3819
 20
-4.92976
 11
22.3242
 21
-4.90482
  0
LINE
  8
0
 10
22.3242
 20
-4.90482
 11
22.2682
 21
-4.8763
  0
LINE
  8
0
 10
22.2682
 20
-4.8763
 11
22.2142
 21
-4.84431
  0
LINE
  8
0
 10
22.2142
 20
-4.84431
 11
22.1622
 21
-4.80901
  0
LINE
  8
0
 10
22.1622
 20
-4.80901
 11
22.1126
 21
-4.77051
  0
LINE
  8
0
 10
22.1126
 20
-4.77051
 11
22.0655
 21
-4.72896
  0
LINE
  8
0
 10
22.0655
 20
-4.72896
 11
22.021
 21
-4.68454
  0
LINE
  8
0
 10
22.021
 20
-4.68454
 11
21.9795
 21
-4.63742
  0
LINE
  8
0
 10
21.9795
 20
-4.63742
 11
21.941
 21
-4.58778
  0
LINE
  8
0
 10
21.941
 20
-4.58778
 11
21.9057
 21
-4.53581
  0
LINE
  8
0
 10
21.9057
 20
-4.53581
 11
21.8737
 21
-4.48175
  0
LINE
  8
0
 10
21.8737
 20
-4.48175
 11
21.8452
 21
-4.42577
  0
LINE
  8
0
 10
21.8452
 20
-4.42577
 11
21.8202
 21
-4.36812
  0
LINE
  8
0
 10
21.8202
 20
-4.36812
 11
21.799
 21
-4.30901
  0
LINE
  8
0
 10
21.799
 20
-4.30901
 11
21.7814
 21
-4.24869
  0
LINE
  8
0
 10
21.7814
 20
-4.24869
 11
21.7677
 21
-4.18738
  0
LINE
  8
0
 10
21.7677
 20
-4.18738
 11
21.7579
 21
-4.12532
  0
LINE
  8
0
 10
21.7579
 20
-4.12532
 11
21.752
 21
-4.06279
  0
LINE
  8
0
 10
21.752
 20
-4.06279
 11
21.75
 21
-4
  0
LINE
  8
0
 10
21.75
 20
-4
 11
21.75
 21
4
  0
LINE
  8
0
 10
21.75
 20
4
 11
21.752
 21
4.06279
  0
LINE
  8
0
 10
21.752
 20
4.06279
 11
21.7579
 21
4.12532
  0
LINE
  8
0
 10
21.7579
 20
4.12532
 11
21.7677
 21
4.18738
  0
LINE
  8
0
 10
21.7677
 20
4.18738
 11
21.7814
 21
4.24869
  0
LINE
  8
0
 10
21.7814
 20
4.24869
 11
21.799
 21
4.30901
  0
LINE
  8
0
 10
21.799
 20
4.30901
 11
21.8202
 21
4.36812
  0
LINE
  8
0
 10
21.8202
 20
4.36812
 11
21.8452
 21
4.42577
  0
LINE
  8
0
 10
21.8452
 20
4.42577
 11
21.8737
 21
4.48175
  0
LINE
  8
0
 10
21.8737
 20
4.48175
 11
21.9057
 21
4.53581
  0
LINE
  8
0
 10
21.9057
 20
4.53581
 11
21.941
 21
4.58778
  0
LINE
  8
0
 10
21.941
 20
4.58778
 11
21.9795
 21
4.63742
  0
LINE
  8
0
 10
21.9795
 20
4.63742
 11
22.021
 21
4.68454
  0
LINE
  8
0
 10
22.021
 20
4.68454
 11
22.0655
 21
4.72896
  0
LINE
  8
0
 10
22.0655
 20
4.72896
 11
22.1126
 21
4.77051
  0
LINE
  8
0
 10
22.1126
 20
4.77051
 11
22.1622
 21
4.80901
  0
LINE
  8
0
 10
22.1622
 20
4.80901
 11
22.2142
 21
4.84431
  0
LINE
  8
0
 10
22.2142
 20
4.84431
 11
22.2682
 21
4.8763
  0
LINE
  8
0
 10
22.2682
 20
4.8763
 11
22.3242
 21
4.90482
  0
LINE
  8
0
 10
22.3242
 20
4.90482
 11
22.3819
 21
4.92976
  0
LINE
  8
0
 10
22.3819
 20
4.92976
 11
22.441
 21
4.95105
  0
LINE
  8
0
 10
22.441
 20
4.95105
 11
22.5013
 21
4.96858
  0
LINE
  8
0
 10
22.5013
 20
4.96858
 11
22.5626
 21
4.98228
  0
LINE
  8
0
 10
22.5626
 20
4.98228
 11
22.6247
 21
4.99211
  0
LINE
  8
0
 10
22.6247
 20
4.99211
 11
22.6872
 21
4.99802
  0
LINE
  8
0
 10
22.6872
 20
4.99802
 11
22.75
 21
5
  0
LINE
  8
0
 10
22.75
 20
5
 11
23.25
 21
5
  0
LINE
  8
0
 10
23.25
 20
5
 11
23.3128
 21
4.99802
  0
LINE
  8
0
 10
23.3128
 20
4.99802
 11
23.3753
 21
4.99211
  0
LINE
  8
0
 10
23.3753
 20
4.99211
 11
23.4374
 21
4.98228
  0
LINE
  8
0
 10
23.4374
 20
4.98228
 11
23.4987
 21
4.96858
  0
LINE
  8
0
 10
23.4987
 20
4.96858
 11
23.559
 21
4.95105
  0
LINE
  8
0
 10
23.559
 20
4.95105
 11
23.6181
 21
4.92976
  0
LINE
  8
0
 10
23.6181
 20
4.92976
 11
23.6758
 21
4.90482
  0
LINE
  8
0
 10
23.6758
 20
4.90482
 11
23.7318
 21
4.8763
  0
LINE
  8
0
 10
23.7318
 20
4.8763
 11
23.7858
 21
4.84431
  0
LINE
  8
0
 10
23.7858
 20
4.84431
 11
23.8378
 21
4.80901
  0
LINE
  8
0
 10
23.8378
 20
4.80901
 11
23.8874
 21
4.77051
  0
LINE
  8
0
 10
23.8874
 20
4.77051
 11
23.9345
 21
4.72896
  0
LINE
  8
0
 10
23.9345
 20
4.72896
 11
23.979
 21
4.68454
  0
LINE
  8
0
 10
23.979
 20
4.68454
 11
24.0205
 21
4.63742
  0
LINE
  8
0
 10
24.0205
 20
4.63742
 11
24.059
 21
4.58778
  0
LINE
  8
0
 10
24.059
 20
4.58778
 11
24.0943
 21
4.53581
  0
LINE
  8
0
 10
24.0943
 20
4.53581
 11
24.1263
 21
4.48175
  0
LINE
  8
0
 10
24.1263
 20
4.48175
 11
24.1548
 21
4.42577
  0
LINE
  8
0
 10
24.1548
 20
4.42577
 11
24.1798
 21
4.36812
  0
LINE
  8
0
 10
24.1798
 20
4.36812
 11
24.201
 21
4.30901
  0
LINE
  8
0
 10
24.201
 20
4.30901
 11
24.2186
 21
4.24869
  0
LINE
  8
0
 10
24.2186
 20
4.24869
 11
24.2323
 21
4.18738
  0
LINE
  8
0
 10
24.2323
 20
4.18738
 11
24.2421
 21
4.12532
  0
LINE
  8
0
 10
24.2421
 20
4.12532
 11
24.248
 21
4.06279
  0
LINE
  8
0
 10
24.248
 20
4.06279
 11
24.25
 21
4
  0
LINE
  8
0
 10
24.25
 20
4
 11
24.25
 21
-4
  0
LINE
  8
0
 10
24.25
 20
-4
 11
24.248
 21
-4.06279
  0
LINE
  8
0
 10
24.248
 20
-4.06279
 11
24.2421
 21
-4.12532
  0
LINE
  8
0
 10
24.2421
 20
-4.12532
 11
24.2323
 21
-4.18738
  0
LINE
  8
0
 10
24.2323
 20
-4.18738
 11
24.2186
 21
-4.24869
  0
LINE
  8
0
 10
24.2186
 20
-4.24869
 11
24.201
 21
-4.30901
  0
LINE
  8
0
 10
24.201
 20
-4.30901
 11
24.1798
 21
-4.36812
  0
LINE
  8
0
 10
24.1798
 20
-4.36812
 11
24.1548
 21
-4.42577
  0
LINE
  8
0
 10
24.1548
 20
-4.42577
 11
24.1263
 21
-4.48175
  0
LINE
  8
0
 10
24.1263
 20
-4.48175
 11
24.0943
 21
-4.53581
  0
LINE
  8
0
 10
24.0943
 20
-4.53581
 11
24.059
 21
-4.58778
  0
LINE
  8
0
 10
24.059
 20
-4.58778
 11
24.0205
 21
-4.63742
  0
LINE
  8
0
 10
24.0205
 20
-4.63742
 11
23.979
 21
-4.68454
  0
LINE
  8
0
 10
23.979
 20
-4.68454
 11
23.9345
 21
-4.72896
  0
LINE
  8
0
 10
23.9345
 20
-4.72896
 11
23.8874
 21
-4.77051
  0
LINE
  8
0
 10
23.8874
 20
-4.77051
 11
23.8378
 21
-4.80901
  0
LINE
  8
0
 10
23.8378
 20
-4.80901
 11
23.7858
 21
-4.84431
  0
LINE
  8
0
 10
23.7858
 20
-4.84431
 11
23.7318
 21
-4.8763
  0
LINE
  8
0
 10
23.7318
 20
-4.8763
 11
23.6758
 21
-4.90482
  0
LINE
  8
0
 10
23.6758
 20
-4.90482
 11
23.6181
 21
-4.92976
  0
LINE
  8
0
 10
23.6181
 20
-4.92976
 11
23.559
 21
-4.95105
  0
LINE
  8
0
 10
23.559
 20
-4.95105
 11
23.4987
 21
-4.96858
  0
LINE
  8
0
 10
23.4987
 20
-4.96858
 11
23.4374
 21
-4.98228
  0
LINE
  8
0
 10
23.4374
 20
-4.98228
 11
23.3753
 21
-4.99211
  0
LINE
  8
0
 10
23.3753
 20
-4.99211
 11
23.3128
 21
-4.99802
  0
LINE
  8
0
 10
23.3128
 20
-4.99802
 11
23.25
 21
-5
  0
LINE
  8
0
 10
23.25
 20
-5
 11
22.75
 21
-5
  0
LINE
  8
0
 10
-23.25
 20
-5
 11
-23.3128
 21
-4.99802
  0
LINE
  8
0
 10
-23.3128
 20
-4.99802
 11
-23.3753
 21
-4.99211
  0
LINE
  8
0
 10
-23.3753
 20
-4.99211
 11
-23.4374
 21
-4.98228
  0
LINE
  8
0
 10
-23.4374
 20
-4.98228
 11
-23.4987
 21
-4.96858
  0
LINE
  8
0
 10
-23.4987
 20
-4.96858
 11
-23.559
 21
-4.95105
  0
LINE
  8
0
 10
-23.559
 20
-4.95105
 11
-23.6181
 21
-4.92976
  0
LINE
  8
0
 10
-23.6181
 20
-4.92976
 11
-23.6758
 21
-4.90482
  0
LINE
  8
0
 10
-23.6758
 20
-4.90482
 11
-23.7318
 21
-4.8763
  0
LINE
  8
0
 10
-23.7318
 20
-4.8763
 11
-23.7858
 21
-4.84431
  0
LINE
  8
0
 10
-23.7858
 20
-4.84431
 11
-23.8378
 21
-4.80901
  0
LINE
  8
0
 10
-23.8378
 20
-4.80901
 11
-23.8874
 21
-4.77051
  0
LINE
  8
0
 10
-23.8874
 20
-4.77051
 11
-23.9345
 21
-4.72896
  0
LINE
  8
0
 10
-23.9345
 20
-4.72896
 11
-23.979
 21
-4.68454
  0
LINE
  8
0
 10
-23.979
 20
-4.68454
 11
-24.0205
 21
-4.63742
  0
LINE
  8
0
 10
-24.0205
 20
-4.63742
 11
-24.059
 21
-4.58778
  0
LINE
  8
0
 10
-24.059
 20
-4.58778
 11
-24.0943
 21
-4.53581
  0
LINE
  8
0
 10
-24.0943
 20
-4.53581
 11
-24.1263
 21
-4.48175
  0
LINE
  8
0
 10
-24.1263
 20
-4.48175
 11
-24.1548
 21
-4.42577
  0
LINE
  8
0
 10
-24.1548
 20
-4.42577
 11
-24.1798
 21
-4.36812
  0
LINE
  8
0
 10
-24.1798
 20
-4.36812
 11
-24.201
 21
-4.30901
  0
LINE
  8
0
 10
-24.201
 20
-4.30901
 11
-24.2186
 21
-4.24869
  0
LINE
  8
0
 10
-24.2186
 20
-4.24869
 11
-24.2323
 21
-4.18738
  0
LINE
  8
0
 10
-24.2323
 20
-4.18738
 11
-24.2421
 21
-4.12532
  0
LINE
  8
0
 10
-24.2421
 20
-4.12532
 11
-24.248
 21
-4.06279
  0
LINE
  8
0
 10
-24.248
 20
-4.06279
 11
-24.25
 21
-4
  0
LINE
  8
0
 10
-24.25
 20
-4
 11
-24.25
 21
4
  0
LINE
  8
0
 10
-24.25
 20
4
 11
-24.248
 21
4.06279
  0
LINE
  8
0
 10
-24.248
 20
4.06279
 11
-24.2421
 21
4.12532
  0
LINE
  8
0
 10
-24.2421
 20
4.12532
 11
-24.2323
 21
4.18738
  0
LINE
  8
0
 10
-24.2323
 20
4.18738
 11
-24.2186
 21
4.24869
  0
LINE
  8
0
 10
-24.2186
 20
4.24869
 11
-24.201
 21
4.30901
  0
LINE
  8
0
 10
-24.201
 20
4.30901
 11
-24.1798
 21
4.36812
  0
LINE
  8
0
 10
-24.1798
 20
4.36812
 11
-24.1548
 21
4.42577
  0
LINE
  8
0
 10
-24.1548
 20
4.42577
 11
-24.1263
 21
4.48175
  0
LINE
  8
0
 10
-24.1263
 20
4.48175
 11
-24.0943
 21
4.53581
  0
LINE
  8
0
 10
-24.0943
 20
4.53581
 11
-24.059
 21
4.58778
  0
LINE
  8
0
 10
-24.059
 20
4.58778
 11
-24.0205
 21
4.63742
  0
LINE
  8
0
 10
-24.0205
 20
4.63742
 11
-23.979
 21
4.68454
  0
LINE
  8
0
 10
-23.979
 20
4.68454
 11
-23.9345
 21
4.72896
  0
LINE
  8
0
 10
-23.9345
 20
4.72896
 11
-23.8874
 21
4.77051
  0
LINE
  8
0
 10
-23.8874
 20
4.77051
 11
-23.8378
 21
4.80901
  0
LINE
  8
0
 10
-23.8378
 20
4.80901
 11
-23.7858
 21
4.84431
  0
LINE
  8
0
 10
-23.7858
 20
4.84431
 11
-23.7318
 21
4.8763
  0
LINE
  8
0
 10
-23.7318
 20
4.8763
 11
-23.6758
 21
4.90482
  0
LINE
  8
0
 10
-23.6758
 20
4.90482
 11
-23.6181
 21
4.92976
  0
LINE
  8
0
 10
-23.6181
 20
4.92976
 11
-23.559
 21
4.95105
  0
LINE
  8
0
 10
-23.559
 20
4.95105
 11
-23.4987
 21
4.96858
  0
LINE
  8
0
 10
-23.4987
 20
4.96858
 11
-23.4374
 21
4.98228
  0
LINE
  8
0
 10
-23.4374
 20
4.98228
 11
-23.3753
 21
4.99211
  0
LINE
  8
0
 10
-23.3753
 20
4.99211
 11
-23.3128
 21
4.99802
  0
LINE
  8
0
 10
-23.3128
 20
4.99802
 11
-23.25
 21
5
  0
LINE
  8
0
 10
-23.25
 20
5
 11
-22.75
 21
5
  0
LINE
  8
0
 10
-22.75
 20
5
 11
-22.6872
 21
4.99802
  0
LINE
  8
0
 10
-22.6872
 20
4.99802
 11
-22.6247
 21
4.99211
  0
LINE
  8
0
 10
-22.6247
 20
4.99211
 11
-22.5626
 21
4.98228
  0
LINE
  8
0
 10
-22.5626
 20
4.98228
 11
-22.5013
 21
4.96858
  0
LINE
  8
0
 10
-22.5013
 20
4.96858
 11
-22.441
 21
4.95105
  0
LINE
  8
0
 10
-22.441
 20
4.95105
 11
-22.3819
 21
4.92976
  0
LINE
  8
0
 10
-22.3819
 20
4.92976
 11
-22.3242
 21
4.90482
  0
LINE
  8
0
 10
-22.3242
 20
4.90482
 11
-22.2682
 21
4.8763
  0
LINE
  8
0
 10
-22.2682
 20
4.8763
 11
-22.2142
 21
4.84431
  0
LINE
  8
0
 10
-22.2142
 20
4.84431
 11
-22.1622
 21
4.80901
  0
LINE
  8
0
 10
-22.1622
 20
4.80901
 11
-22.1126
 21
4.77051
  0
LINE
  8
0
 10
-22.1126
 20
4.77051
 11
-22.0655
 21
4.72896
  0
LINE
  8
0
 10
-22.0655
 20
4.72896
 11
-22.021
 21
4.68454
  0
LINE
  8
0
 10
-22.021
 20
4.68454
 11
-21.9795
 21
4.63742
  0
LINE
  8
0
 10
-21.9795
 20
4.63742
 11
-21.941
 21
4.58778
  0
LINE
  8
0
 10
-21.941
 20
4.58778
 11
-21.9057
 21
4.53581
  0
LINE
  8
0
 10
-21.9057
 20
4.53581
 11
-21.8737
 21
4.48175
  0
LINE
  8
0
 10
-21.8737
 20
4.48175
 11
-21.8452
 21
4.42577
  0
LINE
  8
0
 10
-21.8452
 20
4.42577
 11
-21.8202
 21
4.36812
  0
LINE
  8
0
 10
-21.8202
 20
4.36812
 11
-21.799
 21
4.30901
  0
LINE
  8
0
 10
-21.799
 20
4.30901
 11
-21.7814
 21
4.24869
  0
LINE
  8
0
 10
-21.7814
 20
4.24869
 11
-21.7677
 21
4.18738
  0
LINE
  8
0
 10
-21.7677
 20
4.18738
 11
-21.7579
 21
4.12532
  0
LINE
  8
0
 10
-21.7579
 20
4.12532
 11
-21.752
 21
4.06279
  0
LINE
  8
0
 10
-21.752
 20
4.06279
 11
-21.75
 21
4
  0
LINE
  8
0
 10
-21.75
 20
4
 11
-21.75
 21
-4
  0
LINE
  8
0
 10
-21.75
 20
-4
 11
-21.752
 21
-4.06279
  0
LINE
  8
0
 10
-21.752
 20
-4.06279
 11
-21.7579
 21
-4.12532
  0
LINE
  8
0
 10
-21.7579
 20
-4.12532
 11
-21.7677
 21
-4.18738
  0
LINE
  8
0
 10
-21.7677
 20
-4.18738
 11
-21.7814
 21
-4.24869
  0
LINE
  8
0
 10
-21.7814
 20
-4.24869
 11
-21.799
 21
-4.30901
  0
LINE
  8
0
 10
-21.799
 20
-4.30901
 11
-21.8202
 21
-4.36812
  0
LINE
  8
0
 10
-21.8202
 20
-4.36812
 11
-21.8452
 21
-4.42577
  0
LINE
  8
0
 10
-21.8452
 20
-4.42577
 11
-21.8737
 21
-4.48175
  0
LINE
  8
0
 10
-21.8737
 20
-4.48175
 11
-21.9057
 21
-4.53581
  0
LINE
  8
0
 10
-21.9057
 20
-4.53581
 11
-21.941
 21
-4.58778
  0
LINE
  8
0
 10
-21.941
 20
-4.58778
 11
-21.9795
 21
-4.63742
  0
LINE
  8
0
 10
-21.9795
 20
-4.63742
 11
-22.021
 21
-4.68454
  0
LINE
  8
0
 10
-22.021
 20
-4.68454
 11
-22.0655
 21
-4.72896
  0
LINE
  8
0
 10
-22.0655
 20
-4.72896
 11
-22.1126
 21
-4.77051
  0
LINE
  8
0
 10
-22.1126
 20
-4.77051
 11
-22.1622
 21
-4.80901
  0
LINE
  8
0
 10
-22.1622
 20
-4.80901
 11
-22.2142
 21
-4.84431
  0
LINE
  8
0
 10
-22.2142
 20
-4.84431
 11
-22.2682
 21
-4.8763
  0
LINE
  8
0
 10
-22.2682
 20
-4.8763
 11
-22.3242
 21
-4.90482
  0
LINE
  8
0
 10
-22.3242
 20
-4.90482
 11
-22.3819
 21
-4.92976
  0
LINE
  8
0
 10
-22.3819
 20
-4.92976
 11
-22.441
 21
-4.95105
  0
LINE
  8
0
 10
-22.441
 20
-4.95105
 11
-22.5013
 21
-4.96858
  0
LINE
  8
0
 10
-22.5013
 20
-4.96858
 11
-22.5626
 21
-4.98228
  0
LINE
  8
0
 10
-22.5626
 20
-4.98228
 11
-22.6247
 21
-4.99211
  0
LINE
  8
0
 10
-22.6247
 20
-4.99211
 11
-22.6872
 21
-4.99802
  0
LINE
  8
0
 10
-22.6872
 20
-4.99802
 11
-22.75
 21
-5
  0
LINE
  8
0
 10
-22.75
 20
-5
 11
-23.25
 21
-5
  0
LINE
  8
0
 10
-4
 20
-12.25
 11
-4.06279
 21
-12.248
  0
LINE
  8
0
 10
-4.06279
 20
-12.248
 11
-4.12532
 21
-12.2421
  0
LINE
  8
0
 10
-4.12532
 20
-12.2421
 11
-4.18738
 21
-12.2323
  0
LINE
  8
0
 10
-4.18738
 20
-12.2323
 11
-4.24869
 21
-12.2186
  0
LINE
  8
0
 10
-4.24869
 20
-12.2186
 11
-4.30901
 21
-12.201
  0
LINE
  8
0
 10
-4.30901
 20
-12.201
 11
-4.36812
 21
-12.1798
  0
LINE
  8
0
 10
-4.36812
 20
-12.1798
 11
-4.42577
 21
-12.1548
  0
LINE
  8
0
 10
-4.42577
 20
-12.1548
 11
-4.48175
 21
-12.1263
  0
LINE
  8
0
 10
-4.48175
 20
-12.1263
 11
-4.53581
 21
-12.0943
  0
LINE
  8
0
 10
-4.53581
 20
-12.0943
 11
-4.58778
 21
-12.059
  0
LINE
  8
0
 10
-4.58778
 20
-12.059
 11
-4.63742
 21
-12.0205
  0
LINE
  8
0
 10
-4.63742
 20
-12.0205
 11
-4.68454
 21
-11.979
  0
LINE
  8
0
 10
-4.68454
 20
-11.979
 11
-4.72896
 21
-11.9345
  0
LINE
  8
0
 10
-4.72896
 20
-11.9345
 11
-4.77051
 21
-11.8874
  0
LINE
  8
0
 10
-4.77051
 20
-11.8874
 11
-4.80901
 21
-11.8378
  0
LINE
  8
0
 10
-4.80901
 20
-11.8378
 11
-4.84431
 21
-11.7858
  0
LINE
  8
0
 10
-4.84431
 20
-11.7858
 11
-4.8763
 21
-11.7318
  0
LINE
  8
0
 10
-4.8763
 20
-11.7318
 11
-4.90482
 21
-11.6758
  0
LINE
  8
0
 10
-4.90482
 20
-11.6758
 11
-4.92976
 21
-11.6181
  0
LINE
  8
0
 10
-4.92976
 20
-11.6181
 11
-4.95105
 21
-11.559
  0
LINE
  8
0
 10
-4.95105
 20
-11.559
 11
-4.96858
 21
-11.4987
  0
LINE
  8
0
 10
-4.96858
 20
-11.4987
 11
-4.98228
 21
-11.4374
  0
LINE
  8
0
 10
-4.98228
 20
-11.4374
 11
-4.99211
 21
-11.3753
  0
LINE
  8
0
 10
-4.99211
 20
-11.3753
 11
-4.99802
 21
-11.3128
  0
LINE
  8
0
 10
-4.99802
 20
-11.3128
 11
-5
 21
-11.25
  0
LINE
  8
0
 10
-5
 20
-11.25
 11
-5
 21
-10.75
  0
LINE
  8
0
 10
-5
 20
-10.75
 11
-4.99802
 21
-10.6872
  0
LINE
  8
0
 10
-4.99802
 20
-10.6872
 11
-4.99211
 21
-10.6247
  0
LINE
  8
0
 10
-4.99211
 20
-10.6247
 11
-4.98228
 21
-10.5626
  0
LINE
  8
0
 10
-4.98228
 20
-10.5626
 11
-4.96858
 21
-10.5013
  0
LINE
  8
0
 10
-4.96858
 20
-10.5013
 11
-4.95105
 21
-10.441
  0
LINE
  8
0
 10
-4.95105
 20
-10.441
 11
-4.92976
 21
-10.3819
  0
LINE
  8
0
 10
-4.92976
 20
-10.3819
 11
-4.90482
 21
-10.3242
  0
LINE
  8
0
 10
-4.90482
 20
-10.3242
 11
-4.8763
 21
-10.2682
  0
LINE
  8
0
 10
-4.8763
 20
-10.2682
 11
-4.84431
 21
-10.2142
  0
LINE
  8
0
 10
-4.84431
 20
-10.2142
 11
-4.80901
 21
-10.1622
  0
LINE
  8
0
 10
-4.80901
 20
-10.1622
 11
-4.77051
 21
-10.1126
  0
LINE
  8
0
 10
-4.77051
 20
-10.1126
 11
-4.72896
 21
-10.0655
  0
LINE
  8
0
 10
-4.72896
 20
-10.0655
 11
-4.68454
 21
-10.021
  0
LINE
  8
0
 10
-4.68454
 20
-10.021
 11
-4.63742
 21
-9.97949
  0
LINE
  8
0
 10
-4.63742
 20
-9.97949
 11
-4.58778
 21
-9.94099
  0
LINE
  8
0
 10
-4.58778
 20
-9.94099
 11
-4.53581
 21
-9.90569
  0
LINE
  8
0
 10
-4.53581
 20
-9.90569
 11
-4.48175
 21
-9.8737
  0
LINE
  8
0
 10
-4.48175
 20
-9.8737
 11
-4.42577
 21
-9.84518
  0
LINE
  8
0
 10
-4.42577
 20
-9.84518
 11
-4.36812
 21
-9.82024
  0
LINE
  8
0
 10
-4.36812
 20
-9.82024
 11
-4.30901
 21
-9.79895
  0
LINE
  8
0
 10
-4.30901
 20
-9.79895
 11
-4.24869
 21
-9.78142
  0
LINE
  8
0
 10
-4.24869
 20
-9.78142
 11
-4.18738
 21
-9.76772
  0
LINE
  8
0
 10
-4.18738
 20
-9.76772
 11
-4.12532
 21
-9.75789
  0
LINE
  8
0
 10
-4.12532
 20
-9.75789
 11
-4.06279
 21
-9.75198
  0
LINE
  8
0
 10
-4.06279
 20
-9.75198
 11
-4
 21
-9.75
  0
LINE
  8
0
 10
-4
 20
-9.75
 11
4
 21
-9.75
  0
LINE
  8
0
 10
4
 20
-9.75
 11
4.06279
 21
-9.75198
  0
LINE
  8
0
 10
4.06279
 20
-9.75198
 11
4.12532
 21
-9.75789
  0
LINE
  8
0
 10
4.12532
 20
-9.75789
 11
4.18738
 21
-9.76772
  0
LINE
  8
0
 10
4.18738
 20
-9.76772
 11
4.24869
 21
-9.78142
  0
LINE
  8
0
 10
4.24869
 20
-9.78142
 11
4.30901
 21
-9.79895
  0
LINE
  8
0
 10
4.30901
 20
-9.79895
 11
4.36812
 21
-9.82024
  0
LINE
  8
0
 10
4.36812
 20
-9.82024
 11
4.42577
 21
-9.84518
  0
LINE
  8
0
 10
4.42577
 20
-9.84518
 11
4.48175
 21
-9.8737
  0
LINE
  8
0
 10
4.48175
 20
-9.8737
 11
4.53581
 21
-9.90569
  0
LINE
  8
0
 10
4.53581
 20
-9.90569
 11
4.58778
 21
-9.94099
  0
LINE
  8
0
 10
4.58778
 20
-9.94099
 11
4.63742
 21
-9.97949
  0
LINE
  8
0
 10
4.63742
 20
-9.97949
 11
4.68454
 21
-10.021
  0
LINE
  8
0
 10
4.68454
 20
-10.021
 11
4.72896
 21
-10.0655
  0
LINE
  8
0
 10
4.72896
 20
-10.0655
 11
4.77051
 21
-10.1126
  0
LINE
  8
0
 10
4.77051
 20
-10.1126
 11
4.80901
 21
-10.1622
  0
LINE
  8
0
 10
4.80901
 20
-10.1622
 11
4.84431
 21
-10.2142
  0
LINE
  8
0
 10
4.84431
 20
-10.2142
 11
4.8763
 21
-10.2682
  0
LINE
  8
0
 10
4.8763
 20
-10.2682
 11
4.90482
 21
-10.3242
  0
LINE
  8
0
 10
4.90482
 20
-10.3242
 11
4.92976
 21
-10.3819
  0
LINE
  8
0
 10
4.92976
 20
-10.3819
 11
4.95105
 21
-10.441
  0
LINE
  8
0
 10
4.95105
 20
-10.441
 11
4.96858
 21
-10.5013
  0
LINE
  8
0
 10
4.96858
 20
-10.5013
 11
4.98228
 21
-10.5626
  0
LINE
  8
0
 10
4.98228
 20
-10.5626
 11
4.99211
 21
-10.6247
  0
LINE
  8
0
 10
4.99211
 20
-10.6247
 11
4.99802
 21
-10.6872
  0
LINE
  8
0
 10
4.99802
 20
-10.6872
 11
5
 21
-10.75
  0
LINE
  8
0
 10
5
 20
-10.75
 11
5
 21
-11.25
  0
LINE
  8
0
 10
5
 20
-11.25
 11
4.99802
 21
-11.3128
  0
LINE
  8
0
 10
4.99802
 20
-11.3128
 11
4.99211
 21
-11.3753
  0
LINE
  8
0
 10
4.99211
 20
-11.3753
 11
4.98228
 21
-11.4374
  0
LINE
  8
0
 10
4.98228
 20
-11.4374
 11
4.96858
 21
-11.4987
  0
LINE
  8
0
 10
4.96858
 20
-11.4987
 11
4.95105
 21
-11.559
  0
LINE
  8
0
 10
4.95105
 20
-11.559
 11
4.92976
 21
-11.6181
  0
LINE
  8
0
 10
4.92976
 20
-11.6181
 11
4.90482
 21
-11.6758
  0
LINE
  8
0
 10
4.90482
 20
-11.6758
 11
4.8763
 21
-11.7318
  0
LINE
  8
0
 10
4.8763
 20
-11.7318
 11
4.84431
 21
-11.7858
  0
LINE
  8
0
 10
4.84431
 20
-11.7858
 11
4.80901
 21
-11.8378
  0
LINE
  8
0
 10
4.80901
 20
-11.8378
 11
4.77051
 21
-11.8874
  0
LINE
  8
0
 10
4.77051
 20
-11.8874
 11
4.72896
 21
-11.9345
  0
LINE
  8
0
 10
4.72896
 20
-11.9345
 11
4.68454
 21
-11.979
  0
LINE
  8
0
 10
4.68454
 20
-11.979
 11
4.63742
 21
-12.0205
  0
LINE
  8
0
 10
4.63742
 20
-12.0205
 11
4.58778
 21
-12.059
  0
LINE
  8
0
 10
4.58778
 20
-12.059
 11
4.53581
 21
-12.0943
  0
LINE
  8
0
 10
4.53581
 20
-12.0943
 11
4.48175
 21
-12.1263
  0
LINE
  8
0
 10
4.48175
 20
-12.1263
 11
4.42577
 21
-12.1548
  0
LINE
  8
0
 10
4.42577
 20
-12.1548
 11
4.36812
 21
-12.1798
  0
LINE
  8
0
 10
4.36812
 20
-12.1798
 11
4.30901
 21
-12.201
  0
LINE
  8
0
 10
4.30901
 20
-12.201
 11
4.24869
 21
-12.2186
  0
LINE
  8
0
 10
4.24869
 20
-12.2186
 11
4.18738
 21
-12.2323
  0
LINE
  8
0
 10
4.18738
 20
-12.2323
 11
4.12532
 21
-12.2421
  0
LINE
  8
0
 10
4.12532
 20
-12.2421
 11
4.06279
 21
-12.248
  0
LINE
  8
0
 10
4.06279
 20
-12.248
 11
4
 21
-12.25
  0
LINE
  8
0
 10
4
 20
-12.25
 11
-4
 21
-12.25
  0
ENDSEC
  0
SECTION
  2
OBJECTS
  0
DICTIONARY
  0
ENDSEC
  0
EOF
