<?xml version="1.0" encoding="UTF-8" standalone="no"?>
<svg
   xmlns:dc="http://purl.org/dc/elements/1.1/"
   xmlns:cc="http://creativecommons.org/ns#"
   xmlns:rdf="http://www.w3.org/1999/02/22-rdf-syntax-ns#"
   xmlns:svg="http://www.w3.org/2000/svg"
   xmlns="http://www.w3.org/2000/svg"
   xmlns:sodipodi="http://sodipodi.sourceforge.net/DTD/sodipodi-0.dtd"
   xmlns:inkscape="http://www.inkscape.org/namespaces/inkscape"
   width="500mm"
   height="400mm"
   viewBox="-62 -200 500 400"
   version="1.1"
   id="svg6"
   sodipodi:docname="printerBraille.svg"
   inkscape:version="0.92.2 (5c3e80d, 2017-08-06)">
  <metadata
     id="metadata12">
    <rdf:RDF>
      <cc:Work
         rdf:about="">
        <dc:format>image/svg+xml</dc:format>
        <dc:type
           rdf:resource="http://purl.org/dc/dcmitype/StillImage" />
        <dc:title>OpenSCAD Model</dc:title>
      </cc:Work>
    </rdf:RDF>
  </metadata>
  <defs
     id="defs10" />
  <sodipodi:namedview
     pagecolor="#ffffff"
     bordercolor="#666666"
     borderopacity="1"
     objecttolerance="10"
     gridtolerance="10"
     guidetolerance="10"
     inkscape:pageopacity="0"
     inkscape:pageshadow="2"
     inkscape:window-width="1017"
     inkscape:window-height="872"
     id="namedview8"
     showgrid="false"
     inkscape:zoom="0.18832498"
     inkscape:cx="754.01575"
     inkscape:cy="593.38583"
     inkscape:window-x="0"
     inkscape:window-y="0"
     inkscape:window-maximized="0"
     inkscape:current-layer="svg6" />
  <title
     id="title2">OpenSCAD Model</title>
  <path
     d="m -3.9507043,-164.05634 h 12 v 20 H 18.049296 v -5 l 0.01974,-0.628 0.05912,-0.625 0.09828,-0.621 0.13704,-0.613 0.17526,-0.603 0.2128,-0.591 0.2495,-0.577 0.2852,-0.56 0.31979,-0.54 0.35311,-0.52 0.38504,-0.496 0.41545,-0.471 0.44421,-0.445 0.47122,-0.415 0.4964,-0.385 0.51958,-0.353 0.54072,-0.32 0.55976,-0.285 0.57658,-0.25 0.591,-0.213 0.6033,-0.175 0.6131,-0.137 0.6205,-0.098 0.6254,-0.059 0.6279,-0.02 H 200.0493 l 0.628,0.02 0.625,0.059 0.621,0.098 0.613,0.137 0.603,0.175 0.591,0.213 0.577,0.25 0.56,0.285 0.54,0.32 0.52,0.353 0.496,0.385 0.471,0.415 0.445,0.445 0.415,0.471 0.385,0.496 0.353,0.52 0.32,0.54 0.285,0.56 0.25,0.577 0.213,0.591 0.175,0.603 0.137,0.613 0.098,0.621 0.059,0.625 0.02,0.628 v 5 h 10 v -20 h 12 v 20 h 10.3 l 0.628,-0.02 0.625,-0.059 0.621,-0.098 0.613,-0.137 0.603,-0.175 0.591,-0.213 0.577,-0.25 0.56,-0.285 0.54,-0.32 0.52,-0.353 0.496,-0.385 0.471,-0.415 0.445,-0.445 0.415,-0.471 0.385,-0.496 0.353,-0.52 0.32,-0.54 0.285,-0.56 0.25,-0.577 0.213,-0.591 0.175,-0.603 0.137,-0.613 0.098,-0.621 0.059,-0.625 0.02,-0.628 v -22.3 l -0.02,-0.628 -0.059,-0.625 -0.098,-0.621 -0.137,-0.613 -0.175,-0.603 -0.213,-0.591 -0.25,-0.577 -0.285,-0.56 -0.32,-0.54 -0.353,-0.52 -0.385,-0.496 -0.415,-0.471 -0.445,-0.445 -0.471,-0.415 -0.496,-0.385 -0.52,-0.353 -0.54,-0.32 -0.56,-0.285 -0.577,-0.25 -0.591,-0.213 -0.603,-0.175 -0.613,-0.137 -0.621,-0.098 -0.625,-0.059 -0.628,-0.02 h -32.3 v 2.3 l -0.02,0.628 -0.059,0.625 -0.098,0.621 -0.137,0.613 -0.175,0.603 -0.213,0.591 -0.25,0.577 -0.285,0.56 -0.32,0.54 -0.353,0.52 -0.385,0.496 -0.415,0.471 -0.445,0.445 -0.471,0.415 -0.496,0.385 -0.52,0.353 -0.54,0.32 -0.56,0.285 -0.577,0.25 -0.591,0.213 -0.603,0.175 -0.613,0.137 -0.621,0.098 -0.625,0.059 -0.628,0.02 H 28.049296 l -0.6279,-0.02 -0.6254,-0.059 -0.6205,-0.098 -0.6131,-0.137 -0.6033,-0.175 -0.591,-0.213 -0.57658,-0.25 -0.55976,-0.285 -0.54072,-0.32 -0.51958,-0.353 -0.4964,-0.385 -0.47122,-0.415 -0.44421,-0.445 -0.41545,-0.471 -0.38504,-0.496 -0.35311,-0.52 -0.31979,-0.54 -0.2852,-0.56 -0.2495,-0.577 -0.2128,-0.591 -0.17526,-0.603 -0.13704,-0.613 -0.09828,-0.621 -0.05912,-0.625 -0.01974,-0.628 v -2.3 h -54 l -0.6279,0.02 -0.6254,0.059 -0.6205,0.098 -0.6131,0.137 -0.6033,0.175 -0.591,0.213 -0.5766,0.25 -0.5597,0.285 -0.5408,0.32 -0.5195,0.353 -0.4964,0.385 -0.4713,0.415 -0.4442,0.445 -0.4154,0.471 -0.3851,0.496 -0.3531,0.52 -0.3198,0.54 -0.2852,0.56 -0.2495,0.577 -0.2128,0.591 -0.1752,0.603 -0.1371,0.613 -0.0982,0.621 -0.0592,0.625 -0.0197,0.628 v 22.3 l 0.0197,0.628 0.0592,0.625 0.0982,0.621 0.1371,0.613 0.1752,0.603 0.2128,0.591 0.2495,0.577 0.2852,0.56 0.3198,0.54 0.3531,0.52 0.3851,0.496 0.4154,0.471 0.4442,0.445 0.4713,0.415 0.4964,0.385 0.5195,0.353 0.5408,0.32 0.5597,0.285 0.5766,0.25 0.591,0.213 0.6033,0.175 0.6131,0.137 0.6205,0.098 0.6254,0.059 0.6279,0.02 h 31.9999997 z m -5.5942,-15.003 -0.0938,-0.009 -0.0931,-0.015 -0.0919,-0.02 -0.0905,-0.026 -0.0887,-0.032 -0.0865,-0.038 -0.0839,-0.043 -0.0811,-0.048 -0.078,-0.052 -0.0744,-0.058 -0.0707,-0.063 -0.0667,-0.066 -0.0623,-0.071 -0.0577,-0.074 -0.053,-0.078 -0.048,-0.081 -0.0428,-0.084 -0.0374,-0.087 -0.0319,-0.088 -0.0263,-0.091 -0.0205,-0.092 -0.0148,-0.093 -0.0089,-0.094 -0.0029,-0.094 0.0029,-0.094 0.0089,-0.094 0.0148,-0.093 0.0205,-0.092 0.0263,-0.091 0.0319,-0.088 0.0374,-0.087 0.0428,-0.084 0.048,-0.081 0.053,-0.078 0.0577,-0.074 0.0623,-0.071 0.0667,-0.066 0.0707,-0.063 0.0744,-0.058 0.078,-0.052 0.0811,-0.048 0.0839,-0.043 0.0865,-0.038 0.0887,-0.032 0.0905,-0.026 0.0919,-0.02 0.0931,-0.015 0.0938,-0.009 0.0942,-0.003 0.0942,0.003 0.0938,0.009 0.0931,0.015 0.0919,0.02 0.0905,0.026 0.0887,0.032 0.0865,0.038 0.0839,0.043 0.0811,0.048 0.078,0.052 0.0744,0.058 0.0707,0.063 0.0666,0.066 0.0624,0.071 0.0577,0.074 0.053,0.078 0.048,0.081 0.0427,0.084 0.0375,0.087 0.0319,0.088 0.0263,0.091 0.0205,0.092 0.0148,0.093 0.0088,0.094 0.003,0.094 -0.003,0.094 -0.0088,0.094 -0.0148,0.093 -0.0205,0.092 -0.0263,0.091 -0.0319,0.088 -0.0375,0.087 -0.0427,0.084 -0.048,0.081 -0.053,0.078 -0.0577,0.074 -0.0624,0.071 -0.0666,0.066 -0.0707,0.063 -0.0744,0.058 -0.078,0.052 -0.0811,0.048 -0.0839,0.043 -0.0865,0.038 -0.0887,0.032 -0.0905,0.026 -0.0919,0.02 -0.0931,0.015 -0.0938,0.009 -0.0942,0.003 z m -30.9999997,0 -0.0938,-0.009 -0.0931,-0.015 -0.0919,-0.02 -0.0905,-0.026 -0.0887,-0.032 -0.0865,-0.038 -0.0839,-0.043 -0.0811,-0.048 -0.078,-0.052 -0.0744,-0.058 -0.0707,-0.063 -0.0666,-0.066 -0.0624,-0.071 -0.0577,-0.074 -0.053,-0.078 -0.048,-0.081 -0.0427,-0.084 -0.0375,-0.087 -0.0319,-0.088 -0.0263,-0.091 -0.0205,-0.092 -0.0148,-0.093 -0.0088,-0.094 -0.003,-0.094 0.003,-0.094 0.0088,-0.094 0.0148,-0.093 0.0205,-0.092 0.0263,-0.091 0.0319,-0.088 0.0375,-0.087 0.0427,-0.084 0.048,-0.081 0.053,-0.078 0.0577,-0.074 0.0624,-0.071 0.0666,-0.066 0.0707,-0.063 0.0744,-0.058 0.078,-0.052 0.0811,-0.048 0.0839,-0.043 0.0865,-0.038 0.0887,-0.032 0.0905,-0.026 0.0919,-0.02 0.0931,-0.015 0.0938,-0.009 0.0942,-0.003 0.0942,0.003 0.0938,0.009 0.0931,0.015 0.0919,0.02 0.0905,0.026 0.0887,0.032 0.0865,0.038 0.0839,0.043 0.0811,0.048 0.078,0.052 0.0744,0.058 0.0707,0.063 0.0667,0.066 0.0623,0.071 0.0577,0.074 0.053,0.078 0.048,0.081 0.0428,0.084 0.0374,0.087 0.0319,0.088 0.0263,0.091 0.0205,0.092 0.0148,0.093 0.0089,0.094 0.0029,0.094 -0.0029,0.094 -0.0089,0.094 -0.0148,0.093 -0.0205,0.092 -0.0263,0.091 -0.0319,0.088 -0.0374,0.087 -0.0428,0.084 -0.048,0.081 -0.053,0.078 -0.0577,0.074 -0.0623,0.071 -0.0667,0.066 -0.0707,0.063 -0.0744,0.058 -0.078,0.052 -0.0811,0.048 -0.0839,0.043 -0.0865,0.038 -0.0887,0.032 -0.0905,0.026 -0.0919,0.02 -0.0931,0.015 -0.0938,0.009 -0.0942,0.003 z m 14.9035,24.981 -0.688,-0.065 -0.6825,-0.108 -0.6744,-0.151 -0.6636,-0.192 -0.6502,-0.234 -0.6342,-0.275 -0.6157,-0.314 -0.5948,-0.351 -0.5715,-0.389 -0.5461,-0.423 -0.5183,-0.457 -0.4886,-0.489 -0.457,-0.518 -0.4236,-0.546 -0.3884,-0.572 -0.3518,-0.595 -0.3137,-0.615 -0.2744,-0.635 -0.2341,-0.65 -0.1928,-0.663 -0.1507,-0.675 -0.1082,-0.682 -0.065,-0.688 -0.0217,-0.691 0.0217,-0.691 0.065,-0.688 0.1082,-0.682 0.1507,-0.675 0.1928,-0.663 0.2341,-0.65 0.2744,-0.635 0.3137,-0.615 0.3518,-0.595 0.3884,-0.572 0.4236,-0.546 0.457,-0.518 0.4886,-0.489 0.5183,-0.457 0.5461,-0.423 0.5715,-0.389 0.5948,-0.351 0.6157,-0.314 0.6342,-0.275 0.6502,-0.234 0.6636,-0.192 0.6744,-0.151 0.6825,-0.108 0.688,-0.065 0.6907,-0.022 0.6907,0.022 0.688,0.065 0.6825,0.108 0.6744,0.151 0.6636,0.192 0.6502,0.234 0.6342,0.275 0.6157,0.314 0.5948,0.351 0.5715,0.389 0.5461,0.423 0.5183,0.457 0.4886,0.489 0.457,0.518 0.4236,0.546 0.3884,0.572 0.3518,0.595 0.3137,0.615 0.2744,0.635 0.2341,0.65 0.1928,0.663 0.1507,0.675 0.1082,0.682 0.065,0.688 0.0217,0.691 -0.0217,0.691 -0.065,0.688 -0.1082,0.682 -0.1507,0.675 -0.1928,0.663 -0.2341,0.65 -0.2744,0.635 -0.3137,0.615 -0.3518,0.595 -0.3884,0.572 -0.4236,0.546 -0.457,0.518 -0.4886,0.489 -0.5183,0.457 -0.5461,0.423 -0.5715,0.389 -0.5948,0.351 -0.6157,0.314 -0.6342,0.275 -0.6502,0.234 -0.6636,0.192 -0.6744,0.151 -0.6825,0.108 -0.688,0.065 -0.6907,0.022 z m -16.9035,-17.481 -0.0938,-0.009 -0.0931,-0.015 -0.0919,-0.02 -0.0905,-0.026 -0.0887,-0.032 -0.0865,-0.038 -0.0839,-0.043 -0.0811,-0.048 -0.078,-0.052 -0.0744,-0.058 -0.0707,-0.063 -0.0666,-0.066 -0.0624,-0.071 -0.0577,-0.074 -0.053,-0.078 -0.048,-0.081 -0.0427,-0.084 -0.0375,-0.087 -0.0319,-0.088 -0.0263,-0.091 -0.0205,-0.092 -0.0148,-0.093 -0.0088,-0.094 -0.003,-0.094 0.003,-0.094 0.0088,-0.094 0.0148,-0.093 0.0205,-0.092 0.0263,-0.091 0.0319,-0.088 0.0375,-0.087 0.0427,-0.084 0.048,-0.081 0.053,-0.078 0.0577,-0.074 0.0624,-0.071 0.0666,-0.066 0.0707,-0.063 0.0744,-0.058 0.078,-0.052 0.0811,-0.048 0.0839,-0.043 0.0865,-0.038 0.0887,-0.032 0.0905,-0.026 0.0919,-0.02 0.0931,-0.015 0.0938,-0.009 0.0942,-0.003 0.0942,0.003 0.0938,0.009 0.0931,0.015 0.0919,0.02 0.0905,0.026 0.0887,0.032 0.0865,0.038 0.0839,0.043 0.0811,0.048 0.078,0.052 0.0744,0.058 0.0707,0.063 0.0667,0.066 0.0623,0.071 0.0577,0.074 0.053,0.078 0.048,0.081 0.0428,0.084 0.0374,0.087 0.0319,0.088 0.0263,0.091 0.0205,0.092 0.0148,0.093 0.0089,0.094 0.0029,0.094 -0.0029,0.094 -0.0089,0.094 -0.0148,0.093 -0.0205,0.092 -0.0263,0.091 -0.0319,0.088 -0.0374,0.087 -0.0428,0.084 -0.048,0.081 -0.053,0.078 -0.0577,0.074 -0.0623,0.071 -0.0667,0.066 -0.0707,0.063 -0.0744,0.058 -0.078,0.052 -0.0811,0.048 -0.0839,0.043 -0.0865,0.038 -0.0887,0.032 -0.0905,0.026 -0.0919,0.02 -0.0931,0.015 -0.0938,0.009 -0.0942,0.003 z m 34.9999997,0 -0.0938,-0.009 -0.0931,-0.015 -0.0919,-0.02 -0.0905,-0.026 -0.0887,-0.032 -0.0865,-0.038 -0.0839,-0.043 -0.0811,-0.048 -0.078,-0.052 -0.0744,-0.058 -0.0707,-0.063 -0.0667,-0.066 -0.0623,-0.071 -0.0577,-0.074 -0.053,-0.078 -0.048,-0.081 -0.0428,-0.084 -0.0374,-0.087 -0.0319,-0.088 -0.0263,-0.091 -0.0205,-0.092 -0.0148,-0.093 -0.0089,-0.094 -0.0029,-0.094 0.0029,-0.094 0.0089,-0.094 0.0148,-0.093 0.0205,-0.092 0.0263,-0.091 0.0319,-0.088 0.0374,-0.087 0.0428,-0.084 0.048,-0.081 0.053,-0.078 0.0577,-0.074 0.0623,-0.071 0.0667,-0.066 0.0707,-0.063 0.0744,-0.058 0.078,-0.052 0.0811,-0.048 0.0839,-0.043 0.0865,-0.038 0.0887,-0.032 0.0905,-0.026 0.0919,-0.02 0.0931,-0.015 0.0938,-0.009 0.0942,-0.003 0.0942,0.003 0.0938,0.009 0.0931,0.015 0.0919,0.02 0.0905,0.026 0.0887,0.032 0.0865,0.038 0.0839,0.043 0.0811,0.048 0.078,0.052 0.0744,0.058 0.0707,0.063 0.0666,0.066 0.0624,0.071 0.0577,0.074 0.053,0.078 0.048,0.081 0.0427,0.084 0.0375,0.087 0.0319,0.088 0.0263,0.091 0.0205,0.092 0.0148,0.093 0.0088,0.094 0.003,0.094 -0.003,0.094 -0.0088,0.094 -0.0148,0.093 -0.0205,0.092 -0.0263,0.091 -0.0319,0.088 -0.0375,0.087 -0.0427,0.084 -0.048,0.081 -0.053,0.078 -0.0577,0.074 -0.0624,0.071 -0.0666,0.066 -0.0707,0.063 -0.0744,0.058 -0.078,0.052 -0.0811,0.048 -0.0839,0.043 -0.0865,0.038 -0.0887,0.032 -0.0905,0.026 -0.0919,0.02 -0.0931,0.015 -0.0938,0.009 -0.0942,0.003 z m 249.3432043,10.495 -0.25,-0.024 -0.249,-0.039 -0.245,-0.055 -0.241,-0.07 -0.237,-0.085 -0.23,-0.1 -0.224,-0.114 -0.216,-0.128 -0.208,-0.141 -0.199,-0.154 -0.188,-0.166 -0.178,-0.178 -0.166,-0.188 -0.154,-0.199 -0.141,-0.208 -0.128,-0.216 -0.114,-0.224 -0.1,-0.23 -0.085,-0.237 -0.07,-0.241 -0.055,-0.245 -0.039,-0.249 -0.024,-0.25 -0.008,-0.251 0.008,-0.251 0.024,-0.25 0.039,-0.249 0.055,-0.245 0.07,-0.241 0.085,-0.236 0.1,-0.231 0.114,-0.224 0.128,-0.216 0.141,-0.208 0.154,-0.199 0.166,-0.188 0.178,-0.178 0.188,-0.166 0.199,-0.154 0.208,-0.141 0.216,-0.128 0.224,-0.114 0.23,-0.1 0.237,-0.085 0.241,-0.07 0.245,-0.055 0.249,-0.039 0.25,-0.024 0.251,-0.008 0.251,0.008 0.25,0.024 0.249,0.039 0.245,0.055 0.241,0.07 0.236,0.085 0.231,0.1 0.224,0.114 0.216,0.128 0.208,0.141 0.199,0.154 0.188,0.166 0.178,0.178 0.166,0.188 0.154,0.199 0.141,0.208 0.128,0.216 0.114,0.224 0.1,0.231 0.085,0.236 0.07,0.241 0.055,0.245 0.039,0.249 0.024,0.25 0.008,0.251 -0.008,0.251 -0.024,0.25 -0.039,0.249 -0.055,0.245 -0.07,0.241 -0.085,0.237 -0.1,0.23 -0.114,0.224 -0.128,0.216 -0.141,0.208 -0.154,0.199 -0.166,0.188 -0.178,0.178 -0.188,0.166 -0.199,0.154 -0.208,0.141 -0.216,0.128 -0.224,0.114 -0.231,0.1 -0.236,0.085 -0.241,0.07 -0.245,0.055 -0.249,0.039 -0.25,0.024 -0.251,0.008 z m -251.3432043,13.005 -0.0938,-0.009 -0.0931,-0.015 -0.0919,-0.02 -0.0905,-0.026 -0.0887,-0.032 -0.0865,-0.038 -0.0839,-0.043 -0.0811,-0.048 -0.078,-0.052 -0.0744,-0.058 -0.0707,-0.063 -0.0667,-0.066 -0.0623,-0.071 -0.0577,-0.074 -0.053,-0.078 -0.048,-0.081 -0.0428,-0.084 -0.0374,-0.087 -0.0319,-0.088 -0.0263,-0.091 -0.0205,-0.092 -0.0148,-0.093 -0.0089,-0.094 -0.0029,-0.094 0.0029,-0.094 0.0089,-0.094 0.0148,-0.093 0.0205,-0.092 0.0263,-0.091 0.0319,-0.088 0.0374,-0.087 0.0428,-0.084 0.048,-0.081 0.053,-0.078 0.0577,-0.074 0.0623,-0.071 0.0667,-0.066 0.0707,-0.063 0.0744,-0.058 0.078,-0.052 0.0811,-0.048 0.0839,-0.043 0.0865,-0.038 0.0887,-0.032 0.0905,-0.026 0.0919,-0.02 0.0931,-0.015 0.0938,-0.009 0.0942,-0.003 0.0942,0.003 0.0938,0.009 0.0931,0.015 0.0919,0.02 0.0905,0.026 0.0887,0.032 0.0865,0.038 0.0839,0.043 0.0811,0.048 0.078,0.052 0.0744,0.058 0.0707,0.063 0.0666,0.066 0.0624,0.071 0.0577,0.074 0.053,0.078 0.048,0.081 0.0427,0.084 0.0375,0.087 0.0319,0.088 0.0263,0.091 0.0205,0.092 0.0148,0.093 0.0088,0.094 0.003,0.094 -0.003,0.094 -0.0088,0.094 -0.0148,0.093 -0.0205,0.092 -0.0263,0.091 -0.0319,0.088 -0.0375,0.087 -0.0427,0.084 -0.048,0.081 -0.053,0.078 -0.0577,0.074 -0.0624,0.071 -0.0666,0.066 -0.0707,0.063 -0.0744,0.058 -0.078,0.052 -0.0811,0.048 -0.0839,0.043 -0.0865,0.038 -0.0887,0.032 -0.0905,0.026 -0.0919,0.02 -0.0931,0.015 -0.0938,0.009 -0.0942,0.003 z m -30.9999997,0 -0.0938,-0.009 -0.0931,-0.015 -0.0919,-0.02 -0.0905,-0.026 -0.0887,-0.032 -0.0865,-0.038 -0.0839,-0.043 -0.0811,-0.048 -0.078,-0.052 -0.0744,-0.058 -0.0707,-0.063 -0.0666,-0.066 -0.0624,-0.071 -0.0577,-0.074 -0.053,-0.078 -0.048,-0.081 -0.0427,-0.084 -0.0375,-0.087 -0.0319,-0.088 -0.0263,-0.091 -0.0205,-0.092 -0.0148,-0.093 -0.0088,-0.094 -0.003,-0.094 0.003,-0.094 0.0088,-0.094 0.0148,-0.093 0.0205,-0.092 0.0263,-0.091 0.0319,-0.088 0.0375,-0.087 0.0427,-0.084 0.048,-0.081 0.053,-0.078 0.0577,-0.074 0.0624,-0.071 0.0666,-0.066 0.0707,-0.063 0.0744,-0.058 0.078,-0.052 0.0811,-0.048 0.0839,-0.043 0.0865,-0.038 0.0887,-0.032 0.0905,-0.026 0.0919,-0.02 0.0931,-0.015 0.0938,-0.009 0.0942,-0.003 0.0942,0.003 0.0938,0.009 0.0931,0.015 0.0919,0.02 0.0905,0.026 0.0887,0.032 0.0865,0.038 0.0839,0.043 0.0811,0.048 0.078,0.052 0.0744,0.058 0.0707,0.063 0.0667,0.066 0.0623,0.071 0.0577,0.074 0.053,0.078 0.048,0.081 0.0428,0.084 0.0374,0.087 0.0319,0.088 0.0263,0.091 0.0205,0.092 0.0148,0.093 0.0089,0.094 0.0029,0.094 -0.0029,0.094 -0.0089,0.094 -0.0148,0.093 -0.0205,0.092 -0.0263,0.091 -0.0319,0.088 -0.0374,0.087 -0.0428,0.084 -0.048,0.081 -0.053,0.078 -0.0577,0.074 -0.0623,0.071 -0.0667,0.066 -0.0707,0.063 -0.0744,0.058 -0.078,0.052 -0.0811,0.048 -0.0839,0.043 -0.0865,0.038 -0.0887,0.032 -0.0905,0.026 -0.0919,0.02 -0.0931,0.015 -0.0938,0.009 -0.0942,0.003 z m 263.222204,46.983 0.625,-0.059 0.621,-0.098 0.613,-0.137 0.603,-0.175 0.591,-0.213 0.577,-0.25 0.56,-0.285 0.54,-0.32 0.52,-0.353 0.496,-0.385 0.471,-0.415 0.445,-0.445 0.415,-0.471 0.385,-0.496 0.353,-0.52 0.32,-0.54 0.285,-0.56 0.25,-0.577 0.213,-0.591 0.175,-0.603 0.137,-0.613 0.098,-0.621 0.059,-0.625 0.02,-0.628 v -22.3 l -0.02,-0.628 -0.059,-0.625 -0.098,-0.621 -0.137,-0.613 -0.175,-0.603 -0.213,-0.591 -0.25,-0.577 -0.285,-0.56 -0.32,-0.54 -0.353,-0.52 -0.385,-0.496 -0.415,-0.471 -0.445,-0.445 -0.471,-0.415 -0.496,-0.385 -0.52,-0.353 -0.54,-0.32 -0.56,-0.285 -0.577,-0.25 -0.591,-0.213 -0.603,-0.175 -0.613,-0.137 -0.621,-0.098 -0.625,-0.059 -0.628,-0.02 h -22 l -0.628,0.02 -0.625,0.059 -0.621,0.098 -0.613,0.137 -0.603,0.175 -0.591,0.213 -0.577,0.25 -0.56,0.285 -0.54,0.32 -0.52,0.353 -0.496,0.385 -0.471,0.415 -0.445,0.445 -0.415,0.471 -0.385,0.496 -0.353,0.52 -0.32,0.54 -0.285,0.56 -0.25,0.577 -0.213,0.591 -0.175,0.603 -0.137,0.613 -0.098,0.621 -0.059,0.625 -0.02,0.628 v 22.3 l 0.02,0.628 0.059,0.625 0.098,0.621 0.137,0.613 0.175,0.603 0.213,0.591 0.25,0.577 0.285,0.56 0.32,0.54 0.353,0.52 0.385,0.496 0.415,0.471 0.445,0.445 0.471,0.415 0.496,0.385 0.52,0.353 0.54,0.32 0.56,0.285 0.577,0.25 0.591,0.213 0.603,0.175 0.613,0.137 0.621,0.098 0.625,0.059 0.628,0.02 v -20 h 12 v 20 h 10 z m -2.879,-16.988 -0.25,-0.024 -0.249,-0.039 -0.245,-0.055 -0.241,-0.07 -0.237,-0.085 -0.23,-0.1 -0.224,-0.114 -0.216,-0.128 -0.208,-0.141 -0.199,-0.154 -0.188,-0.166 -0.178,-0.178 -0.166,-0.188 -0.154,-0.199 -0.141,-0.208 -0.128,-0.216 -0.114,-0.224 -0.1,-0.23 -0.085,-0.237 -0.07,-0.241 -0.055,-0.245 -0.039,-0.249 -0.024,-0.25 -0.008,-0.251 0.008,-0.251 0.024,-0.25 0.039,-0.249 0.055,-0.245 0.07,-0.241 0.085,-0.236 0.1,-0.231 0.114,-0.224 0.128,-0.216 0.141,-0.208 0.154,-0.199 0.166,-0.188 0.178,-0.178 0.188,-0.166 0.199,-0.154 0.208,-0.141 0.216,-0.128 0.224,-0.114 0.23,-0.1 0.237,-0.085 0.241,-0.07 0.245,-0.055 0.249,-0.039 0.25,-0.024 0.251,-0.008 0.251,0.008 0.25,0.024 0.249,0.039 0.245,0.055 0.241,0.07 0.236,0.085 0.231,0.1 0.224,0.114 0.216,0.128 0.208,0.141 0.199,0.154 0.188,0.166 0.178,0.178 0.166,0.188 0.154,0.199 0.141,0.208 0.128,0.216 0.114,0.224 0.1,0.231 0.085,0.236 0.07,0.241 0.055,0.245 0.039,0.249 0.024,0.25 0.008,0.251 -0.008,0.251 -0.024,0.25 -0.039,0.249 -0.055,0.245 -0.07,0.241 -0.085,0.237 -0.1,0.23 -0.114,0.224 -0.128,0.216 -0.141,0.208 -0.154,0.199 -0.166,0.188 -0.178,0.178 -0.188,0.166 -0.199,0.154 -0.208,0.141 -0.216,0.128 -0.224,0.114 -0.231,0.1 -0.236,0.085 -0.241,0.07 -0.245,0.055 -0.249,0.039 -0.25,0.024 -0.251,0.008 z m -46.561,87.002104 0.188,-0.0178 0.186,-0.0294 0.184,-0.0412 0.181,-0.0525 0.177,-0.0639 0.173,-0.0748 0.168,-0.0856 0.162,-0.0959 0.156,-0.106 0.149,-0.1155 0.142,-0.1246 0.133,-0.1333 0.125,-0.1413 0.115,-0.1489 0.106,-0.1559 0.096,-0.1622 0.085,-0.168 0.075,-0.1729 0.064,-0.1774 0.053,-0.1809 0.041,-0.184 0.029,-0.1861 0.018,-0.1876 0.006,-0.1884 v -7 h 9 l 0.188,-0.0059 0.188,-0.0178 0.186,-0.0294 0.184,-0.0412 0.181,-0.0525 0.177,-0.0639 0.173,-0.0748 0.168,-0.0856 0.162,-0.0959 0.156,-0.106 0.149,-0.1155 0.142,-0.1246 0.133,-0.1333 0.125,-0.1413 0.115,-0.1489 0.106,-0.1559 0.096,-0.1622 0.085,-0.168 0.075,-0.1729 0.064,-0.1774 0.053,-0.1809 0.041,-0.184 0.029,-0.1861 0.018,-0.1876 0.006,-0.1884 v -24 l -0.006,-0.1884 -0.018,-0.1876 -0.029,-0.1861 -0.041,-0.184 -0.053,-0.1809 -0.064,-0.1774 -0.075,-0.1729 -0.085,-0.168 -0.096,-0.1622 -0.106,-0.1559 -0.115,-0.1489 -0.125,-0.1413 -0.133,-0.1333 -0.142,-0.1246 -0.149,-0.1155 -0.156,-0.106 -0.162,-0.0959 -0.168,-0.0856 -0.173,-0.0748 -0.177,-0.0639 -0.181,-0.0525 -0.184,-0.0412 -0.186,-0.0294 -0.188,-0.0178 -0.188,-0.0059 h -3 v 10 h -6 v -30 h 9 l 0.188,-0.006 0.188,-0.018 0.186,-0.029 0.184,-0.041 0.181,-0.053 0.177,-0.064 0.173,-0.075 0.168,-0.085 0.162,-0.096 0.156,-0.106 0.149,-0.115 0.142,-0.125 0.133,-0.133 0.125,-0.142 0.115,-0.149 0.106,-0.156 0.096,-0.162 0.085,-0.168 0.075,-0.173 0.064,-0.177 0.053,-0.181 0.041,-0.184 0.029,-0.186 0.018,-0.188 0.006,-0.188 v -24.000004 l -0.006,-0.188 -0.018,-0.188 -0.029,-0.186 -0.041,-0.184 -0.053,-0.181 -0.064,-0.177 -0.075,-0.173 -0.085,-0.168 -0.096,-0.162 -0.106,-0.156 -0.115,-0.149 -0.125,-0.142 -0.133,-0.133 -0.142,-0.125 -0.149,-0.115 -0.156,-0.106 -0.162,-0.096 -0.168,-0.085 -0.173,-0.075 -0.177,-0.064 -0.181,-0.053 -0.184,-0.041 -0.186,-0.029 -0.188,-0.018 -0.188,-0.006 h -3 v 10 h -6 v -17 h -27 l -0.188,-0.006 -0.188,-0.018 -0.186,-0.029 -0.184,-0.041 -0.181,-0.053 -0.177,-0.064 -0.173,-0.075 -0.168,-0.085 -0.162,-0.096 -0.156,-0.106 -0.149,-0.115 -0.142,-0.125 -0.133,-0.133 -0.125,-0.142 -0.115,-0.149 -0.106,-0.156 -0.096,-0.162 -0.085,-0.168 -0.075,-0.173 -0.064,-0.177 -0.053,-0.181 -0.041,-0.184 -0.029,-0.186 -0.018,-0.188 -0.006,-0.188 v -10 H -32.950704 l -0.1884,0.006 -0.1876,0.018 -0.1861,0.029 -0.184,0.041 -0.1809,0.053 -0.1774,0.064 -0.1729,0.075 -0.168,0.085 -0.1622,0.096 -0.1559,0.106 -0.1489,0.115 -0.1413,0.125 -0.1333,0.133 -0.1246,0.142 -0.1155,0.149 -0.106,0.156 -0.0959,0.162 -0.0856,0.168 -0.0748,0.173 -0.0639,0.177 -0.0525,0.181 -0.0412,0.184 -0.0294,0.186 -0.0178,0.188 -0.0059,0.188 v 27 h -6 v -10 h -3 l -0.1884,0.006 -0.1876,0.018 -0.1861,0.029 -0.184,0.041 -0.1809,0.053 -0.1774,0.064 -0.1729,0.075 -0.168,0.085 -0.1622,0.096 -0.1559,0.106 -0.1489,0.115 -0.1413,0.125 -0.1333,0.133 -0.1246,0.142 -0.1155,0.149 -0.106,0.156 -0.0959,0.162 -0.0856,0.168 -0.0748,0.173 -0.0639,0.177 -0.0525,0.181 -0.0412,0.184 -0.0294,0.186 -0.0178,0.188 -0.0059,0.188 v 24.000004 l 0.0059,0.188 0.0178,0.188 0.0294,0.186 0.0412,0.184 0.0525,0.181 0.0639,0.177 0.0748,0.173 0.0856,0.168 0.0959,0.162 0.106,0.156 0.1155,0.149 0.1246,0.142 0.1333,0.133 0.1413,0.125 0.1489,0.115 0.1559,0.106 0.1622,0.096 0.168,0.085 0.1729,0.075 0.1774,0.064 0.1809,0.053 0.184,0.041 0.1861,0.029 0.1876,0.018 0.1884,0.006 h 9 v 30 h -6 v -10 h -3 l -0.1884,0.0059 -0.1876,0.0178 -0.1861,0.0294 -0.184,0.0412 -0.1809,0.0525 -0.1774,0.0639 -0.1729,0.0748 -0.168,0.0856 -0.1622,0.0959 -0.1559,0.106 -0.1489,0.1155 -0.1413,0.1246 -0.1333,0.1333 -0.1246,0.1413 -0.1155,0.1489 -0.106,0.1559 -0.0959,0.1622 -0.0856,0.168 -0.0748,0.1729 -0.0639,0.1774 -0.0525,0.1809 -0.0412,0.184 -0.0294,0.1861 -0.0178,0.1876 -0.0059,0.1884 v 24 l 0.0059,0.1884 0.0178,0.1876 0.0295,0.1861 0.0411,0.184 0.0526,0.1809 0.0638,0.1774 0.0748,0.1729 0.0856,0.168 0.0959,0.1622 0.106,0.1559 0.1155,0.1489 0.1246,0.1413 0.1333,0.1333 0.1414,0.1246 0.1489,0.1155 0.1558,0.106 0.1623,0.0959 0.1679,0.0856 0.1729,0.0748 0.1774,0.0639 0.181,0.0525 0.1839,0.0412 0.1861,0.0294 0.1876,0.0178 0.1884,0.0059 h 9 v 7 l 0.0059,0.1884 0.0178,0.1876 0.0295,0.1861 0.0411,0.184 0.0526,0.1809 0.0638,0.1774 0.0748,0.1729 0.0856,0.168 0.0959,0.1622 0.106,0.1559 0.1155,0.1489 0.1246,0.1413 0.1333,0.1333 0.1414,0.1246 0.1489,0.1155 0.1558,0.106 0.1623,0.0959 0.1679,0.0856 0.1729,0.0748 0.1774,0.0639 0.181,0.0525 0.1839,0.0412 0.1861,0.0294 0.1876,0.0178 0.1884,0.0059 H 173.0493 Z m 85,154.999896 0.188,-0.018 0.186,-0.029 0.184,-0.041 0.181,-0.053 0.177,-0.064 0.173,-0.075 0.168,-0.085 0.162,-0.096 0.156,-0.106 0.149,-0.115 0.142,-0.125 0.133,-0.133 0.125,-0.142 0.115,-0.149 0.106,-0.156 0.096,-0.162 0.085,-0.168 0.075,-0.173 0.064,-0.177 0.053,-0.181 0.041,-0.184 0.029,-0.186 0.018,-0.188 0.006,-0.188 v -3 h 40 v 3 l 0.006,0.188 0.018,0.188 0.029,0.186 0.041,0.184 0.053,0.181 0.064,0.177 0.075,0.173 0.085,0.168 0.096,0.162 0.106,0.156 0.115,0.149 0.125,0.142 0.133,0.133 0.142,0.125 0.149,0.115 0.156,0.106 0.162,0.096 0.168,0.085 0.173,0.075 0.177,0.064 0.181,0.053 0.184,0.041 0.186,0.029 0.188,0.018 0.188,0.006 h 24 l 0.188,-0.006 0.188,-0.018 0.186,-0.029 0.184,-0.041 0.181,-0.053 0.177,-0.064 0.173,-0.075 0.168,-0.085 0.162,-0.096 0.156,-0.106 0.149,-0.115 0.142,-0.125 0.133,-0.133 0.125,-0.142 0.115,-0.149 0.106,-0.156 0.096,-0.162 0.085,-0.168 0.075,-0.173 0.064,-0.177 0.053,-0.181 0.041,-0.184 0.029,-0.186 0.018,-0.188 0.006,-0.188 v -3 h 10 l 0.628,-0.02 0.625,-0.059 0.621,-0.098 0.613,-0.137 0.603,-0.175 0.591,-0.213 0.577,-0.25 0.56,-0.285 0.54,-0.32 0.52,-0.353 0.496,-0.385 0.471,-0.415 0.445,-0.445 0.415,-0.471 0.385,-0.496 0.353,-0.52 0.32,-0.5405 0.285,-0.5597 0.25,-0.5766 0.213,-0.591 0.175,-0.6033 0.137,-0.6131 0.098,-0.6205 0.059,-0.6254 0.02,-0.6279 V -84.056336 l -0.02,-0.6279 -0.059,-0.6254 -0.098,-0.6205 -0.137,-0.6131 -0.175,-0.6031 -0.213,-0.591 -0.25,-0.577 -0.285,-0.56 -0.32,-0.54 -0.353,-0.52 -0.385,-0.496 -0.415,-0.471 -0.445,-0.445 -0.471,-0.415 -0.496,-0.385 -0.52,-0.353 -0.54,-0.32 -0.56,-0.285 -0.577,-0.25 -0.591,-0.213 -0.603,-0.175 -0.613,-0.137 -0.621,-0.098 -0.625,-0.059 -0.628,-0.02 h -10 v -3 l -0.006,-0.188 -0.018,-0.188 -0.029,-0.186 -0.041,-0.184 -0.053,-0.181 -0.064,-0.177 -0.075,-0.173 -0.085,-0.168 -0.096,-0.162 -0.106,-0.156 -0.115,-0.149 -0.125,-0.142 -0.133,-0.133 -0.142,-0.125 -0.149,-0.115 -0.156,-0.106 -0.162,-0.096 -0.168,-0.085 -0.173,-0.075 -0.177,-0.064 -0.181,-0.053 -0.184,-0.041 -0.186,-0.029 -0.188,-0.018 -0.188,-0.006 h -24 l -0.188,0.006 -0.188,0.018 -0.186,0.029 -0.184,0.041 -0.181,0.053 -0.177,0.064 -0.173,0.075 -0.168,0.085 -0.162,0.096 -0.156,0.106 -0.149,0.115 -0.142,0.125 -0.133,0.133 -0.125,0.142 -0.115,0.149 -0.106,0.156 -0.096,0.162 -0.085,0.168 -0.075,0.173 -0.064,0.177 -0.053,0.181 -0.041,0.184 -0.029,0.186 -0.018,0.188 -0.006,0.188 v 3 h -40 v -3 l -0.006,-0.188 -0.018,-0.188 -0.029,-0.186 -0.041,-0.184 -0.053,-0.181 -0.064,-0.177 -0.075,-0.173 -0.085,-0.168 -0.096,-0.162 -0.106,-0.156 -0.115,-0.149 -0.125,-0.142 -0.133,-0.133 -0.142,-0.125 -0.149,-0.115 -0.156,-0.106 -0.162,-0.096 -0.168,-0.085 -0.173,-0.075 -0.177,-0.064 -0.181,-0.053 -0.184,-0.041 -0.186,-0.029 -0.188,-0.018 -0.188,-0.006 h -34 l -0.188,0.006 -0.188,0.018 -0.186,0.029 -0.184,0.041 -0.181,0.053 -0.177,0.064 -0.173,0.075 -0.168,0.085 -0.162,0.096 -0.156,0.106 -0.149,0.115 -0.142,0.125 -0.133,0.133 -0.125,0.142 -0.115,0.149 -0.106,0.156 -0.096,0.162 -0.085,0.168 -0.075,0.173 -0.064,0.177 -0.053,0.181 -0.041,0.184 -0.029,0.186 -0.018,0.188 -0.006,0.188 v 3 h -10 l -0.628,0.02 -0.625,0.059 -0.621,0.098 -0.613,0.137 -0.603,0.175 -0.591,0.213 -0.577,0.25 -0.56,0.285 -0.54,0.32 -0.52,0.353 -0.496,0.385 -0.471,0.415 -0.445,0.445 -0.415,0.471 -0.385,0.496 -0.353,0.52 -0.32,0.54 -0.285,0.56 -0.25,0.577 -0.213,0.591 -0.175,0.6031 -0.137,0.6131 -0.098,0.6205 -0.059,0.6254 -0.02,0.6279 V 107.94366 l 0.02,0.6279 0.059,0.6254 0.098,0.6205 0.137,0.6131 0.175,0.6033 0.213,0.591 0.25,0.5766 0.285,0.5597 0.32,0.5405 0.353,0.52 0.385,0.496 0.415,0.471 0.445,0.445 0.471,0.415 0.496,0.385 0.52,0.353 0.54,0.32 0.56,0.285 0.577,0.25 0.591,0.213 0.603,0.175 0.613,0.137 0.621,0.098 0.625,0.059 0.628,0.02 h 10 v 3 l 0.006,0.188 0.018,0.188 0.029,0.186 0.041,0.184 0.053,0.181 0.064,0.177 0.075,0.173 0.085,0.168 0.096,0.162 0.106,0.156 0.115,0.149 0.125,0.142 0.133,0.133 0.142,0.125 0.149,0.115 0.156,0.106 0.162,0.096 0.168,0.085 0.173,0.075 0.177,0.064 0.181,0.053 0.184,0.041 0.186,0.029 0.188,0.018 0.188,0.006 h 34 z m -32.188,-7.994 V -91.056336 h 27 V 115.94366 Z m 38,-4 -0.188,-0.006 -0.188,-0.0178 -0.186,-0.0294 -0.184,-0.0412 -0.181,-0.0525 -0.177,-0.0639 -0.173,-0.0748 -0.168,-0.0856 -0.162,-0.0959 -0.156,-0.106 -0.149,-0.1155 -0.142,-0.1246 -0.133,-0.1333 -0.125,-0.1413 -0.115,-0.1489 -0.106,-0.1559 -0.096,-0.1622 -0.085,-0.168 -0.075,-0.1729 -0.064,-0.1774 -0.053,-0.1809 -0.041,-0.184 -0.029,-0.1861 -0.018,-0.1876 -0.006,-0.1883 V -85.056336 l 0.006,-0.1884 0.018,-0.1876 0.029,-0.1861 0.041,-0.184 0.053,-0.1809 0.064,-0.1774 0.075,-0.1729 0.085,-0.168 0.096,-0.1622 0.106,-0.1559 0.115,-0.1489 0.125,-0.1417 0.133,-0.133 0.142,-0.125 0.149,-0.115 0.156,-0.106 0.162,-0.096 0.168,-0.085 0.173,-0.075 0.177,-0.064 0.181,-0.053 0.184,-0.041 0.186,-0.029 0.188,-0.018 0.188,-0.006 h 4 l 0.188,0.006 0.188,0.018 0.186,0.029 0.184,0.041 0.181,0.053 0.177,0.064 0.173,0.075 0.168,0.085 0.162,0.096 0.156,0.106 0.149,0.115 0.142,0.125 0.133,0.133 0.125,0.1417 0.115,0.1489 0.106,0.1559 0.096,0.1622 0.085,0.168 0.075,0.1729 0.064,0.1774 0.053,0.1809 0.041,0.184 0.029,0.1861 0.018,0.1876 0.006,0.1884 V 108.94366 l -0.006,0.1884 -0.018,0.1876 -0.029,0.1861 -0.041,0.184 -0.053,0.1809 -0.064,0.1774 -0.075,0.1729 -0.085,0.168 -0.096,0.1622 -0.106,0.1559 -0.115,0.1489 -0.125,0.1413 -0.133,0.1333 -0.142,0.1246 -0.149,0.1155 -0.156,0.106 -0.162,0.0959 -0.168,0.0856 -0.173,0.0748 -0.177,0.0639 -0.181,0.0525 -0.184,0.0412 -0.186,0.0294 -0.188,0.0178 -0.188,0.006 z m -73.616,-65.007397 0.627,-0.0438 0.623,-0.0832 0.616,-0.122 0.607,-0.1605 0.596,-0.1983 0.583,-0.2354 0.566,-0.2715 0.549,-0.3065 0.528,-0.3403 0.505,-0.3728 0.482,-0.4038 0.455,-0.4333 0.426,-0.461 0.397,-0.4868 0.366,-0.5108 0.333,-0.5328 0.299,-0.5526 0.263,-0.5703 0.227,-0.5857 0.19,-0.5988 0.152,-0.6096 0.114,-0.6179 0.074,-0.6238 0.035,-0.6272 -0.004,-0.6282 -2.004,-52.081499 -0.049,-0.6263 -0.088,-0.622 -0.127,-0.6152 -0.166,-0.6061 -0.203,-0.5944 -0.24,-0.5806 -0.276,-0.5643 -0.311,-0.5458 -0.344,-0.5252 -0.377,-0.5026 -0.408,-0.4779 -0.437,-0.4514 -0.465,-0.423 -0.49,-0.3931 -0.513,-0.3615 -0.536,-0.3285 -0.555,-0.2943 -0.572,-0.2588 -0.588,-0.2223 -0.6,-0.1851 -0.611,-0.147 -0.619,-0.1083 -28.161,-4.0216 -0.625,-0.0592 -0.628,-0.0197 -5,4e-4 v 23.9995995 h -6 V -29.055436 l -29.258,0.0024 -0.627,0.0359 -0.623,0.0752 -0.618,0.1143 -0.61,0.1528 -0.598,0.1907 -0.586,0.228 -0.569,0.2642 -0.553,0.2996 -0.532,0.3336 -0.5103,0.3663 -30.442204,23.3594995 -0.4628,0.4248 -0.4353,0.4529 -0.406,0.4794 -0.3751,0.504 -0.3427,0.5265 -0.3089,0.54700003 -0.274,0.5653 -0.2379,0.5814 -0.201,0.59519997 -10.1156,33.4131995 -0.1371,0.6131 -0.0982,0.6205 -0.0592,0.6254 -0.0197,0.6279 0.0197,0.6279 0.0592,0.6254 0.0982,0.6205 0.1371,0.6131 0.1752,0.6033 0.2128,0.591 0.2495,0.5766 0.2852,0.5597 0.3198,0.5408 0.3531,0.5195 0.3851,0.4964 0.4154,0.4713 0.4442,0.4442 0.4713,0.4154 0.4964,0.3851 0.5195,0.3531 0.5408,0.3198 0.5597,0.2852 0.5766,0.2495 0.591,0.2128 0.6033,0.1752 0.6131,0.1371 0.6205,0.0982 0.6254,0.0592 0.6279,0.0197 z m -50.572,-66.998499 -0.188,-0.0178 -0.186,-0.0294 -0.184,-0.0411 -0.181,-0.0526 -0.177,-0.0639 -0.173,-0.0748 -0.168,-0.0856 -0.162,-0.0959 -0.156,-0.1059 -0.149,-0.1155 -0.142,-0.1247 -0.133,-0.1333 -0.125,-0.1413 -0.115,-0.1489 -0.106,-0.1559 -0.096,-0.1622 -0.085,-0.168 -0.075,-0.1729 -0.064,-0.1773 -0.053,-0.181 -0.041,-0.184 -0.029,-0.1861 -0.018,-0.1876 -0.006,-0.1884 0.006,-0.1884 0.018,-0.1876 0.029,-0.1861 0.041,-0.184 0.053,-0.1809 0.064,-0.1774 0.075,-0.1729 0.085,-0.168 0.096,-0.1622 0.106,-0.1559 0.115,-0.1489 0.125,-0.1413 0.133,-0.1333 0.142,-0.1246 0.149,-0.1155 0.156,-0.106 0.162,-0.0959 0.168,-0.0856 0.173,-0.0748 0.177,-0.0639 0.181,-0.0525 0.184,-0.0412 0.186,-0.0294 0.188,-0.0178 0.188,-0.0059 0.188,0.0059 0.188,0.0178 0.186,0.0294 0.184,0.0412 0.181,0.0525 0.177,0.0639 0.173,0.0748 0.168,0.0856 0.162,0.0959 0.156,0.106 0.149,0.1155 0.142,0.1246 0.133,0.1333 0.125,0.1413 0.115,0.1489 0.106,0.1559 0.096,0.1622 0.085,0.168 0.075,0.1729 0.064,0.1774 0.053,0.1809 0.041,0.184 0.029,0.1861 0.018,0.1876 0.006,0.1884 -0.006,0.1884 -0.018,0.1876 -0.029,0.1861 -0.041,0.184 -0.053,0.181 -0.064,0.1773 -0.075,0.1729 -0.085,0.168 -0.096,0.1622 -0.106,0.1559 -0.115,0.1489 -0.125,0.1413 -0.133,0.1333 -0.142,0.1247 -0.149,0.1155 -0.156,0.1059 -0.162,0.0959 -0.168,0.0856 -0.173,0.0748 -0.177,0.0639 -0.181,0.0526 -0.184,0.0411 -0.186,0.0294 -0.188,0.0178 -0.188,0.0059 z m -3.312,26.0058995 -0.126,-0.004 -0.125,-0.01183 -0.124,-0.01965 -0.122,-0.02741 -0.121,-0.03506 -0.118,-0.04256 -0.116,-0.04989 -0.112,-0.05704 -0.108,-0.06397 -0.104,-0.07061 -0.099,-0.07701 -0.094,-0.08309 -0.089,-0.08885 -0.083,-0.09424 -0.077,-0.09927 -0.071,-0.10393 -0.064,-0.10814 -0.057,-0.11195 -0.05,-0.11531 -0.042,-0.11821 -0.035,-0.12065 -0.028,-0.12262 -0.019,-0.1241 -0.012,-0.12508 -0.004,-0.12558 V -14.056386 l 0.004,-0.1256 0.012,-0.1251 0.019,-0.1241 0.028,-0.1226 0.035,-0.1206 0.042,-0.1182 0.05,-0.1153 0.057,-0.112 0.064,-0.1081 0.071,-0.104 0.077,-0.0992 0.083,-0.0943 0.089,-0.0888 0.094,-0.0831 0.099,-0.077 0.104,-0.0706 0.108,-0.064 0.112,-0.057 0.116,-0.0499 0.118,-0.0426 0.121,-0.0351 0.122,-0.0274 0.124,-0.0196 0.125,-0.0118 0.126,-0.004 h 7 l 0.126,0.004 0.125,0.0118 0.124,0.0196 0.122,0.0274 0.121,0.0351 0.118,0.0426 0.116,0.0499 0.112,0.057 0.108,0.064 0.104,0.0706 0.099,0.077 0.094,0.0831 0.089,0.0888 0.083,0.0943 0.077,0.0992 0.071,0.104 0.064,0.1081 0.057,0.112 0.05,0.1153 0.042,0.1182 0.035,0.1206 0.028,0.1226 0.019,0.1241 0.012,0.1251 0.004,0.1256 V 3.9436135 l -0.004,0.12558 -0.012,0.12508 -0.019,0.1241 -0.028,0.12262 -0.035,0.12065 -0.042,0.11821 -0.05,0.11531 -0.057,0.11195 -0.064,0.10814 -0.071,0.10393 -0.077,0.09927 -0.083,0.09424 -0.089,0.08885 -0.094,0.08309 -0.099,0.07701 -0.104,0.07061 -0.108,0.06397 -0.112,0.05704 -0.116,0.04989 -0.118,0.04256 -0.121,0.03506 -0.122,0.02741 -0.124,0.01965 -0.125,0.01183 -0.126,0.004 z m 3.312,9.9940805 -0.188,-0.01775 -0.186,-0.02948 -0.184,-0.0411 -0.181,-0.05259 -0.177,-0.06384 -0.173,-0.07484 -0.168,-0.08557 -0.162,-0.09594 -0.156,-0.10592 -0.149,-0.11551 -0.142,-0.12464 -0.133,-0.13327 -0.125,-0.14137 -0.115,-0.14891 -0.106,-0.15588 -0.096,-0.16222 -0.085,-0.16792 -0.075,-0.17296 -0.064,-0.177322 -0.053,-0.180985 -0.041,-0.183929 -0.029,-0.186142 -0.018,-0.187622 -0.006,-0.188385 0.006,-0.18837 0.018,-0.187622 0.029,-0.186142 0.041,-0.183929 0.053,-0.180985 0.064,-0.177327 0.075,-0.17295 0.085,-0.16793 0.096,-0.16221 0.106,-0.15589 0.115,-0.14891 0.125,-0.14137 0.133,-0.13327 0.142,-0.12463 0.149,-0.11551 0.156,-0.10593 0.162,-0.09593 0.168,-0.08557 0.173,-0.07485 0.177,-0.06384 0.181,-0.05258 0.184,-0.04111 0.186,-0.02948 0.188,-0.01774 0.188,-0.0059 0.188,0.0059 0.188,0.01774 0.186,0.02948 0.184,0.04111 0.181,0.05258 0.177,0.06384 0.173,0.07485 0.168,0.08557 0.162,0.09593 0.156,0.10593 0.149,0.11551 0.142,0.12463 0.133,0.13327 0.125,0.14137 0.115,0.14891 0.106,0.15589 0.096,0.16221 0.085,0.16793 0.075,0.17295 0.064,0.177327 0.053,0.180985 0.041,0.183929 0.029,0.186142 0.018,0.187622 0.006,0.188385 -0.006,0.18837 -0.018,0.187622 -0.029,0.186142 -0.041,0.183929 -0.053,0.180985 -0.064,0.177322 -0.075,0.17296 -0.085,0.16792 -0.096,0.16222 -0.106,0.15588 -0.115,0.14891 -0.125,0.14137 -0.133,0.13327 -0.142,0.12464 -0.149,0.11551 -0.156,0.10592 -0.162,0.09594 -0.168,0.08557 -0.173,0.07484 -0.177,0.06384 -0.181,0.05259 -0.184,0.0411 -0.186,0.02948 -0.188,0.01775 -0.188,0.0059 z m -37.3143,9.99012 -0.5004,-0.0473 -0.4963,-0.0786 -0.4905,-0.1096 -0.4826,-0.1403 -0.4729,-0.1702 -0.461204,-0.1996 -0.4478,-0.2281 -0.4326,-0.2559 -0.4157,-0.2825 -0.3971,-0.308 -0.377,-0.3324 -0.3553,-0.3553 -0.3324,-0.377 -0.308,-0.39713 -0.2825,-0.41566 -0.2559,-0.43259 -0.2281,-0.4478 -0.1996,-0.46123 -0.1702,-0.47287 -0.1403,-0.4826 -0.1096,-0.49048 -0.0786,-0.49638 -0.0473,-0.50034 -0.0158,-0.50234 0.0158,-0.50231 0.0473,-0.50034 0.0786,-0.49638 0.1096,-0.49048 0.1403,-0.48261 0.1702,-0.47287 0.1996,-0.46122 0.2281,-0.4478 0.2559,-0.432591 0.2825,-0.415665 0.308,-0.397109 0.3324,-0.376984 0.3553,-0.355378 0.377,-0.332353 0.3971,-0.30803 0.4157,-0.28248 0.4326,-0.25585 0.4478,-0.22815 0.461204,-0.1996 0.4729,-0.17024 0.4826,-0.14021 0.4905,-0.10964 0.4963,-0.07861 0.5004,-0.0473 0.5023,-0.01578 0.5023,0.01578 0.5004,0.0473 0.4964,0.07861 0.4904,0.10964 0.4826,0.14021 0.4729,0.17024 0.4612,0.1996 0.4478,0.22815 0.4326,0.25585 0.4157,0.28248 0.3971,0.30803 0.377,0.332353 0.3554,0.355378 0.3323,0.376984 0.308,0.397109 0.2825,0.415665 0.2559,0.432591 0.2281,0.4478 0.1996,0.46122 0.1703,0.47287 0.1402,0.48261 0.1096,0.49048 0.0786,0.49638 0.0473,0.50034 0.0158,0.50233 -0.0158,0.50232 -0.0473,0.50034 -0.0786,0.49638 -0.1096,0.49048 -0.1402,0.4826 -0.1703,0.47287 -0.1996,0.46123 -0.2281,0.4478 -0.2559,0.43259 -0.2825,0.41566 -0.308,0.39713 -0.3323,0.377 -0.3554,0.3553 -0.377,0.3324 -0.3971,0.308 -0.4157,0.2825 -0.4326,0.2559 -0.4478,0.2281 -0.4612,0.1996 -0.4729,0.1702 -0.4826,0.1403 -0.4904,0.1096 -0.4964,0.0786 -0.5004,0.0473 -0.5023,0.0158 z m 7.5023,12.015799 v -6 H 80.049296 V 25.943664 H 120.0493 v 5.999999 h 20 v 6 z m 50,0 V 25.943664 h 30 V 37.943663 Z M -0.95070433,48.943263 V 24.943664 H 5.0492957 v 23.999099 l 29.2576003,-0.002 0.6272,-0.0359 0.6237,-0.0752 0.6177,-0.1143 0.6094,-0.1528 0.5985,-0.1907 0.5854,-0.228 0.57,-0.2642 0.5522,-0.2996 0.5323,-0.3336 0.5103,-0.3663 30.4422,-23.359499 0.4628,-0.4248 0.4353,-0.45293 0.406,-0.47942 0.3751,-0.50395 0.3427,-0.52652 0.3089,-0.547 0.274,-0.5653 0.2379,-0.58141 0.201,-0.5952 10.1156,-33.41317 0.1371,-0.6131 0.0982,-0.6204 0.0592,-0.6255 0.0197,-0.6279 -0.0197,-0.6279 -0.0592,-0.6254 -0.0982,-0.6205 -0.1371,-0.6131 -0.1752,-0.6032 -0.2128,-0.5911 -0.2495,-0.5766 -0.2852,-0.5597 -0.3198,-0.5407 -0.3531,-0.5196 -0.3851,-0.4964 -0.4154,-0.4712 -0.4442,-0.4443 -0.4713,-0.4154 -0.4964,-0.385 -0.5195,-0.3532 -0.5408,-0.3197 -0.5597,-0.2852 -0.5766,-0.2495 -0.591,-0.2128 -0.6033,-0.1753 -0.6131,-0.137 -0.6205,-0.0983 -0.6254,-0.0591 -0.6279,-0.0198 -110.3843,0.0074 -0.6267,0.0438 -0.6227,0.0832 -0.6162,0.122 -0.6074,0.1605 -0.5961,0.1983 -0.5824,0.2354 -0.5666,0.2715 -0.5483,0.3065 -0.5281,0.3403 -0.5056,0.3728 -0.4812,0.4038 -0.455,0.4333 -0.4268,0.461 -0.397,0.4868 -0.3657,0.5108 -0.3329,0.5328 -0.2987,0.5526 -0.2635,0.5703 -0.2272,0.5857 -0.1899,0.5988 -0.1519,0.6096 -0.1134,0.6179 -0.0744,0.6238 -0.035,0.6272 0.0044,0.6282 2.0035,52.081499 0.0489,0.6263 0.0882,0.622 0.1271,0.6152 0.1654,0.6061 0.2032,0.5944 0.2401,0.5805 0.2761,0.5643 0.311,0.5459 0.3446,0.5252 0.3769,0.5026 0.4078,0.4779 0.4369,0.4514 0.4644,0.423 0.4901,0.3931 0.5138,0.3615 0.5355,0.3285 0.555,0.2942 0.5724,0.2589 0.5876,0.2223 0.6003,0.1851 0.6108,0.1469 0.6188,0.1084 28.1608997,4.0216 0.6254,0.0592 0.6279,0.0193 z M -25.950704,-12.056336 v -6 H 4.0493157 v 6 z m 50,0 v -6 h 30 v 6 z m -13.5,47.999999 -0.12558,-0.004 -0.12508,-0.0118 -0.1241,-0.0196 -0.12262,-0.0274 -0.1206503,-0.0351 -0.11821,-0.0426 -0.11531,-0.0499 -0.11195,-0.057 -0.10814,-0.064 -0.10393,-0.0706 -0.09927,-0.077 -0.09424,-0.0831 -0.08885,-0.0888 -0.08309,-0.0943 -0.07701,-0.0992 -0.07061,-0.104 -0.06397,-0.1081 -0.05704,-0.112 -0.04989,-0.1153 -0.04256,-0.1182 -0.03506,-0.1206 -0.02741,-0.1226 -0.01965,-0.1241 -0.01183,-0.1251 -0.00395,-0.1256 V 15.943644 l 0.00395,-0.12558 0.01183,-0.12507 0.01965,-0.1241 0.02741,-0.12262 0.03506,-0.12065 0.04256,-0.11821 0.04989,-0.11531 0.05704,-0.11196 0.06397,-0.10814 0.07061,-0.10392 0.07701,-0.09928 0.08309,-0.09423 0.08885,-0.08886 0.09424,-0.08308 0.09927,-0.07701 0.10393,-0.07062 0.10814,-0.06396 0.11195,-0.05704 0.11531,-0.0499 0.11821,-0.04255 0.1206503,-0.03507 0.12262,-0.0274 0.1241,-0.01966 0.12508,-0.01181 0.12558,-0.004 6.99998,1.5e-5 0.12558,0.004 0.12508,0.01183 0.1241,0.01965 0.12262,0.02741 0.12065,0.03506 0.11821,0.04256 0.11531,0.04989 0.11196,0.05704 0.10813,0.06397 0.10393,0.07061 0.09928,0.07701 0.09423,0.08309 0.08886,0.08885 0.08308,0.09424 0.07701,0.09927 0.07062,0.10393 0.06396,0.10814 0.05704,0.11195 0.0499,0.11531 0.04255,0.11821 0.03507,0.12065 0.0274,0.12262 0.01966,0.1241 0.01182,0.12508 0.0039,0.12558 v 17.999984 l -0.0039,0.1256 -0.01182,0.1251 -0.01966,0.1241 -0.0274,0.1226 -0.03507,0.1206 -0.04255,0.1182 -0.0499,0.1153 -0.05704,0.112 -0.06396,0.1081 -0.07062,0.104 -0.07701,0.0992 -0.08308,0.0943 -0.08886,0.0888 -0.09423,0.0831 -0.09928,0.077 -0.10393,0.0706 -0.10813,0.064 -0.11196,0.057 -0.11531,0.0499 -0.11821,0.0426 -0.12065,0.0351 -0.12262,0.0274 -0.1241,0.0196 -0.12508,0.0118 -0.12558,0.004 z m 179.884004,88.992997 0.627,-0.044 0.623,-0.083 0.616,-0.122 0.607,-0.161 0.596,-0.198 0.583,-0.236 0.566,-0.271 0.549,-0.307 0.528,-0.34 0.505,-0.373 0.482,-0.404 0.455,-0.433 0.426,-0.461 0.397,-0.487 0.366,-0.51 0.333,-0.533 0.299,-0.553 0.263,-0.57 0.227,-0.586 0.19,-0.599 0.152,-0.609 0.114,-0.618 0.074,-0.624 0.035,-0.627 -0.004,-0.628 -2.004,-52.081797 -0.049,-0.6263 -0.088,-0.622 -0.127,-0.6152 -0.166,-0.6061 -0.203,-0.5944 -0.24,-0.5806 -0.276,-0.5643 -0.311,-0.5458 -0.344,-0.5252 -0.377,-0.5026 -0.408,-0.4779 -0.437,-0.4514 -0.465,-0.423 -0.49,-0.3931 -0.513,-0.3615 -0.536,-0.3285 -0.555,-0.2943 -0.572,-0.2588 -0.588,-0.2223 -0.6,-0.1851 -0.611,-0.147 -0.619,-0.1083 -28.161,-4.0216 -0.625,-0.0592 -0.628,-0.0197 -5,4e-4 v 23.9996 h -6 v -23.9991 l -18,10e-4 v 23.9981 h -6 v -23.9971 l -5.258,4e-4 -0.627,0.0359 -0.623,0.0752 -0.618,0.1143 -0.61,0.1528 -0.598,0.1907 -0.586,0.228 -0.569,0.2642 -0.553,0.2996 -0.532,0.3336 -0.5103,0.3663 -30.442204,23.3595 -0.4628,0.4248 -0.4353,0.4529 -0.406,0.4794 -0.3751,0.504 -0.3427,0.5265 -0.3089,0.547 -0.274,0.5653 -0.2379,0.5814 -0.201,0.5952 -10.1156,33.413197 -0.1371,0.6129 -0.0982,0.621 -0.0592,0.625 -0.0197,0.628 0.0197,0.628 0.0592,0.625 0.0982,0.621 0.1371,0.613 0.1752,0.603 0.2128,0.591 0.2495,0.577 0.2852,0.56 0.3198,0.54 0.3531,0.52 0.3851,0.496 0.4154,0.471 0.4442,0.445 0.4713,0.415 0.4964,0.385 0.5195,0.353 0.5408,0.32 0.5597,0.285 0.5766,0.25 0.591,0.213 0.6033,0.175 0.6131,0.137 0.6205,0.098 0.6254,0.059 0.6279,0.02 z m -53.884,-40.992997 -0.126,-0.004 -0.125,-0.0118 -0.124,-0.0196 -0.122,-0.0274 -0.121,-0.0351 -0.118,-0.0426 -0.116,-0.0499 -0.112,-0.057 -0.108,-0.064 -0.104,-0.0706 -0.099,-0.077 -0.094,-0.0831 -0.089,-0.0888 -0.083,-0.0943 -0.077,-0.0992 -0.071,-0.104 -0.064,-0.1081 -0.057,-0.112 -0.05,-0.1153 -0.042,-0.1182 -0.035,-0.1206 -0.028,-0.1226 -0.019,-0.1241 -0.012,-0.1251 -0.004,-0.1256 v -18 l 0.004,-0.1256 0.012,-0.1251 0.019,-0.1241 0.028,-0.1226 0.035,-0.1206 0.042,-0.1182 0.05,-0.1153 0.057,-0.112 0.064,-0.1081 0.071,-0.104 0.077,-0.0992 0.083,-0.0943 0.089,-0.0888 0.094,-0.0831 0.099,-0.077 0.104,-0.0706 0.108,-0.064 0.112,-0.057 0.116,-0.0499 0.118,-0.0426 0.121,-0.0351 0.122,-0.0274 0.124,-0.0196 0.125,-0.0118 0.126,-0.004 h 7 l 0.126,0.004 0.125,0.0118 0.124,0.0196 0.122,0.0274 0.121,0.0351 0.118,0.0426 0.116,0.0499 0.112,0.057 0.108,0.064 0.104,0.0706 0.099,0.077 0.094,0.0831 0.089,0.0888 0.083,0.0943 0.077,0.0992 0.071,0.104 0.064,0.1081 0.057,0.112 0.05,0.1153 0.042,0.1182 0.035,0.1206 0.028,0.1226 0.019,0.1241 0.012,0.1251 0.004,0.1256 v 18 l -0.004,0.1256 -0.012,0.1251 -0.019,0.1241 -0.028,0.1226 -0.035,0.1206 -0.042,0.1182 -0.05,0.1153 -0.057,0.112 -0.064,0.1081 -0.071,0.104 -0.077,0.0992 -0.083,0.0943 -0.089,0.0888 -0.094,0.0831 -0.099,0.077 -0.104,0.0706 -0.108,0.064 -0.112,0.057 -0.116,0.0499 -0.118,0.0426 -0.121,0.0351 -0.122,0.0274 -0.124,0.0196 -0.125,0.0118 -0.126,0.004 z m -18.094,-2.0029 -0.094,-0.009 -0.093,-0.0148 -0.092,-0.0205 -0.091,-0.0263 -0.088,-0.0319 -0.087,-0.0374 -0.084,-0.0428 -0.081,-0.048 -0.078,-0.053 -0.074,-0.0577 -0.071,-0.0623 -0.066,-0.0667 -0.063,-0.0707 -0.058,-0.0744 -0.052,-0.078 -0.048,-0.0811 -0.043,-0.0839 -0.038,-0.0865 -0.032,-0.0887 -0.026,-0.0905 -0.02,-0.0919 -0.015,-0.0931 -0.009,-0.0938 -0.003,-0.0941 0.003,-0.0942 0.009,-0.0938 0.015,-0.0931 0.02,-0.0919 0.026,-0.0905 0.032,-0.0887 0.038,-0.0865 0.043,-0.0839 0.048,-0.0811 0.052,-0.078 0.058,-0.0744 0.063,-0.0707 0.066,-0.0666 0.071,-0.0624 0.074,-0.0577 0.078,-0.053 0.081,-0.048 0.084,-0.0427 0.087,-0.0375 0.088,-0.0319 0.091,-0.0263 0.092,-0.0205 0.093,-0.0148 0.094,-0.009 0.094,-0.003 0.094,0.003 0.094,0.009 0.093,0.0148 0.092,0.0205 0.091,0.0263 0.088,0.0319 0.087,0.0375 0.084,0.0427 0.081,0.048 0.078,0.053 0.074,0.0577 0.071,0.0624 0.066,0.0666 0.063,0.0707 0.058,0.0744 0.052,0.078 0.048,0.0811 0.043,0.0839 0.038,0.0865 0.032,0.0887 0.026,0.0905 0.02,0.0919 0.015,0.0931 0.009,0.0938 0.003,0.0942 -0.003,0.0942 -0.009,0.0938 -0.015,0.0931 -0.02,0.0919 -0.026,0.0905 -0.032,0.0887 -0.038,0.0865 -0.043,0.0839 -0.048,0.0811 -0.052,0.078 -0.058,0.0744 -0.063,0.0707 -0.066,0.0667 -0.071,0.0623 -0.074,0.0577 -0.078,0.053 -0.081,0.048 -0.084,0.0428 -0.087,0.0374 -0.088,0.0319 -0.091,0.0263 -0.092,0.0205 -0.093,0.0148 -0.094,0.009 -0.094,0.0028 z m -31.000204,0 -0.0938,-0.009 -0.0931,-0.0148 -0.0919,-0.0205 -0.0905,-0.0263 -0.0887,-0.0319 -0.0865,-0.0374 -0.0839,-0.0428 -0.0811,-0.048 -0.078,-0.053 -0.0744,-0.0577 -0.0707,-0.0623 -0.0666,-0.0667 -0.0624,-0.0707 -0.0577,-0.0744 -0.053,-0.078 -0.048,-0.0811 -0.0427,-0.0839 -0.0375,-0.0865 -0.0319,-0.0887 -0.0263,-0.0905 -0.0205,-0.0919 -0.0148,-0.093 -0.0088,-0.0938 -0.003,-0.0942 0.003,-0.0942 0.0088,-0.0938 0.0148,-0.0931 0.0205,-0.0919 0.0263,-0.0905 0.0319,-0.0887 0.0375,-0.0865 0.0427,-0.0839 0.048,-0.0811 0.053,-0.078 0.0577,-0.0744 0.0624,-0.0707 0.0666,-0.0666 0.0707,-0.0624 0.0744,-0.0577 0.078,-0.053 0.0811,-0.048 0.0839,-0.0427 0.0865,-0.0375 0.0887,-0.0319 0.0905,-0.0263 0.0919,-0.0205 0.0931,-0.0148 0.0938,-0.009 0.0942,-0.0028 0.0942,0.003 0.0938,0.009 0.0931,0.0148 0.0919,0.0205 0.0905,0.0263 0.0887,0.0319 0.0865,0.0375 0.0839,0.0427 0.0811,0.048 0.078,0.053 0.0744,0.0577 0.0707,0.0624 0.0667,0.0666 0.0623,0.0707 0.0577,0.0744 0.053,0.078 0.048,0.0811 0.0428,0.0839 0.0374,0.0865 0.0319,0.0887 0.0263,0.0905 0.0205,0.0919 0.0148,0.0931 0.0089,0.0938 0.0029,0.094 -0.0029,0.0942 -0.0089,0.0938 -0.0148,0.0931 -0.0205,0.0919 -0.0263,0.0905 -0.0319,0.0887 -0.0374,0.0865 -0.0428,0.0839 -0.048,0.0811 -0.053,0.078 -0.0577,0.0744 -0.0623,0.0707 -0.0667,0.0667 -0.0707,0.0623 -0.0744,0.0577 -0.078,0.053 -0.0811,0.048 -0.0839,0.0428 -0.0865,0.0374 -0.0887,0.0319 -0.0905,0.0263 -0.0919,0.0205 -0.0931,0.0148 -0.0938,0.009 -0.0942,0.0028 z m 14.903504,24.981197 -0.688,-0.065 -0.6825,-0.1082 -0.6744,-0.1507 -0.663604,-0.1928 -0.6502,-0.2341 -0.6342,-0.2744 -0.6157,-0.3137 -0.5948,-0.3518 -0.5715,-0.3884 -0.5461,-0.4236 -0.5183,-0.457 -0.4886,-0.4886 -0.457,-0.5183 -0.4236,-0.5461 -0.3884,-0.5715 -0.3518,-0.5948 -0.3137,-0.6157 -0.2744,-0.634197 -0.2341,-0.6502 -0.1928,-0.6636 -0.1507,-0.6744 -0.1082,-0.6825 -0.065,-0.688 -0.0217,-0.6907 0.0217,-0.6907 0.065,-0.688 0.1082,-0.6825 0.1507,-0.6744 0.1928,-0.6636 0.2341,-0.6502 0.2744,-0.6342 0.3137,-0.6157 0.3518,-0.5948 0.3884,-0.5715 0.4236,-0.5461 0.457,-0.5183 0.4886,-0.4886 0.5183,-0.457 0.5461,-0.4236 0.5715,-0.3884 0.5948,-0.3518 0.6157,-0.3137 0.6342,-0.2744 0.6502,-0.2341 0.663604,-0.1928 0.6744,-0.1507 0.6825,-0.1082 0.688,-0.065 0.6907,-0.0217 0.6907,0.0217 0.688,0.065 0.6825,0.1082 0.6744,0.1507 0.6636,0.1928 0.6502,0.2341 0.6342,0.2744 0.6157,0.3137 0.5948,0.3518 0.5715,0.3884 0.5461,0.4236 0.5183,0.457 0.4886,0.4886 0.457,0.5183 0.4236,0.5461 0.3884,0.5715 0.3518,0.5948 0.3137,0.6157 0.2744,0.6342 0.2341,0.6502 0.1928,0.6636 0.1507,0.6744 0.1082,0.6825 0.065,0.688 0.0217,0.6907 -0.0217,0.6907 -0.065,0.688 -0.1082,0.6825 -0.1507,0.6744 -0.1928,0.6636 -0.2341,0.6502 -0.2744,0.634197 -0.3137,0.6157 -0.3518,0.5948 -0.3884,0.5715 -0.4236,0.5461 -0.457,0.5183 -0.4886,0.4886 -0.5183,0.457 -0.5461,0.4236 -0.5715,0.3884 -0.5948,0.3518 -0.6157,0.3137 -0.6342,0.2744 -0.6502,0.2341 -0.6636,0.1928 -0.6744,0.1507 -0.6825,0.1082 -0.688,0.065 -0.6907,0.0217 z m 18.0967,-17.481197 -0.094,-0.009 -0.093,-0.0148 -0.092,-0.0205 -0.091,-0.0263 -0.088,-0.0319 -0.087,-0.0374 -0.084,-0.0428 -0.081,-0.048 -0.078,-0.053 -0.074,-0.0577 -0.071,-0.0623 -0.066,-0.0667 -0.063,-0.0707 -0.058,-0.0744 -0.052,-0.078 -0.048,-0.0811 -0.043,-0.0839 -0.038,-0.0865 -0.032,-0.0887 -0.026,-0.0905 -0.02,-0.0919 -0.015,-0.0931 -0.009,-0.0938 -0.003,-0.0941 0.003,-0.0942 0.009,-0.0938 0.015,-0.0931 0.02,-0.0919 0.026,-0.0905 0.032,-0.0887 0.038,-0.0865 0.043,-0.0839 0.048,-0.0811 0.052,-0.078 0.058,-0.0744 0.063,-0.0707 0.066,-0.0666 0.071,-0.0624 0.074,-0.0577 0.078,-0.053 0.081,-0.048 0.084,-0.0427 0.087,-0.0375 0.088,-0.0319 0.091,-0.0263 0.092,-0.0205 0.093,-0.0148 0.094,-0.009 0.094,-0.003 0.094,0.003 0.094,0.009 0.093,0.0148 0.092,0.0205 0.091,0.0263 0.088,0.0319 0.087,0.0375 0.084,0.0427 0.081,0.048 0.078,0.053 0.074,0.0577 0.071,0.0624 0.066,0.0666 0.063,0.0707 0.058,0.0744 0.052,0.078 0.048,0.0811 0.043,0.0839 0.038,0.0865 0.032,0.0887 0.026,0.0905 0.02,0.0919 0.015,0.0931 0.009,0.0938 0.003,0.0942 -0.003,0.0942 -0.009,0.0938 -0.015,0.0931 -0.02,0.0919 -0.026,0.0905 -0.032,0.0887 -0.038,0.0865 -0.043,0.0839 -0.048,0.0811 -0.052,0.078 -0.058,0.0744 -0.063,0.0707 -0.066,0.0667 -0.071,0.0623 -0.074,0.0577 -0.078,0.053 -0.081,0.048 -0.084,0.0428 -0.087,0.0374 -0.088,0.0319 -0.091,0.0263 -0.092,0.0205 -0.093,0.0148 -0.094,0.009 -0.094,0.003 z m -35.000204,0 -0.0938,-0.009 -0.0931,-0.0148 -0.0919,-0.0205 -0.0905,-0.0263 -0.0887,-0.0319 -0.0865,-0.0374 -0.0839,-0.0428 -0.0811,-0.048 -0.078,-0.053 -0.0744,-0.0577 -0.0707,-0.0623 -0.0666,-0.0667 -0.0624,-0.0707 -0.0577,-0.0744 -0.053,-0.078 -0.048,-0.0811 -0.0427,-0.0839 -0.0375,-0.0865 -0.0319,-0.0887 -0.0263,-0.0905 -0.0205,-0.0919 -0.0148,-0.093 -0.0088,-0.0938 -0.003,-0.0942 0.003,-0.0942 0.0088,-0.0938 0.0148,-0.0931 0.0205,-0.0919 0.0263,-0.0905 0.0319,-0.0887 0.0375,-0.0865 0.0427,-0.0839 0.048,-0.0811 0.053,-0.078 0.0577,-0.0744 0.0624,-0.0707 0.0666,-0.0666 0.0707,-0.0624 0.0744,-0.0577 0.078,-0.053 0.0811,-0.048 0.0839,-0.0427 0.0865,-0.0375 0.0887,-0.0319 0.0905,-0.0263 0.0919,-0.0205 0.0931,-0.0148 0.0938,-0.009 0.0942,-0.003 0.0942,0.003 0.0938,0.009 0.0931,0.0148 0.0919,0.0205 0.0905,0.0263 0.0887,0.0319 0.0865,0.0375 0.0839,0.0427 0.0811,0.048 0.078,0.053 0.0744,0.0577 0.0707,0.0624 0.0667,0.0666 0.0623,0.0707 0.0577,0.0744 0.053,0.078 0.048,0.0811 0.0428,0.0839 0.0374,0.0865 0.0319,0.0887 0.0263,0.0905 0.0205,0.0919 0.0148,0.0931 0.0089,0.0938 0.0029,0.0942 -0.0029,0.0942 -0.0089,0.0938 -0.0148,0.0931 -0.0205,0.0919 -0.0263,0.0905 -0.0319,0.0887 -0.0374,0.0865 -0.0428,0.0839 -0.048,0.0811 -0.053,0.078 -0.0577,0.0744 -0.0623,0.0707 -0.0667,0.0667 -0.0707,0.0623 -0.0744,0.0577 -0.078,0.053 -0.0811,0.048 -0.0839,0.0428 -0.0865,0.0374 -0.0887,0.0319 -0.0905,0.0263 -0.0919,0.0205 -0.0931,0.0148 -0.0938,0.009 -0.0942,0.0028 z m 2,23.499897 -0.0938,-0.009 -0.0931,-0.0148 -0.0919,-0.0205 -0.0905,-0.0263 -0.0887,-0.0319 -0.0865,-0.0375 -0.0839,-0.0427 -0.0811,-0.048 -0.078,-0.053 -0.0744,-0.0577 -0.0707,-0.0624 -0.0666,-0.0666 -0.0624,-0.0707 -0.0577,-0.0744 -0.053,-0.078 -0.048,-0.0811 -0.0427,-0.0839 -0.0375,-0.0865 -0.0319,-0.0887 -0.0263,-0.0905 -0.0205,-0.0919 -0.0148,-0.0929 -0.0088,-0.0938 -0.003,-0.0942 0.003,-0.0942 0.0088,-0.0938 0.0148,-0.0931 0.0205,-0.0919 0.0263,-0.0905 0.0319,-0.0887 0.0375,-0.0865 0.0427,-0.0839 0.048,-0.0811 0.053,-0.078 0.0577,-0.0744 0.0624,-0.0707 0.0666,-0.0667 0.0707,-0.0623 0.0744,-0.0577 0.078,-0.053 0.0811,-0.048 0.0839,-0.0428 0.0865,-0.0374 0.0887,-0.0319 0.0905,-0.0263 0.0919,-0.0205 0.0931,-0.0148 0.0938,-0.009 0.0942,-0.003 0.0942,0.003 0.0938,0.009 0.0931,0.0148 0.0919,0.0205 0.0905,0.0263 0.0887,0.0319 0.0865,0.0374 0.0839,0.0428 0.0811,0.048 0.078,0.053 0.0744,0.0577 0.0707,0.0623 0.0667,0.0667 0.0623,0.0707 0.0577,0.0744 0.053,0.078 0.048,0.0811 0.0428,0.0839 0.0374,0.0865 0.0319,0.0887 0.0263,0.0905 0.0205,0.0919 0.0148,0.0931 0.0089,0.0938 0.0029,0.094 -0.0029,0.0942 -0.0089,0.0938 -0.0148,0.0931 -0.0205,0.0919 -0.0263,0.0905 -0.0319,0.0887 -0.0374,0.0865 -0.0428,0.0839 -0.048,0.0811 -0.053,0.078 -0.0577,0.0744 -0.0623,0.0707 -0.0667,0.0666 -0.0707,0.0624 -0.0744,0.0577 -0.078,0.053 -0.0811,0.048 -0.0839,0.0427 -0.0865,0.0375 -0.0887,0.0319 -0.0905,0.0263 -0.0919,0.0205 -0.0931,0.0148 -0.0938,0.009 -0.0942,0.003 z m 12.594204,3.003 v -6 h 30 v 6 z m 50,0 v -6 h 30 v 6 z m -151.00000433,11 v -24 H 5.0492957 v 23.999 l 17.9999803,-0.001 v -23.998 h 6.00002 v 23.997 h 5.2576 l 0.6272,-0.036 0.6237,-0.075 0.6177,-0.115 0.6094,-0.152 0.5985,-0.191 0.5854,-0.228 0.57,-0.264 0.5522,-0.3 0.5323,-0.334 0.5103,-0.366 30.4422,-23.3594 0.4628,-0.4248 0.4353,-0.4529 0.406,-0.4794 0.3751,-0.503997 0.3427,-0.5265 0.3089,-0.547 0.274,-0.5653 0.2379,-0.5814 0.201,-0.5952 10.1156,-33.4132 0.1371,-0.6131 0.0982,-0.6205 0.0592,-0.6254 0.0197,-0.6279 -0.0197,-0.6279 -0.0592,-0.6254 -0.0982,-0.6205 -0.1371,-0.6131 -0.1752,-0.6033 -0.2128,-0.591 -0.2495,-0.5766 -0.2852,-0.5597 -0.3198,-0.5408 -0.3531,-0.5195 -0.3851,-0.4964 -0.4154,-0.4713 -0.4442,-0.4442 -0.4713,-0.4154 -0.4964,-0.3851 -0.5195,-0.3531 -0.5408,-0.3198 -0.5597,-0.2852 -0.5766,-0.2495 -0.591,-0.2128 -0.6033,-0.1752 -0.6131,-0.1371 -0.6205,-0.0982 -0.6254,-0.0592 -0.6279,-0.0197 -110.3843,0.007 -0.6267,0.0438 -0.6227,0.0831 -0.6162,0.1221 -0.6074,0.1605 -0.5961,0.1983 -0.5824,0.2354 -0.5666,0.2714 -0.5483,0.3066 -0.5281,0.3403 -0.5056,0.3728 -0.4812,0.4038 -0.455,0.4333 -0.4268,0.4609 -0.397,0.4869 -0.3657,0.5108 -0.3329,0.5328 -0.2987,0.5526 -0.2635,0.5703 -0.2272,0.5857 -0.1899,0.5988 -0.1519,0.6096 -0.1134,0.6179 -0.0744,0.6238 -0.035,0.6272 0.0044,0.6282 2.0035,52.081697 0.0489,0.626 0.0882,0.622 0.1271,0.615 0.1654,0.606 0.2032,0.595 0.2401,0.58 0.2761,0.565 0.311,0.546 0.3446,0.525 0.3769,0.502 0.4078,0.478 0.4369,0.452 0.4644,0.423 0.4901,0.393 0.5138,0.361 0.5355,0.329 0.555,0.294 0.5724,0.259 0.5876,0.222 0.6003,0.185 0.6108,0.147 0.6188,0.108 28.1608997,4.022 0.6254,0.059 0.6279,0.0204 z M -35.950704,71.943663 v -12 h 29.9999997 v 12 z m 86.2779,19.4773 -0.7192,-0.068 -0.7136,-0.113 -0.705,-0.1576 -0.6938,-0.2016 -0.6797,-0.2447 -0.6631,-0.2869 -0.6437,-0.328 -0.6218,-0.3677 -0.5975,-0.4061 -0.5709,-0.4428 -0.5419,-0.4778 -0.5108,-0.5108 -0.4778,-0.5419 -0.4428,-0.5709 -0.4061,-0.5975 -0.3677,-0.6218 -0.328,-0.6437 -0.2869,-0.6631 -0.2448,-0.6797 -0.2015,-0.6938 -0.1576,-0.705 -0.113,-0.7136 -0.068,-0.7192 -0.0227,-0.7221 0.0227,-0.7221 0.068,-0.7192 0.113,-0.7136 0.1576,-0.705 0.2015,-0.6938 0.2448,-0.6797 0.2869,-0.6631 0.328,-0.6437 0.3677,-0.6218 0.4061,-0.5975 0.4428,-0.5709 0.4778,-0.5419 0.1277,-0.1277 h -8.7446 v -6 h -20 v -6 h 30 v 6 h 30 v 6 h -14.7446 l 0.1277,0.1277 0.4778,0.5419 0.4428,0.5709 0.4061,0.5975 0.3677,0.6218 0.328,0.6437 0.2869,0.6631 0.2447,0.6797 0.2016,0.6938 0.1576,0.705 0.113,0.7136 0.068,0.7192 0.0227,0.7221 -0.0227,0.7221 -0.068,0.7192 -0.113,0.7136 -0.1576,0.705 -0.2016,0.6938 -0.2447,0.6797 -0.2869,0.6631 -0.328,0.6437 -0.3677,0.6218 -0.4061,0.5975 -0.4428,0.5709 -0.4778,0.5419 -0.5108,0.5108 -0.5419,0.4778 -0.5709,0.4428 -0.5975,0.4061 -0.6218,0.3677 -0.6437,0.328 -0.6631,0.2869 -0.6797,0.2447 -0.6938,0.2016 -0.705,0.1576 -0.7136,0.113 -0.7192,0.068 -0.7221,0.0227 z m 16.1279,-25.4802 -0.0938,-0.009 -0.0931,-0.0148 -0.0919,-0.0205 -0.0905,-0.0263 -0.0887,-0.0319 -0.0865,-0.0374 -0.0839,-0.0428 -0.0811,-0.048 -0.078,-0.053 -0.0744,-0.0577 -0.0707,-0.0623 -0.0667,-0.0667 -0.0623,-0.0707 -0.0577,-0.0744 -0.053,-0.078 -0.048,-0.0811 -0.0428,-0.0839 -0.0374,-0.0865 -0.0319,-0.0887 -0.0263,-0.0905 -0.0205,-0.0919 -0.0148,-0.0931 -0.0089,-0.0938 -0.0029,-0.0941 0.0029,-0.0942 0.0089,-0.0938 0.0148,-0.0931 0.0205,-0.0919 0.0263,-0.0905 0.0319,-0.0887 0.0374,-0.0865 0.0428,-0.0839 0.048,-0.0811 0.053,-0.078 0.0577,-0.0744 0.0623,-0.0707 0.0667,-0.0666 0.0707,-0.0624 0.0744,-0.0577 0.078,-0.053 0.0811,-0.048 0.0839,-0.0427 0.0865,-0.0375 0.0887,-0.0319 0.0905,-0.0263 0.0919,-0.0205 0.0931,-0.0148 0.0938,-0.009 0.0942,-0.0028 0.0942,0.003 0.0938,0.009 0.0931,0.0148 0.0919,0.0205 0.0905,0.0263 0.0887,0.0319 0.0865,0.0375 0.0839,0.0427 0.0811,0.048 0.078,0.053 0.0744,0.0577 0.0707,0.0624 0.0666,0.0666 0.0624,0.0707 0.0577,0.0744 0.053,0.078 0.048,0.0811 0.0427,0.0839 0.0375,0.0865 0.0319,0.0887 0.0263,0.0905 0.0205,0.0919 0.0148,0.0931 0.0088,0.0938 0.003,0.0942 -0.003,0.0942 -0.0088,0.0938 -0.0148,0.0931 -0.0205,0.0919 -0.0263,0.0905 -0.0319,0.0887 -0.0375,0.0865 -0.0427,0.0839 -0.048,0.0811 -0.053,0.078 -0.0577,0.0744 -0.0624,0.0707 -0.0666,0.0667 -0.0707,0.0623 -0.0744,0.0577 -0.078,0.053 -0.0811,0.048 -0.0839,0.0428 -0.0865,0.0374 -0.0887,0.0319 -0.0905,0.0263 -0.0919,0.0205 -0.0931,0.0148 -0.0938,0.009 -0.0942,0.0026 z m -52.59417,21.997 -0.187622,-0.0178 -0.186142,-0.0294 -0.183929,-0.0411 -0.180985,-0.0526 -0.177322,-0.0639 -0.17296,-0.0748 -0.16792,-0.0856 -0.16222,-0.0959 -0.15588,-0.1059 -0.14891,-0.1155 -0.14137,-0.1247 -0.13327,-0.1333 -0.12464,-0.1413 -0.11551,-0.1489 -0.10592,-0.1559 -0.09594,-0.1622 -0.08557,-0.168 -0.07483,-0.1729 -0.06384,-0.1773 -0.05258,-0.181 -0.04111,-0.184 -0.02948,-0.1861 -0.01774,-0.1876 -0.0059,-0.1884 0.0059,-0.1884 0.01774,-0.1876 0.02948,-0.1861 0.04111,-0.184 0.05258,-0.1809 0.06384,-0.1774 0.07485,-0.1729 0.08557,-0.168 0.09593,-0.1622 0.10593,-0.1559 0.11551,-0.1489 0.12463,-0.1413 0.13327,-0.1333 0.14137,-0.1246 0.14891,-0.1155 0.15589,-0.106 0.16221,-0.0959 0.16793,-0.0856 0.17296,-0.0748 0.177318,-0.0639 0.180984,-0.0525 0.183929,-0.0412 0.186142,-0.0294 0.187623,-0.0178 0.188354,-0.0059 0.18837,0.006 0.187622,0.0178 0.186142,0.0294 0.183929,0.0412 0.180985,0.0525 0.177322,0.0639 0.17296,0.0748 0.16792,0.0856 0.16222,0.0959 0.15588,0.106 0.14891,0.1155 0.14137,0.1246 0.13327,0.1333 0.12464,0.1413 0.11551,0.1489 0.10592,0.1559 0.09594,0.1622 0.08557,0.168 0.07484,0.1729 0.06384,0.1774 0.05259,0.1809 0.0411,0.184 0.02948,0.1861 0.01775,0.1876 0.0059,0.1883 -0.0059,0.1884 -0.01775,0.1876 -0.02948,0.1861 -0.0411,0.184 -0.05259,0.181 -0.06384,0.1773 -0.07484,0.1729 -0.08557,0.168 -0.09594,0.1622 -0.10592,0.1559 -0.11551,0.1489 -0.12464,0.1413 -0.13327,0.1333 -0.14137,0.1247 -0.14891,0.1155 -0.15588,0.1059 -0.16222,0.0959 -0.16792,0.0856 -0.17296,0.0748 -0.177322,0.0639 -0.180985,0.0526 -0.183929,0.0411 -0.186142,0.0294 -0.187622,0.0178 -0.18837,0.0059 z m 19.59417,1.5029 -0.0938,-0.009 -0.0931,-0.0148 -0.0919,-0.0205 -0.0905,-0.0263 -0.0887,-0.0319 -0.0865,-0.0375 -0.0839,-0.0427 -0.0811,-0.048 -0.078,-0.053 -0.0744,-0.0577 -0.0707,-0.0624 -0.0666,-0.0666 -0.0624,-0.0707 -0.0577,-0.0744 -0.053,-0.078 -0.048,-0.0811 -0.0427,-0.0839 -0.0375,-0.0865 -0.0319,-0.0887 -0.0263,-0.0905 -0.0205,-0.0919 -0.0148,-0.0929 -0.0088,-0.0938 -0.003,-0.0942 0.003,-0.0942 0.0088,-0.0938 0.0148,-0.0931 0.0205,-0.0919 0.0263,-0.0905 0.0319,-0.0887 0.0375,-0.0865 0.0427,-0.0839 0.048,-0.0811 0.053,-0.078 0.0577,-0.0744 0.0624,-0.0707 0.0666,-0.0667 0.0707,-0.0623 0.0744,-0.0577 0.078,-0.053 0.0811,-0.048 0.0839,-0.0428 0.0865,-0.0374 0.0887,-0.0319 0.0905,-0.0263 0.0919,-0.0205 0.0931,-0.0148 0.0938,-0.009 0.0942,-0.003 0.0942,0.003 0.0938,0.009 0.0931,0.0148 0.0919,0.0205 0.0905,0.0263 0.0887,0.0319 0.0865,0.0374 0.0839,0.0428 0.0811,0.048 0.078,0.053 0.0744,0.0577 0.0707,0.0623 0.0667,0.0667 0.0623,0.0707 0.0577,0.0744 0.053,0.078 0.048,0.0811 0.0428,0.0839 0.0374,0.0865 0.0319,0.0887 0.0263,0.0905 0.0205,0.0919 0.0148,0.0931 0.0089,0.0938 0.0029,0.0942 -0.0029,0.0942 -0.0089,0.0938 -0.0148,0.0931 -0.0205,0.0919 -0.0263,0.0905 -0.0319,0.0887 -0.0374,0.0865 -0.0428,0.0839 -0.048,0.0811 -0.053,0.078 -0.0577,0.0744 -0.0623,0.0707 -0.0667,0.0666 -0.0707,0.0624 -0.0744,0.0577 -0.078,0.053 -0.0811,0.048 -0.0839,0.0427 -0.0865,0.0375 -0.0887,0.0319 -0.0905,0.0263 -0.0919,0.0205 -0.0931,0.0148 -0.0938,0.009 -0.0942,0.0028 z m 35,0 -0.0938,-0.009 -0.0931,-0.0148 -0.0919,-0.0205 -0.0905,-0.0263 -0.0887,-0.0319 -0.0865,-0.0375 -0.0839,-0.0427 -0.0811,-0.048 -0.078,-0.053 -0.0744,-0.0577 -0.0707,-0.0624 -0.0667,-0.0666 -0.0623,-0.0707 -0.0577,-0.0744 -0.053,-0.078 -0.048,-0.0811 -0.0428,-0.0839 -0.0374,-0.0865 -0.0319,-0.0887 -0.0263,-0.0905 -0.0205,-0.0919 -0.0148,-0.0931 -0.0089,-0.0938 -0.0029,-0.094 0.0029,-0.0942 0.0089,-0.0938 0.0148,-0.0931 0.0205,-0.0919 0.0263,-0.0905 0.0319,-0.0887 0.0374,-0.0865 0.0428,-0.0839 0.048,-0.0811 0.053,-0.078 0.0577,-0.0744 0.0623,-0.0707 0.0667,-0.0667 0.0707,-0.0623 0.0744,-0.0577 0.078,-0.053 0.0811,-0.048 0.0839,-0.0428 0.0865,-0.0374 0.0887,-0.0319 0.0905,-0.0263 0.0919,-0.0205 0.0931,-0.0148 0.0938,-0.009 0.0942,-0.003 0.0942,0.003 0.0938,0.009 0.0931,0.0148 0.0919,0.0205 0.0905,0.0263 0.0887,0.0319 0.0865,0.0374 0.0839,0.0428 0.0811,0.048 0.078,0.053 0.0744,0.0577 0.0707,0.0623 0.0666,0.0667 0.0624,0.0707 0.0577,0.0744 0.053,0.078 0.048,0.0811 0.0427,0.0839 0.0375,0.0865 0.0319,0.0887 0.0263,0.0905 0.0205,0.0919 0.0148,0.0931 0.0088,0.0938 0.003,0.0942 -0.003,0.0942 -0.0088,0.0938 -0.0148,0.0931 -0.0205,0.0919 -0.0263,0.0905 -0.0319,0.0887 -0.0375,0.0865 -0.0427,0.0839 -0.048,0.0811 -0.053,0.078 -0.0577,0.0744 -0.0624,0.0707 -0.0666,0.0666 -0.0707,0.0624 -0.0744,0.0577 -0.078,0.053 -0.0811,0.048 -0.0839,0.0427 -0.0865,0.0375 -0.0887,0.0319 -0.0905,0.0263 -0.0919,0.0205 -0.0931,0.0148 -0.0938,0.009 -0.0942,0.0028 z m -57.9058,24.502997 -0.12558,-0.004 -0.12508,-0.012 -0.1241,-0.019 -0.12262,-0.028 -0.1206503,-0.035 -0.11821,-0.042 -0.11531,-0.05 -0.11195,-0.057 -0.10814,-0.064 -0.10393,-0.071 -0.09927,-0.077 -0.09424,-0.083 -0.08885,-0.089 -0.08309,-0.094 -0.07701,-0.099 -0.07061,-0.104 -0.06397,-0.1085 -0.05704,-0.112 -0.04989,-0.1153 -0.04256,-0.1182 -0.03506,-0.1206 -0.02741,-0.1226 -0.01965,-0.1241 -0.01183,-0.1251 -0.00395,-0.1256 V 93.943663 l 0.00395,-0.1256 0.01183,-0.1251 0.01965,-0.1241 0.02741,-0.1226 0.03506,-0.1206 0.04256,-0.1182 0.04989,-0.1153 0.05704,-0.112 0.06397,-0.1081 0.07061,-0.104 0.07701,-0.0992 0.08309,-0.0943 0.08885,-0.0888 0.09424,-0.0831 0.09927,-0.077 0.10393,-0.0706 0.10814,-0.064 0.11195,-0.057 0.11531,-0.0499 0.11821,-0.0426 0.1206503,-0.0351 0.12262,-0.0274 0.1241,-0.0196 0.12508,-0.0118 0.12558,-0.004 h 6.99998 l 0.12558,0.004 0.12508,0.0118 0.1241,0.0196 0.12262,0.0274 0.12065,0.0351 0.11821,0.0426 0.11531,0.0499 0.11196,0.057 0.10813,0.064 0.10393,0.0706 0.09928,0.077 0.09423,0.0831 0.08886,0.0888 0.08308,0.0943 0.07701,0.0992 0.07062,0.104 0.06396,0.1081 0.05704,0.112 0.0499,0.1153 0.04255,0.1182 0.03507,0.1206 0.0274,0.1226 0.01966,0.1241 0.01182,0.1251 0.0039,0.1256 v 17.999997 l -0.0039,0.1256 -0.01182,0.1251 -0.01966,0.1241 -0.0274,0.1226 -0.03507,0.1206 -0.04255,0.1182 -0.0499,0.1153 -0.05704,0.112 -0.06396,0.1085 -0.07062,0.104 -0.07701,0.099 -0.08308,0.094 -0.08886,0.089 -0.09423,0.083 -0.09928,0.077 -0.10393,0.071 -0.10813,0.064 -0.11196,0.057 -0.11531,0.05 -0.11821,0.042 -0.12065,0.035 -0.12262,0.028 -0.1241,0.019 -0.12508,0.012 -0.12558,0.004 z m 24.9058,-17.002997 -0.0938,-0.009 -0.0931,-0.0148 -0.0919,-0.0205 -0.0905,-0.0263 -0.0887,-0.0319 -0.0865,-0.0375 -0.0839,-0.0427 -0.0811,-0.048 -0.078,-0.053 -0.0744,-0.0577 -0.0707,-0.0624 -0.0666,-0.0666 -0.0624,-0.0707 -0.0577,-0.0744 -0.053,-0.078 -0.048,-0.0811 -0.0427,-0.0839 -0.0375,-0.0865 -0.0319,-0.0887 -0.0263,-0.0905 -0.0205,-0.0919 -0.0148,-0.0929 -0.0088,-0.0938 -0.003,-0.0942 0.003,-0.0942 0.0088,-0.0938 0.0148,-0.0931 0.0205,-0.0919 0.0263,-0.0905 0.0319,-0.0887 0.0375,-0.0865 0.0427,-0.0839 0.048,-0.0811 0.053,-0.078 0.0577,-0.0744 0.0624,-0.0707 0.0666,-0.0667 0.0707,-0.0623 0.0744,-0.0577 0.078,-0.053 0.0811,-0.048 0.0839,-0.0428 0.0865,-0.0374 0.0887,-0.0319 0.0905,-0.0263 0.0919,-0.0205 0.0931,-0.0148 0.0938,-0.009 0.0942,-0.0028 0.0942,0.003 0.0938,0.009 0.0931,0.0148 0.0919,0.0205 0.0905,0.0263 0.0887,0.0319 0.0865,0.0374 0.0839,0.0428 0.0811,0.048 0.078,0.053 0.0744,0.0577 0.0707,0.0623 0.0667,0.0667 0.0623,0.0707 0.0577,0.0744 0.053,0.078 0.048,0.0811 0.0428,0.0839 0.0374,0.0865 0.0319,0.0887 0.0263,0.0905 0.0205,0.0919 0.0148,0.0931 0.0089,0.0938 0.0029,0.094 -0.0029,0.0942 -0.0089,0.0938 -0.0148,0.0931 -0.0205,0.0919 -0.0263,0.0905 -0.0319,0.0887 -0.0374,0.0865 -0.0428,0.0839 -0.048,0.0811 -0.053,0.078 -0.0577,0.0744 -0.0623,0.0707 -0.0667,0.0666 -0.0707,0.0624 -0.0744,0.0577 -0.078,0.053 -0.0811,0.048 -0.0839,0.0427 -0.0865,0.0375 -0.0887,0.0319 -0.0905,0.0263 -0.0919,0.0205 -0.0931,0.0148 -0.0938,0.009 -0.0942,0.0028 z m 31,0 -0.0938,-0.009 -0.0931,-0.0148 -0.0919,-0.0205 -0.0905,-0.0263 -0.0887,-0.0319 -0.0865,-0.0375 -0.0839,-0.0427 -0.0811,-0.048 -0.078,-0.053 -0.0744,-0.0577 -0.0707,-0.0624 -0.0667,-0.0666 -0.0623,-0.0707 -0.0577,-0.0744 -0.053,-0.078 -0.048,-0.0811 -0.0428,-0.0839 -0.0374,-0.0865 -0.0319,-0.0887 -0.0263,-0.0905 -0.0205,-0.0919 -0.0148,-0.0931 -0.0089,-0.0938 -0.0029,-0.094 0.0029,-0.0942 0.0089,-0.0938 0.0148,-0.0931 0.0205,-0.0919 0.0263,-0.0905 0.0319,-0.0887 0.0374,-0.0865 0.0428,-0.0839 0.048,-0.0811 0.053,-0.078 0.0577,-0.0744 0.0623,-0.0707 0.0667,-0.0667 0.0707,-0.0623 0.0744,-0.0577 0.078,-0.053 0.0811,-0.048 0.0839,-0.0428 0.0865,-0.0374 0.0887,-0.0319 0.0905,-0.0263 0.0919,-0.0205 0.0931,-0.0148 0.0938,-0.009 0.0942,-0.0028 0.0942,0.003 0.0938,0.009 0.0931,0.0148 0.0919,0.0205 0.0905,0.0263 0.0887,0.0319 0.0865,0.0374 0.0839,0.0428 0.0811,0.048 0.078,0.053 0.0744,0.0577 0.0707,0.0623 0.0666,0.0667 0.0624,0.0707 0.0577,0.0744 0.053,0.078 0.048,0.0811 0.0427,0.0839 0.0375,0.0865 0.0319,0.0887 0.0263,0.0905 0.0205,0.0919 0.0148,0.0931 0.0088,0.0938 0.003,0.0942 -0.003,0.0942 -0.0088,0.0938 -0.0148,0.0931 -0.0205,0.0919 -0.0263,0.0905 -0.0319,0.0887 -0.0375,0.0865 -0.0427,0.0839 -0.048,0.0811 -0.053,0.078 -0.0577,0.0744 -0.0624,0.0707 -0.0666,0.0666 -0.0707,0.0624 -0.0744,0.0577 -0.078,0.053 -0.0811,0.048 -0.0839,0.0427 -0.0865,0.0375 -0.0887,0.0319 -0.0905,0.0263 -0.0919,0.0205 -0.0931,0.0148 -0.0938,0.009 -0.0942,0.0026 z m -52.59417,26.996997 -0.187622,-0.018 -0.186142,-0.029 -0.183929,-0.041 -0.180985,-0.053 -0.177322,-0.064 -0.17296,-0.075 -0.16792,-0.085 -0.16222,-0.096 -0.15588,-0.106 -0.14891,-0.115 -0.14137,-0.125 -0.13327,-0.133 -0.12464,-0.142 -0.11551,-0.149 -0.10592,-0.156 -0.09594,-0.162 -0.08557,-0.168 -0.07484,-0.173 -0.06384,-0.177 -0.05259,-0.181 -0.0411,-0.184 -0.02948,-0.186 -0.01775,-0.188 -0.0059,-0.188 0.0059,-0.188 0.01775,-0.188 0.02948,-0.186 0.0411,-0.184 0.05259,-0.181 0.06384,-0.177 0.07484,-0.173 0.08557,-0.168 0.09594,-0.162 0.10592,-0.156 0.11551,-0.149 0.12464,-0.142 0.13327,-0.133 0.14137,-0.125 0.14891,-0.115 0.15588,-0.106 0.16222,-0.096 0.16792,-0.085 0.17296,-0.075 0.177322,-0.064 0.180985,-0.053 0.183929,-0.041 0.186142,-0.029 0.187622,-0.018 0.18837,-0.006 0.188354,0.006 0.187623,0.018 0.186142,0.029 0.183929,0.041 0.180984,0.053 0.177318,0.064 0.17296,0.075 0.16793,0.085 0.16221,0.096 0.15589,0.106 0.14891,0.115 0.14137,0.125 0.13327,0.133 0.12463,0.142 0.11551,0.149 0.10593,0.156 0.09593,0.162 0.08557,0.168 0.07485,0.173 0.06384,0.177 0.05258,0.181 0.04111,0.184 0.02948,0.186 0.01774,0.188 0.0059,0.188 -0.0059,0.188 -0.01774,0.188 -0.02948,0.186 -0.04111,0.184 -0.05258,0.181 -0.06384,0.177 -0.07485,0.173 -0.08557,0.168 -0.09593,0.162 -0.10593,0.156 -0.11551,0.149 -0.12463,0.142 -0.13327,0.133 -0.14137,0.125 -0.14891,0.115 -0.15589,0.106 -0.16221,0.096 -0.16793,0.085 -0.17296,0.075 -0.177318,0.064 -0.180984,0.053 -0.183929,0.041 -0.186142,0.029 -0.187623,0.018 -0.188354,0.006 z"
     id="path4"
     inkscape:connector-curvature="0"
     style="fill:#d3d3d3;stroke:#000000;stroke-width:0.5" />
</svg>
